<svg width="52" height="52" viewBox="0 0 52 52" fill="none" xmlns="http://www.w3.org/2000/svg">
<path d="M21.8241 34.715L21.8208 34.7119L14.1793 27.4343C14.179 27.434 14.1787 27.4337 14.1784 27.4334C14.127 27.3836 14.0859 27.3242 14.0574 27.2586C14.0287 27.1926 14.0133 27.1216 14.012 27.0496C14.0107 26.9776 14.0237 26.9061 14.05 26.8392C14.0764 26.7722 14.1157 26.7111 14.1657 26.6593C14.2157 26.6075 14.2754 26.5661 14.3414 26.5374C14.4074 26.5087 14.4784 26.4932 14.5504 26.492C14.6224 26.4907 14.6939 26.5036 14.7608 26.53C14.8278 26.5564 14.8889 26.5957 14.9407 26.6457L14.942 26.647L21.832 33.251L22.1774 33.582L22.5234 33.2515L37.0533 19.3714C37.0538 19.3709 37.0544 19.3703 37.055 19.3698C37.1621 19.2706 37.3035 19.2166 37.4495 19.2192C37.5935 19.2217 37.7311 19.2791 37.8342 19.3794C37.9308 19.486 37.9833 19.6254 37.9808 19.7695C37.9783 19.9147 37.92 20.0534 37.8181 20.1568L22.5671 34.7063C22.4584 34.8019 22.3196 34.8562 22.1748 34.8599C22.0438 34.8582 21.9183 34.8064 21.8241 34.715ZM50.42 26.0005V26C50.42 21.1702 48.9878 16.4488 46.3045 12.433C43.6212 8.41712 39.8073 5.28715 35.3451 3.43886C30.883 1.59057 25.9729 1.10697 21.2359 2.04922C16.4989 2.99147 12.1477 5.31725 8.73246 8.73245C5.31726 12.1476 2.99149 16.4989 2.04923 21.2359C1.10698 25.9729 1.59058 30.8829 3.43887 35.3451C5.28716 39.8073 8.41714 43.6212 12.433 46.3045C16.4488 48.9878 21.1702 50.42 26 50.42H26.0005C32.4748 50.413 38.6819 47.8379 43.2599 43.2599C47.838 38.6819 50.413 32.4748 50.42 26.0005ZM51.5 26C51.5 31.0434 50.0044 35.9736 47.2025 40.167C44.4005 44.3605 40.4179 47.6289 35.7584 49.5589C31.0989 51.4889 25.9717 51.9939 21.0252 51.01C16.0787 50.0261 11.535 47.5975 7.96879 44.0312C4.40255 40.465 1.97391 35.9213 0.989987 30.9748C0.00606416 26.0283 0.511049 20.9011 2.44108 16.2416C4.37112 11.5821 7.63952 7.5995 11.833 4.79752C16.0263 1.99564 20.9563 0.5001 25.9995 0.5C32.7585 0.513607 39.2367 3.20462 44.016 7.98395C48.7953 12.7632 51.4863 19.2412 51.5 26Z" fill="#5A41DC" stroke="#5956E8"/>
</svg>
