<svg width="59" height="52" viewBox="0 0 59 52" fill="none" xmlns="http://www.w3.org/2000/svg">
<path d="M29.5 52C29.2164 51.9956 28.9387 51.9194 28.6929 51.7788C28.3868 51.6405 21.4849 47.7414 14.4717 41.4917C4.87029 32.8915 4.31207e-06 24.3467 4.31207e-06 16.0507C-0.00251983 12.6183 1.10318 9.27562 3.15458 6.51403C5.20597 3.75245 8.09485 1.71761 11.3966 0.708633C14.6983 -0.300347 18.2387 -0.230249 21.4973 0.908626C24.7559 2.0475 27.5609 4.19507 29.5 7.03567C31.439 4.19507 34.2441 2.0475 37.5027 0.908626C40.7613 -0.230249 44.3017 -0.300347 47.6034 0.708633C50.9051 1.71761 53.794 3.75245 55.8454 6.51403C57.8968 9.27562 59.0025 12.6183 59 16.0507C59 24.3467 54.1297 32.8915 44.5283 41.4917C37.5151 47.7414 30.6132 51.6405 30.3071 51.7788C30.0613 51.9194 29.7836 51.9956 29.5 52ZM16.1415 3.33012C12.7462 3.33012 9.49003 4.67032 7.08921 7.05588C4.68839 9.44144 3.33963 12.677 3.33963 16.0507C3.33963 31.896 24.9915 45.7227 29.5 48.4051C34.0085 45.7227 55.6604 31.896 55.6604 16.0507C55.6669 13.1052 54.6444 10.2488 52.7676 7.96893C50.8908 5.68905 48.2759 4.12699 45.3692 3.54934C42.4624 2.97169 39.4441 3.41425 36.8291 4.80149C34.2142 6.18873 32.1648 8.43467 31.0307 11.156C30.9109 11.4626 30.7006 11.7261 30.4274 11.9119C30.1543 12.0976 29.831 12.197 29.5 12.197C29.169 12.197 28.8457 12.0976 28.5726 11.9119C28.2994 11.7261 28.0891 11.4626 27.9693 11.156C26.9962 8.83657 25.3535 6.85548 23.2485 5.4627C21.1435 4.06991 18.6705 3.32785 16.1415 3.33012Z" fill="#5956E8"/>
</svg>
