<svg width="58" height="58" viewBox="0 0 58 58" fill="none" xmlns="http://www.w3.org/2000/svg">
<path d="M48.092 9.908L37.484 20.516M48.092 9.908C43.0285 4.84452 36.1608 2 29 2C21.8392 2 14.9715 4.84452 9.908 9.908M48.092 9.908C53.1555 14.9715 56 21.8392 56 29C56 32.5457 55.3016 36.0567 53.9447 39.3325C52.5879 42.6082 50.5992 45.5848 48.092 48.092M37.484 20.516C35.2336 18.2656 32.1826 17 29 17C25.8174 17 22.7664 18.2656 20.516 20.516M37.484 20.516C39.7344 22.7664 41 25.8174 41 29C41 32.1826 39.7344 35.2336 37.484 37.484M37.484 37.484L48.092 48.092M37.484 37.484C35.2336 39.7344 32.1826 41 29 41C25.8174 41 22.7664 39.7344 20.516 37.484M48.092 48.092C45.5848 50.5992 42.6082 52.5879 39.3325 53.9447C36.0567 55.3016 32.5457 56 29 56C25.4543 56 21.9433 55.3016 18.6675 53.9447C15.3918 52.5879 12.4152 50.5992 9.908 48.092M20.516 20.516L9.908 9.908M20.516 20.516C18.2656 22.7664 17 25.8174 17 29C17 32.1826 18.2656 35.2336 20.516 37.484M9.908 9.908C4.84452 14.9715 2 21.8392 2 29C2 32.5457 2.69838 36.0567 4.05525 39.3325C5.41213 42.6082 7.40082 45.5848 9.908 48.092M20.516 37.484L9.908 48.092" stroke="#5956E8" stroke-width="3" stroke-linecap="round" stroke-linejoin="round"/>
</svg>
