<svg width="40" height="40" viewBox="0 0 40 40" fill="none" xmlns="http://www.w3.org/2000/svg">
<path d="M27.5976 15.8549L17.4617 25.5246L12.4024 20.6897M7.30852 32.6905C5.71993 31.1019 6.77324 27.7693 5.96167 25.8181C5.15011 23.8669 2.04199 22.1574 2.04199 19.999C2.04199 17.8406 5.11557 16.2002 5.96167 14.1799C6.80777 12.1597 5.71993 8.89614 7.30852 7.30755C8.89712 5.71895 12.2297 6.77226 14.1809 5.9607C16.1321 5.14913 17.8416 2.04102 20 2.04102C22.1584 2.04102 23.7988 5.1146 25.8191 5.9607C27.8394 6.80679 31.1029 5.71895 32.6915 7.30755C34.2801 8.89614 33.2268 12.2287 34.0383 14.1799C34.8499 16.1311 37.958 17.8406 37.958 19.999C37.958 22.1574 34.8844 23.7978 34.0383 25.8181C33.1922 27.8384 34.2801 31.1019 32.6915 32.6905C31.1029 34.2791 27.7703 33.2258 25.8191 34.0374C23.8679 34.8489 22.1584 37.957 20 37.957C17.8416 37.957 16.2012 34.8835 14.1809 34.0374C12.1606 33.1913 8.89712 34.2791 7.30852 32.6905Z" stroke="#A72D13" stroke-width="2.2" stroke-linecap="round" stroke-linejoin="round"/>
</svg>
