<svg width="34" height="33" viewBox="0 0 34 33" fill="none" xmlns="http://www.w3.org/2000/svg">
<path d="M11.5361 10.625H22.5361" stroke="#279B41" stroke-width="2" stroke-linecap="round" stroke-linejoin="round"/>
<path d="M11.5361 16.125H22.5361" stroke="#279B41" stroke-width="2" stroke-linecap="round" stroke-linejoin="round"/>
<path d="M11.5361 21.625H17.0361" stroke="#279B41" stroke-width="2" stroke-linecap="round" stroke-linejoin="round"/>
<path d="M21.9689 31.25H3.28613C2.92146 31.25 2.57172 31.1051 2.31386 30.8473C2.056 30.5894 1.91113 30.2397 1.91113 29.875V2.375C1.91113 2.01033 2.056 1.66059 2.31386 1.40273C2.57172 1.14487 2.92146 1 3.28613 1H30.7861C31.1508 1 31.5005 1.14487 31.7584 1.40273C32.0163 1.66059 32.1611 2.01033 32.1611 2.375V21.0578C32.1618 21.2364 32.1272 21.4133 32.0593 21.5784C31.9915 21.7436 31.8918 21.8937 31.7658 22.0203L22.9314 30.8547C22.8049 30.9806 22.6547 31.0804 22.4896 31.1482C22.3244 31.216 22.1475 31.2506 21.9689 31.25V31.25Z" stroke="#279B41" stroke-width="2" stroke-linecap="round" stroke-linejoin="round"/>
<path d="M32.0408 21.625H22.5361V31.1297" stroke="#279B41" stroke-width="2" stroke-linecap="round" stroke-linejoin="round"/>
</svg>
