<svg width="255" height="260" viewBox="0 0 255 260" fill="none" xmlns="http://www.w3.org/2000/svg">
<g opacity="0.3">
<path d="M48.8287 166.486C48.4789 164.371 45.7741 160.398 45.7741 160.392C45.7741 160.387 43.6854 162.972 43.5862 163.155C42.3069 165.243 41.0694 170.016 42.8552 172.094C43.1625 172.431 43.5376 172.699 43.9558 172.881C44.374 173.063 44.8259 173.154 45.2819 173.149C45.7379 173.144 46.1877 173.043 46.6019 172.852C47.016 172.661 47.3852 172.385 47.6852 172.042C49.0062 170.663 49.1263 168.287 48.8287 166.486Z" fill="black"/>
<path d="M59.6008 157.515C58.7444 155.646 55.3661 152.722 55.0945 152.492C56.7611 150.563 58.2979 148.526 59.6948 146.393C60.5198 145.156 61.3083 143.882 62.0863 142.597C61.82 143.234 61.5641 143.808 61.5641 143.892C60.8853 146.242 60.9532 151.202 63.2246 152.711C63.6086 152.955 64.0398 153.116 64.4899 153.182C64.9401 153.248 65.3991 153.219 65.8371 153.095C66.2751 152.972 66.6822 152.758 67.0319 152.467C67.3816 152.176 67.666 151.814 67.8666 151.406C68.7803 149.704 68.2686 147.38 67.5063 145.72C66.7439 144.059 63.9034 141.49 63.141 140.827C63.4387 140.305 63.7363 139.835 64.0287 139.339C65.4229 136.953 66.8066 134.561 68.2373 132.264C68.7595 131.449 69.2816 130.671 69.8038 129.888C69.5636 130.457 69.3704 130.932 69.3495 131.016C68.6655 133.36 68.7334 138.3 71.0048 139.83C71.3887 140.073 71.8195 140.233 72.2692 140.299C72.719 140.365 73.1776 140.336 73.6153 140.213C74.053 140.091 74.4601 139.877 74.8101 139.587C75.16 139.297 75.4451 138.937 75.6468 138.529C76.5605 136.822 76.0488 134.498 75.2865 132.838C74.5241 131.177 71.9551 128.859 71.057 128.065C71.6209 127.282 72.1796 126.499 72.7592 125.757C73.1613 125.235 73.5216 124.76 73.955 124.285L75.2081 122.87C76.0332 121.998 76.8843 121.089 77.7145 120.259C78.2837 119.679 78.8424 119.136 79.4011 118.583C78.8789 119.387 77.9234 120.98 77.8346 121.121C76.7903 123.34 76.1271 128.227 78.1375 130.086C78.4803 130.385 78.8823 130.609 79.3172 130.742C79.7522 130.876 80.2103 130.916 80.6619 130.861C81.1135 130.806 81.5485 130.656 81.9385 130.422C82.3285 130.188 82.6648 129.874 82.9257 129.501C84.0849 127.935 83.9334 125.58 83.4478 123.825C82.8943 121.893 80.1269 118.604 79.7927 118.207C80.7169 117.304 81.6307 116.426 82.5027 115.596C83.1502 114.996 83.7716 114.427 84.3773 113.884L83.4478 112.453C82.7847 113.074 82.1006 113.727 81.3853 114.421C80.4402 115.34 79.4481 116.338 78.4351 117.372C77.3075 116.576 76.1341 115.847 74.921 115.189C75.4431 113.189 74.9679 109.21 74.921 108.698C76.195 108.453 77.4325 108.229 78.6074 108.035L80.4089 107.748L79.4272 106.234L78.3254 106.438C77.0305 106.678 75.652 106.96 74.2421 107.273C74.049 106.782 72.472 102.782 71.0309 101.373C69.7255 100.098 67.7047 98.8401 65.8093 99.1273C65.3577 99.1805 64.9224 99.328 64.5316 99.5603C64.1408 99.7927 63.8032 100.105 63.5407 100.476C63.2783 100.847 63.0968 101.269 63.0082 101.715C62.9195 102.161 62.9257 102.621 63.0262 103.064C63.7102 105.717 68.3365 107.435 70.7802 107.581C70.9212 107.581 72.4929 107.508 73.485 107.445C72.9106 107.571 72.3467 107.691 71.7567 107.826C70.5818 108.093 69.4226 108.396 68.1694 108.714L66.3575 109.236C65.7466 109.403 65.1252 109.654 64.4986 109.863C63.0627 110.385 61.6372 110.959 60.2065 111.581C59.9715 110.536 59.0786 106.923 57.9769 105.461C56.8751 103.999 55.0737 102.448 53.1364 102.448C52.6819 102.432 52.2291 102.512 51.8074 102.683C51.3858 102.854 51.0048 103.111 50.6891 103.439C50.3735 103.766 50.1302 104.156 49.9752 104.584C49.8202 105.011 49.7569 105.467 49.7894 105.921C50.0661 108.641 54.3792 111.043 56.7707 111.555C56.9169 111.586 58.6766 111.764 59.6426 111.842C58.7862 112.223 57.9299 112.599 57.0788 113.017C54.6194 114.212 52.1652 115.497 49.7111 116.771L47.4553 117.92C47.377 117.554 46.411 113.22 45.1735 111.576C44.0718 110.119 42.2703 108.568 40.3331 108.563C39.8787 108.547 39.4261 108.627 39.0047 108.797C38.5833 108.968 38.2026 109.226 37.8874 109.553C37.5721 109.881 37.3294 110.271 37.175 110.699C37.0206 111.126 36.958 111.582 36.9913 112.035C37.2628 114.756 41.5758 117.157 43.9673 117.669C44.1449 117.711 46.6721 117.962 47.3196 117.993C45.6591 118.834 44.0039 119.659 42.333 120.405C40.0837 121.424 37.771 122.296 35.4091 123.016C35.3726 122.844 34.3648 118.317 33.1168 116.63C32.0203 115.173 30.2136 113.617 28.2816 113.617C27.8271 113.6 27.374 113.679 26.952 113.848C26.53 114.018 26.1486 114.275 25.8326 114.602C25.5167 114.929 25.2734 115.32 25.1187 115.747C24.9639 116.175 24.9012 116.631 24.9346 117.084C25.2061 119.81 29.5192 122.212 31.9106 122.724C32.0986 122.765 34.8191 123.032 35.3151 123.047C35.1741 123.084 35.0384 123.141 34.9026 123.183C32.5104 123.842 30.0638 124.284 27.5924 124.504C26.2348 124.645 24.9242 124.703 23.6501 124.734C23.5509 123.872 23.06 119.93 22.0836 118.291C21.1072 116.651 19.5302 114.98 17.6087 114.766C17.1588 114.7 16.7 114.729 16.2621 114.852C15.8242 114.974 15.4171 115.188 15.0674 115.479C14.7176 115.769 14.433 116.131 14.2321 116.539C14.0312 116.947 13.9185 117.392 13.9014 117.847C13.87 120.583 17.8959 123.444 20.2143 124.217C20.3396 124.259 21.6711 124.546 22.6423 124.739C22.0679 124.739 21.4727 124.739 20.9192 124.739C18.8305 124.739 16.956 124.572 15.2799 124.426C14.3295 124.337 13.468 124.238 12.6691 124.139C12.1469 123.34 9.9225 120.155 8.33513 119.168C6.74777 118.181 4.54425 117.408 2.73758 118.123C2.3077 118.272 1.91394 118.509 1.58198 118.82C1.25001 119.131 0.987285 119.509 0.810918 119.928C0.634551 120.347 0.548503 120.799 0.558381 121.254C0.568259 121.708 0.673841 122.156 0.868247 122.567C2.10054 125.006 6.99318 125.7 9.40556 125.308C9.61442 125.272 12.8205 124.384 12.7944 124.342L12.763 124.295C13.5306 124.41 14.3609 124.52 15.2694 124.624C16.9455 124.807 18.841 124.995 20.9192 125.063C23.1559 125.159 25.3963 125.124 27.6289 124.959C30.1327 124.789 32.616 124.394 35.0488 123.778L35.1376 123.752C34.4536 124.181 32.5947 125.428 32.4589 125.543C30.6 127.11 27.9318 131.287 28.9761 133.809C29.1625 134.224 29.4341 134.596 29.7732 134.899C30.1123 135.203 30.5115 135.431 30.9447 135.571C31.3779 135.71 31.8356 135.757 32.2881 135.708C32.7405 135.659 33.1777 135.516 33.5711 135.287C35.2681 134.368 36.1245 132.154 36.4064 130.342C36.7197 128.306 35.5136 124.008 35.4143 123.669C37.875 122.983 40.2874 122.136 42.6358 121.131C44.0039 120.551 45.3667 119.925 46.7295 119.283C46.1499 119.669 45.6382 120.019 45.5704 120.076C43.7115 121.643 41.0432 125.82 42.0875 128.342C42.2713 128.754 42.5393 129.124 42.8742 129.426C43.2091 129.729 43.6037 129.958 44.0324 130.099C44.4612 130.24 44.9147 130.29 45.3639 130.246C45.8131 130.201 46.2481 130.063 46.6408 129.841C48.343 128.927 49.1994 126.708 49.4813 124.901C49.7633 123.094 48.8077 119.382 48.5414 118.411C49.0636 118.16 49.5858 117.915 50.1079 117.659C52.5934 116.437 55.0632 115.21 57.5278 114.077C58.3946 113.68 59.2666 113.32 60.1386 112.954C59.6164 113.299 59.1987 113.591 59.1361 113.643C57.2772 115.21 54.6089 119.387 55.6533 121.909C55.839 122.325 56.1102 122.697 56.4493 123.001C56.7883 123.305 57.1876 123.534 57.6211 123.673C58.0545 123.813 58.5125 123.859 58.9652 123.81C59.4178 123.76 59.855 123.616 60.2483 123.387C61.9453 122.468 62.8016 120.254 63.0836 118.442C63.3656 116.63 62.504 113.288 62.1907 112.129C63.094 111.784 63.9921 111.435 64.8798 111.142C65.4907 110.954 66.0651 110.73 66.6917 110.573L68.5193 110.082C69.6889 109.811 70.8951 109.523 72.0439 109.289C72.8428 109.121 73.6103 108.975 74.3779 108.824C73.5111 109.21 71.8245 110.004 71.694 110.087C69.9054 111.282 68.4542 112.916 67.4802 114.834C67.2749 114.959 67.081 115.103 66.9006 115.262C66.5534 115.556 66.2719 115.919 66.0744 116.329C65.8768 116.738 65.7676 117.185 65.7538 117.639C65.74 118.094 65.822 118.546 65.9944 118.967C66.1667 119.388 66.4257 119.767 66.7544 120.082C68.7856 121.914 73.5947 120.792 75.7094 119.559C75.8347 119.486 77.0984 118.552 77.892 117.951C77.4795 118.374 77.0775 118.781 76.6598 119.225C75.8295 120.097 75.0254 120.99 74.1586 121.946L72.9367 123.392C72.519 123.862 72.1431 124.436 71.7358 124.959C70.822 126.175 69.95 127.454 69.125 128.765C68.3626 128.039 65.6161 125.502 63.9034 124.891C62.1907 124.28 59.8201 123.982 58.2066 125.042C57.8182 125.279 57.4842 125.595 57.2262 125.97C56.9682 126.345 56.792 126.769 56.7093 127.217C56.6265 127.664 56.6389 128.124 56.7458 128.566C56.8526 129.008 57.0515 129.423 57.3294 129.783C59.0577 131.908 63.9817 131.527 66.2583 130.64C66.3993 130.582 67.9606 129.762 68.8117 129.292C68.2895 130.081 67.8039 130.859 67.3235 131.684C65.9294 134.039 64.5926 136.462 63.2507 138.879C62.8382 139.621 62.4204 140.352 62.0027 141.083C61.7364 140.822 58.5356 137.736 56.5984 137.052C54.8752 136.441 52.5151 136.143 50.9016 137.208C50.5132 137.445 50.1791 137.761 49.9211 138.136C49.6631 138.511 49.487 138.936 49.4042 139.383C49.3215 139.83 49.3339 140.29 49.4408 140.732C49.5476 141.175 49.7465 141.589 50.0244 141.95C51.7527 144.07 56.6767 143.688 58.9533 142.801C59.1256 142.733 61.3709 141.548 61.9244 141.234C61.0106 142.853 60.0812 144.456 59.0995 146.002C57.7868 148.092 56.3391 150.094 54.7656 151.996C54.6403 151.876 51.3141 148.638 49.3351 147.939C47.612 147.328 45.2518 147.03 43.6384 148.09C43.25 148.327 42.9159 148.643 42.6579 149.018C42.3999 149.393 42.2238 149.818 42.141 150.265C42.0582 150.712 42.0707 151.172 42.1775 151.614C42.2844 152.056 42.4832 152.471 42.7611 152.831C44.4895 154.957 49.4134 154.575 51.6901 153.688C51.8676 153.615 54.3009 152.341 54.7029 152.074C54.6142 152.189 54.5306 152.309 54.4366 152.419C52.8067 154.284 51.0138 156 49.0793 157.547C48.0349 158.419 46.9906 159.186 45.915 159.912C45.3563 159.249 42.782 156.257 41.0589 155.4C39.3358 154.544 37.1009 154.048 35.383 154.931C34.9725 155.12 34.6061 155.393 34.3075 155.733C34.009 156.072 33.7848 156.47 33.6496 156.902C33.5143 157.333 33.4709 157.788 33.5221 158.237C33.5734 158.687 33.7181 159.12 33.9471 159.51C35.4352 161.807 40.3696 161.969 42.7298 161.337C42.8603 161.306 44.124 160.815 45.043 160.434C44.5626 160.758 44.077 161.097 43.6123 161.395C41.8735 162.517 40.213 163.442 38.7353 164.246C37.8894 164.695 37.1166 165.087 36.3908 165.447C35.5031 165.076 31.9054 163.64 30.0361 163.692C28.1668 163.745 25.9006 164.314 24.7779 165.891C24.5016 166.252 24.3045 166.667 24.1993 167.109C24.0941 167.552 24.0833 168.011 24.1676 168.458C24.2518 168.905 24.4292 169.329 24.6882 169.702C24.9472 170.076 25.282 170.391 25.6708 170.627C28.0467 171.984 32.5007 169.854 34.3074 168.204C34.464 168.063 36.6414 165.551 36.5996 165.53H36.5422C37.2471 165.201 38.0043 164.836 38.8188 164.423C40.3174 163.651 42.004 162.763 43.7689 161.672C45.6904 160.518 47.5421 159.252 49.3142 157.881C51.3074 156.358 53.1598 154.659 54.8491 152.805L54.9066 152.737C54.5724 153.463 53.7108 155.536 53.6638 155.703C52.985 158.053 53.0529 162.987 55.3191 164.517C55.703 164.761 56.1338 164.921 56.5836 164.987C57.0333 165.053 57.4919 165.024 57.9296 164.901C58.3673 164.778 58.7744 164.565 59.1244 164.275C59.4743 163.985 59.7594 163.625 59.9611 163.217C60.8749 161.499 60.3631 159.176 59.6008 157.515Z" fill="black"/>
<path d="M23.2529 125.141C23.2529 125.089 20.1199 126.144 19.9111 126.238C17.6971 127.282 14.0263 130.572 14.3657 133.292C14.4386 133.74 14.6044 134.167 14.8526 134.546C15.1008 134.926 15.4259 135.249 15.8067 135.495C16.1876 135.741 16.6158 135.905 17.0637 135.975C17.5117 136.045 17.9694 136.021 18.4072 135.903C20.287 135.47 21.7021 133.553 22.4488 131.888C23.3208 129.95 23.2529 125.147 23.2529 125.141Z" fill="black"/>
</g>
<g opacity="0.3">
<path d="M160.885 14.7357C162.206 16.4222 166.487 18.6101 166.493 18.6101C166.498 18.6101 167.077 15.3518 167.083 15.1429C167.203 12.6992 165.997 7.91102 163.428 6.94503C162.998 6.79647 162.541 6.74009 162.088 6.77955C161.634 6.81901 161.194 6.95343 160.797 7.17407C160.399 7.39471 160.052 7.69662 159.778 8.06019C159.504 8.42376 159.31 8.84083 159.209 9.2843C158.723 11.1536 159.762 13.3049 160.885 14.7357Z" fill="black"/>
<path d="M155.741 27.7741C157.391 29.0012 161.757 29.9411 162.106 30.0194C161.564 32.5131 161.192 35.0411 160.994 37.5855C160.864 39.0684 160.78 40.5618 160.717 42.0656C160.644 41.3764 160.571 40.7602 160.556 40.6767C160.033 38.2852 157.595 33.9878 154.869 33.7372C154.416 33.7074 153.961 33.7735 153.535 33.9312C153.108 34.0889 152.72 34.3346 152.395 34.6523C152.07 34.97 151.815 35.3526 151.648 35.7752C151.48 36.1978 151.404 36.6509 151.423 37.1051C151.423 39.0371 152.99 40.8333 154.467 41.9194C155.945 43.0055 159.657 43.9036 160.644 44.1229C160.644 44.6973 160.597 45.2717 160.582 45.8513C160.503 48.6187 160.43 51.3757 160.284 54.0805C160.232 55.036 160.143 55.9707 160.06 56.9106C159.997 56.2997 159.934 55.7827 159.919 55.7044C159.396 53.3181 156.963 49.0208 154.232 48.7649C153.779 48.7352 153.324 48.8013 152.898 48.959C152.471 49.1166 152.083 49.3623 151.758 49.68C151.433 49.9977 151.178 50.3804 151.011 50.803C150.843 51.2256 150.767 51.6787 150.786 52.1328C150.786 54.0648 152.352 55.8611 153.83 56.9524C155.308 58.0437 158.665 58.8478 159.83 59.1089C159.715 60.0697 159.605 61.0304 159.449 61.9495C159.329 62.5813 159.261 63.1922 159.104 63.8136C158.947 64.4349 158.822 65.0511 158.686 65.662C158.378 66.8212 158.07 68.0274 157.741 69.15C157.517 69.9385 157.287 70.68 157.062 71.4319C157.125 70.4815 157.209 68.6227 157.198 68.466C157.036 66.0275 155.287 61.4116 152.634 60.7485C152.19 60.6496 151.73 60.6456 151.284 60.7366C150.838 60.8277 150.416 61.0117 150.046 61.2768C149.676 61.5419 149.366 61.8821 149.136 62.2751C148.907 62.6681 148.762 63.1052 148.713 63.5577C148.436 65.4688 149.71 67.4791 150.995 68.7793C152.41 70.21 156.41 71.7556 156.911 71.9436C156.53 73.1863 156.149 74.3873 155.773 75.5204C155.494 76.3558 155.221 77.1565 154.953 77.9223L156.457 78.7317C156.739 77.8701 157.026 76.9668 157.318 76.0112C157.71 74.7528 158.101 73.4004 158.488 72.0115C159.859 72.1666 161.238 72.2416 162.618 72.236C163.14 74.2359 165.448 77.5046 165.751 77.9223C164.749 78.7526 163.772 79.541 162.832 80.2773C162.336 80.6689 161.861 81.0292 161.391 81.3947L162.958 82.2458L163.83 81.5409C164.848 80.7106 165.918 79.7969 167.009 78.8518C167.412 79.1912 170.717 81.9429 172.654 82.5069C174.414 82.9977 176.79 83.1335 178.33 81.9847C178.701 81.7211 179.012 81.3823 179.243 80.9904C179.475 80.5986 179.621 80.1624 179.673 79.7103C179.725 79.2581 179.681 78.8002 179.544 78.3662C179.407 77.9322 179.18 77.5319 178.878 77.1913C177.009 75.1914 172.121 75.9068 169.913 76.9511C169.782 77.0138 168.44 77.8388 167.605 78.3714C168.049 77.985 168.482 77.609 168.936 77.2017C169.84 76.4081 170.712 75.583 171.657 74.7058C172.095 74.262 172.544 73.8181 172.993 73.3691C173.443 72.92 173.876 72.4083 174.325 71.9279C175.338 70.7896 176.309 69.5887 177.259 68.3616C177.959 69.1448 180.486 71.9018 182.157 72.659C183.828 73.4161 186.152 73.9069 187.849 72.9827C188.255 72.7783 188.614 72.4907 188.902 72.1387C189.19 71.7866 189.4 71.3779 189.52 70.9392C189.64 70.5004 189.666 70.0414 189.596 69.5919C189.527 69.1425 189.364 68.7126 189.118 68.3302C187.551 66.0693 182.638 66.038 180.293 66.7324C180.147 66.7742 178.518 67.4635 177.635 67.8603C178.199 67.1136 178.769 66.3721 179.322 65.5993C180.889 63.3697 182.455 61.067 183.98 58.7747L185.405 56.6861C185.656 56.9733 188.585 60.3412 190.454 61.161C192.12 61.9129 194.449 62.409 196.146 61.4795C196.553 61.2763 196.912 60.9895 197.2 60.638C197.489 60.2865 197.7 59.8781 197.819 59.4395C197.939 59.0009 197.965 58.542 197.895 58.0928C197.826 57.6435 197.662 57.214 197.415 56.8323C195.848 54.5713 190.935 54.54 188.59 55.2345C188.413 55.2867 186.074 56.2788 185.494 56.5608C186.538 55.0256 187.583 53.5061 188.71 52.0493C190.194 50.0757 191.804 48.2007 193.53 46.4361C193.645 46.5666 196.689 50.0912 198.605 50.9371C200.271 51.689 202.6 52.1851 204.297 51.2608C204.703 51.0564 205.062 50.7689 205.35 50.4168C205.638 50.0648 205.848 49.6561 205.968 49.2173C206.088 48.7786 206.114 48.3196 206.044 47.8701C205.975 47.4206 205.812 46.9907 205.566 46.6084C203.999 44.3474 199.081 44.3161 196.741 45.0106C196.553 45.0628 194.042 46.1332 193.608 46.363C193.708 46.2585 193.802 46.1437 193.906 46.0445C195.679 44.3237 197.601 42.7633 199.65 41.3816C200.778 40.6036 201.9 39.9247 203.002 39.2929C203.524 40.0031 205.822 43.2248 207.461 44.196C209.101 45.1672 211.294 45.8721 213.08 45.1411C213.507 44.9842 213.896 44.7389 214.221 44.4213C214.547 44.1038 214.802 43.721 214.969 43.2981C215.137 42.8753 215.213 42.4218 215.194 41.9674C215.174 41.5129 215.059 41.0678 214.855 40.661C213.565 38.2434 208.662 37.669 206.26 38.1024C206.13 38.1024 204.824 38.5097 203.879 38.8073C204.401 38.5254 204.897 38.2277 205.383 37.9719C207.211 36.9954 208.944 36.2174 210.485 35.5386C211.362 35.1574 212.161 34.8337 212.918 34.5413C213.769 34.9799 217.236 36.7135 219.105 36.8179C220.975 36.9223 223.283 36.5412 224.525 35.0687C224.832 34.7325 225.064 34.3355 225.206 33.9036C225.349 33.4717 225.398 33.0146 225.352 32.5622C225.306 32.1098 225.164 31.6722 224.937 31.2781C224.71 30.884 224.403 30.5423 224.035 30.2752C221.779 28.7088 217.163 30.4684 215.226 31.9618C215.059 32.0924 212.678 34.4107 212.719 34.4368H212.772C212.041 34.7084 211.257 35.006 210.411 35.3506C208.845 35.9929 207.101 36.7396 205.247 37.6795C203.241 38.6618 201.295 39.7638 199.42 40.9795C197.307 42.3317 195.318 43.8695 193.478 45.5745L193.415 45.6372C193.807 44.9375 194.841 42.9481 194.903 42.7862C195.78 40.5043 196.125 35.5752 193.995 33.8625C193.633 33.5868 193.217 33.3906 192.774 33.2867C192.331 33.1827 191.871 33.1732 191.424 33.259C190.977 33.3447 190.553 33.5237 190.18 33.7842C189.807 34.0447 189.493 34.381 189.259 34.771C188.214 36.3897 188.517 38.7499 189.139 40.4678C189.838 42.405 192.961 45.5954 193.211 45.8513C191.382 47.6315 189.672 49.5312 188.094 51.5376C187.17 52.7072 186.277 53.9082 185.395 55.1248C185.713 54.5087 185.995 53.9552 186.027 53.8716C186.899 51.5898 187.248 46.6658 185.113 44.9531C184.751 44.6776 184.335 44.4815 183.893 44.3775C183.45 44.2736 182.991 44.2642 182.544 44.3499C182.098 44.4357 181.674 44.6146 181.302 44.8751C180.929 45.1356 180.616 45.4718 180.382 45.8617C179.338 47.4804 179.641 49.8406 180.262 51.5585C180.883 53.2764 183.499 56.0752 184.199 56.7801C183.865 57.25 183.525 57.7147 183.196 58.1847C181.599 60.4456 180.022 62.7118 178.403 64.884C177.834 65.6516 177.244 66.3878 176.659 67.1241C176.941 66.6019 177.181 66.1111 177.207 66.038C178.079 63.7561 178.424 58.8322 176.293 57.1143C175.931 56.8386 175.515 56.6424 175.072 56.5384C174.629 56.4344 174.169 56.425 173.723 56.5107C173.276 56.5965 172.852 56.7754 172.479 57.036C172.106 57.2965 171.792 57.6328 171.558 58.0228C170.513 59.6415 170.821 62.0017 171.443 63.7196C172.064 65.4375 174.424 67.9647 175.254 68.8315C174.628 69.5678 174.006 70.304 173.369 70.9933C172.92 71.4475 172.524 71.9175 172.048 72.3561L170.685 73.6615C169.787 74.4656 168.863 75.2959 167.97 76.053C167.349 76.5751 166.748 77.0973 166.148 77.5829C166.722 76.8258 167.819 75.322 167.897 75.1862C168.889 73.2781 169.378 71.1484 169.317 68.9986C169.437 68.7907 169.536 68.5722 169.615 68.3459C169.779 67.9219 169.853 67.4681 169.83 67.0139C169.807 66.5598 169.689 66.1155 169.483 65.7101C169.277 65.3047 168.988 64.9472 168.635 64.6609C168.281 64.3746 167.872 64.166 167.432 64.0485C164.769 63.4115 161.088 66.7011 159.825 68.7897C159.746 68.9151 159.083 70.3562 158.681 71.2491C158.838 70.68 158.994 70.1265 159.146 69.5417C159.459 68.3772 159.736 67.2128 160.039 65.9544C160.164 65.3435 160.289 64.7273 160.415 64.1007C160.54 63.4742 160.623 62.8162 160.728 62.1688C160.947 60.6597 161.099 59.1246 161.214 57.5685C162.232 57.84 165.856 58.7486 167.667 58.4562C169.479 58.1638 171.688 57.2918 172.591 55.5843C172.817 55.19 172.958 54.7527 173.004 54.3005C173.05 53.8484 173.001 53.3916 172.859 52.9598C172.717 52.528 172.486 52.1309 172.181 51.7941C171.876 51.4573 171.503 51.1885 171.088 51.005C168.55 49.9607 164.414 52.6707 162.843 54.54C162.743 54.6601 161.767 56.1065 161.245 56.9472C161.308 56.0125 161.375 55.083 161.407 54.1327C161.501 51.4018 161.506 48.6292 161.527 45.8669C161.527 45.021 161.527 44.1804 161.563 43.3345C161.924 43.4337 166.211 44.6033 168.242 44.2796C170.043 43.9872 172.257 43.1151 173.161 41.4077C173.387 41.0136 173.529 40.5761 173.575 40.1238C173.622 39.6715 173.573 39.2144 173.431 38.7824C173.289 38.3504 173.057 37.9531 172.752 37.6164C172.446 37.2797 172.073 37.0112 171.657 36.8283C169.119 35.784 164.984 38.494 163.412 40.3634C163.297 40.5043 161.892 42.6243 161.563 43.1778C161.595 41.3189 161.636 39.4705 161.757 37.6429C161.906 35.1783 162.215 32.726 162.681 30.3013C162.848 30.3483 167.318 31.5911 169.396 31.2569C171.197 30.9645 173.416 30.0925 174.32 28.385C174.547 27.9909 174.688 27.5535 174.734 27.1011C174.781 26.6488 174.732 26.1917 174.59 25.7597C174.448 25.3277 174.217 24.9304 173.911 24.5937C173.605 24.257 173.232 23.9885 172.816 23.8057C170.278 22.7614 166.143 25.4714 164.571 27.3407C164.446 27.4921 162.942 29.7687 162.696 30.2021C162.723 30.0612 162.738 29.9149 162.77 29.774C163.303 27.3557 164.051 24.9897 165.004 22.7039C165.527 21.4351 166.075 20.2498 166.649 19.1115C167.459 19.4248 171.171 20.8346 173.072 20.7354C174.972 20.6362 177.192 20.0252 178.293 18.4274C178.558 18.0608 178.744 17.6428 178.838 17.2003C178.931 16.7578 178.932 16.3006 178.838 15.858C178.745 15.4154 178.56 14.9972 178.295 14.6304C178.03 14.2636 177.692 13.9562 177.301 13.728C174.894 12.4278 170.487 14.6522 168.722 16.3388C168.623 16.4328 167.751 17.4719 167.124 18.2395C167.391 17.7173 167.647 17.1951 167.918 16.7147C168.905 14.8924 169.918 13.2894 170.832 11.8743C171.354 11.0702 171.845 10.3601 172.309 9.69692C173.265 9.59249 177.113 9.12776 178.727 8.18265C180.34 7.23755 182.058 5.65018 182.283 3.73385C182.352 3.2842 182.326 2.82499 182.206 2.38606C182.086 1.94714 181.876 1.53833 181.588 1.1862C181.299 0.834077 180.941 0.546521 180.534 0.342225C180.127 0.137929 179.683 0.0214675 179.228 0.000409907C176.492 -0.0465845 173.604 3.95838 172.816 6.26633C172.748 6.46997 172.038 9.7178 172.09 9.71258H172.148C171.683 10.3392 171.197 11.018 170.68 11.8012C169.74 13.1954 168.686 14.788 167.657 16.5894C166.527 18.5249 165.51 20.5247 164.613 22.5786C163.597 24.8711 162.786 27.2493 162.19 29.6852V29.774C162.133 28.9751 161.892 26.7454 161.856 26.5731C161.334 24.1869 158.9 19.8895 156.175 19.6336C155.72 19.6039 155.265 19.6701 154.838 19.8281C154.411 19.986 154.022 20.2321 153.696 20.5503C153.371 20.8685 153.116 21.2517 152.948 21.6749C152.781 22.0981 152.704 22.5519 152.723 23.0068C152.708 24.8918 154.274 26.6828 155.741 27.7741Z" fill="black"/>
<path d="M203.164 38.7341C203.19 38.7759 205.446 36.3374 205.571 36.1703C207.017 34.1966 208.652 29.5389 207.049 27.2936C206.772 26.9331 206.422 26.6348 206.023 26.4182C205.623 26.2017 205.182 26.0717 204.729 26.0367C204.276 26.0017 203.821 26.0626 203.393 26.2152C202.965 26.3679 202.573 26.609 202.245 26.9229C200.798 28.2074 200.48 30.578 200.626 32.3847C200.798 34.5464 203.164 38.7289 203.164 38.7341Z" fill="black"/>
</g>
<path d="M173.515 141.286L130.51 119.575L174.251 32.4004L217.256 54.1118L173.515 141.286Z" fill="#92E3A9" stroke="#263238" stroke-miterlimit="10"/>
<path d="M207.711 62.6493C207.027 62.3049 206.418 61.8288 205.918 61.2483C205.418 60.6678 205.038 59.9944 204.8 59.2667C204.561 58.5389 204.468 57.7713 204.527 57.0076C204.586 56.244 204.795 55.4995 205.142 54.8169C205.253 54.605 205.375 54.3993 205.507 54.2007L180.835 41.7524C180.758 41.9796 180.666 42.2012 180.559 42.4156C179.864 43.7913 178.651 44.8349 177.187 45.3166C175.724 45.7984 174.128 45.679 172.752 44.9846C172.644 44.9317 172.54 44.8724 172.439 44.8071L139.407 110.73L139.736 110.876C141.112 111.571 142.155 112.783 142.637 114.247C143.119 115.711 143 117.306 142.305 118.682C142.196 118.898 142.072 119.105 141.934 119.304L166.627 131.768C166.706 131.541 166.799 131.32 166.904 131.104C167.249 130.421 167.725 129.812 168.306 129.313C168.887 128.814 169.56 128.434 170.287 128.195C171.015 127.957 171.782 127.864 172.546 127.922C173.309 127.981 174.054 128.189 174.737 128.535C174.95 128.645 175.156 128.769 175.353 128.906L208.374 62.9104C208.147 62.8385 207.926 62.7513 207.711 62.6493ZM169.181 95.3783C167.5 94.5287 166.108 93.1998 165.182 91.5596C164.257 89.9193 163.838 88.0414 163.979 86.1632C164.121 84.285 164.816 82.4908 165.976 81.0076C167.137 79.5244 168.712 78.4187 170.501 77.8303C172.291 77.2419 174.214 77.1972 176.029 77.702C177.843 78.2067 179.468 79.2381 180.696 80.6659C181.925 82.0936 182.702 83.8536 182.93 85.7232C183.159 87.5928 182.828 89.4882 181.979 91.1696C180.839 93.4243 178.851 95.1342 176.451 95.9233C174.051 96.7125 171.436 96.5165 169.181 95.3783Z" fill="white" stroke="#263238" stroke-linecap="round" stroke-linejoin="round"/>
<path d="M172.914 141.474L132.515 115.236L185.436 33.3037L225.835 59.5422L172.914 141.474Z" fill="#92E3A9" stroke="#263238" stroke-miterlimit="10"/>
<path d="M215.423 66.9989C214.13 66.1591 213.224 64.8405 212.903 63.3327C212.581 61.8249 212.872 60.2513 213.71 58.9576C213.845 58.7587 213.989 58.567 214.144 58.3833L190.949 43.3137C190.845 43.5309 190.728 43.7419 190.6 43.9455C190.186 44.5879 189.65 45.1423 189.021 45.5772C188.393 46.012 187.685 46.3187 186.938 46.4798C186.192 46.6408 185.42 46.6529 184.669 46.5156C183.917 46.3782 183.2 46.0939 182.558 45.6791C182.459 45.6164 182.365 45.5381 182.266 45.4702L142.315 107.404C142.42 107.461 142.524 107.518 142.624 107.586C143.267 108.002 143.822 108.54 144.257 109.171C144.691 109.802 144.997 110.512 145.156 111.261C145.315 112.011 145.325 112.784 145.184 113.537C145.043 114.29 144.755 115.007 144.336 115.649C144.203 115.85 144.058 116.044 143.903 116.228L167.097 131.292C167.203 131.076 167.319 130.865 167.447 130.661C168.288 129.369 169.607 128.463 171.114 128.143C172.622 127.823 174.195 128.114 175.488 128.953C175.687 129.088 175.879 129.232 176.063 129.387L216.05 67.3487C215.834 67.2444 215.625 67.1276 215.423 66.9989ZM173.577 95.3678C171.996 94.3418 170.755 92.87 170.01 91.1384C169.265 89.4068 169.051 87.4933 169.394 85.6399C169.737 83.7865 170.622 82.0764 171.937 80.726C173.252 79.3755 174.938 78.4453 176.781 78.0531C178.625 77.6609 180.543 77.8242 182.294 78.5224C184.045 79.2206 185.549 80.4223 186.617 81.9755C187.685 83.5288 188.268 85.3638 188.293 87.2486C188.318 89.1333 187.783 90.983 186.756 92.5638C185.38 94.683 183.219 96.1689 180.747 96.6947C178.276 97.2205 175.697 96.7432 173.577 95.3678Z" fill="white" stroke="#263238" stroke-linecap="round" stroke-linejoin="round"/>
<path d="M172.126 141.615L135.742 110.035L199.498 36.2227L235.877 67.7977L172.126 141.615Z" fill="#92E3A9" stroke="#263238" stroke-miterlimit="10"/>
<path d="M224.53 73.7399C223.905 73.2016 223.403 72.5361 223.056 71.788C222.709 71.0398 222.527 70.2262 222.52 69.4017C222.513 68.5771 222.682 67.7605 223.016 67.0067C223.35 66.2528 223.842 65.579 224.457 65.0303L203.571 46.9009C203.438 47.1007 203.293 47.2924 203.137 47.4753C202.637 48.0523 202.028 48.5251 201.345 48.8666C200.661 49.2081 199.918 49.4115 199.156 49.4653C198.394 49.5192 197.629 49.4223 196.905 49.1803C196.18 48.9383 195.511 48.5558 194.934 48.0549C194.84 47.9713 194.757 47.8878 194.673 47.8042L146.535 103.639C146.629 103.712 146.728 103.78 146.817 103.863C147.442 104.402 147.944 105.067 148.291 105.815C148.638 106.563 148.821 107.377 148.828 108.202C148.835 109.026 148.665 109.843 148.331 110.597C147.997 111.35 147.506 112.024 146.89 112.573L167.777 130.702C167.911 130.503 168.055 130.311 168.21 130.128C168.744 129.496 169.408 128.988 170.157 128.636C170.905 128.285 171.721 128.1 172.548 128.093C173.375 128.086 174.194 128.257 174.948 128.596C175.703 128.935 176.375 129.432 176.92 130.055L225.105 74.1837C224.903 74.0498 224.711 73.9015 224.53 73.7399ZM179.165 96.0466C177.741 94.8114 176.716 93.1816 176.218 91.3636C175.721 89.5455 175.774 87.6207 176.37 85.8327C176.967 84.0447 178.08 82.4737 179.569 81.3185C181.059 80.1633 182.857 79.4758 184.738 79.3428C186.618 79.2099 188.495 79.6375 190.132 80.5717C191.77 81.5058 193.093 82.9045 193.935 84.5908C194.777 86.2771 195.1 88.1752 194.864 90.0452C194.627 91.9152 193.841 93.673 192.605 95.0962C191.785 96.0415 190.787 96.816 189.668 97.3754C188.549 97.9348 187.33 98.2681 186.082 98.3564C184.834 98.4446 183.581 98.2861 182.394 97.8897C181.207 97.4934 180.11 96.8671 179.165 96.0466Z" fill="white" stroke="#263238" stroke-linecap="round" stroke-linejoin="round"/>
<path d="M172.016 143.986L140.186 107.832L213.236 43.1987L245.067 79.3583L172.016 143.986Z" fill="#92E3A9" stroke="#263238" stroke-miterlimit="10"/>
<path d="M233.051 83.7287C232.034 82.5712 231.517 81.0572 231.615 79.5191C231.713 77.9811 232.417 76.5448 233.573 75.5256C233.755 75.3671 233.947 75.2206 234.148 75.087L215.872 54.3259C215.33 54.9483 214.661 55.4472 213.91 55.7891C213.158 56.131 212.343 56.3079 211.517 56.3079C210.692 56.3079 209.876 56.131 209.125 55.7891C208.374 55.4472 207.705 54.9483 207.162 54.3259C207.079 54.2319 207.011 54.1379 206.938 54.0439L151.735 102.929C151.819 103.017 151.908 103.096 151.986 103.19C152.49 103.763 152.877 104.429 153.124 105.151C153.37 105.874 153.472 106.638 153.424 107.399C153.375 108.161 153.177 108.906 152.841 109.591C152.505 110.276 152.037 110.888 151.464 111.393C151.282 111.55 151.092 111.696 150.895 111.831L169.17 132.592C169.332 132.406 169.506 132.232 169.692 132.07C170.265 131.565 170.931 131.178 171.654 130.931C172.376 130.684 173.14 130.582 173.902 130.63C174.664 130.679 175.409 130.877 176.094 131.214C176.779 131.55 177.392 132.019 177.895 132.592C178.053 132.773 178.2 132.963 178.334 133.162L233.558 84.2248C233.379 84.0697 233.21 83.9041 233.051 83.7287ZM185.112 99.7643C183.868 98.3501 183.071 96.5989 182.822 94.7319C182.573 92.865 182.883 90.9661 183.713 89.2754C184.543 87.5847 185.856 86.1782 187.486 85.2335C189.115 84.2889 190.988 83.8486 192.868 83.9683C194.747 84.088 196.549 84.7624 198.046 85.9061C199.542 87.0498 200.666 88.6116 201.275 90.3939C201.884 92.1763 201.951 94.0991 201.467 95.9194C200.983 97.7397 199.971 99.3757 198.557 100.621C197.617 101.451 196.523 102.087 195.337 102.494C194.15 102.9 192.895 103.069 191.644 102.989C190.392 102.909 189.169 102.584 188.043 102.03C186.918 101.477 185.913 100.707 185.086 99.7643H185.112Z" fill="white" stroke="#263238" stroke-linecap="round" stroke-linejoin="round"/>
<path d="M162.685 183.91L252.283 146.456C253.043 146.134 253.646 145.525 253.959 144.762C254.273 143.998 254.273 143.141 253.959 142.378L231.642 88.9818C231.32 88.2201 230.71 87.6165 229.945 87.3025C229.18 86.9886 228.322 86.9897 227.558 87.3056L137.961 124.75C137.201 125.071 136.598 125.68 136.284 126.444C135.97 127.208 135.97 128.064 136.285 128.828L158.602 182.234C158.924 182.996 159.533 183.6 160.298 183.914C161.063 184.228 161.921 184.226 162.685 183.91Z" fill="#263238" stroke="#263238" stroke-linecap="round" stroke-linejoin="round"/>
<path d="M147.439 135.826L152.833 138.172C154.16 138.749 155.703 138.141 156.28 136.814L158.625 131.419C159.202 130.093 158.594 128.55 157.268 127.973L151.873 125.628C150.546 125.051 149.003 125.659 148.427 126.985L146.081 132.38C145.504 133.707 146.112 135.249 147.439 135.826Z" fill="white" stroke="#263238" stroke-width="1.00319" stroke-miterlimit="10"/>
<path d="M234.269 144.184L244.362 139.966L242.617 135.789L232.523 140.007L234.269 144.184Z" fill="white" stroke="#263238" stroke-miterlimit="10"/>
<path d="M220.871 149.79L230.965 145.572L229.219 141.394L219.126 145.612L220.871 149.79Z" fill="white" stroke="#263238" stroke-miterlimit="10"/>
<path d="M207.472 155.385L217.565 151.167L215.82 146.99L205.726 151.208L207.472 155.385Z" fill="white" stroke="#263238" stroke-miterlimit="10"/>
<path d="M194.075 160.985L204.168 156.767L202.422 152.59L192.329 156.808L194.075 160.985Z" fill="white" stroke="#263238" stroke-miterlimit="10"/>
<path d="M180.677 166.585L190.771 162.367L189.025 158.19L178.932 162.408L180.677 166.585Z" fill="white" stroke="#263238" stroke-miterlimit="10"/>
<path d="M167.275 172.185L177.368 167.967L175.623 163.79L165.529 168.008L167.275 172.185Z" fill="white" stroke="#263238" stroke-miterlimit="10"/>
<path d="M218.216 134.546L236.952 126.716C237.833 126.348 238.249 125.336 237.88 124.455L232.378 111.288C232.01 110.407 230.998 109.992 230.117 110.36L211.38 118.19C210.5 118.558 210.084 119.57 210.452 120.451L215.955 133.618C216.323 134.499 217.335 134.914 218.216 134.546Z" fill="white" stroke="#263238" stroke-miterlimit="10"/>
<path d="M179.028 118.626L227.057 98.5549L226.038 96.1171L178.009 116.188L179.028 118.626Z" fill="white" stroke="#263238" stroke-miterlimit="10"/>
<path d="M164.221 30.8809V193.534C164.22 195.677 163.367 197.732 161.852 199.248C160.336 200.763 158.281 201.615 156.138 201.617H85.8604C83.717 201.615 81.6619 200.763 80.1463 199.248C78.6308 197.732 77.7787 195.677 77.7773 193.534V30.8757C77.7773 28.7333 78.6284 26.6787 80.1433 25.1638C81.6582 23.6489 83.7128 22.7979 85.8552 22.7979H116.02V22.8918C116.772 25.5966 118.501 27.3563 120.422 27.3563H121.524C123.445 27.3563 125.179 25.5966 125.926 22.8918L125.957 22.7979H156.138C157.199 22.7979 158.25 23.0069 159.231 23.4131C160.212 23.8193 161.103 24.4147 161.853 25.1653C162.604 25.9159 163.199 26.807 163.606 27.7876C164.012 28.7683 164.221 29.8194 164.221 30.8809Z" fill="white" stroke="#263238" stroke-linecap="round" stroke-linejoin="round"/>
<path d="M164.221 70.3771V30.8809C164.221 29.8194 164.012 28.7683 163.606 27.7876C163.199 26.807 162.604 25.9159 161.853 25.1653C161.103 24.4147 160.212 23.8193 159.231 23.4131C158.25 23.0069 157.199 22.7979 156.138 22.7979H126.009L125.978 22.8918C125.226 25.5966 123.498 27.3563 121.576 27.3563H120.474C118.553 27.3563 116.819 25.5966 116.073 22.8918V22.7979H85.8552C83.7128 22.7979 81.6582 23.6489 80.1433 25.1638C78.6284 26.6787 77.7773 28.7333 77.7773 30.8757V70.3771H164.221Z" fill="#92E3A9" stroke="#263238" stroke-miterlimit="10"/>
<path d="M146.28 123.006H95.1758C92.4074 123.006 90.1631 125.25 90.1631 128.018V143.918C90.1631 146.687 92.4074 148.931 95.1758 148.931H146.28C149.048 148.931 151.292 146.687 151.292 143.918V128.018C151.292 125.25 149.048 123.006 146.28 123.006Z" fill="#92E3A9" stroke="#263238" stroke-miterlimit="10"/>
<path d="M164.221 38.447V30.8809C164.221 29.8194 164.012 28.7683 163.606 27.7876C163.199 26.807 162.604 25.9159 161.853 25.1653C161.103 24.4147 160.212 23.8193 159.231 23.4131C158.25 23.0069 157.199 22.7979 156.138 22.7979H126.009L125.978 22.8918C125.226 25.5966 123.498 27.3563 121.576 27.3563H120.474C118.553 27.3563 116.819 25.5966 116.073 22.8918V22.7979H85.8552C83.7128 22.7979 81.6582 23.6489 80.1433 25.1638C78.6284 26.6787 77.7773 28.7333 77.7773 30.8757V38.447H164.221Z" fill="#DBDBDB" stroke="#263238" stroke-linecap="round" stroke-linejoin="round"/>
<path d="M77.7773 192.26V193.534C77.7787 195.677 78.6308 197.732 80.1463 199.248C81.6619 200.763 83.717 201.615 85.8604 201.617H156.138C158.281 201.615 160.336 200.763 161.852 199.248C163.367 197.732 164.22 195.677 164.221 193.534V192.26H77.7773Z" fill="#DBDBDB" stroke="#263238" stroke-linecap="round" stroke-linejoin="round"/>
<path d="M169.719 69.7297V53.5114H168.252V32.6877C168.25 29.2874 166.899 26.0268 164.494 23.6229C162.089 21.2191 158.828 19.8687 155.428 19.8687H86.5703C83.17 19.8687 79.9089 21.2191 77.5041 23.6229C75.0992 26.0268 73.7475 29.2874 73.7461 32.6877V197.951C73.7475 201.352 75.0992 204.612 77.5041 207.016C79.9089 209.42 83.17 210.77 86.5703 210.77H155.428C158.828 210.77 162.089 209.42 164.494 207.016C166.899 204.612 168.25 201.352 168.252 197.951V83.5983H169.719V73.9749H168.252V69.7297H169.719ZM164.221 188.782C164.221 192.182 162.87 195.444 160.466 197.848C158.063 200.253 154.802 201.605 151.402 201.606H90.5962C87.1959 201.605 83.9353 200.253 81.5315 197.848C79.1276 195.444 77.7772 192.182 77.7772 188.782V35.617C77.7772 32.2172 79.1277 28.9566 81.5318 26.5526C83.9358 24.1485 87.1964 22.798 90.5962 22.798H116.02V22.892C116.772 25.5967 118.5 27.3564 120.422 27.3564H121.524C123.445 27.3564 125.179 25.5967 125.926 22.892L125.957 22.798H151.376C154.775 22.798 158.036 24.1485 160.44 26.5526C162.844 28.9566 164.195 32.2172 164.195 35.617L164.221 188.782Z" fill="#92E3A9" stroke="#263238" stroke-linecap="round" stroke-linejoin="round"/>
<path d="M154.399 21.6594H87.5991C84.3198 21.6594 81.1748 22.9621 78.8559 25.281C76.5371 27.5998 75.2344 30.7448 75.2344 34.0242V196.64C75.2344 199.92 76.5371 203.065 78.8559 205.384C81.1748 207.702 84.3198 209.005 87.5991 209.005H154.399C157.678 209.005 160.823 207.702 163.142 205.384C165.461 203.065 166.764 199.92 166.764 196.64V33.9981C166.757 30.7233 165.451 27.5849 163.133 25.2717C160.815 22.9585 157.674 21.6594 154.399 21.6594ZM164.221 189.273C164.221 192.553 162.918 195.698 160.6 198.018C158.281 200.337 155.136 201.641 151.856 201.643H90.142C86.8622 201.641 83.7172 200.337 81.3985 198.018C79.0798 195.698 77.7773 192.553 77.7773 189.273V35.1573C77.7773 33.5342 78.097 31.927 78.7181 30.4275C79.3392 28.9279 80.2496 27.5654 81.3973 26.4178C82.545 25.2701 83.9075 24.3597 85.407 23.7385C86.9066 23.1174 88.5137 22.7977 90.1368 22.7977H116.02V22.8917C116.772 25.5965 118.501 27.3562 120.422 27.3562H121.524C123.445 27.3562 125.179 25.5965 125.926 22.8917L125.957 22.7977H151.856C155.135 22.7977 158.28 24.1004 160.599 26.4193C162.918 28.7381 164.221 31.8831 164.221 35.1625V189.273Z" fill="#263238" stroke="#263238" stroke-linecap="round" stroke-linejoin="round"/>
<path d="M121.937 23.4088C121.937 23.17 121.866 22.9366 121.733 22.7382C121.6 22.5397 121.412 22.3851 121.191 22.294C120.97 22.2028 120.727 22.1792 120.493 22.2262C120.259 22.2732 120.044 22.3886 119.876 22.5578C119.707 22.727 119.593 22.9424 119.547 23.1767C119.501 23.411 119.526 23.6537 119.618 23.874C119.71 24.0943 119.865 24.2824 120.064 24.4143C120.263 24.5462 120.497 24.616 120.736 24.615C120.894 24.615 121.051 24.5838 121.197 24.5231C121.343 24.4624 121.475 24.3735 121.587 24.2614C121.698 24.1493 121.787 24.0163 121.847 23.87C121.907 23.7237 121.937 23.567 121.937 23.4088Z" fill="white"/>
<path d="M85.4577 28.0247C85.4577 29.2413 84.0897 29.6799 84.0845 30.6355V30.6982H85.4107V31.0584H83.6406V30.7138C83.6406 29.4084 85.0087 29.1473 85.0087 28.0195C85.0087 27.6017 84.8729 27.3824 84.5387 27.3824C84.2046 27.3824 84.0636 27.6226 84.0636 27.9777V28.338H83.6406V28.0299C83.6406 27.4138 83.9226 26.9856 84.5492 26.9856C85.1758 26.9856 85.4577 27.4033 85.4577 28.0247Z" fill="#263238"/>
<path d="M87.6723 28.0194V28.1186C87.6916 28.2922 87.6542 28.4673 87.5657 28.6179C87.4772 28.7685 87.3425 28.8864 87.1815 28.9541C87.343 29.021 87.4783 29.1388 87.5668 29.2896C87.6554 29.4403 87.6924 29.6159 87.6723 29.7895V30.1028C87.6723 30.719 87.3799 31.1472 86.7585 31.1472C86.1371 31.1472 85.8552 30.7451 85.8552 30.1028V29.8209H86.2729V30.1289C86.2729 30.4945 86.4243 30.7138 86.7481 30.7138C87.0718 30.7138 87.2232 30.4997 87.2232 30.0872V29.7791C87.2232 29.377 87.0509 29.1891 86.7011 29.1786H86.4609V28.7713H86.7272C86.7971 28.772 86.8663 28.7576 86.9301 28.7291C86.994 28.7005 87.0509 28.6586 87.097 28.606C87.1431 28.5535 87.1773 28.4916 87.1973 28.4246C87.2173 28.3576 87.2226 28.2871 87.2128 28.2178V28.0351C87.2128 27.6174 87.0666 27.4033 86.7376 27.4033C86.4087 27.4033 86.2625 27.633 86.2625 27.9933V28.2022H85.8447V28.0194C85.8447 27.398 86.1319 26.9751 86.7481 26.9751C87.3642 26.9751 87.6723 27.4033 87.6723 28.0194Z" fill="#263238"/>
<path d="M88.5437 28.3223V28.881H88.1104V28.3223H88.5437ZM88.5437 30.5206V31.0584H88.1104V30.5362L88.5437 30.5206Z" fill="#263238"/>
<path d="M89.4579 28.6878C89.517 28.5817 89.6045 28.4943 89.7106 28.4353C89.8167 28.3762 89.9371 28.3479 90.0584 28.3536C90.5805 28.3536 90.8103 28.7348 90.8103 29.3091V30.1028C90.8103 30.719 90.5179 31.1471 89.8965 31.1471C89.2751 31.1471 88.9932 30.7451 88.9932 30.1028V29.8313H89.4109V30.1289C89.4109 30.4944 89.5623 30.7137 89.8861 30.7137C90.2098 30.7137 90.3612 30.4944 90.3612 30.1289V29.3457C90.3612 28.9802 90.2098 28.7609 89.8861 28.7609C89.8276 28.7588 89.7693 28.7684 89.7146 28.7892C89.6599 28.81 89.6099 28.8415 89.5676 28.8819C89.5253 28.9222 89.4914 28.9707 89.4681 29.0243C89.4448 29.078 89.4324 29.1358 89.4318 29.1943V29.2883H89.0088L89.1185 27.043H90.685V27.445H89.4944L89.4579 28.6878Z" fill="#263238"/>
<path d="M93.0503 28.009V28.0873H92.6273V27.9829C92.6273 27.6174 92.4811 27.4033 92.1521 27.4033C91.8232 27.4033 91.6613 27.6226 91.6613 28.056V28.9697C91.7076 28.837 91.7958 28.7229 91.9126 28.6448C92.0294 28.5666 92.1684 28.5285 92.3088 28.5364C92.8309 28.5364 93.0607 28.9123 93.0607 29.4919V30.1081C93.0607 30.7242 92.7578 31.1524 92.1365 31.1524C91.5151 31.1524 91.207 30.7503 91.207 30.1081V28.0194C91.207 27.3772 91.4994 26.9751 92.1365 26.9751C92.7735 26.9751 93.0503 27.4033 93.0503 28.009ZM91.6613 29.5232V30.1289C91.6613 30.4945 91.8075 30.7138 92.1365 30.7138C92.4654 30.7138 92.6169 30.4945 92.6169 30.1289V29.5232C92.6169 29.1577 92.4602 28.9384 92.1365 28.9384C91.8127 28.9384 91.6613 29.1577 91.6613 29.5232Z" fill="#263238"/>
<path d="M137.147 28.1865H136.009V31.0375H137.147V28.1865Z" fill="#263238"/>
<path d="M138.667 27.6174H137.528V31.0376H138.667V27.6174Z" fill="#263238"/>
<path d="M140.186 27.2102H139.048V31.0376H140.186V27.2102Z" fill="#263238"/>
<path d="M141.711 26.5051H140.572V31.0375H141.711V26.5051Z" fill="#263238"/>
<path d="M155.825 30.9644H148.984V26.7871H155.825V30.9644ZM149.36 30.5832H155.443V27.1578H149.36V30.5832Z" fill="#263238"/>
<path d="M153.543 27.5757H149.93V30.1708H153.543V27.5757Z" fill="#263238"/>
<path d="M156.446 28.3796H155.584V29.3665H156.446V28.3796Z" fill="#263238"/>
<path d="M146.473 30.0505C146.427 30.0514 146.381 30.0387 146.342 30.014C144.948 29.189 144.029 29.9565 143.987 30.014C143.963 30.0364 143.934 30.0536 143.902 30.0644C143.871 30.0753 143.837 30.0796 143.804 30.0772C143.771 30.0747 143.739 30.0656 143.709 30.0502C143.68 30.0349 143.653 30.0136 143.632 29.9879C143.609 29.9646 143.59 29.9369 143.578 29.9064C143.565 29.876 143.559 29.8433 143.559 29.8103C143.559 29.7773 143.565 29.7447 143.578 29.7142C143.59 29.6837 143.609 29.6561 143.632 29.6328C143.685 29.5858 144.859 28.5885 146.583 29.6015C146.641 29.6362 146.682 29.6925 146.699 29.7581C146.716 29.8236 146.706 29.8931 146.671 29.9513C146.648 29.9823 146.618 30.0074 146.584 30.0246C146.549 30.0419 146.511 30.0507 146.473 30.0505Z" fill="#263238"/>
<path d="M146.99 29.1943C146.944 29.1959 146.898 29.1831 146.859 29.1578C144.844 27.962 143.491 29.116 143.476 29.1578C143.45 29.1801 143.421 29.1971 143.389 29.208C143.357 29.2189 143.323 29.2234 143.289 29.2212C143.256 29.219 143.223 29.2102 143.192 29.1953C143.162 29.1804 143.135 29.1596 143.113 29.1343C143.09 29.1089 143.073 29.0794 143.063 29.0474C143.052 29.0154 143.047 28.9817 143.049 28.948C143.052 28.9143 143.06 28.8813 143.075 28.851C143.09 28.8207 143.111 28.7937 143.136 28.7714C143.136 28.7714 144.786 27.3615 147.12 28.7714C147.177 28.807 147.218 28.8633 147.235 28.9285C147.251 28.9937 147.242 29.0627 147.209 29.1212C147.18 29.1488 147.146 29.1696 147.108 29.1823C147.07 29.1949 147.029 29.199 146.99 29.1943Z" fill="#263238"/>
<path d="M147.455 28.1971C147.408 28.1974 147.363 28.1847 147.324 28.1605C144.776 26.6463 143.079 28.0718 143.006 28.1344C142.982 28.1586 142.954 28.1778 142.923 28.1909C142.892 28.204 142.859 28.2108 142.826 28.2108C142.792 28.2108 142.759 28.204 142.728 28.1909C142.697 28.1778 142.669 28.1586 142.645 28.1344C142.603 28.0834 142.582 28.0179 142.587 27.9516C142.591 27.8853 142.622 27.8236 142.672 27.7794C142.672 27.7794 144.703 26.0353 147.585 27.748C147.643 27.7828 147.685 27.8391 147.702 27.9046C147.718 27.9702 147.708 28.0397 147.674 28.0979C147.649 28.1319 147.616 28.1588 147.577 28.1762C147.539 28.1936 147.497 28.2008 147.455 28.1971Z" fill="#263238"/>
<path d="M145.705 30.4788C145.706 30.6061 145.67 30.7308 145.6 30.8371C145.53 30.9434 145.43 31.0265 145.313 31.0759C145.195 31.1253 145.066 31.1388 144.941 31.1146C144.816 31.0904 144.701 31.0297 144.611 30.94C144.521 30.8504 144.459 30.736 144.434 30.6113C144.408 30.4866 144.421 30.3572 144.469 30.2395C144.518 30.1218 144.6 30.0212 144.706 29.9504C144.812 29.8796 144.936 29.8418 145.063 29.8418C145.233 29.8418 145.395 29.9087 145.515 30.0281C145.636 30.1474 145.704 30.3094 145.705 30.4788Z" fill="#263238"/>
<path d="M109.176 108.633V86.4828H110.595V108.633H109.176ZM113.952 93.1278C113.848 92.2511 113.427 91.5704 112.688 91.0859C111.95 90.6013 111.045 90.3591 109.972 90.3591C109.187 90.3591 108.501 90.486 107.912 90.7398C107.33 90.9936 106.874 91.3426 106.545 91.7867C106.222 92.2309 106.061 92.7356 106.061 93.3009C106.061 93.7739 106.173 94.1806 106.398 94.5209C106.629 94.8554 106.923 95.1352 107.281 95.3602C107.638 95.5794 108.013 95.7611 108.406 95.9053C108.798 96.0437 109.158 96.1562 109.487 96.2427L111.287 96.7273C111.748 96.8484 112.262 97.0157 112.827 97.2291C113.398 97.4425 113.943 97.7338 114.462 98.103C114.987 98.4664 115.42 98.9336 115.76 99.5047C116.1 100.076 116.271 100.777 116.271 101.607C116.271 102.565 116.02 103.43 115.518 104.203C115.022 104.976 114.295 105.59 113.337 106.046C112.386 106.502 111.229 106.729 109.868 106.729C108.599 106.729 107.5 106.525 106.571 106.115C105.648 105.706 104.922 105.135 104.391 104.402C103.866 103.669 103.569 102.819 103.5 101.849H105.715C105.772 102.519 105.997 103.072 106.39 103.511C106.788 103.943 107.289 104.266 107.895 104.48C108.506 104.687 109.164 104.791 109.868 104.791C110.687 104.791 111.422 104.659 112.074 104.393C112.726 104.122 113.242 103.747 113.623 103.268C114.004 102.784 114.194 102.219 114.194 101.573C114.194 100.984 114.03 100.505 113.701 100.136C113.372 99.7671 112.939 99.4672 112.403 99.2365C111.867 99.0057 111.287 98.8038 110.664 98.6308L108.483 98.0078C107.099 97.6098 106.003 97.0416 105.195 96.3033C104.388 95.5649 103.984 94.5988 103.984 93.4047C103.984 92.4126 104.252 91.5473 104.789 90.809C105.331 90.0649 106.058 89.4881 106.969 89.0785C107.886 88.6632 108.91 88.4555 110.041 88.4555C111.183 88.4555 112.198 88.6603 113.087 89.0699C113.975 89.4736 114.679 90.0274 115.198 90.7311C115.723 91.4349 115.999 92.2338 116.028 93.1278H113.952ZM125.163 106.66C123.975 106.66 122.925 106.45 122.014 106.029C121.108 105.602 120.401 105.016 119.894 104.272C119.386 103.522 119.135 102.669 119.141 101.711C119.135 100.961 119.282 100.269 119.582 99.6345C119.882 98.9942 120.292 98.4606 120.811 98.0338C121.336 97.6012 121.921 97.3272 122.567 97.2118V97.108C121.719 96.8888 121.045 96.4129 120.543 95.6803C120.041 94.942 119.793 94.1027 119.799 93.1625C119.793 92.2626 120.021 91.4579 120.482 90.7484C120.944 90.0389 121.578 89.4794 122.386 89.0699C123.199 88.6603 124.125 88.4555 125.163 88.4555C126.19 88.4555 127.107 88.6603 127.915 89.0699C128.722 89.4794 129.357 90.0389 129.818 90.7484C130.285 91.4579 130.522 92.2626 130.528 93.1625C130.522 94.1027 130.265 94.942 129.758 95.6803C129.256 96.4129 128.589 96.8888 127.759 97.108V97.2118C128.399 97.3272 128.976 97.6012 129.489 98.0338C130.003 98.4606 130.412 98.9942 130.718 99.6345C131.024 100.269 131.179 100.961 131.185 101.711C131.179 102.669 130.92 103.522 130.406 104.272C129.899 105.016 129.192 105.602 128.287 106.029C127.387 106.45 126.346 106.66 125.163 106.66ZM125.163 104.757C125.965 104.757 126.657 104.627 127.24 104.367C127.822 104.108 128.272 103.741 128.589 103.268C128.907 102.795 129.068 102.242 129.074 101.607C129.068 100.938 128.895 100.347 128.555 99.8335C128.215 99.3201 127.75 98.9163 127.162 98.6221C126.579 98.328 125.913 98.1809 125.163 98.1809C124.407 98.1809 123.733 98.328 123.138 98.6221C122.55 98.9163 122.086 99.3201 121.745 99.8335C121.411 100.347 121.246 100.938 121.252 101.607C121.246 102.242 121.399 102.795 121.711 103.268C122.028 103.741 122.481 104.108 123.069 104.367C123.658 104.627 124.356 104.757 125.163 104.757ZM125.163 96.3465C125.798 96.3465 126.36 96.2196 126.85 95.9658C127.346 95.712 127.736 95.3573 128.018 94.9016C128.301 94.4459 128.445 93.9123 128.451 93.3009C128.445 92.701 128.304 92.179 128.027 91.7348C127.75 91.2849 127.367 90.9388 126.876 90.6965C126.386 90.4485 125.815 90.3245 125.163 90.3245C124.5 90.3245 123.92 90.4485 123.424 90.6965C122.928 90.9388 122.544 91.2849 122.273 91.7348C122.002 92.179 121.869 92.701 121.875 93.3009C121.869 93.9123 122.005 94.4459 122.282 94.9016C122.565 95.3573 122.954 95.712 123.45 95.9658C123.946 96.2196 124.517 96.3465 125.163 96.3465ZM109.729 135.66C108.426 135.66 107.315 135.305 106.398 134.596C105.481 133.881 104.78 132.845 104.296 131.49C103.811 130.128 103.569 128.484 103.569 126.558C103.569 124.643 103.811 123.008 104.296 121.652C104.786 120.291 105.49 119.252 106.407 118.537C107.33 117.816 108.437 117.456 109.729 117.456C111.021 117.456 112.126 117.816 113.043 118.537C113.966 119.252 114.67 120.291 115.154 121.652C115.645 123.008 115.89 124.643 115.89 126.558C115.89 128.484 115.648 130.128 115.163 131.49C114.679 132.845 113.978 133.881 113.061 134.596C112.143 135.305 111.033 135.66 109.729 135.66ZM109.729 133.757C111.021 133.757 112.025 133.134 112.74 131.888C113.456 130.642 113.813 128.865 113.813 126.558C113.813 125.024 113.649 123.717 113.32 122.638C112.997 121.56 112.53 120.738 111.918 120.172C111.313 119.607 110.583 119.324 109.729 119.324C108.449 119.324 107.448 119.956 106.727 121.219C106.006 122.477 105.645 124.256 105.645 126.558C105.645 128.092 105.807 129.396 106.13 130.469C106.453 131.542 106.917 132.358 107.523 132.917C108.134 133.477 108.87 133.757 109.729 133.757ZM120.082 135.556C119.655 135.556 119.289 135.404 118.983 135.098C118.677 134.792 118.525 134.426 118.525 133.999C118.525 133.572 118.677 133.206 118.983 132.9C119.289 132.594 119.655 132.442 120.082 132.442C120.509 132.442 120.875 132.594 121.181 132.9C121.487 133.206 121.639 133.572 121.639 133.999C121.639 134.282 121.567 134.541 121.423 134.778C121.285 135.014 121.097 135.205 120.861 135.349C120.63 135.487 120.37 135.556 120.082 135.556ZM130.744 117.456C131.471 117.461 132.198 117.6 132.924 117.871C133.651 118.142 134.315 118.592 134.914 119.221C135.514 119.844 135.996 120.694 136.359 121.773C136.723 122.852 136.904 124.204 136.904 125.831C136.904 127.406 136.754 128.805 136.455 130.028C136.16 131.245 135.733 132.271 135.174 133.108C134.62 133.944 133.945 134.579 133.149 135.011C132.359 135.444 131.465 135.66 130.467 135.66C129.475 135.66 128.589 135.464 127.811 135.072C127.038 134.674 126.403 134.123 125.907 133.419C125.417 132.71 125.103 131.888 124.964 130.953H127.075C127.266 131.767 127.643 132.439 128.209 132.969C128.78 133.494 129.533 133.757 130.467 133.757C131.834 133.757 132.913 133.16 133.703 131.966C134.499 130.772 134.897 129.084 134.897 126.904H134.759C134.436 127.389 134.052 127.807 133.608 128.159C133.164 128.51 132.671 128.782 132.128 128.972C131.586 129.162 131.009 129.257 130.398 129.257C129.383 129.257 128.451 129.007 127.603 128.505C126.761 127.997 126.086 127.302 125.578 126.419C125.077 125.531 124.826 124.516 124.826 123.374C124.826 122.289 125.068 121.297 125.552 120.397C126.043 119.492 126.729 118.771 127.612 118.234C128.5 117.698 129.544 117.438 130.744 117.456ZM130.744 119.359C130.017 119.359 129.362 119.541 128.78 119.904C128.203 120.262 127.744 120.746 127.404 121.358C127.07 121.963 126.902 122.635 126.902 123.374C126.902 124.112 127.064 124.784 127.387 125.39C127.716 125.99 128.163 126.468 128.728 126.826C129.299 127.178 129.948 127.354 130.675 127.354C131.223 127.354 131.733 127.247 132.206 127.034C132.679 126.815 133.092 126.518 133.443 126.143C133.801 125.762 134.081 125.332 134.283 124.853C134.485 124.369 134.586 123.864 134.586 123.339C134.586 122.647 134.418 121.998 134.084 121.392C133.755 120.787 133.299 120.296 132.717 119.921C132.14 119.547 131.482 119.359 130.744 119.359ZM109.591 146.456C110.318 146.461 111.045 146.6 111.771 146.871C112.498 147.142 113.161 147.592 113.761 148.221C114.361 148.844 114.843 149.694 115.206 150.773C115.57 151.852 115.751 153.204 115.751 154.831C115.751 156.406 115.601 157.805 115.302 159.028C115.007 160.245 114.58 161.271 114.021 162.108C113.467 162.944 112.792 163.579 111.996 164.011C111.206 164.444 110.312 164.66 109.314 164.66C108.322 164.66 107.436 164.464 106.658 164.072C105.885 163.674 105.25 163.123 104.754 162.419C104.264 161.71 103.95 160.888 103.811 159.953H105.922C106.113 160.767 106.49 161.439 107.056 161.969C107.627 162.494 108.38 162.757 109.314 162.757C110.681 162.757 111.76 162.16 112.55 160.966C113.346 159.772 113.744 158.084 113.744 155.904H113.606C113.283 156.389 112.899 156.807 112.455 157.159C112.011 157.51 111.518 157.782 110.975 157.972C110.433 158.162 109.856 158.257 109.245 158.257C108.23 158.257 107.298 158.007 106.45 157.505C105.608 156.997 104.933 156.302 104.425 155.419C103.924 154.531 103.673 153.516 103.673 152.374C103.673 151.289 103.915 150.297 104.399 149.397C104.89 148.492 105.576 147.771 106.459 147.234C107.347 146.698 108.391 146.438 109.591 146.456ZM109.591 148.359C108.864 148.359 108.209 148.541 107.627 148.904C107.05 149.262 106.591 149.746 106.251 150.358C105.917 150.963 105.749 151.635 105.749 152.374C105.749 153.112 105.911 153.784 106.234 154.39C106.563 154.99 107.01 155.468 107.575 155.826C108.146 156.178 108.795 156.354 109.522 156.354C110.07 156.354 110.58 156.247 111.053 156.034C111.526 155.815 111.939 155.518 112.29 155.143C112.648 154.762 112.928 154.332 113.13 153.853C113.332 153.369 113.433 152.864 113.433 152.339C113.433 151.647 113.265 150.998 112.931 150.392C112.602 149.787 112.146 149.296 111.564 148.921C110.987 148.547 110.329 148.359 109.591 148.359Z" fill="black"/>
<path d="M102.465 59.2969V50.4985H105.645V51.1356H103.3V54.4408H105.211V55.0779H103.3V58.733H105.666V59.3491L102.465 59.2969Z" fill="black"/>
<path d="M106.501 56.07V55.4434H108.804V56.07H106.501Z" fill="black"/>
<path d="M111.128 59.2969L109.64 50.4985H110.345L111.509 57.6469L112.835 50.6291H113.519L114.877 57.6573L115.953 50.4985H116.647L115.227 59.2969H114.585L113.18 52.0389L111.801 59.2969H111.128Z" fill="black"/>
<path d="M116.986 59.2969L118.845 50.4985H119.712L121.581 59.2969H120.788L120.354 56.942H118.266L117.822 59.2969H116.986ZM118.354 56.3415H120.224L119.279 51.5951L118.354 56.3415Z" fill="black"/>
<path d="M122.646 59.2969V50.4985H123.471V58.6808H125.973V59.2969H122.646Z" fill="black"/>
<path d="M126.798 59.2969V50.4985H127.623V58.6808H130.124V59.2969H126.798Z" fill="black"/>
<path d="M130.938 59.2969V50.4985H134.124V51.1356H131.753V54.4408H133.664V55.0779H131.753V58.733H134.124V59.3491L130.938 59.2969Z" fill="black"/>
<path d="M136.359 59.2969V51.1356H134.698V50.4985H138.792V51.1356H137.184V59.2969H136.359Z" fill="black"/>
<path d="M112.281 140.19V130.791H115.414C115.898 130.772 116.378 130.884 116.803 131.115C117.168 131.325 117.452 131.65 117.612 132.039C117.802 132.506 117.893 133.008 117.879 133.512C117.913 134.087 117.79 134.661 117.524 135.172C117.301 135.54 116.958 135.821 116.553 135.966C116.109 136.117 115.643 136.191 115.174 136.185H114.339V140.19H112.281ZM114.37 134.76H115.043C115.246 134.771 115.447 134.724 115.623 134.624C115.759 134.522 115.852 134.373 115.884 134.206C115.93 133.974 115.951 133.738 115.947 133.501C115.95 133.289 115.933 133.078 115.895 132.869C115.868 132.699 115.779 132.544 115.644 132.436C115.465 132.313 115.249 132.256 115.033 132.274H114.349L114.37 134.76Z" fill="#263238"/>
<path d="M117.89 140.19L119.66 130.791H122.02L123.769 140.19H121.858L121.55 138.211H120.171L119.848 140.19H117.89ZM120.354 136.968H121.352L120.829 133.313L120.354 136.968Z" fill="#263238"/>
<path d="M125.435 140.19V136.378L123.654 130.833H125.607L126.5 133.799L127.299 130.833H129.174L127.424 136.378V140.19H125.435Z" fill="#263238"/>
<path d="M72.8793 32.5833C63.6998 28.4478 54.2957 23.2262 48.7869 14.4643C47.5755 12.5428 46.6356 10.6473 46.0351 9.76489C45.4346 10.6735 44.5 12.5689 43.2885 14.4643C37.7641 23.2262 28.3652 28.4478 19.1909 32.5833C18.7836 32.7713 12.2253 35.0583 12.2305 35.1262C12.2357 35.1941 13.6142 69.0666 24.0522 83.9273C32.9654 96.6053 43.2259 101.112 46.0351 102.156C48.8443 101.112 59.0891 96.6053 68.018 83.9273C78.4612 69.0822 79.8397 35.1314 79.8397 35.1262C79.8397 35.121 73.271 32.7713 72.8793 32.5833Z" fill="#92E3A9"/>
<path d="M69.9913 35.1001C61.7986 31.4136 53.4075 26.7455 48.4888 18.9131C47.4079 17.1952 46.5672 15.5034 46.0346 14.6941C45.5125 15.5034 44.6613 17.1952 43.5805 18.9131C38.6669 26.7351 30.2706 31.4136 22.0988 35.1001C21.7333 35.262 15.8799 37.3036 15.8799 37.3663C15.8799 37.4289 17.1174 67.6515 26.4327 80.9196C34.3696 92.2296 43.5074 96.2502 46.0346 97.1849C48.541 96.2502 57.6997 92.2296 65.6522 80.9196C74.9675 67.6724 76.205 37.3715 76.205 37.3663C76.205 37.361 70.3516 35.262 69.9913 35.1001Z" fill="white"/>
<path d="M46.2548 79.75C57.9082 79.75 67.3553 70.303 67.3553 58.6495C67.3553 46.9961 57.9082 37.5491 46.2548 37.5491C34.6013 37.5491 25.1543 46.9961 25.1543 58.6495C25.1543 70.303 34.6013 79.75 46.2548 79.75Z" fill="#263238" stroke="#263238" stroke-linecap="round" stroke-linejoin="round"/>
<path d="M44.9488 65.2756H44.7556C44.4058 65.2466 44.0673 65.1373 43.7667 64.9561C43.466 64.775 43.2112 64.527 43.022 64.2313L36.7195 54.211C36.5471 53.9584 36.4273 53.6736 36.3674 53.3736C36.3074 53.0737 36.3086 52.7647 36.3707 52.4652C36.4328 52.1657 36.5546 51.8818 36.7289 51.6304C36.9032 51.379 37.1263 51.1654 37.385 51.0021C37.6437 50.8389 37.9327 50.7295 38.2346 50.6804C38.5365 50.6313 38.8452 50.6436 39.1423 50.7165C39.4394 50.7894 39.7187 50.9214 39.9637 51.1046C40.2086 51.2879 40.4141 51.5186 40.5679 51.783L45.2673 59.2394L58.2638 44.7338C58.4584 44.4953 58.6992 44.2986 58.9719 44.1557C59.2446 44.0129 59.5434 43.9268 59.8502 43.9027C60.1571 43.8786 60.4657 43.917 60.7573 44.0156C61.0489 44.1142 61.3175 44.2708 61.5469 44.4762C61.7762 44.6815 61.9616 44.9312 62.0917 45.2101C62.2218 45.4891 62.2939 45.7916 62.3038 46.0992C62.3137 46.4069 62.2611 46.7134 62.1492 47.0001C62.0373 47.2869 61.8684 47.548 61.6527 47.7676L46.6406 64.5185C46.4279 64.7568 46.1672 64.9474 45.8756 65.0779C45.5841 65.2084 45.2682 65.2758 44.9488 65.2756Z" fill="#92E3A9" stroke="#263238" stroke-miterlimit="10"/>
<path opacity="0.18" d="M52.7818 60.8215C40.8721 64.7613 30.4879 72.3181 23.0762 82.4389C23.3947 82.9611 23.7184 83.4467 24.0526 83.9219C32.9659 96.5999 43.2263 101.106 46.0355 102.15C48.8448 101.106 59.0895 96.5999 68.0185 83.9219C73.9502 75.489 76.9578 60.8842 78.4617 49.8457C72.5299 53.2136 64.2171 57.0724 52.7818 60.8215Z" fill="black"/>
<path d="M72.8793 32.5833C63.6998 28.4478 54.2957 23.2262 48.7869 14.4643C47.5755 12.5428 46.6356 10.6473 46.0351 9.76489C45.4346 10.6735 44.4999 12.5689 43.2885 14.4643C37.7641 23.2262 28.3652 28.4478 19.1909 32.5833C18.7836 32.7713 12.2253 35.0583 12.2305 35.1262C12.2357 35.1941 13.6142 69.0666 24.0522 83.9273C32.9654 96.6053 43.2259 101.112 46.0351 102.156C48.8443 101.112 59.0891 96.6053 68.018 83.9273C78.4612 69.0822 79.8397 35.1314 79.8397 35.1262C79.8397 35.121 73.271 32.7713 72.8793 32.5833Z" stroke="#263238" stroke-miterlimit="10"/>
<path d="M55.029 241.387C65.1595 231.257 65.1595 214.832 55.029 204.701C44.8984 194.571 28.4735 194.571 18.343 204.701C8.21243 214.832 8.21244 231.257 18.343 241.387C28.4735 251.518 44.8984 251.518 55.029 241.387Z" fill="white" stroke="#263238" stroke-miterlimit="10"/>
<path d="M41.6481 244.254C53.3629 241.513 60.6375 229.794 57.8962 218.079C55.155 206.365 43.4361 199.09 31.7213 201.831C20.0065 204.572 12.732 216.291 15.4732 228.006C18.2144 239.721 29.9333 246.996 41.6481 244.254Z" fill="white" stroke="#263238" stroke-miterlimit="10"/>
<path d="M41.1628 242.867L40.4265 239.4C37.8436 239.849 35.7549 239.437 34.1606 238.163C32.5663 236.889 31.3949 234.734 30.6465 231.698L35.7114 229.688C35.9564 230.73 36.3062 231.745 36.7558 232.717C37.0435 233.383 37.5097 233.958 38.1029 234.377C38.3656 234.539 38.6583 234.646 38.9634 234.692C39.2685 234.737 39.5797 234.721 39.8783 234.643C40.1926 234.613 40.4922 234.495 40.7439 234.304C40.9956 234.114 41.1894 233.857 41.3038 233.562C41.4826 232.976 41.5042 232.353 41.3664 231.756C41.1632 230.618 40.6166 229.571 39.7999 228.753C38.9111 227.93 37.9174 227.228 36.8445 226.665L33.0954 224.613C32.2675 224.122 31.4737 223.576 30.7196 222.978C29.9855 222.39 29.3539 221.684 28.8503 220.89C28.2769 219.947 27.8772 218.909 27.6702 217.825C27.1863 215.499 27.47 213.536 28.5213 211.935C29.6911 210.269 31.423 209.083 33.3983 208.593L32.6934 205.272L34.4844 204.891L35.1893 208.212C36.3544 207.986 37.5577 208.058 38.6877 208.42C39.6065 208.741 40.4279 209.291 41.074 210.018C41.7027 210.752 42.2184 211.576 42.6039 212.462C42.9931 213.336 43.316 214.239 43.5699 215.162L38.4006 217.078C38.2126 216.262 37.9648 215.461 37.6591 214.681C37.4443 214.096 37.0851 213.575 36.6148 213.167C36.3855 212.999 36.119 212.889 35.8381 212.846C35.5572 212.804 35.2701 212.829 35.0013 212.921C34.6895 212.985 34.398 213.124 34.1522 213.326C33.9064 213.528 33.7139 213.787 33.5915 214.081C33.3434 214.671 33.285 215.325 33.4244 215.95C33.5877 216.946 34.0849 217.858 34.8342 218.535C35.5552 219.133 36.3216 219.674 37.1265 220.153L40.7816 222.179C41.7621 222.751 42.6961 223.399 43.5752 224.117C44.4595 224.846 45.2318 225.701 45.8674 226.654C46.5543 227.72 47.031 228.908 47.2721 230.153C47.5531 231.395 47.5406 232.686 47.2355 233.923C46.944 235.105 46.3398 236.187 45.4863 237.056C44.5644 237.973 43.4257 238.643 42.1758 239.003L42.9225 242.512L41.1628 242.867Z" fill="#263238"/>
<path d="M203.79 233.969C209.838 220.982 204.212 205.55 191.224 199.502C178.237 193.454 162.805 199.08 156.757 212.068C150.709 225.055 156.335 240.487 169.323 246.535C182.31 252.583 197.742 246.957 203.79 233.969Z" fill="white" stroke="#263238" stroke-miterlimit="10"/>
<path d="M185.46 244.19C197.147 241.335 204.307 229.545 201.452 217.858C198.596 206.17 186.807 199.011 175.119 201.866C163.432 204.722 156.272 216.511 159.128 228.199C161.983 239.886 173.773 247.046 185.46 244.19Z" fill="white" stroke="#263238" stroke-miterlimit="10"/>
<path d="M184.757 242.868L184.016 239.4C181.436 239.849 179.348 239.437 177.75 238.163C176.152 236.889 174.979 234.734 174.231 231.698L179.301 229.688C179.543 230.731 179.893 231.746 180.345 232.717C180.631 233.385 181.098 233.96 181.692 234.377C181.954 234.539 182.246 234.646 182.55 234.692C182.854 234.738 183.165 234.721 183.462 234.643C183.777 234.615 184.078 234.498 184.33 234.307C184.582 234.116 184.775 233.858 184.888 233.563C185.071 232.977 185.094 232.353 184.956 231.756C184.75 230.619 184.204 229.572 183.389 228.754C182.499 227.931 181.506 227.229 180.434 226.665L176.68 224.613C175.853 224.122 175.061 223.576 174.309 222.978C173.573 222.392 172.942 221.686 172.44 220.89C171.866 219.947 171.466 218.909 171.259 217.825C170.762 215.489 171.038 213.527 172.09 211.94C173.259 210.269 174.993 209.076 176.972 208.582L176.267 205.262L178.058 204.88L178.763 208.201C179.926 207.976 181.128 208.048 182.256 208.41C183.176 208.729 183.997 209.279 184.642 210.008C185.275 210.74 185.792 211.564 186.178 212.452C186.565 213.326 186.886 214.229 187.138 215.151L181.974 217.068C181.784 216.252 181.536 215.451 181.233 214.671C181.018 214.086 180.659 213.565 180.188 213.157C179.96 212.989 179.695 212.879 179.414 212.836C179.134 212.793 178.848 212.819 178.58 212.911C178.268 212.975 177.977 213.113 177.731 213.315C177.485 213.517 177.293 213.777 177.17 214.07C176.92 214.66 176.861 215.315 177.003 215.94C177.163 216.936 177.658 217.848 178.408 218.524C179.13 219.121 179.896 219.662 180.7 220.143L184.355 222.169C185.337 222.739 186.271 223.387 187.149 224.106C188.034 224.834 188.807 225.689 189.441 226.644C190.13 227.71 190.608 228.897 190.851 230.142C191.129 231.385 191.117 232.675 190.814 233.912C190.52 235.095 189.914 236.177 189.06 237.045C188.14 237.963 187.003 238.633 185.755 238.993L186.496 242.502L184.757 242.868Z" fill="#263238"/>
<path d="M245.834 186.041V184.615" stroke="#263238" stroke-miterlimit="10"/>
<path d="M247.077 182.97H203.466V186.156H247.077V182.97Z" fill="white" stroke="#263238" stroke-miterlimit="10"/>
<path d="M205.393 186.437V184.458" stroke="#263238" stroke-miterlimit="10"/>
<path d="M206.74 183.111V185.09" stroke="#263238" stroke-miterlimit="10"/>
<path d="M244.252 183.273V185.169" stroke="#263238" stroke-miterlimit="10"/>
<path d="M242.194 183.273V185.09" stroke="#263238" stroke-miterlimit="10"/>
<path d="M237.13 183.19V185.487" stroke="#263238" stroke-miterlimit="10"/>
<path d="M209.982 183.43V184.459" stroke="#263238" stroke-miterlimit="10"/>
<path d="M210.776 185.801V183.983" stroke="#263238" stroke-miterlimit="10"/>
<path d="M216.395 183.19V185.487" stroke="#263238" stroke-miterlimit="10"/>
<path d="M226.284 183.43V185.012" stroke="#263238" stroke-miterlimit="10"/>
<path d="M248.988 189.174V187.748" stroke="#263238" stroke-miterlimit="10"/>
<path d="M250.231 186.103H206.62V189.288H250.231V186.103Z" fill="white" stroke="#263238" stroke-miterlimit="10"/>
<path d="M208.547 189.565V187.586" stroke="#263238" stroke-miterlimit="10"/>
<path d="M209.894 186.244V188.223" stroke="#263238" stroke-miterlimit="10"/>
<path d="M247.4 186.401V188.302" stroke="#263238" stroke-miterlimit="10"/>
<path d="M245.343 186.401V188.223" stroke="#263238" stroke-miterlimit="10"/>
<path d="M240.278 186.323V188.62" stroke="#263238" stroke-miterlimit="10"/>
<path d="M213.137 186.558V187.586" stroke="#263238" stroke-miterlimit="10"/>
<path d="M213.93 188.934V187.116" stroke="#263238" stroke-miterlimit="10"/>
<path d="M219.549 186.323V188.62" stroke="#263238" stroke-miterlimit="10"/>
<path d="M229.438 186.558V188.145" stroke="#263238" stroke-miterlimit="10"/>
<path d="M247.881 192.301V190.876" stroke="#263238" stroke-miterlimit="10"/>
<path d="M249.123 189.231H205.513V192.416H249.123V189.231Z" fill="white" stroke="#263238" stroke-miterlimit="10"/>
<path d="M207.439 192.698V190.719" stroke="#263238" stroke-miterlimit="10"/>
<path d="M208.787 189.377V191.351" stroke="#263238" stroke-miterlimit="10"/>
<path d="M246.299 189.534V191.435" stroke="#263238" stroke-miterlimit="10"/>
<path d="M244.236 189.534V191.351" stroke="#263238" stroke-miterlimit="10"/>
<path d="M239.177 189.456V191.748" stroke="#263238" stroke-miterlimit="10"/>
<path d="M212.029 189.691V190.719" stroke="#263238" stroke-miterlimit="10"/>
<path d="M212.823 192.066V190.244" stroke="#263238" stroke-miterlimit="10"/>
<path d="M218.441 189.456V191.748" stroke="#263238" stroke-miterlimit="10"/>
<path d="M228.331 189.691V191.273" stroke="#263238" stroke-miterlimit="10"/>
<path d="M248.988 195.434V194.009" stroke="#263238" stroke-miterlimit="10"/>
<path d="M250.236 192.364H206.625V195.549H250.236V192.364Z" fill="white" stroke="#263238" stroke-miterlimit="10"/>
<path d="M208.552 195.831V193.852" stroke="#263238" stroke-miterlimit="10"/>
<path d="M209.899 192.505V194.484" stroke="#263238" stroke-miterlimit="10"/>
<path d="M247.406 192.667V194.562" stroke="#263238" stroke-miterlimit="10"/>
<path d="M245.349 192.667V194.484" stroke="#263238" stroke-miterlimit="10"/>
<path d="M240.283 192.583V194.881" stroke="#263238" stroke-miterlimit="10"/>
<path d="M213.142 192.823V193.852" stroke="#263238" stroke-miterlimit="10"/>
<path d="M213.936 195.194V193.377" stroke="#263238" stroke-miterlimit="10"/>
<path d="M219.554 192.583V194.881" stroke="#263238" stroke-miterlimit="10"/>
<path d="M229.443 192.823V194.406" stroke="#263238" stroke-miterlimit="10"/>
<path d="M245.834 198.567V197.142" stroke="#263238" stroke-miterlimit="10"/>
<path d="M247.077 195.497H203.466V198.682H247.077V195.497Z" fill="white" stroke="#263238" stroke-miterlimit="10"/>
<path d="M205.393 198.959V196.98" stroke="#263238" stroke-miterlimit="10"/>
<path d="M206.74 195.638V197.617" stroke="#263238" stroke-miterlimit="10"/>
<path d="M244.252 195.795V197.695" stroke="#263238" stroke-miterlimit="10"/>
<path d="M242.194 195.795V197.617" stroke="#263238" stroke-miterlimit="10"/>
<path d="M237.13 195.716V198.014" stroke="#263238" stroke-miterlimit="10"/>
<path d="M209.982 195.951V196.98" stroke="#263238" stroke-miterlimit="10"/>
<path d="M210.776 198.327V196.51" stroke="#263238" stroke-miterlimit="10"/>
<path d="M216.395 195.716V198.014" stroke="#263238" stroke-miterlimit="10"/>
<path d="M226.284 195.951V197.539" stroke="#263238" stroke-miterlimit="10"/>
<path d="M245.834 201.695V200.27" stroke="#263238" stroke-miterlimit="10"/>
<path d="M247.077 198.625H203.466V201.81H247.077V198.625Z" fill="white" stroke="#263238" stroke-miterlimit="10"/>
<path d="M205.393 202.092V200.113" stroke="#263238" stroke-miterlimit="10"/>
<path d="M206.74 198.766V200.745" stroke="#263238" stroke-miterlimit="10"/>
<path d="M244.252 198.928V200.828" stroke="#263238" stroke-miterlimit="10"/>
<path d="M242.194 198.928V200.745" stroke="#263238" stroke-miterlimit="10"/>
<path d="M237.13 198.849V201.142" stroke="#263238" stroke-miterlimit="10"/>
<path d="M209.982 199.084V200.113" stroke="#263238" stroke-miterlimit="10"/>
<path d="M210.776 201.46V199.638" stroke="#263238" stroke-miterlimit="10"/>
<path d="M216.395 198.849V201.142" stroke="#263238" stroke-miterlimit="10"/>
<path d="M226.284 199.084V200.666" stroke="#263238" stroke-miterlimit="10"/>
<path d="M245.834 204.828V203.403" stroke="#263238" stroke-miterlimit="10"/>
<path d="M247.077 201.758H203.466V204.943H247.077V201.758Z" fill="white" stroke="#263238" stroke-miterlimit="10"/>
<path d="M205.393 205.225V203.246" stroke="#263238" stroke-miterlimit="10"/>
<path d="M206.74 201.899V203.878" stroke="#263238" stroke-miterlimit="10"/>
<path d="M244.252 202.055V203.956" stroke="#263238" stroke-miterlimit="10"/>
<path d="M242.194 202.055V203.878" stroke="#263238" stroke-miterlimit="10"/>
<path d="M237.13 201.977V204.275" stroke="#263238" stroke-miterlimit="10"/>
<path d="M209.982 202.217V203.246" stroke="#263238" stroke-miterlimit="10"/>
<path d="M210.776 204.588V202.771" stroke="#263238" stroke-miterlimit="10"/>
<path d="M216.395 201.977V204.275" stroke="#263238" stroke-miterlimit="10"/>
<path d="M226.284 202.217V203.799" stroke="#263238" stroke-miterlimit="10"/>
<path d="M249.244 207.961V206.535" stroke="#263238" stroke-miterlimit="10"/>
<path d="M250.487 204.891H206.876V208.076H250.487V204.891Z" fill="white" stroke="#263238" stroke-miterlimit="10"/>
<path d="M208.808 208.353V206.374" stroke="#263238" stroke-miterlimit="10"/>
<path d="M210.149 205.032V207.011" stroke="#263238" stroke-miterlimit="10"/>
<path d="M247.662 205.188V207.089" stroke="#263238" stroke-miterlimit="10"/>
<path d="M245.604 205.188V207.011" stroke="#263238" stroke-miterlimit="10"/>
<path d="M240.539 205.11V207.402" stroke="#263238" stroke-miterlimit="10"/>
<path d="M213.397 205.345V206.374" stroke="#263238" stroke-miterlimit="10"/>
<path d="M214.186 207.721V205.904" stroke="#263238" stroke-miterlimit="10"/>
<path d="M219.805 205.11V207.402" stroke="#263238" stroke-miterlimit="10"/>
<path d="M229.699 205.345V206.932" stroke="#263238" stroke-miterlimit="10"/>
<path d="M250.435 211.089V209.663" stroke="#263238" stroke-miterlimit="10"/>
<path d="M251.682 208.019H208.071V211.204H251.682V208.019Z" fill="white" stroke="#263238" stroke-miterlimit="10"/>
<path d="M209.998 211.486V209.507" stroke="#263238" stroke-miterlimit="10"/>
<path d="M211.346 208.159V210.138" stroke="#263238" stroke-miterlimit="10"/>
<path d="M248.853 208.321V210.222" stroke="#263238" stroke-miterlimit="10"/>
<path d="M246.795 208.321V210.138" stroke="#263238" stroke-miterlimit="10"/>
<path d="M241.729 208.243V210.535" stroke="#263238" stroke-miterlimit="10"/>
<path d="M214.588 208.478V209.506" stroke="#263238" stroke-miterlimit="10"/>
<path d="M215.382 210.854V209.031" stroke="#263238" stroke-miterlimit="10"/>
<path d="M221 208.243V210.535" stroke="#263238" stroke-miterlimit="10"/>
<path d="M230.89 208.478V210.06" stroke="#263238" stroke-miterlimit="10"/>
<path d="M248.993 214.222V212.796" stroke="#263238" stroke-miterlimit="10"/>
<path d="M250.236 211.151H206.625V214.337H250.236V211.151Z" fill="white" stroke="#263238" stroke-miterlimit="10"/>
<path d="M208.558 214.619V212.64" stroke="#263238" stroke-miterlimit="10"/>
<path d="M209.899 211.292V213.271" stroke="#263238" stroke-miterlimit="10"/>
<path d="M247.411 211.449V213.35" stroke="#263238" stroke-miterlimit="10"/>
<path d="M245.354 211.449V213.271" stroke="#263238" stroke-miterlimit="10"/>
<path d="M240.289 211.371V213.668" stroke="#263238" stroke-miterlimit="10"/>
<path d="M213.146 211.611V212.639" stroke="#263238" stroke-miterlimit="10"/>
<path d="M213.936 213.981V212.164" stroke="#263238" stroke-miterlimit="10"/>
<path d="M219.554 211.371V213.668" stroke="#263238" stroke-miterlimit="10"/>
<path d="M229.448 211.611V213.193" stroke="#263238" stroke-miterlimit="10"/>
<path d="M245.834 217.355V215.929" stroke="#263238" stroke-miterlimit="10"/>
<path d="M247.077 214.284H203.466V217.469H247.077V214.284Z" fill="white" stroke="#263238" stroke-miterlimit="10"/>
<path d="M205.393 217.746V215.767" stroke="#263238" stroke-miterlimit="10"/>
<path d="M206.74 214.425V216.404" stroke="#263238" stroke-miterlimit="10"/>
<path d="M244.252 214.582V216.483" stroke="#263238" stroke-miterlimit="10"/>
<path d="M242.194 214.582V216.404" stroke="#263238" stroke-miterlimit="10"/>
<path d="M237.13 214.504V216.796" stroke="#263238" stroke-miterlimit="10"/>
<path d="M209.982 214.739V215.767" stroke="#263238" stroke-miterlimit="10"/>
<path d="M210.776 217.114V215.297" stroke="#263238" stroke-miterlimit="10"/>
<path d="M216.395 214.504V216.796" stroke="#263238" stroke-miterlimit="10"/>
<path d="M226.284 214.739V216.326" stroke="#263238" stroke-miterlimit="10"/>
<path d="M244.779 220.482V219.057" stroke="#263238" stroke-miterlimit="10"/>
<path d="M246.022 217.412H202.411V220.597H246.022V217.412Z" fill="white" stroke="#263238" stroke-miterlimit="10"/>
<path d="M204.344 220.879V218.9" stroke="#263238" stroke-miterlimit="10"/>
<path d="M205.686 217.553V219.532" stroke="#263238" stroke-miterlimit="10"/>
<path d="M243.197 217.715V219.61" stroke="#263238" stroke-miterlimit="10"/>
<path d="M241.14 217.715V219.532" stroke="#263238" stroke-miterlimit="10"/>
<path d="M236.075 217.637V219.929" stroke="#263238" stroke-miterlimit="10"/>
<path d="M208.933 217.872V218.9" stroke="#263238" stroke-miterlimit="10"/>
<path d="M209.722 220.247V218.425" stroke="#263238" stroke-miterlimit="10"/>
<path d="M215.34 217.637V219.929" stroke="#263238" stroke-miterlimit="10"/>
<path d="M225.234 217.872V219.454" stroke="#263238" stroke-miterlimit="10"/>
<path d="M244.57 223.615V222.19" stroke="#263238" stroke-miterlimit="10"/>
<path d="M245.813 220.545H202.202V223.73H245.813V220.545Z" fill="white" stroke="#263238" stroke-miterlimit="10"/>
<path d="M204.129 224.012V222.033" stroke="#263238" stroke-miterlimit="10"/>
<path d="M205.477 220.686V222.665" stroke="#263238" stroke-miterlimit="10"/>
<path d="M242.988 220.843V222.743" stroke="#263238" stroke-miterlimit="10"/>
<path d="M240.931 220.843V222.665" stroke="#263238" stroke-miterlimit="10"/>
<path d="M235.866 220.764V223.062" stroke="#263238" stroke-miterlimit="10"/>
<path d="M208.719 221.004V222.033" stroke="#263238" stroke-miterlimit="10"/>
<path d="M209.513 223.375V221.558" stroke="#263238" stroke-miterlimit="10"/>
<path d="M215.131 220.764V223.062" stroke="#263238" stroke-miterlimit="10"/>
<path d="M225.021 221.004V222.587" stroke="#263238" stroke-miterlimit="10"/>
<path d="M244.675 226.748V225.323" stroke="#263238" stroke-miterlimit="10"/>
<path d="M245.917 223.678H202.307V226.863H245.917V223.678Z" fill="white" stroke="#263238" stroke-miterlimit="10"/>
<path d="M204.239 227.14V225.161" stroke="#263238" stroke-miterlimit="10"/>
<path d="M205.581 223.819V225.798" stroke="#263238" stroke-miterlimit="10"/>
<path d="M243.093 223.976V225.876" stroke="#263238" stroke-miterlimit="10"/>
<path d="M241.035 223.976V225.798" stroke="#263238" stroke-miterlimit="10"/>
<path d="M235.971 223.897V226.19" stroke="#263238" stroke-miterlimit="10"/>
<path d="M208.828 224.132V225.161" stroke="#263238" stroke-miterlimit="10"/>
<path d="M209.617 226.508V224.686" stroke="#263238" stroke-miterlimit="10"/>
<path d="M215.235 223.897V226.19" stroke="#263238" stroke-miterlimit="10"/>
<path d="M225.131 224.132V225.72" stroke="#263238" stroke-miterlimit="10"/>
<path d="M244.043 229.876V228.45" stroke="#263238" stroke-miterlimit="10"/>
<path d="M245.286 226.806H201.675V229.991H245.286V226.806Z" fill="white" stroke="#263238" stroke-miterlimit="10"/>
<path d="M203.607 230.273V228.294" stroke="#263238" stroke-miterlimit="10"/>
<path d="M204.949 226.947V228.926" stroke="#263238" stroke-miterlimit="10"/>
<path d="M242.461 227.109V229.004" stroke="#263238" stroke-miterlimit="10"/>
<path d="M240.403 227.109V228.926" stroke="#263238" stroke-miterlimit="10"/>
<path d="M235.339 227.03V229.323" stroke="#263238" stroke-miterlimit="10"/>
<path d="M208.197 227.265V228.294" stroke="#263238" stroke-miterlimit="10"/>
<path d="M208.985 229.641V227.819" stroke="#263238" stroke-miterlimit="10"/>
<path d="M214.604 227.03V229.323" stroke="#263238" stroke-miterlimit="10"/>
<path d="M224.499 227.265V228.847" stroke="#263238" stroke-miterlimit="10"/>
<path d="M244.147 233.009V231.583" stroke="#263238" stroke-miterlimit="10"/>
<path d="M245.39 229.939H201.779V233.124H245.39V229.939Z" fill="white" stroke="#263238" stroke-miterlimit="10"/>
<path d="M203.711 233.406V231.427" stroke="#263238" stroke-miterlimit="10"/>
<path d="M205.054 230.08V232.059" stroke="#263238" stroke-miterlimit="10"/>
<path d="M242.565 230.236V232.137" stroke="#263238" stroke-miterlimit="10"/>
<path d="M240.508 230.236V232.059" stroke="#263238" stroke-miterlimit="10"/>
<path d="M235.443 230.158V232.455" stroke="#263238" stroke-miterlimit="10"/>
<path d="M208.302 230.398V231.427" stroke="#263238" stroke-miterlimit="10"/>
<path d="M209.09 232.769V230.952" stroke="#263238" stroke-miterlimit="10"/>
<path d="M214.708 230.158V232.455" stroke="#263238" stroke-miterlimit="10"/>
<path d="M224.603 230.398V231.98" stroke="#263238" stroke-miterlimit="10"/>
<path d="M244.57 236.137V234.717" stroke="#263238" stroke-miterlimit="10"/>
<path d="M245.813 233.072H202.202V236.257H245.813V233.072Z" fill="white" stroke="#263238" stroke-miterlimit="10"/>
<path d="M204.129 236.534V234.555" stroke="#263238" stroke-miterlimit="10"/>
<path d="M205.477 233.213V235.192" stroke="#263238" stroke-miterlimit="10"/>
<path d="M242.988 233.369V235.27" stroke="#263238" stroke-miterlimit="10"/>
<path d="M240.931 233.369V235.192" stroke="#263238" stroke-miterlimit="10"/>
<path d="M235.866 233.291V235.583" stroke="#263238" stroke-miterlimit="10"/>
<path d="M208.719 233.526V234.555" stroke="#263238" stroke-miterlimit="10"/>
<path d="M209.513 235.902V234.079" stroke="#263238" stroke-miterlimit="10"/>
<path d="M215.131 233.291V235.583" stroke="#263238" stroke-miterlimit="10"/>
<path d="M225.021 233.526V235.108" stroke="#263238" stroke-miterlimit="10"/>
<path d="M244.675 239.27V237.844" stroke="#263238" stroke-miterlimit="10"/>
<path d="M245.917 236.199H202.307V239.385H245.917V236.199Z" fill="white" stroke="#263238" stroke-miterlimit="10"/>
<path d="M204.239 239.666V237.688" stroke="#263238" stroke-miterlimit="10"/>
<path d="M205.581 236.34V238.319" stroke="#263238" stroke-miterlimit="10"/>
<path d="M243.093 236.502V238.398" stroke="#263238" stroke-miterlimit="10"/>
<path d="M241.035 236.502V238.319" stroke="#263238" stroke-miterlimit="10"/>
<path d="M235.971 236.424V238.716" stroke="#263238" stroke-miterlimit="10"/>
<path d="M208.828 236.659V237.688" stroke="#263238" stroke-miterlimit="10"/>
<path d="M209.617 239.035V237.212" stroke="#263238" stroke-miterlimit="10"/>
<path d="M215.235 236.424V238.716" stroke="#263238" stroke-miterlimit="10"/>
<path d="M225.131 236.659V238.241" stroke="#263238" stroke-miterlimit="10"/>
<path d="M245.834 242.403V240.977" stroke="#263238" stroke-miterlimit="10"/>
<path d="M247.077 239.332H203.466V242.517H247.077V239.332Z" fill="white" stroke="#263238" stroke-miterlimit="10"/>
<path d="M205.393 242.8V240.821" stroke="#263238" stroke-miterlimit="10"/>
<path d="M206.74 239.473V241.452" stroke="#263238" stroke-miterlimit="10"/>
<path d="M244.252 239.63V241.531" stroke="#263238" stroke-miterlimit="10"/>
<path d="M242.194 239.63V241.452" stroke="#263238" stroke-miterlimit="10"/>
<path d="M237.13 239.552V241.849" stroke="#263238" stroke-miterlimit="10"/>
<path d="M209.982 239.792V240.821" stroke="#263238" stroke-miterlimit="10"/>
<path d="M210.776 242.162V240.345" stroke="#263238" stroke-miterlimit="10"/>
<path d="M216.395 239.552V241.849" stroke="#263238" stroke-miterlimit="10"/>
<path d="M226.284 239.792V241.374" stroke="#263238" stroke-miterlimit="10"/>
<path d="M245.834 245.53V244.11" stroke="#263238" stroke-miterlimit="10"/>
<path d="M247.077 242.46H203.466V245.64H247.077V242.46Z" fill="white" stroke="#263238" stroke-miterlimit="10"/>
<path d="M205.393 245.927V243.948" stroke="#263238" stroke-miterlimit="10"/>
<path d="M206.74 242.606V244.585" stroke="#263238" stroke-miterlimit="10"/>
<path d="M244.252 242.763V244.664" stroke="#263238" stroke-miterlimit="10"/>
<path d="M242.194 242.763V244.585" stroke="#263238" stroke-miterlimit="10"/>
<path d="M237.13 242.685V244.977" stroke="#263238" stroke-miterlimit="10"/>
<path d="M209.982 242.919V243.948" stroke="#263238" stroke-miterlimit="10"/>
<path d="M210.776 245.295V243.473" stroke="#263238" stroke-miterlimit="10"/>
<path d="M216.395 242.685V244.977" stroke="#263238" stroke-miterlimit="10"/>
<path d="M226.284 242.919V244.502" stroke="#263238" stroke-miterlimit="10"/>
<path d="M245.834 248.663V247.238" stroke="#263238" stroke-miterlimit="10"/>
<path d="M247.077 245.593H203.466V248.773H247.077V245.593Z" fill="white" stroke="#263238" stroke-miterlimit="10"/>
<path d="M205.393 249.06V247.081" stroke="#263238" stroke-miterlimit="10"/>
<path d="M206.74 245.734V247.713" stroke="#263238" stroke-miterlimit="10"/>
<path d="M244.252 245.896V247.791" stroke="#263238" stroke-miterlimit="10"/>
<path d="M242.194 245.896V247.713" stroke="#263238" stroke-miterlimit="10"/>
<path d="M237.13 245.818V248.11" stroke="#263238" stroke-miterlimit="10"/>
<path d="M209.982 246.052V247.081" stroke="#263238" stroke-miterlimit="10"/>
<path d="M210.776 248.428V246.606" stroke="#263238" stroke-miterlimit="10"/>
<path d="M216.395 245.818V248.11" stroke="#263238" stroke-miterlimit="10"/>
<path d="M226.284 246.052V247.635" stroke="#263238" stroke-miterlimit="10"/>
<path d="M112.543 157.249H95.4209V201.539H112.543V157.249Z" fill="#263238" stroke="#263238" stroke-linecap="round" stroke-linejoin="round"/>
<path d="M152.534 164.251V163.729C152.534 162.009 151.851 160.359 150.635 159.143C149.418 157.927 147.769 157.244 146.049 157.244H95.3994V157.306C96.9601 157.508 98.3938 158.271 99.4326 159.453C100.471 160.635 101.044 162.155 101.044 163.729V175.008H101.159V241.061C101.159 242.085 101.36 243.098 101.752 244.044C102.144 244.99 102.718 245.849 103.442 246.573C104.166 247.297 105.026 247.871 105.971 248.263C106.917 248.655 107.931 248.857 108.955 248.857H152.524V164.267L152.534 164.251Z" fill="#DBDBDB" stroke="#263238" stroke-linecap="round" stroke-linejoin="round"/>
<path d="M118.239 237.275V242.376C118.237 243.83 117.748 245.241 116.848 246.383C115.949 247.525 114.691 248.332 113.278 248.674V248.862H135.653V237.275H118.239Z" fill="#263238" stroke="#263238" stroke-linecap="round" stroke-linejoin="round"/>
<path d="M121.726 231.098V242.377C121.724 243.949 121.152 245.467 120.114 246.648C119.077 247.83 117.646 248.594 116.087 248.799V248.857H160.993C161.844 248.857 162.688 248.689 163.474 248.363C164.261 248.037 164.976 247.559 165.578 246.957C166.181 246.355 166.658 245.64 166.984 244.853C167.31 244.066 167.478 243.223 167.478 242.371V231.098H121.726Z" fill="#DBDBDB" stroke="#263238" stroke-linecap="round" stroke-linejoin="round"/>
<path d="M111.143 166.068H144.89" stroke="#263238" stroke-miterlimit="10"/>
<path d="M111.143 172.219H144.89" stroke="#263238" stroke-miterlimit="10"/>
<path d="M111.143 177.441H144.89" stroke="#263238" stroke-miterlimit="10"/>
<path d="M111.143 213.799H144.89" stroke="#263238" stroke-miterlimit="10"/>
<path d="M111.143 222.754H144.89" stroke="#263238" stroke-miterlimit="10"/>
<path d="M111.143 182.85H131.282" stroke="#263238" stroke-miterlimit="10"/>
<path d="M111.143 187.696H131.282" stroke="#263238" stroke-miterlimit="10"/>
<path d="M111.143 192.542H131.282" stroke="#263238" stroke-miterlimit="10"/>
<path d="M111.143 197.392H131.282" stroke="#263238" stroke-miterlimit="10"/>
<path d="M111.143 202.238H131.282" stroke="#263238" stroke-miterlimit="10"/>
<path d="M111.143 207.089H131.282" stroke="#263238" stroke-miterlimit="10"/>
<path d="M63.6994 241.17C63.6994 241.17 66.0178 244.361 67.0308 244.794C68.0438 245.228 69.9288 245.52 70.5084 246.825C70.8303 247.459 71.0288 248.149 71.0932 248.857H56.739C56.739 248.857 56.1594 246.972 56.739 245.812C57.0964 245.081 57.3411 244.299 57.4649 243.494L63.6994 241.17Z" fill="white" stroke="#263238" stroke-linecap="round" stroke-linejoin="round"/>
<path d="M56.4932 247.405H70.7429C70.9337 247.868 71.0517 248.358 71.0928 248.857H56.7386C56.6047 248.383 56.5224 247.896 56.4932 247.405Z" fill="white" stroke="#263238" stroke-linecap="round" stroke-linejoin="round"/>
<path d="M48.3322 244.361L48.045 248.998H41.0846C40.9221 248.128 40.9722 247.232 41.2308 246.387C41.6642 245.081 42.1028 243.922 42.1028 243.922L48.3322 244.361Z" fill="white" stroke="#263238" stroke-linecap="round" stroke-linejoin="round"/>
<path d="M48.0444 248.998H41.084C40.9774 248.424 40.9616 247.837 41.037 247.259H48.1541L48.0444 248.998Z" fill="white" stroke="#263238" stroke-linecap="round" stroke-linejoin="round"/>
<path d="M69.3488 173.608C69.3488 173.608 68.1896 188.683 67.9025 194.045C67.6153 199.408 63.6991 241.16 63.6991 241.16C63.6991 241.16 58.0441 244.643 57.3183 244.643C56.5925 244.643 55.7518 194.338 55.7518 194.338L48.3319 244.361C47.5339 244.617 46.7047 244.762 45.8673 244.794C44.7081 244.794 42.1025 243.927 42.1025 243.927L44.5515 183.623V173.608C44.5515 173.608 59.1719 175.639 63.1038 175.06C65.2273 174.778 67.3187 174.292 69.3488 173.608Z" fill="#263238" stroke="#263238" stroke-linecap="round" stroke-linejoin="round"/>
<path d="M51.668 182.751L54.8531 185.216L55.7252 194.348" stroke="#808080" stroke-linecap="round" stroke-linejoin="round"/>
<path d="M50.3529 112.369C50.3529 112.369 56.2638 111.628 58.0026 113.648C59.7414 115.669 60.0912 119.585 61.2974 120.525C62.5036 121.465 63.1772 120.296 63.715 121.517C64.2528 122.739 63.3756 124.248 63.3756 124.248C63.3756 124.248 63.5218 130.133 62.8534 130.415C62.1851 130.697 59.1983 130.702 59.1983 130.702L59.6839 133.12L52.2066 133.433L51.5539 130.906C51.5539 130.906 45.8676 127.606 44.3324 125.105C42.7973 122.603 43.1628 117.063 44.6979 115.126C46.2331 113.189 50.3529 112.369 50.3529 112.369Z" fill="white" stroke="#263238" stroke-linecap="round" stroke-linejoin="round"/>
<path d="M63.3752 124.249C63.3752 124.249 59.908 123.157 59.72 123.674C59.5321 124.191 60.1325 130.791 60.1325 130.791C60.1325 130.791 62.5815 131.073 62.853 130.415C63.1245 129.757 63.6467 128.948 63.3752 124.249ZM62.6441 129.789C62.4457 130.311 60.6913 130.092 60.6913 130.092C60.6913 130.092 60.2474 124.776 60.3936 124.348C60.5398 123.92 63.0044 124.812 63.0044 124.812C63.2185 128.609 62.8269 129.261 62.6441 129.789Z" fill="#263238"/>
<path d="M59.5111 120.238C59.6938 120.682 59.9863 120.98 60.1638 120.907C60.3413 120.833 60.3361 120.416 60.1638 119.972C59.9915 119.528 59.6886 119.23 59.5111 119.304C59.3336 119.377 59.3283 119.794 59.5111 120.238Z" fill="#263238"/>
<path d="M62.7803 125.199C62.469 125.357 62.1094 125.39 61.7741 125.294C61.4388 125.197 61.1527 124.976 60.9736 124.677" stroke="#263238" stroke-linecap="round" stroke-linejoin="round"/>
<path d="M59.4484 118.181C59.4484 118.181 58.6913 117.768 58.6025 119.027" stroke="#263238" stroke-linecap="round" stroke-linejoin="round"/>
<path d="M44.6978 115.126C46.2329 113.194 50.3527 112.369 50.3527 112.369C50.3527 112.369 56.2636 111.628 58.0024 113.648C58.0024 113.648 54.7337 112.823 55.1566 114.218C55.5796 115.612 58.9684 117.742 57.804 118.567C56.6395 119.392 55.3289 118.766 55.872 119.987C56.415 121.209 57.0938 122.405 56.5247 122.515C55.9555 122.624 54.3629 121.324 53.6841 121.606C53.0053 121.888 52.2325 123.966 52.8852 125.021C53.3241 125.667 53.9991 126.115 54.765 126.269C54.765 126.269 53.6006 129.313 52.5771 130.107C52.1337 130.458 51.5746 130.629 51.0107 130.587C49.5643 129.705 45.5645 127.141 44.3166 125.105C42.7971 122.603 43.1626 117.063 44.6978 115.126Z" fill="#263238" stroke="#263238" stroke-linecap="round" stroke-linejoin="round"/>
<path d="M44.327 137.386C44.327 137.386 40.1131 140.143 38.98 142.247C37.8469 144.352 35.0899 164.115 34.7662 166.225C34.4425 168.334 39.3873 183.159 39.3873 183.159C39.3873 183.159 38.98 186.553 39.3873 188.38C39.7946 190.208 41.0008 191.273 41.6117 191.377C42.2226 191.482 42.7396 189.639 42.7396 189.639C43.1469 190.046 43.6586 189.534 43.6586 189.028C43.6586 188.521 43.9667 184.85 43.8622 184.328C43.7578 183.806 43.3035 182.119 43.3035 182.119L44.3478 169.128L44.327 137.386Z" fill="white" stroke="#263238" stroke-linecap="round" stroke-linejoin="round"/>
<path d="M35.1523 164.387C36.8587 165.081 38.6739 165.47 40.5149 165.536C43.1988 165.536 43.9612 165.154 43.9612 165.154L44.0917 161.708C44.0917 161.708 37.9616 161.708 37.3036 161.452C36.6457 161.196 35.5126 160.815 35.5126 160.815L35.1523 164.387Z" fill="#92E3A9" stroke="#263238" stroke-linecap="round" stroke-linejoin="round"/>
<path d="M38.9803 142.247C38.1083 143.861 36.2912 155.823 35.3252 162.303C38.2226 163.24 41.2766 163.595 44.3116 163.348V137.386C44.3116 137.386 40.1134 140.143 38.9803 142.247Z" fill="#92E3A9" stroke="#263238" stroke-linecap="round" stroke-linejoin="round"/>
<path d="M41.7209 154.863L38.0605 152.607" stroke="#263238" stroke-linecap="round" stroke-linejoin="round"/>
<path d="M39.46 156.157L42.0394 155.834" stroke="#263238" stroke-linecap="round" stroke-linejoin="round"/>
<path d="M42.5306 184.746C42.4203 185.247 42.1726 185.709 41.8152 186.077L41.2931 186.485L40.9902 188.328C40.9902 188.328 41.1939 189.451 41.2931 190.061" stroke="#263238" stroke-linecap="round" stroke-linejoin="round"/>
<path d="M42.7392 189.654L42.6348 186.996" stroke="#263238" stroke-linecap="round" stroke-linejoin="round"/>
<path d="M42.4313 161.029C42.2329 153.865 40.6612 147.845 40.5411 146.67C40.4053 145.286 40.0503 141.767 42.6611 138.702C43.989 137.408 45.5069 136.325 47.1621 135.49C48.0863 135.214 48.7964 135.083 48.7964 135.083L48.3317 134.937C49.1405 134.59 49.9728 134.3 50.8224 134.07C52.9998 133.49 58.7958 133.198 60.5346 134.796C60.5346 134.796 65.5578 136.362 68.0276 138.159C69.2713 139.712 70.0498 141.586 70.2729 143.563C70.534 146.44 71.0457 160.35 71.2337 165.603C71.2754 166.794 71.3694 167.969 71.5156 169.149C71.8446 171.76 72.2675 180.72 72.2675 180.72C72.2675 180.72 66.7692 182.62 57.9238 182.333C49.0784 182.046 43.6845 179.775 43.6845 179.775L42.3843 179.085C42.3843 179.085 42.3843 170.59 42.3843 169.164C42.4 166.381 42.4626 161.076 42.4313 161.029Z" fill="#92E3A9" stroke="#263238" stroke-linecap="round" stroke-linejoin="round"/>
<path d="M58.1279 155.494C58.5174 156.207 58.9775 156.879 59.5012 157.499L58.1279 155.494Z" fill="#92E3A9"/>
<path d="M58.1279 155.494C58.5174 156.207 58.9775 156.879 59.5012 157.499" stroke="#263238" stroke-linecap="round" stroke-linejoin="round"/>
<path d="M54.0859 144.137C54.8748 147.541 55.9832 150.863 57.3964 154.058L54.0859 144.137Z" fill="#92E3A9"/>
<path d="M54.0859 144.137C54.8748 147.541 55.9832 150.863 57.3964 154.058" stroke="#263238" stroke-linecap="round" stroke-linejoin="round"/>
<path d="M54.415 150.341C54.7649 151.009 55.0886 151.615 55.3445 152.08L54.415 150.341Z" fill="#92E3A9"/>
<path d="M54.415 150.341C54.7649 151.009 55.0886 151.615 55.3445 152.08" stroke="#263238" stroke-linecap="round" stroke-linejoin="round"/>
<path d="M51.3086 144.263C51.3086 144.263 52.4156 146.477 53.5487 148.68L51.3086 144.263Z" fill="#92E3A9"/>
<path d="M51.3086 144.263C51.3086 144.263 52.4156 146.477 53.5487 148.68" stroke="#263238" stroke-linecap="round" stroke-linejoin="round"/>
<path d="M64.0331 136.044C64.0331 136.044 61.9131 133.01 61.4797 132.723C61.0463 132.436 52.2532 131.501 50.3682 132.081C48.4832 132.661 47.1621 135.491 47.1621 135.491C47.1621 135.491 56.4931 134.88 64.0331 136.044Z" fill="white" stroke="#263238" stroke-linecap="round" stroke-linejoin="round"/>
<path d="M65.8917 151.599L74.3141 159.05C74.3141 159.05 78.8465 162.288 80.6323 161.661C82.1988 161.087 96.224 148.706 99.4823 145.819L100.751 145.098C100.751 145.098 102.563 145.098 103.09 144.764C103.618 144.43 104.406 143.798 104.406 143.798H104.845C105.283 143.798 105.55 143.182 105.727 142.566C105.905 141.95 106.427 140.195 106.249 139.757C106.072 139.318 103.785 137.819 103.785 137.819C103.785 137.819 104.401 136.942 104.667 136.592C104.934 136.242 105.806 135.271 105.712 134.394C105.618 133.517 104.667 133.073 103.863 134.044C103.059 135.015 99.1167 137.997 98.5894 139.052C98.2186 139.788 97.6808 140.978 97.3832 141.626L81.426 150.466C81.426 150.466 72.189 139.616 71.2177 138.979C70.2465 138.342 63.0303 136.159 63.0303 136.159" fill="white"/>
<path d="M65.8917 151.599L74.3141 159.05C74.3141 159.05 78.8465 162.288 80.6323 161.661C82.1988 161.087 96.224 148.706 99.4822 145.819L100.751 145.098C100.751 145.098 102.563 145.098 103.09 144.764C103.618 144.43 104.406 143.798 104.406 143.798H104.845C105.283 143.798 105.55 143.182 105.727 142.566C105.905 141.95 106.427 140.195 106.249 139.757C106.072 139.318 103.785 137.819 103.785 137.819C103.785 137.819 104.401 136.942 104.667 136.592C104.934 136.242 105.806 135.271 105.712 134.394C105.618 133.517 104.667 133.073 103.863 134.044C103.059 135.015 99.1167 137.997 98.5894 139.052C98.2186 139.788 97.6808 140.978 97.3832 141.626L81.426 150.466C81.426 150.466 72.189 139.616 71.2177 138.979C70.2465 138.342 63.0303 136.159 63.0303 136.159" stroke="#263238" stroke-linecap="round" stroke-linejoin="round"/>
<path d="M65.8917 151.599L74.3141 159.05C74.3141 159.05 78.8465 162.288 80.6322 161.661C81.2588 161.431 83.8853 159.311 87.013 156.664C86.9743 155.236 86.6972 153.824 86.1932 152.487C85.7632 151.18 85.0149 150.002 84.0158 149.056L81.4416 150.482C81.4416 150.482 72.2046 139.631 71.2334 138.994C70.2622 138.357 63.0459 136.175 63.0459 136.175" fill="#92E3A9"/>
<path d="M65.8917 151.599L74.3141 159.05C74.3141 159.05 78.8465 162.288 80.6322 161.661C81.2588 161.431 83.8853 159.311 87.013 156.664C86.9743 155.236 86.6972 153.824 86.1932 152.487C85.7632 151.18 85.0149 150.002 84.0158 149.056L81.4416 150.482C81.4416 150.482 72.2046 139.631 71.2334 138.994C70.2622 138.357 63.0459 136.175 63.0459 136.175" stroke="#263238" stroke-linecap="round" stroke-linejoin="round"/>
<path d="M82.4502 149.38C82.4502 149.38 82.9306 148.733 84.3195 150.461C85.7085 152.189 86.4082 156.236 86.4082 156.81C86.4082 157.385 87.3324 157.155 87.9068 156.466C88.4811 155.776 90.3296 155.541 90.5646 153.693C90.7995 151.845 89.985 149.307 88.9459 147.693C87.9068 146.08 88.0216 146.075 86.9825 146.304C85.9434 146.534 82.7792 148.545 82.4502 149.38Z" fill="#92E3A9" stroke="#263238" stroke-linecap="round" stroke-linejoin="round"/>
<path d="M81.4473 150.461C81.4473 150.461 82.5177 151.96 82.0895 154.863L81.4473 150.461Z" fill="#92E3A9"/>
<path d="M81.4473 150.461C81.4473 150.461 82.5177 151.96 82.0895 154.863" stroke="#263238" stroke-linecap="round" stroke-linejoin="round"/>
<path d="M83.1912 153.359C83.1912 153.359 83.6194 154.435 82.7578 156.805L83.1912 153.359Z" fill="#92E3A9"/>
<path d="M83.1912 153.359C83.1912 153.359 83.6194 154.435 82.7578 156.805" stroke="#263238" stroke-linecap="round" stroke-linejoin="round"/>
<path d="M104.078 143.678C104.305 143.15 104.424 142.582 104.428 142.007L104.078 143.678Z" fill="white"/>
<path d="M104.078 143.678C104.305 143.15 104.424 142.582 104.428 142.007" stroke="#263238" stroke-linecap="round" stroke-linejoin="round"/>
<path d="M7.36914 248.998H248.523" stroke="#263238" stroke-miterlimit="10"/>
</svg>
