<svg width="256" height="255" viewBox="0 0 256 255" fill="none" xmlns="http://www.w3.org/2000/svg">
<path d="M42.4656 228.486C42.3718 226.671 40.4683 223.051 40.4683 223.046C40.4683 223.04 38.4655 225.027 38.3551 225.17C37.0751 226.825 35.5965 230.726 36.8765 232.652C37.1027 232.965 37.3924 233.228 37.7267 233.422C38.061 233.617 38.4324 233.739 38.8168 233.78C39.2013 233.822 39.5902 233.782 39.9584 233.664C40.3265 233.545 40.6657 233.351 40.9538 233.093C42.2118 232.039 42.5428 230.042 42.4656 228.486Z" fill="#263238"/>
<path d="M24.8441 191.089C24.8441 191.051 22.0855 191.641 21.9089 191.696C19.9392 192.353 16.5185 194.792 16.5461 197.12C16.5618 197.508 16.6592 197.888 16.8317 198.235C17.0043 198.583 17.2483 198.89 17.5477 199.137C17.8471 199.383 18.1952 199.564 18.5693 199.667C18.9433 199.771 19.335 199.794 19.7185 199.735C21.3737 199.548 22.7255 198.08 23.52 196.728C24.4359 195.161 24.8441 191.095 24.8441 191.089Z" fill="#263238"/>
<path d="M6.1511 186.775C6.95663 188.982 11.0229 190.008 13.103 189.92C13.2795 189.92 16.0713 189.467 16.0547 189.429V189.385C16.6947 189.556 17.3844 189.727 18.1403 189.903C19.5362 190.218 21.1252 190.565 22.8742 190.819C24.7544 191.112 26.65 191.297 28.5515 191.371C30.6835 191.464 32.8195 191.37 34.9351 191.09H35.0123C34.3944 191.382 32.7006 192.259 32.5792 192.342C30.8522 193.501 28.1984 196.756 28.8384 198.99C28.9559 199.359 29.1494 199.698 29.4064 199.987C29.6634 200.275 29.9782 200.507 30.3303 200.666C30.6825 200.825 31.0642 200.908 31.4506 200.911C31.8371 200.913 32.2197 200.834 32.5737 200.679C34.102 200.072 35.0399 198.279 35.4482 196.778C35.9116 195.09 35.3047 191.343 35.2551 191.045C37.3919 190.702 39.504 190.219 41.578 189.6C42.7918 189.241 44.0056 188.844 45.2139 188.436C44.6897 188.706 44.2208 188.949 44.1601 188.987C42.4331 190.146 39.7793 193.401 40.4248 195.636C40.5423 196.004 40.7358 196.343 40.9928 196.632C41.2498 196.921 41.5646 197.152 41.9168 197.311C42.2689 197.47 42.6506 197.554 43.037 197.556C43.4235 197.558 43.8061 197.479 44.1601 197.324C45.6829 196.712 46.6208 194.919 47.0346 193.423C47.4484 191.928 46.996 188.695 46.8636 187.851L48.2539 187.365C50.4609 186.571 52.6678 185.771 54.8748 185.054C55.6472 184.8 56.4196 184.579 57.1865 184.353L56.2762 184.838C54.5492 185.997 51.8954 189.252 52.5354 191.487C52.6523 191.855 52.8453 192.195 53.1021 192.485C53.3589 192.774 53.6736 193.006 54.0258 193.166C54.378 193.325 54.7599 193.409 55.1466 193.412C55.5334 193.414 55.9163 193.336 56.2706 193.181C57.7989 192.568 58.7369 190.775 59.1452 189.274C59.5535 187.774 59.1452 184.86 59.0017 183.856C59.7962 183.652 60.5907 183.442 61.3687 183.277C61.9204 183.178 62.4114 183.045 62.9521 182.974L64.5411 182.736C65.5563 182.62 66.6046 182.494 67.6033 182.405C68.2929 182.339 68.9495 182.289 69.6171 182.24C68.8447 182.482 67.3439 182.99 67.2281 183.045C65.6002 183.881 64.215 185.122 63.2059 186.648C63.0127 186.733 62.828 186.837 62.6542 186.957C62.333 187.172 62.0604 187.451 61.8542 187.778C61.648 188.105 61.5126 188.471 61.457 188.853C61.4013 189.236 61.4266 189.625 61.5311 189.997C61.6357 190.369 61.8172 190.715 62.0638 191.012C63.6032 192.761 67.7743 192.276 69.6778 191.448C69.7881 191.399 70.9523 190.731 71.6751 190.295C71.2888 190.615 70.9081 190.918 70.5109 191.255C69.7274 191.912 68.966 192.585 68.1384 193.313C67.7522 193.677 67.3605 194.041 66.9688 194.416C66.577 194.792 66.1963 195.205 65.7991 195.603C64.9108 196.541 64.0556 197.539 63.2115 198.566C62.6597 197.876 60.5631 195.47 59.1617 194.786C57.7603 194.102 55.7961 193.622 54.334 194.367C53.9831 194.53 53.6703 194.765 53.4161 195.057C53.1619 195.348 52.9719 195.69 52.8585 196.06C52.745 196.43 52.7107 196.82 52.7577 197.204C52.8047 197.588 52.932 197.958 53.1313 198.29C54.3892 200.248 58.5879 200.403 60.5962 199.868C60.7231 199.835 62.119 199.316 62.8859 198.979C62.3839 199.597 61.8818 200.215 61.3962 200.855C59.9893 202.709 58.6376 204.629 57.2582 206.544C56.8389 207.128 56.4141 207.708 55.9948 208.287C55.7906 208.039 53.3851 205.126 51.8126 204.359C50.4167 203.675 48.4526 203.195 46.985 203.939C46.6344 204.103 46.3222 204.338 46.0686 204.63C45.815 204.922 45.6255 205.264 45.5126 205.634C45.3997 206.004 45.3659 206.394 45.4133 206.777C45.4606 207.161 45.5882 207.531 45.7877 207.862C47.0456 209.821 51.2443 209.975 53.2527 209.44C53.4016 209.402 55.4155 208.618 55.9175 208.392C54.9851 209.672 54.0471 210.935 53.0706 212.144C51.7601 213.786 50.3427 215.339 48.8277 216.795C48.734 216.679 46.2346 213.628 44.629 212.839C43.2332 212.16 41.269 211.68 39.8014 212.425C39.4516 212.589 39.1401 212.824 38.887 213.115C38.6339 213.407 38.4448 213.748 38.332 214.118C38.2191 214.487 38.185 214.876 38.2319 215.259C38.2788 215.642 38.4056 216.011 38.6041 216.342C39.8621 218.307 44.0552 218.456 46.0636 217.926C46.196 217.893 47.7188 217.291 48.4526 216.993L48.5243 217.104C46.9658 218.541 45.2797 219.834 43.487 220.966C42.5104 221.595 41.5448 222.147 40.5904 222.66C40.1821 222.042 38.2896 219.245 36.9213 218.378C35.553 217.512 33.7047 216.856 32.1654 217.435C31.8 217.559 31.4649 217.759 31.1816 218.021C30.8983 218.284 30.6732 218.602 30.5209 218.957C30.3685 219.312 30.2923 219.694 30.2971 220.08C30.3019 220.466 30.3876 220.847 30.5488 221.198C31.5805 223.283 35.7351 223.896 37.7875 223.592C37.9034 223.592 39.0179 223.278 39.829 223.04C39.3986 223.267 38.9517 223.504 38.5324 223.714C36.9544 224.492 35.4592 225.115 34.1185 225.65C33.3626 225.948 32.673 226.202 32.0219 226.439C31.3102 226.042 28.4081 224.48 26.8191 224.343C25.2301 224.205 23.2659 224.475 22.1679 225.694C21.9004 225.973 21.6944 226.305 21.5633 226.669C21.4322 227.032 21.379 227.419 21.4071 227.805C21.4352 228.19 21.544 228.565 21.7264 228.906C21.9088 229.247 22.1607 229.546 22.4659 229.783C24.3418 231.156 28.3143 229.783 29.9971 228.569C30.1405 228.464 32.204 226.549 32.204 226.533H32.1599C32.7888 226.323 33.4619 226.092 34.1902 225.821C35.5309 225.308 37.0372 224.718 38.6427 223.973C40.3747 223.179 42.0602 222.288 43.6911 221.302C45.52 220.207 47.2481 218.951 48.8553 217.551L48.9105 217.496C48.5574 218.08 47.6305 219.747 47.5753 219.885C46.7753 221.799 46.356 225.954 48.127 227.493C48.4284 227.736 48.7775 227.912 49.1516 228.011C49.5256 228.11 49.9163 228.129 50.2982 228.067C50.6801 228.005 51.0447 227.864 51.3684 227.652C51.692 227.439 51.9674 227.162 52.1768 226.836C53.1147 225.485 52.9051 223.471 52.4195 221.998C51.8678 220.342 49.3022 217.54 49.1091 217.319C50.7082 215.851 52.2085 214.279 53.6002 212.613C54.4168 211.647 55.2058 210.649 55.9893 209.633C55.7024 210.146 55.4375 210.61 55.4375 210.682C54.6375 212.596 54.2182 216.778 55.9893 218.29C56.2903 218.533 56.6391 218.71 57.0129 218.809C57.3867 218.908 57.7772 218.928 58.1591 218.867C58.541 218.805 58.9057 218.664 59.2296 218.453C59.5534 218.241 59.8292 217.964 60.039 217.639C60.9714 216.287 60.7673 214.273 60.2817 212.795C59.7962 211.316 57.6445 208.872 57.0651 208.243L57.9589 207.068C59.3659 205.186 60.7673 203.299 62.1963 201.495C62.7039 200.855 63.2225 200.248 63.7411 199.636C63.4818 200.094 63.2721 200.486 63.2446 200.546C62.4445 202.466 62.0252 206.643 63.7963 208.155C64.0973 208.398 64.4461 208.574 64.8199 208.674C65.1938 208.773 65.5843 208.793 65.9662 208.731C66.3481 208.67 66.7128 208.529 67.0366 208.317C67.3605 208.106 67.6362 207.829 67.846 207.504C68.7785 206.152 68.5743 204.138 68.0888 202.659C67.6033 201.181 65.6612 198.979 64.977 198.218C65.5287 197.611 66.0805 196.999 66.6322 196.436C67.0239 196.055 67.377 195.663 67.7853 195.305L68.9826 194.229C69.7661 193.572 70.5716 192.888 71.3495 192.265C71.9013 191.829 72.4144 191.426 72.9385 191.012C72.4309 191.641 71.4599 192.894 71.3937 193.004C70.2902 194.781 69.264 198.847 70.7812 200.612C71.0422 200.898 71.3602 201.125 71.7146 201.279C72.069 201.433 72.4518 201.511 72.8383 201.508C73.2248 201.505 73.6063 201.421 73.9582 201.261C74.31 201.101 74.6243 200.869 74.8806 200.579C76.0117 199.388 76.111 197.363 75.8572 195.834C75.5758 194.146 73.551 191.112 73.2972 190.731C74.1689 190.058 75.0241 189.407 75.8351 188.805C78.6324 186.736 81.0435 185.12 82.7539 184.005L82.0477 182.593L81.9373 182.67C80.2269 183.834 77.8103 185.534 75.0075 187.707C74.1192 188.386 73.1813 189.136 72.2489 189.914C71.3736 189.125 70.4525 188.388 69.4902 187.707C70.1137 186.052 70.1026 182.659 70.0971 182.223C71.2006 182.135 72.2709 182.069 73.2806 182.019C76.751 181.837 79.6531 181.815 81.6945 181.826L80.9221 180.276C78.9248 180.32 76.282 180.413 73.1978 180.64C72.0944 180.722 70.8916 180.827 69.6667 180.949C69.5509 180.518 68.6074 176.987 67.526 175.658C66.5439 174.455 64.9605 173.197 63.3163 173.257C62.9298 173.259 62.548 173.342 62.1956 173.5C61.8432 173.659 61.5281 173.89 61.2706 174.178C61.0131 174.466 60.819 174.805 60.701 175.173C60.5829 175.541 60.5435 175.93 60.5852 176.314C60.9052 178.62 64.6515 180.518 66.6984 180.877C66.8198 180.877 68.155 180.982 68.9991 181.02C68.5026 181.076 68.0171 181.12 67.5039 181.18C66.4832 181.291 65.4736 181.434 64.3867 181.583L62.8032 181.859C62.2514 181.942 61.6997 182.091 61.1756 182.207C59.9121 182.499 58.6486 182.858 57.3796 183.249C57.2803 182.361 56.8775 179.205 56.083 177.859C55.2886 176.513 53.9202 175.04 52.2871 174.846C51.9048 174.79 51.5148 174.814 51.1425 174.917C50.7701 175.021 50.4237 175.202 50.1256 175.448C49.8275 175.694 49.5845 176 49.4122 176.346C49.24 176.692 49.1424 177.07 49.1257 177.456C49.0926 179.784 52.5078 182.229 54.4775 182.896C54.5989 182.935 56.0665 183.255 56.8775 183.415C56.1161 183.652 55.3603 183.889 54.5989 184.154C52.3919 184.927 50.185 185.782 48.0112 186.62L45.9973 187.376C45.9642 187.056 45.5615 183.299 44.6787 181.793C43.8897 180.458 42.5159 178.968 40.8828 178.78C40.5005 178.724 40.1105 178.748 39.7381 178.851C39.3658 178.955 39.0193 179.136 38.7213 179.382C38.4232 179.628 38.1801 179.934 38.0079 180.28C37.8356 180.626 37.738 181.004 37.7213 181.39C37.6882 183.718 41.1035 186.163 43.0676 186.825C43.2166 186.874 45.3298 187.332 45.8704 187.42C44.3918 187.972 42.9076 188.524 41.4566 188.982C39.4577 189.625 37.4194 190.14 35.3544 190.521C35.3544 190.372 34.9406 186.449 34.0302 184.905C33.2413 183.569 31.8674 182.08 30.2343 181.892C29.852 181.835 29.462 181.86 29.0897 181.963C28.7173 182.067 28.3708 182.247 28.0728 182.493C27.7747 182.739 27.5317 183.045 27.3594 183.391C27.1872 183.737 27.0895 184.116 27.0729 184.502C27.0398 186.83 30.455 189.274 32.4247 189.936C32.5516 189.981 34.1626 190.328 34.9296 190.488V190.621C32.8404 190.947 30.7263 191.088 28.6122 191.04C27.4536 191.04 26.3391 190.952 25.2577 190.852C25.2577 190.113 25.2246 186.736 24.5625 185.258C23.9004 183.779 22.7197 182.218 21.1197 181.848C20.7419 181.737 20.3449 181.709 19.9552 181.764C19.5655 181.82 19.1922 181.958 18.8603 182.169C18.5285 182.381 18.2457 182.661 18.0311 182.991C17.8165 183.321 17.675 183.693 17.6161 184.083C17.3292 186.394 20.4576 189.197 22.339 190.074C22.4438 190.124 23.5362 190.494 24.3418 190.747C23.8562 190.698 23.3487 190.654 22.8852 190.593C21.1362 190.378 19.5748 190.069 18.1513 189.787C17.3513 189.616 16.6341 189.451 15.9444 189.285C15.5692 188.563 14.0078 185.66 12.7609 184.673C11.514 183.685 9.72634 182.819 8.13734 183.227C7.76528 183.315 7.41555 183.479 7.11032 183.71C6.80509 183.94 6.55104 184.231 6.36428 184.564C6.17752 184.898 6.06213 185.267 6.02544 185.647C5.98874 186.028 6.03153 186.412 6.1511 186.775Z" fill="#263238"/>
<path d="M29.8042 157.561C31.2608 156.457 33.1864 152.86 33.1919 152.86C33.1974 152.86 30.4332 152.308 30.2511 152.308C28.1766 152.17 24.0827 153.114 23.222 155.276C23.089 155.64 23.0338 156.027 23.0601 156.413C23.0864 156.799 23.1935 157.175 23.3746 157.517C23.5556 157.858 23.8066 158.158 24.1111 158.397C24.4156 158.635 24.7668 158.807 25.1421 158.901C26.72 159.337 28.5463 158.493 29.8042 157.561Z" fill="#263238"/>
<path d="M50.9084 122.012C50.947 122.012 48.9111 120.026 48.7676 119.921C47.1124 118.658 43.1786 117.163 41.2696 118.514C40.9582 118.744 40.6987 119.037 40.5078 119.373C40.3169 119.709 40.1989 120.082 40.1614 120.467C40.1239 120.852 40.1679 121.241 40.2904 121.608C40.4128 121.975 40.6111 122.312 40.8723 122.597C41.9372 123.844 43.94 124.159 45.4903 124.065C47.3055 123.943 50.9084 122.012 50.9084 122.012Z" fill="#263238"/>
<path d="M43.9948 104.109C42.6375 106.001 44.0499 109.957 45.2858 111.629C45.3962 111.772 47.3272 113.836 47.3493 113.797V113.758C47.5645 114.382 47.8072 115.05 48.0831 115.778C48.6348 117.113 49.1866 118.614 49.9811 120.192C50.7866 121.917 51.693 123.594 52.6956 125.212C53.8134 127.031 55.0892 128.748 56.5081 130.344L56.5577 130.393C55.9729 130.051 54.2956 129.141 54.1577 129.08C52.2322 128.302 48.05 127.927 46.5548 129.709C46.3149 130.013 46.1417 130.364 46.0463 130.739C45.9509 131.114 45.9354 131.505 46.001 131.886C46.0666 132.268 46.2117 132.631 46.4268 132.953C46.642 133.274 46.9225 133.547 47.25 133.753C48.6128 134.675 50.6211 134.443 52.0942 133.946C53.7494 133.395 56.5081 130.779 56.7343 130.575C58.2212 132.149 59.81 133.624 61.4903 134.989C62.4668 135.795 63.471 136.578 64.4917 137.345C63.973 137.064 63.5096 136.793 63.4379 136.793C61.5123 136.01 57.3302 135.635 55.8405 137.422C55.6013 137.726 55.4285 138.076 55.3332 138.45C55.2379 138.824 55.2222 139.214 55.2872 139.595C55.3523 139.976 55.4965 140.339 55.7106 140.66C55.9247 140.981 56.2039 141.254 56.5302 141.461C57.8929 142.382 59.9013 142.156 61.3744 141.654C62.8475 141.152 65.2696 138.978 65.8986 138.399C66.2903 138.686 66.6821 138.984 67.0793 139.271C68.9718 140.667 70.8753 142.029 72.696 143.458C73.336 143.955 73.9484 144.468 74.5664 144.981C74.1084 144.727 73.7167 144.523 73.656 144.496C71.7304 143.718 67.5483 143.337 66.0531 145.125C65.8142 145.428 65.6417 145.779 65.5468 146.153C65.4519 146.528 65.4368 146.918 65.5023 147.299C65.5678 147.679 65.7126 148.042 65.9272 148.363C66.1419 148.684 66.4216 148.957 66.7483 149.163C68.1055 150.085 70.1194 149.858 71.587 149.356C73.0546 148.854 75.245 146.89 76.0009 146.2C76.6188 146.752 77.2367 147.304 77.805 147.856C78.1912 148.242 78.583 148.589 78.9471 148.998L80.0506 150.184C80.7182 150.962 81.4079 151.756 82.0368 152.534C82.4782 153.086 82.892 153.588 83.3058 154.107C82.6713 153.605 81.4134 152.645 81.2975 152.578C79.6932 151.701 77.8901 151.251 76.0615 151.271C75.8862 151.164 75.7015 151.074 75.5098 151.001C75.1517 150.855 74.7669 150.786 74.3804 150.798C73.9938 150.81 73.6142 150.904 73.2662 151.072C72.9181 151.241 72.6094 151.481 72.36 151.776C72.1107 152.072 71.9262 152.417 71.8187 152.788C71.2339 155.039 73.9705 158.223 75.7305 159.337C75.8298 159.403 77.0326 159.994 77.7995 160.347L76.354 159.922C75.3719 159.641 74.3843 159.37 73.3194 159.106L71.7525 158.758C71.2008 158.625 70.649 158.559 70.0973 158.454C68.8173 158.245 67.5152 158.096 66.1965 157.969C66.4393 157.108 67.2724 154.041 67.0517 152.496C66.831 150.951 66.1303 149.058 64.6958 148.264C64.3643 148.066 63.9949 147.939 63.6114 147.893C63.2279 147.846 62.8389 147.881 62.4696 147.994C62.1004 148.107 61.759 148.297 61.4677 148.551C61.1764 148.804 60.9416 149.117 60.7785 149.467C59.8571 151.607 62.0806 155.166 63.6475 156.534C63.7468 156.617 64.9772 157.472 65.6669 157.93C64.8724 157.864 64.0834 157.792 63.2779 157.748C60.9551 157.621 58.5992 157.572 56.2488 157.505L54.097 157.439C54.1853 157.13 55.2557 153.505 55.0074 151.773C54.7922 150.239 54.086 148.341 52.6515 147.541C52.32 147.343 51.9505 147.216 51.567 147.17C51.1836 147.123 50.7946 147.158 50.4253 147.271C50.056 147.385 49.7147 147.574 49.4233 147.828C49.132 148.082 48.8972 148.394 48.7342 148.744C47.8128 150.885 50.0363 154.443 51.6032 155.812C51.719 155.916 53.4956 157.141 53.9646 157.434C52.3866 157.379 50.8087 157.307 49.2583 157.174C47.1662 157.01 45.0872 156.707 43.0347 156.27C43.0789 156.126 44.2044 152.347 43.9561 150.576C43.741 149.036 43.0347 147.138 41.6002 146.338C41.2682 146.139 40.898 146.012 40.5136 145.966C40.1293 145.919 39.7394 145.954 39.3694 146.068C38.9994 146.182 38.6575 146.372 38.366 146.627C38.0745 146.882 37.8399 147.195 37.6774 147.547C36.7615 149.682 38.985 153.246 40.5464 154.614C40.6513 154.703 42.0085 155.641 42.6596 156.071L42.6099 156.192C40.5546 155.697 38.5476 155.019 36.6126 154.167C35.5422 153.71 34.5436 153.213 33.5835 152.711C33.8649 152.027 35.1229 148.893 35.0732 147.276C35.0236 145.66 34.5215 143.756 33.1973 142.807C32.8895 142.573 32.5359 142.407 32.1596 142.319C31.7832 142.23 31.3925 142.222 31.0128 142.294C30.633 142.366 30.2727 142.518 29.9552 142.738C29.6377 142.959 29.37 143.244 29.1697 143.574C28.0165 145.599 29.8373 149.384 31.2442 150.912C31.3214 151.001 32.1932 151.756 32.8332 152.303C32.4028 152.071 31.9559 151.834 31.5476 151.602C30.0193 150.736 28.6676 149.847 27.4814 149.047C26.8082 148.589 26.2124 148.159 25.6551 147.756C25.5834 146.94 25.2524 143.662 24.4744 142.272C23.6965 140.882 22.3778 139.398 20.7502 139.171C20.3691 139.106 19.9783 139.121 19.6034 139.216C19.2285 139.311 18.8777 139.483 18.5738 139.723C18.27 139.962 18.0199 140.263 17.8397 140.605C17.6596 140.947 17.5534 141.323 17.5281 141.709C17.4398 144.038 20.7999 146.554 22.753 147.265C22.924 147.326 25.6717 147.983 25.6717 147.944V147.894C26.2234 148.297 26.7751 148.722 27.3986 149.169C28.5738 149.996 29.9035 150.918 31.4263 151.823C33.0499 152.819 34.732 153.716 36.4636 154.51C38.395 155.415 40.4041 156.144 42.4665 156.689H42.5437C41.8596 156.722 39.9616 156.888 39.8181 156.915C37.7767 157.329 34.0801 159.321 33.8208 161.632C33.7882 162.018 33.8371 162.406 33.9642 162.771C34.0913 163.137 34.2939 163.471 34.5587 163.753C34.8236 164.035 35.1447 164.258 35.5014 164.408C35.8581 164.558 36.2423 164.631 36.6291 164.623C38.2843 164.623 39.8237 163.343 40.7726 162.112C41.8761 160.728 42.7203 157.031 42.7865 156.739C44.8984 157.249 47.0421 157.617 49.2031 157.842C50.4611 157.98 51.7356 158.074 53.0101 158.157L51.8239 158.267C49.788 158.681 46.0913 160.672 45.8265 162.984C45.7939 163.37 45.8428 163.758 45.9699 164.123C46.0971 164.488 46.2996 164.823 46.5644 165.105C46.8293 165.387 47.1505 165.61 47.5072 165.76C47.8639 165.91 48.2481 165.983 48.6348 165.975C50.29 165.975 51.8294 164.695 52.7839 163.464C53.7384 162.234 54.555 159.083 54.7536 158.25L56.2267 158.333C58.5771 158.443 60.922 158.548 63.2172 158.719C64.0282 158.78 64.8227 158.868 65.6172 158.957C65.0986 159.001 64.6572 159.045 64.591 159.056C62.5551 159.47 58.8585 161.461 58.5992 163.773C58.5666 164.159 58.6154 164.547 58.7426 164.912C58.8697 165.277 59.0723 165.612 59.3371 165.894C59.6019 166.176 59.9231 166.399 60.2798 166.549C60.6365 166.699 61.0207 166.772 61.4075 166.764C63.0627 166.764 64.602 165.484 65.551 164.253C66.5 163.023 67.2393 160.176 67.4876 159.188C68.2986 159.304 69.1428 159.414 69.8932 159.558C70.4449 159.674 70.947 159.74 71.4766 159.883L73.038 160.27C74.0201 160.551 75.0353 160.821 75.9898 161.136C76.6519 161.335 77.2809 161.544 77.9154 161.748C77.1098 161.677 75.5319 161.577 75.3995 161.583C73.3249 161.677 69.369 163.089 68.7787 165.335C68.6879 165.711 68.6773 166.102 68.7476 166.482C68.8178 166.863 68.9673 167.224 69.1864 167.543C69.4054 167.862 69.6892 168.132 70.0191 168.334C70.349 168.536 70.7178 168.666 71.1015 168.717C72.7236 168.982 74.456 167.933 75.5815 166.863C76.8229 165.682 78.2023 162.311 78.3733 161.897C79.4216 162.239 80.4368 162.581 81.3913 162.924C84.6686 164.082 87.3611 165.169 89.2425 165.964L90.0204 164.59L89.8935 164.54C87.968 163.773 85.2038 162.725 81.8382 161.616C80.7734 161.263 79.6313 160.91 78.4561 160.557C78.6107 159.393 78.6973 158.221 78.7154 157.048C80.4258 156.645 83.2396 154.73 83.6038 154.476C84.2879 155.343 84.9445 156.192 85.5569 156.998C87.6535 159.757 89.2921 162.168 90.4287 163.867L91.2784 162.355C90.1253 160.7 88.5694 158.587 86.6493 156.159C85.9541 155.276 85.1983 154.35 84.4093 153.401C84.7072 153.064 87.1018 150.3 87.5928 148.661C88.0397 147.171 88.1997 145.158 87.2286 143.828C87.011 143.508 86.7284 143.237 86.3993 143.034C86.0703 142.83 85.702 142.698 85.3185 142.646C84.935 142.594 84.5448 142.623 84.1733 142.732C83.8019 142.84 83.4574 143.026 83.1624 143.276C81.4354 144.832 81.9596 148.998 82.8093 150.896C82.8589 151.006 83.5375 152.159 83.9789 152.882C83.6534 152.496 83.3444 152.121 83.0079 151.729C82.3458 150.951 81.6617 150.189 80.9278 149.373L79.8244 148.214C79.4602 147.823 79.0244 147.447 78.6216 147.061C77.6726 146.178 76.6685 145.334 75.6367 144.501C76.3153 143.922 78.7044 141.82 79.372 140.413C80.0396 139.006 80.4754 137.036 79.7416 135.58C79.5747 135.231 79.3363 134.921 79.0419 134.67C78.7475 134.42 78.4036 134.234 78.0327 134.124C77.6618 134.015 77.272 133.985 76.8887 134.036C76.5054 134.087 76.1371 134.218 75.8078 134.421C73.8601 135.701 73.7498 139.894 74.3015 141.902C74.3401 142.024 74.8974 143.42 75.2174 144.176C74.5939 143.685 73.976 143.188 73.3249 142.708C71.4546 141.323 69.5235 139.982 67.5979 138.631L65.8379 137.384C66.0862 137.18 68.9773 134.741 69.7001 133.163C70.3676 131.762 70.8035 129.792 70.0642 128.335C69.8972 127.987 69.659 127.678 69.365 127.428C69.071 127.178 68.7278 126.992 68.3575 126.883C67.9873 126.774 67.5982 126.743 67.2155 126.794C66.8328 126.845 66.465 126.975 66.1359 127.177C64.1882 128.451 64.0779 132.65 64.6296 134.653C64.6682 134.802 65.4738 136.81 65.7055 137.306C64.42 136.391 63.1455 135.464 61.9261 134.498C60.271 133.205 58.7025 131.804 57.2309 130.305C57.3467 130.211 60.3757 127.684 61.1427 126.068C61.8103 124.666 62.2461 122.691 61.5123 121.234C61.3454 120.886 61.107 120.576 60.8126 120.325C60.5182 120.074 60.1743 119.888 59.8034 119.779C59.4324 119.67 59.0427 119.64 58.6594 119.691C58.2761 119.742 57.9078 119.873 57.5785 120.076C55.6308 121.356 55.5205 125.549 56.0722 127.557C56.1053 127.684 56.7178 129.213 57.0267 129.935L56.9164 130.007C55.4848 128.457 54.1924 126.785 53.0542 125.008C52.4142 124.037 51.857 123.077 51.3328 122.123C51.9453 121.714 54.7205 119.794 55.5757 118.415C56.4308 117.036 57.0653 115.187 56.475 113.654C56.3474 113.288 56.1444 112.954 55.8791 112.672C55.6139 112.391 55.2923 112.168 54.9354 112.019C54.5784 111.869 54.1941 111.797 53.8072 111.806C53.4204 111.814 53.0398 111.905 52.6901 112.07C50.6156 113.124 50.0418 117.284 50.3728 119.336C50.3728 119.447 50.6983 120.561 50.9245 121.372C50.6928 120.942 50.45 120.501 50.2349 120.081C49.4404 118.509 48.8059 117.025 48.2541 115.706C47.9452 114.95 47.7024 114.261 47.4431 113.615C47.8348 112.898 49.3631 109.979 49.4845 108.396C49.6059 106.812 49.319 104.842 48.0886 103.756C47.806 103.49 47.4707 103.287 47.1044 103.16C46.7381 103.033 46.3491 102.984 45.9628 103.018C45.5765 103.051 45.2016 103.165 44.8625 103.353C44.5234 103.541 44.2277 103.799 43.9948 104.109Z" fill="#263238"/>
<path d="M222.204 156.115C220.747 155.012 218.816 151.42 218.816 151.414C218.816 151.409 221.575 150.863 221.757 150.863C223.832 150.719 227.92 151.668 228.786 153.831C228.918 154.194 228.973 154.581 228.946 154.966C228.919 155.351 228.812 155.727 228.631 156.068C228.45 156.409 228.199 156.708 227.895 156.946C227.591 157.185 227.241 157.356 226.866 157.45C225.283 157.892 223.445 157.048 222.204 156.115Z" fill="#263238"/>
<path d="M201.096 120.567C201.063 120.567 203.099 118.586 203.242 118.476C204.898 117.212 208.826 115.717 210.74 117.074C211.052 117.304 211.311 117.596 211.502 117.933C211.693 118.269 211.811 118.642 211.849 119.027C211.886 119.412 211.842 119.801 211.72 120.168C211.597 120.535 211.399 120.872 211.138 121.157C210.067 122.404 208.07 122.713 206.52 122.619C204.699 122.509 201.102 120.572 201.096 120.567Z" fill="#263238"/>
<path d="M207.997 102.669C209.349 104.561 207.942 108.512 206.701 110.183C206.596 110.327 204.665 112.39 204.643 112.357V112.313C204.422 112.942 204.185 113.61 203.903 114.332C203.352 115.667 202.8 117.174 202.011 118.746C201.202 120.473 200.294 122.151 199.291 123.772C198.178 125.592 196.904 127.307 195.484 128.898C195.467 128.918 195.448 128.936 195.429 128.953C196.019 128.606 197.696 127.695 197.829 127.64C199.754 126.857 203.936 126.481 205.432 128.269C205.671 128.573 205.843 128.923 205.938 129.298C206.033 129.672 206.048 130.062 205.982 130.443C205.917 130.824 205.772 131.187 205.557 131.508C205.343 131.829 205.063 132.102 204.736 132.308C203.379 133.229 201.365 133.003 199.898 132.501C198.243 131.949 195.484 129.339 195.252 129.13C193.768 130.715 192.181 132.2 190.502 133.577C189.525 134.382 188.515 135.16 187.495 135.933C188.013 135.651 188.482 135.381 188.549 135.381C190.474 134.597 194.656 134.222 196.151 136.004C196.391 136.308 196.565 136.659 196.66 137.034C196.755 137.409 196.771 137.8 196.705 138.181C196.64 138.563 196.495 138.926 196.279 139.248C196.064 139.57 195.784 139.842 195.456 140.049C194.099 140.97 192.085 140.744 190.618 140.242C189.15 139.74 186.722 137.566 186.093 136.981C185.696 137.273 185.31 137.571 184.913 137.858C183.015 139.249 181.117 140.617 179.296 142.04C178.65 142.542 178.038 143.056 177.42 143.563C177.884 143.315 178.27 143.105 178.336 143.083C180.262 142.3 184.444 141.925 185.939 143.707C186.179 144.01 186.352 144.361 186.447 144.736C186.543 145.111 186.558 145.502 186.493 145.884C186.427 146.265 186.282 146.628 186.067 146.95C185.852 147.272 185.571 147.545 185.244 147.751C183.881 148.672 181.873 148.446 180.399 147.944C178.926 147.442 176.741 145.478 175.986 144.788C175.373 145.34 174.755 145.891 174.181 146.443C173.801 146.829 173.409 147.177 173.045 147.585C172.681 147.994 172.317 148.38 171.941 148.766C171.279 149.544 170.59 150.344 169.955 151.116C169.514 151.668 169.105 152.17 168.686 152.694C169.321 152.187 170.584 151.232 170.694 151.166C172.301 150.288 174.105 149.836 175.936 149.853C176.111 149.747 176.296 149.658 176.488 149.588C176.845 149.442 177.23 149.373 177.616 149.385C178.002 149.397 178.382 149.49 178.73 149.658C179.078 149.826 179.387 150.065 179.636 150.36C179.886 150.655 180.071 150.999 180.179 151.37C180.764 153.627 178.027 156.81 176.272 157.925C176.168 157.991 174.965 158.576 174.198 158.934C174.683 158.791 175.147 158.648 175.643 158.51C176.631 158.223 177.619 157.958 178.678 157.693L180.25 157.34C180.769 157.213 181.354 157.147 181.906 157.042C183.18 156.832 184.488 156.678 185.806 156.557C185.558 155.696 184.703 152.628 184.946 151.083C185.189 149.538 185.867 147.646 187.307 146.846C187.639 146.648 188.009 146.522 188.393 146.475C188.776 146.429 189.165 146.464 189.535 146.578C189.904 146.692 190.245 146.883 190.536 147.137C190.828 147.391 191.062 147.704 191.224 148.054C192.14 150.19 189.922 153.754 188.355 155.122C188.256 155.205 187.02 156.06 186.336 156.518C187.131 156.446 187.92 156.374 188.725 156.33C191.048 156.209 193.404 156.154 195.749 156.093C196.471 156.093 197.189 156.049 197.906 156.021C197.812 155.718 196.747 152.087 196.99 150.361C197.211 148.821 197.911 146.923 199.352 146.123C199.683 145.925 200.053 145.799 200.437 145.753C200.821 145.707 201.21 145.742 201.579 145.856C201.948 145.969 202.29 146.16 202.581 146.414C202.872 146.668 203.106 146.981 203.269 147.332C204.19 149.467 201.967 153.031 200.4 154.399C200.278 154.499 198.502 155.729 198.033 156.016C199.616 155.961 201.189 155.894 202.739 155.762C204.831 155.589 206.91 155.281 208.963 154.841C208.919 154.703 207.788 150.918 208.036 149.147C208.257 147.613 208.957 145.715 210.397 144.915C210.729 144.717 211.098 144.59 211.482 144.544C211.865 144.497 212.254 144.532 212.623 144.645C212.993 144.758 213.334 144.948 213.625 145.202C213.917 145.455 214.151 145.768 214.315 146.118C215.236 148.258 213.012 151.817 211.446 153.185C211.341 153.279 209.989 154.212 209.332 154.642C209.353 154.681 209.371 154.722 209.388 154.763C211.443 154.268 213.45 153.59 215.385 152.739C216.455 152.286 217.454 151.79 218.414 151.287C218.127 150.603 216.869 147.469 216.919 145.847C216.968 144.225 217.47 142.333 218.8 141.384C219.108 141.15 219.462 140.984 219.838 140.895C220.214 140.807 220.605 140.798 220.985 140.871C221.364 140.943 221.725 141.094 222.042 141.315C222.36 141.535 222.627 141.82 222.828 142.151C223.975 144.176 222.155 147.96 220.753 149.489C220.676 149.572 219.804 150.333 219.159 150.879C219.589 150.642 220.036 150.41 220.444 150.178C221.978 149.307 223.324 148.418 224.516 147.624C225.184 147.16 225.785 146.736 226.342 146.327C226.414 145.511 226.745 142.233 227.518 140.843C228.29 139.453 229.62 137.974 231.247 137.748C231.628 137.682 232.018 137.697 232.393 137.792C232.767 137.886 233.118 138.059 233.422 138.297C233.725 138.536 233.976 138.836 234.156 139.178C234.337 139.519 234.443 139.895 234.469 140.28C234.552 142.609 231.198 145.13 229.239 145.842C229.073 145.903 226.32 146.559 226.326 146.515C226.324 146.498 226.324 146.482 226.326 146.465C225.774 146.868 225.222 147.293 224.593 147.745C223.424 148.573 222.088 149.494 220.571 150.399C218.944 151.389 217.262 152.286 215.534 153.086C213.596 153.991 211.582 154.72 209.514 155.265C209.491 155.268 209.467 155.268 209.443 155.265C210.121 155.304 212.025 155.47 212.168 155.497C214.204 155.905 217.901 157.903 218.16 160.215C218.192 160.599 218.143 160.986 218.015 161.35C217.888 161.715 217.686 162.048 217.422 162.33C217.158 162.611 216.837 162.834 216.482 162.984C216.126 163.133 215.743 163.207 215.357 163.199C213.702 163.199 212.157 161.919 211.208 160.695C210.138 159.31 209.266 155.613 209.194 155.315C207.083 155.828 204.939 156.197 202.778 156.419C201.52 156.551 200.251 156.65 198.976 156.728C199.561 156.777 200.08 156.827 200.163 156.843C202.198 157.252 205.895 159.249 206.154 161.561C206.186 161.946 206.137 162.333 206.009 162.698C205.882 163.063 205.679 163.397 205.414 163.678C205.15 163.959 204.829 164.182 204.472 164.331C204.116 164.481 203.732 164.554 203.346 164.546C201.691 164.546 200.152 163.266 199.203 162.041C198.254 160.816 197.431 157.654 197.227 156.821C196.736 156.849 196.251 156.882 195.76 156.904C193.409 157.02 191.064 157.125 188.764 157.296C187.958 157.357 187.158 157.445 186.364 157.533C186.915 157.577 187.324 157.616 187.39 157.632C189.431 158.041 193.128 160.038 193.387 162.35C193.419 162.735 193.37 163.122 193.242 163.487C193.115 163.852 192.912 164.186 192.647 164.467C192.382 164.748 192.061 164.971 191.705 165.12C191.349 165.27 190.965 165.343 190.579 165.335C188.924 165.335 187.384 164.055 186.435 162.83C185.486 161.605 184.742 158.752 184.499 157.765C183.682 157.875 182.871 157.986 182.088 158.134C181.536 158.245 181.034 158.317 180.51 158.46L178.948 158.846C177.966 159.128 176.946 159.398 175.997 159.707C175.329 159.911 174.7 160.115 174.066 160.319C174.871 160.253 176.455 160.148 176.587 160.154C178.661 160.253 182.617 161.66 183.208 163.911C183.298 164.287 183.308 164.677 183.237 165.057C183.166 165.437 183.017 165.798 182.798 166.116C182.579 166.435 182.295 166.703 181.966 166.905C181.636 167.107 181.268 167.237 180.885 167.288C179.263 167.558 177.536 166.504 176.405 165.439C175.169 164.259 173.784 160.882 173.619 160.474C172.57 160.821 171.55 161.164 170.601 161.5C167.318 162.659 164.631 163.751 162.749 164.54L161.972 163.166L162.098 163.117C164.024 162.355 166.783 161.307 170.154 160.198C171.213 159.845 172.361 159.486 173.536 159.133C173.381 157.969 173.293 156.798 173.271 155.624C171.566 155.221 168.747 153.307 168.388 153.059C167.699 153.925 167.042 154.769 166.435 155.58C164.338 158.339 162.694 160.744 161.563 162.444L160.725 160.91C161.878 159.254 163.434 157.136 165.354 154.708C166.043 153.825 166.805 152.899 167.588 151.95C167.296 151.613 164.896 148.854 164.405 147.21C163.958 145.726 163.803 143.707 164.774 142.382C164.992 142.063 165.274 141.793 165.603 141.59C165.932 141.387 166.299 141.255 166.682 141.203C167.065 141.151 167.454 141.18 167.825 141.288C168.196 141.396 168.54 141.581 168.835 141.831C170.568 143.387 170.043 147.552 169.194 149.45C169.139 149.566 168.46 150.719 168.019 151.436C168.344 151.056 168.653 150.675 168.99 150.283C169.657 149.505 170.341 148.749 171.075 147.933C171.439 147.547 171.814 147.16 172.179 146.774C172.543 146.388 172.973 146.007 173.376 145.621C174.325 144.738 175.329 143.889 176.361 143.061C175.682 142.482 173.299 140.38 172.626 138.967C171.952 137.555 171.522 135.596 172.256 134.14C172.423 133.791 172.661 133.481 172.956 133.23C173.25 132.98 173.594 132.794 173.965 132.684C174.336 132.575 174.725 132.545 175.109 132.596C175.492 132.647 175.86 132.778 176.19 132.981C178.137 134.255 178.248 138.454 177.696 140.457C177.663 140.584 177.106 141.974 176.78 142.736C177.409 142.239 178.027 141.742 178.673 141.268C180.543 139.883 182.479 138.537 184.405 137.191C184.995 136.777 185.575 136.358 186.16 135.944C185.917 135.734 183.026 133.301 182.297 131.723C181.63 130.322 181.194 128.346 181.928 126.89C182.095 126.541 182.333 126.231 182.628 125.98C182.922 125.73 183.266 125.544 183.637 125.434C184.008 125.325 184.397 125.295 184.781 125.346C185.164 125.397 185.532 125.529 185.862 125.731C187.809 127.011 187.92 131.204 187.368 133.213C187.324 133.362 186.518 135.364 186.264 135.866C187.555 134.945 188.83 134.018 190.049 133.058C191.702 131.762 193.27 130.361 194.745 128.865C194.629 128.771 191.6 126.239 190.833 124.622C190.165 123.221 189.702 121.251 190.463 119.794C190.63 119.446 190.868 119.136 191.163 118.885C191.457 118.634 191.801 118.448 192.172 118.339C192.543 118.23 192.933 118.2 193.316 118.251C193.699 118.302 194.068 118.433 194.397 118.636C196.345 119.91 196.455 124.109 195.903 126.112C195.865 126.244 195.252 127.767 194.943 128.49L195.054 128.562C196.488 127.017 197.781 125.345 198.916 123.568C199.556 122.597 200.118 121.632 200.643 120.683C200.03 120.269 197.249 118.349 196.4 116.97C195.55 115.59 194.905 113.742 195.5 112.208C195.628 111.843 195.831 111.508 196.096 111.227C196.362 110.945 196.683 110.722 197.04 110.573C197.397 110.424 197.781 110.351 198.168 110.36C198.555 110.369 198.936 110.459 199.285 110.625C201.36 111.684 201.928 115.844 201.603 117.896C201.603 118.007 201.277 119.121 201.051 119.932C201.277 119.497 201.525 119.055 201.735 118.636C202.535 117.069 203.17 115.585 203.721 114.261C204.025 113.51 204.273 112.821 204.527 112.175C204.141 111.458 202.607 108.539 202.485 106.95C202.364 105.361 202.651 103.397 203.887 102.31C204.17 102.042 204.507 101.837 204.875 101.709C205.243 101.581 205.634 101.532 206.023 101.566C206.411 101.6 206.788 101.715 207.128 101.905C207.468 102.096 207.765 102.356 207.997 102.669Z" fill="#263238"/>
<path d="M238.756 187.757C237.256 188.861 235.236 192.469 235.236 192.474C235.236 192.48 238.028 193.081 238.21 193.092C240.318 193.274 244.489 192.381 245.383 190.196C245.524 189.83 245.586 189.438 245.566 189.046C245.546 188.654 245.443 188.271 245.265 187.922C245.087 187.572 244.838 187.264 244.533 187.017C244.228 186.77 243.875 186.59 243.496 186.488C241.929 186.003 240.047 186.841 238.756 187.757Z" fill="#263238"/>
<path d="M216.743 223.509C216.704 223.509 218.74 225.556 218.883 225.667C220.539 226.974 224.511 228.53 226.475 227.217C226.796 226.99 227.065 226.697 227.265 226.359C227.465 226.021 227.591 225.644 227.636 225.254C227.681 224.864 227.643 224.468 227.525 224.093C227.406 223.719 227.211 223.373 226.95 223.079C225.885 221.794 223.86 221.424 222.282 221.512C220.434 221.6 216.748 223.504 216.743 223.509Z" fill="#263238"/>
<path d="M223.451 241.805C224.858 239.901 223.49 235.863 222.265 234.147C222.154 233.998 220.229 231.868 220.207 231.907L220.179 231.951C219.97 231.311 219.738 230.627 219.467 229.887C218.96 228.519 218.364 226.985 217.619 225.352C216.825 223.588 215.93 221.871 214.938 220.21C213.838 218.343 212.573 216.577 211.158 214.935L211.103 214.88C211.694 215.239 213.382 216.193 213.52 216.254C215.462 217.076 219.705 217.529 221.244 215.741C221.492 215.437 221.674 215.084 221.777 214.705C221.88 214.326 221.903 213.93 221.843 213.542C221.783 213.154 221.642 212.783 221.43 212.452C221.217 212.122 220.938 211.84 220.61 211.625C219.241 210.665 217.194 210.864 215.694 211.349C214 211.901 211.147 214.488 210.921 214.698C209.442 213.062 207.855 211.526 206.171 210.102C205.189 209.269 204.179 208.447 203.158 207.658C203.677 207.956 204.146 208.21 204.218 208.243C206.16 209.07 210.402 209.523 211.942 207.735C212.191 207.431 212.373 207.079 212.477 206.7C212.58 206.321 212.603 205.924 212.543 205.536C212.483 205.147 212.342 204.776 212.129 204.446C211.916 204.116 211.636 203.834 211.307 203.619C209.939 202.659 207.892 202.858 206.391 203.338C204.891 203.818 202.391 205.997 201.746 206.577C201.349 206.273 200.957 205.964 200.56 205.666C198.656 204.221 196.753 202.786 194.926 201.324C194.281 200.805 193.663 200.276 193.045 199.746C193.508 200.005 193.906 200.226 193.966 200.254C195.908 201.076 200.151 201.528 201.691 199.741C201.939 199.436 202.12 199.084 202.224 198.705C202.327 198.326 202.349 197.93 202.289 197.541C202.229 197.153 202.089 196.782 201.876 196.452C201.664 196.122 201.384 195.84 201.056 195.625C199.688 194.665 197.641 194.863 196.14 195.349C194.639 195.834 192.383 197.793 191.61 198.477C190.992 197.925 190.375 197.374 189.806 196.783C189.426 196.386 189.028 196.027 188.67 195.608L187.566 194.389C186.904 193.589 186.214 192.767 185.585 191.967C185.144 191.415 184.736 190.863 184.322 190.35C184.957 190.869 186.22 191.862 186.336 191.934C187.952 192.849 189.775 193.337 191.632 193.352C191.807 193.462 191.992 193.554 192.184 193.627C192.545 193.783 192.935 193.86 193.328 193.855C193.72 193.849 194.108 193.761 194.464 193.596C194.821 193.431 195.139 193.193 195.397 192.897C195.655 192.601 195.848 192.254 195.964 191.878C196.593 189.6 193.867 186.322 192.101 185.158C191.997 185.092 190.783 184.474 190.016 184.099L191.478 184.557C192.471 184.86 193.47 185.136 194.546 185.434L196.129 185.815C196.681 185.958 197.233 186.036 197.784 186.151C199.081 186.383 200.4 186.56 201.74 186.703C201.475 187.575 200.576 190.676 200.775 192.248C200.973 193.821 201.652 195.752 203.098 196.585C203.431 196.793 203.804 196.928 204.193 196.983C204.581 197.037 204.977 197.009 205.355 196.9C205.732 196.792 206.082 196.605 206.383 196.352C206.683 196.098 206.926 195.785 207.098 195.432C208.069 193.274 205.873 189.616 204.3 188.204C204.207 188.116 202.965 187.227 202.275 186.753C203.081 186.836 203.881 186.918 204.698 186.979C207.053 187.139 209.448 187.233 211.831 187.338L214.038 187.448C213.945 187.757 212.797 191.42 213.018 193.181C213.211 194.747 213.895 196.684 215.341 197.523C215.674 197.73 216.047 197.864 216.436 197.918C216.825 197.971 217.221 197.943 217.598 197.833C217.975 197.724 218.325 197.537 218.626 197.284C218.926 197.031 219.169 196.717 219.341 196.364C220.312 194.207 218.116 190.549 216.549 189.136C216.427 189.031 214.645 187.757 214.171 187.454C215.776 187.536 217.376 187.63 218.949 187.79C221.071 187.997 223.177 188.34 225.255 188.816C225.211 188.96 223.997 192.783 224.223 194.587C224.417 196.149 225.101 198.091 226.546 198.924C226.88 199.132 227.253 199.267 227.642 199.321C228.031 199.375 228.427 199.347 228.805 199.237C229.182 199.128 229.532 198.941 229.832 198.687C230.132 198.433 230.376 198.119 230.546 197.765C231.517 195.608 229.321 191.956 227.749 190.538C227.65 190.449 226.287 189.473 225.63 189.026C225.651 188.987 225.669 188.946 225.686 188.905C227.77 189.439 229.801 190.161 231.755 191.062C232.858 191.542 233.84 192.061 234.806 192.59C234.508 193.274 233.178 196.452 233.2 198.108C233.222 199.763 233.691 201.683 235.032 202.676C235.341 202.919 235.697 203.094 236.078 203.19C236.459 203.286 236.856 203.301 237.243 203.234C237.63 203.167 237.999 203.019 238.325 202.8C238.651 202.582 238.928 202.297 239.137 201.964C240.34 199.923 238.552 196.05 237.151 194.472C237.073 194.389 236.202 193.6 235.562 193.037C235.992 193.28 236.444 193.528 236.853 193.771C238.392 194.676 239.749 195.603 240.941 196.43C241.62 196.91 242.215 197.352 242.778 197.776C242.833 198.604 243.115 201.942 243.882 203.366C244.649 204.789 245.967 206.317 247.611 206.571C247.997 206.645 248.394 206.637 248.776 206.548C249.159 206.458 249.518 206.288 249.83 206.051C250.143 205.813 250.402 205.511 250.59 205.167C250.778 204.822 250.891 204.441 250.922 204.05C251.049 201.688 247.683 199.084 245.708 198.317C245.537 198.256 242.756 197.539 242.756 197.583V197.633C242.204 197.219 241.653 196.778 241.024 196.309C239.843 195.448 238.502 194.494 236.98 193.55C235.342 192.517 233.647 191.578 231.904 190.736C229.953 189.788 227.922 189.017 225.834 188.43H225.757C226.447 188.43 228.384 188.27 228.516 188.248C230.596 187.862 234.381 185.898 234.684 183.553C234.724 183.162 234.681 182.767 234.557 182.394C234.434 182.021 234.234 181.679 233.97 181.388C233.705 181.098 233.383 180.866 233.023 180.709C232.663 180.551 232.274 180.471 231.882 180.474C230.226 180.424 228.615 181.721 227.633 182.951C226.53 184.342 225.57 188.077 225.498 188.375C223.36 187.831 221.189 187.429 218.999 187.172C217.724 187.012 216.433 186.896 215.136 186.791L216.339 186.698C218.419 186.311 222.204 184.347 222.508 182.002C222.547 181.612 222.504 181.217 222.381 180.844C222.258 180.471 222.057 180.128 221.793 179.838C221.529 179.547 221.206 179.316 220.846 179.158C220.486 179.001 220.097 178.921 219.705 178.924C218.05 178.874 216.438 180.171 215.451 181.401C214.463 182.631 213.58 185.815 213.36 186.665L211.87 186.56C209.487 186.405 207.103 186.256 204.775 186.047C203.953 185.969 203.147 185.865 202.342 185.765C202.893 185.727 203.318 185.693 203.384 185.682C205.464 185.296 209.249 183.332 209.553 180.987C209.592 180.596 209.549 180.202 209.426 179.829C209.303 179.456 209.103 179.113 208.838 178.823C208.574 178.532 208.251 178.301 207.891 178.143C207.532 177.986 207.143 177.906 206.75 177.909C205.095 177.864 203.484 179.155 202.496 180.386C201.509 181.616 200.714 184.502 200.449 185.5C199.622 185.368 198.794 185.241 198.005 185.081C197.453 184.96 196.94 184.877 196.411 184.728L194.827 184.309C193.834 184.005 192.808 183.702 191.842 183.382C191.175 183.167 190.54 182.946 189.895 182.725C190.711 182.813 192.317 182.94 192.449 182.935C194.562 182.874 198.601 181.506 199.257 179.233C199.356 178.852 199.374 178.456 199.309 178.068C199.244 177.681 199.098 177.312 198.881 176.984C198.664 176.657 198.381 176.379 198.049 176.168C197.718 175.958 197.345 175.819 196.957 175.762C195.302 175.464 193.536 176.502 192.377 177.572C191.097 178.747 189.619 182.151 189.459 182.582C188.399 182.212 187.373 181.848 186.408 181.478C183.097 180.248 180.388 179.095 178.485 178.256L177.674 179.641L177.806 179.696C179.743 180.502 182.534 181.611 185.933 182.797C187.009 183.172 188.14 183.553 189.354 183.928C189.176 185.107 189.068 186.295 189.028 187.487C187.285 187.867 184.394 189.765 184.024 190.014C183.34 189.125 182.689 188.254 182.082 187.42C180.002 184.568 178.369 182.113 177.249 180.369L176.41 181.875C177.552 183.531 179.097 185.738 181.006 188.248C181.696 189.153 182.452 190.107 183.213 191.084C182.904 191.42 180.427 194.185 179.903 195.84C179.428 197.346 179.235 199.393 180.201 200.756C180.416 201.084 180.698 201.363 181.029 201.575C181.36 201.787 181.731 201.927 182.119 201.986C182.508 202.044 182.904 202.021 183.283 201.916C183.661 201.812 184.013 201.629 184.316 201.379C186.099 199.829 185.635 195.586 184.802 193.655C184.752 193.545 184.085 192.358 183.649 191.619C183.969 192.016 184.278 192.403 184.614 192.805C185.277 193.611 185.955 194.389 186.689 195.233L187.792 196.43C188.151 196.833 188.587 197.219 188.99 197.622C189.939 198.532 190.948 199.41 191.98 200.27C191.279 200.85 188.819 202.941 188.118 204.364C187.417 205.788 186.915 207.768 187.66 209.264C187.824 209.621 188.061 209.939 188.356 210.199C188.651 210.459 188.997 210.653 189.373 210.77C189.748 210.887 190.143 210.924 190.533 210.879C190.924 210.833 191.3 210.706 191.638 210.505C193.635 209.242 193.845 204.988 193.293 202.935C193.26 202.808 192.741 201.379 192.399 200.607C193.028 201.12 193.646 201.633 194.297 202.13C196.173 203.57 198.115 204.966 200.046 206.367C200.642 206.792 201.227 207.228 201.812 207.664C201.558 207.868 198.584 210.29 197.795 211.884C197.095 213.297 196.593 215.289 197.343 216.784C197.506 217.141 197.743 217.459 198.037 217.719C198.332 217.978 198.678 218.173 199.052 218.29C199.427 218.407 199.822 218.444 200.212 218.398C200.602 218.353 200.978 218.226 201.315 218.025C203.313 216.762 203.495 212.508 202.971 210.455C202.932 210.301 202.143 208.248 201.917 207.741C203.213 208.695 204.493 209.655 205.713 210.654C207.37 211.996 208.939 213.445 210.408 214.991C210.292 215.084 207.175 217.606 206.369 219.233C205.669 220.646 205.167 222.643 205.911 224.133C206.075 224.49 206.312 224.809 206.607 225.068C206.902 225.328 207.249 225.522 207.624 225.64C207.999 225.757 208.395 225.793 208.785 225.748C209.175 225.702 209.551 225.575 209.889 225.374C211.887 224.111 212.069 219.857 211.545 217.804C211.511 217.672 210.916 216.111 210.618 215.377L210.728 215.305C212.167 216.898 213.459 218.617 214.59 220.442C215.225 221.44 215.776 222.428 216.29 223.399C215.661 223.807 212.808 225.711 211.92 227.096C211.031 228.48 210.353 230.351 210.932 231.918C211.056 232.29 211.257 232.632 211.522 232.921C211.787 233.21 212.109 233.44 212.469 233.596C212.829 233.752 213.217 233.831 213.609 233.827C214.001 233.823 214.388 233.736 214.745 233.573C216.869 232.536 217.503 228.32 217.222 226.229C217.222 226.119 216.913 224.982 216.67 224.155C216.896 224.596 217.134 225.049 217.343 225.479C218.127 227.085 218.75 228.607 219.285 229.954C219.583 230.726 219.837 231.427 220.074 232.089C219.666 232.812 218.061 235.752 217.912 237.358C217.763 238.963 218.022 240.972 219.258 242.097C219.541 242.377 219.88 242.594 220.253 242.732C220.626 242.87 221.024 242.928 221.421 242.9C221.817 242.872 222.204 242.76 222.554 242.572C222.904 242.383 223.21 242.121 223.451 241.805Z" fill="#263238"/>
<path d="M196.366 18.7776H59.459V232.277H196.366V18.7776Z" fill="white" stroke="#263238" stroke-miterlimit="10"/>
<path d="M192.995 24.03H62.8242V227.024H192.995V24.03Z" fill="#263238" stroke="#263238" stroke-miterlimit="10"/>
<path d="M173.491 189.357H82.3281V216.696H173.491V189.357Z" fill="#636363"/>
<g opacity="0.2">
<path d="M166.677 189.357H153.479L126.146 216.696H139.338L166.677 189.357Z" fill="white"/>
<path d="M84.9658 216.696H90.279L117.612 189.357H112.299L84.9658 216.696Z" fill="white"/>
</g>
<path d="M92.3096 209.004V201.832H95.0682V202.577H93.2917V204.944H94.7537V205.65H93.3137V208.271H95.1069V208.982L92.3096 209.004Z" fill="white"/>
<path d="M95.8184 209.004V203.906H96.6956V204.392C96.8462 204.209 97.0344 204.06 97.2474 203.956C97.4464 203.865 97.6629 203.818 97.8818 203.818C98.0608 203.814 98.237 203.862 98.3894 203.956C98.5584 204.075 98.6749 204.255 98.715 204.458C98.8747 204.254 99.0784 204.088 99.3108 203.973C99.5202 203.87 99.7506 203.817 99.984 203.818C100.142 203.816 100.298 203.856 100.436 203.934C100.579 204.027 100.692 204.159 100.762 204.315C100.852 204.531 100.893 204.765 100.883 204.999V209.004H100.023V205.048C100.041 204.874 99.9985 204.698 99.9012 204.552C99.8605 204.508 99.8108 204.474 99.7554 204.453C99.7001 204.431 99.6406 204.421 99.5812 204.425C99.4379 204.427 99.2974 204.465 99.1729 204.535C99.0254 204.61 98.8941 204.713 98.7867 204.839V208.993H97.9205V205.048C97.9419 204.874 97.8987 204.697 97.7991 204.552C97.7584 204.508 97.7087 204.474 97.6533 204.453C97.598 204.431 97.5385 204.421 97.4791 204.425C97.3375 204.426 97.1985 204.464 97.0763 204.535C96.9289 204.613 96.7963 204.715 96.6846 204.839V208.993L95.8184 209.004Z" fill="white"/>
<path d="M101.821 210.682V203.907H102.77V204.309C102.887 204.177 103.023 204.064 103.173 203.973C103.342 203.879 103.532 203.832 103.725 203.835C103.953 203.822 104.177 203.894 104.354 204.039C104.51 204.183 104.629 204.363 104.701 204.563C104.778 204.767 104.828 204.981 104.85 205.198C104.875 205.38 104.888 205.565 104.889 205.749V206.985C104.889 207.328 104.854 207.67 104.784 208.006C104.728 208.295 104.595 208.564 104.398 208.784C104.295 208.884 104.172 208.962 104.037 209.012C103.902 209.062 103.758 209.084 103.614 209.076C103.442 209.08 103.273 209.032 103.129 208.938C102.992 208.851 102.866 208.747 102.754 208.629V210.682H101.821ZM103.449 208.337C103.519 208.343 103.589 208.329 103.652 208.296C103.714 208.264 103.766 208.215 103.802 208.155C103.883 208.003 103.928 207.835 103.934 207.664C103.934 207.46 103.962 207.233 103.962 206.985V205.749C103.961 205.554 103.948 205.358 103.923 205.164C103.911 205.011 103.86 204.862 103.774 204.734C103.731 204.68 103.676 204.637 103.612 204.609C103.549 204.581 103.479 204.569 103.41 204.574C103.288 204.575 103.167 204.603 103.057 204.657C102.952 204.702 102.856 204.763 102.77 204.839V208.105C102.862 208.173 102.962 208.229 103.068 208.271C103.188 208.324 103.318 208.354 103.449 208.359V208.337Z" fill="white"/>
<path d="M105.848 209.004V201.832H106.791V209.004H105.848Z" fill="white"/>
<path d="M109.187 209.076C108.873 209.092 108.562 209.014 108.293 208.85C108.072 208.686 107.91 208.456 107.83 208.193C107.733 207.869 107.687 207.533 107.692 207.195V205.716C107.687 205.378 107.733 205.041 107.83 204.717C107.91 204.454 108.072 204.224 108.293 204.061C108.562 203.897 108.873 203.818 109.187 203.835C109.499 203.818 109.809 203.897 110.075 204.061C110.293 204.226 110.453 204.456 110.533 204.717C110.63 205.041 110.676 205.378 110.671 205.716V207.195C110.676 207.533 110.63 207.869 110.533 208.193C110.453 208.455 110.293 208.685 110.075 208.85C109.809 209.013 109.499 209.092 109.187 209.076ZM109.187 208.381C109.259 208.388 109.331 208.378 109.398 208.35C109.464 208.322 109.523 208.277 109.568 208.221C109.652 208.097 109.698 207.951 109.7 207.802C109.7 207.631 109.7 207.448 109.7 207.25V205.65C109.7 205.457 109.7 205.275 109.7 205.098C109.696 204.949 109.65 204.804 109.568 204.679C109.524 204.621 109.466 204.575 109.399 204.546C109.333 204.517 109.259 204.505 109.187 204.513C109.113 204.506 109.039 204.518 108.97 204.546C108.902 204.575 108.842 204.621 108.795 204.679C108.713 204.804 108.667 204.949 108.663 205.098C108.663 205.269 108.663 205.451 108.663 205.65V207.255C108.663 207.443 108.663 207.625 108.663 207.807C108.665 207.957 108.711 208.102 108.795 208.226C108.846 208.278 108.907 208.316 108.975 208.339C109.043 208.362 109.116 208.369 109.187 208.359V208.381Z" fill="white"/>
<path d="M111.455 210.284V209.562C111.639 209.564 111.823 209.554 112.007 209.534C112.113 209.525 112.215 209.484 112.299 209.418C112.33 209.387 112.354 209.35 112.37 209.309C112.385 209.268 112.391 209.224 112.387 209.181C112.375 209.062 112.355 208.944 112.327 208.828C112.282 208.644 112.238 208.451 112.194 208.248L111.168 203.906H112.122L112.812 207.719L113.474 203.906H114.429L113.209 209.291C113.169 209.51 113.068 209.713 112.917 209.876C112.762 210.025 112.573 210.133 112.365 210.191C112.104 210.26 111.835 210.291 111.565 210.284H111.455Z" fill="white"/>
<path d="M116.403 209.076C116.078 209.095 115.755 209.014 115.477 208.844C115.252 208.673 115.092 208.43 115.024 208.155C114.934 207.794 114.891 207.423 114.897 207.051V205.882C114.89 205.509 114.935 205.138 115.03 204.778C115.099 204.503 115.263 204.261 115.493 204.094C115.767 203.93 116.084 203.851 116.403 203.868C116.741 203.839 117.078 203.933 117.352 204.133C117.569 204.334 117.711 204.602 117.755 204.894C117.827 205.289 117.86 205.69 117.854 206.091V206.505H115.841V207.531C115.838 207.7 115.857 207.869 115.896 208.033C115.926 208.147 115.992 208.247 116.083 208.32C116.181 208.386 116.297 208.419 116.414 208.414C116.472 208.419 116.53 208.412 116.585 208.394C116.64 208.376 116.691 208.347 116.734 208.309C116.816 208.233 116.871 208.133 116.889 208.022C116.915 207.875 116.928 207.725 116.928 207.575V207.255H117.843V207.449C117.867 207.876 117.753 208.299 117.518 208.657C117.38 208.811 117.206 208.93 117.012 209.003C116.818 209.076 116.609 209.101 116.403 209.076ZM115.852 205.959H116.955V205.501C116.959 205.316 116.946 205.132 116.917 204.949C116.903 204.829 116.853 204.715 116.773 204.624C116.725 204.583 116.67 204.553 116.61 204.534C116.551 204.515 116.488 204.508 116.426 204.513C116.301 204.508 116.179 204.545 116.078 204.618C115.983 204.715 115.925 204.842 115.912 204.977C115.88 205.207 115.865 205.439 115.868 205.672L115.852 205.959Z" fill="white"/>
<path d="M120.134 209.076C119.808 209.095 119.485 209.014 119.207 208.844C118.98 208.674 118.82 208.43 118.754 208.155C118.66 207.795 118.615 207.423 118.622 207.051V205.882C118.614 205.509 118.66 205.137 118.76 204.778C118.827 204.503 118.99 204.261 119.218 204.094C119.495 203.931 119.813 203.853 120.134 203.868C120.472 203.84 120.808 203.934 121.083 204.133C121.299 204.334 121.441 204.602 121.486 204.894C121.555 205.289 121.586 205.69 121.579 206.091V206.505H119.582V207.531C119.577 207.7 119.595 207.869 119.637 208.033C119.664 208.148 119.73 208.25 119.825 208.32C119.922 208.386 120.038 208.419 120.156 208.414C120.272 208.423 120.387 208.385 120.476 208.309C120.553 208.231 120.605 208.131 120.625 208.022C120.655 207.875 120.67 207.726 120.669 207.575V207.255H121.585V207.448C121.608 207.876 121.494 208.299 121.259 208.657C121.12 208.813 120.944 208.932 120.748 209.005C120.552 209.078 120.341 209.103 120.134 209.076ZM119.582 205.959H120.685V205.501C120.687 205.316 120.674 205.132 120.647 204.949C120.633 204.829 120.583 204.715 120.503 204.624C120.406 204.544 120.281 204.505 120.156 204.513C120.03 204.507 119.905 204.544 119.803 204.618C119.712 204.717 119.656 204.843 119.643 204.977C119.607 205.207 119.593 205.439 119.599 205.672L119.582 205.959Z" fill="white"/>
<path d="M125.85 209.076C125.538 209.092 125.228 209.013 124.962 208.85C124.737 208.69 124.574 208.458 124.498 208.193C124.399 207.87 124.353 207.533 124.36 207.195V205.716C124.353 205.378 124.399 205.041 124.498 204.717C124.574 204.452 124.737 204.221 124.962 204.061C125.234 203.913 125.54 203.835 125.85 203.835C126.16 203.835 126.466 203.913 126.738 204.061C126.959 204.223 127.12 204.454 127.196 204.717C127.295 205.041 127.342 205.378 127.334 205.716V207.195C127.342 207.533 127.295 207.87 127.196 208.193C127.12 208.457 126.959 208.688 126.738 208.85C126.472 209.014 126.162 209.093 125.85 209.076ZM125.85 208.381C125.922 208.388 125.996 208.377 126.063 208.35C126.131 208.322 126.19 208.277 126.236 208.221C126.315 208.095 126.361 207.95 126.368 207.802C126.368 207.631 126.368 207.449 126.368 207.25V205.65C126.368 205.457 126.368 205.275 126.368 205.098C126.359 204.95 126.314 204.806 126.236 204.679C126.191 204.621 126.132 204.575 126.065 204.546C125.997 204.517 125.923 204.506 125.85 204.513C125.777 204.506 125.703 204.518 125.635 204.546C125.568 204.575 125.509 204.621 125.464 204.679C125.382 204.804 125.334 204.949 125.326 205.098C125.326 205.269 125.326 205.451 125.326 205.65V207.255C125.326 207.443 125.326 207.625 125.326 207.807C125.333 207.957 125.38 208.102 125.464 208.226C125.513 208.278 125.574 208.316 125.641 208.339C125.708 208.362 125.78 208.369 125.85 208.359V208.381Z" fill="white"/>
<path d="M128.498 209.004V204.591H127.891V203.895H128.498V203.631C128.494 203.356 128.52 203.083 128.575 202.814C128.609 202.598 128.72 202.401 128.889 202.262C129.101 202.127 129.35 202.063 129.601 202.08H129.915L130.219 202.13V202.842H130.064H129.888C129.818 202.831 129.747 202.843 129.684 202.876C129.622 202.908 129.571 202.96 129.54 203.024C129.486 203.178 129.462 203.341 129.469 203.504V203.928H130.241V204.624H129.469V209.038L128.498 209.004Z" fill="white"/>
<path d="M134.114 209.076C133.891 209.087 133.67 209.035 133.474 208.927C133.313 208.828 133.189 208.679 133.121 208.502C133.044 208.296 133.007 208.077 133.011 207.857V204.546H132.459V203.923H133.011V202.428H133.954V203.923H134.776V204.546H133.954V207.807C133.941 207.957 133.976 208.108 134.054 208.237C134.101 208.286 134.159 208.322 134.224 208.344C134.288 208.366 134.356 208.373 134.423 208.364H134.589H134.765V209.065L134.44 209.104L134.114 209.076Z" fill="white"/>
<path d="M135.498 209.004V201.832H136.442V204.414C136.606 204.249 136.792 204.106 136.993 203.989C137.209 203.869 137.453 203.808 137.699 203.813C137.784 203.805 137.868 203.816 137.948 203.844C138.028 203.871 138.101 203.915 138.163 203.973C138.275 204.081 138.356 204.218 138.395 204.37C138.439 204.528 138.461 204.691 138.461 204.855V208.982H137.517V205.12C137.524 204.974 137.496 204.828 137.435 204.695C137.4 204.642 137.351 204.599 137.294 204.573C137.236 204.547 137.172 204.537 137.109 204.546C136.987 204.55 136.867 204.584 136.762 204.646C136.64 204.713 136.525 204.792 136.419 204.883V208.977L135.498 209.004Z" fill="white"/>
<path d="M140.812 209.076C140.487 209.095 140.163 209.014 139.885 208.844C139.658 208.674 139.498 208.43 139.433 208.155C139.34 207.795 139.297 207.423 139.306 207.051V205.882C139.299 205.509 139.343 205.138 139.438 204.778C139.508 204.503 139.672 204.261 139.902 204.094C140.176 203.93 140.493 203.851 140.812 203.868C141.15 203.839 141.487 203.933 141.761 204.133C141.977 204.334 142.119 204.602 142.164 204.894C142.235 205.289 142.269 205.69 142.263 206.091V206.505H140.249V207.531C140.244 207.7 140.263 207.869 140.304 208.033C140.331 208.148 140.397 208.25 140.492 208.32C140.59 208.386 140.706 208.419 140.823 208.414C140.881 208.419 140.939 208.412 140.994 208.394C141.049 208.376 141.099 208.347 141.143 208.309C141.225 208.233 141.279 208.133 141.298 208.022C141.323 207.875 141.336 207.725 141.336 207.575V207.255H142.252V207.449C142.275 207.876 142.161 208.299 141.927 208.657C141.788 208.811 141.614 208.93 141.42 209.003C141.226 209.076 141.018 209.101 140.812 209.076ZM140.26 205.959H141.364V205.501C141.368 205.316 141.355 205.132 141.325 204.949C141.312 204.829 141.262 204.715 141.182 204.624C141.134 204.583 141.079 204.553 141.019 204.534C140.959 204.515 140.896 204.508 140.834 204.513C140.71 204.508 140.587 204.545 140.486 204.618C140.392 204.715 140.333 204.842 140.321 204.977C140.288 205.207 140.274 205.439 140.277 205.672L140.26 205.959Z" fill="white"/>
<path d="M145.197 209.004L145.33 201.832H146.312L147.575 207.636L148.844 201.832H149.815L149.948 209.004H149.148L149.065 203.818L147.857 209.004H147.305L146.102 203.818L146.025 209.004H145.197Z" fill="white"/>
<path d="M152.371 209.076C152.057 209.092 151.746 209.014 151.477 208.85C151.256 208.687 151.094 208.456 151.014 208.193C150.915 207.87 150.868 207.533 150.876 207.195V205.716C150.868 205.378 150.915 205.041 151.014 204.717C151.094 204.455 151.256 204.224 151.477 204.061C151.746 203.897 152.057 203.818 152.371 203.835C152.681 203.818 152.99 203.897 153.254 204.061C153.475 204.224 153.637 204.455 153.717 204.717C153.812 205.042 153.856 205.378 153.85 205.716V207.195C153.856 207.532 153.812 207.869 153.717 208.193C153.637 208.456 153.475 208.687 153.254 208.85C152.99 209.014 152.681 209.093 152.371 209.076ZM152.371 208.381C152.443 208.388 152.515 208.378 152.582 208.35C152.648 208.322 152.707 208.277 152.752 208.221C152.836 208.097 152.882 207.951 152.884 207.802C152.884 207.631 152.884 207.449 152.884 207.25V205.65C152.884 205.457 152.884 205.275 152.884 205.098C152.88 204.949 152.834 204.804 152.752 204.679C152.708 204.621 152.65 204.575 152.583 204.546C152.517 204.517 152.443 204.505 152.371 204.513C152.297 204.506 152.223 204.518 152.154 204.546C152.086 204.575 152.026 204.621 151.979 204.679C151.898 204.804 151.85 204.949 151.841 205.098C151.841 205.269 151.841 205.451 151.841 205.65V207.255C151.841 207.443 151.841 207.625 151.841 207.807C151.848 207.957 151.896 208.102 151.979 208.226C152.03 208.278 152.091 208.316 152.159 208.339C152.227 208.362 152.3 208.369 152.371 208.359V208.381Z" fill="white"/>
<path d="M154.715 209.004V203.906H155.658V204.409C155.826 204.252 156.011 204.115 156.21 204C156.419 203.889 156.652 203.832 156.889 203.835C156.974 203.828 157.061 203.839 157.142 203.867C157.224 203.894 157.299 203.938 157.363 203.995C157.472 204.105 157.55 204.242 157.589 204.392C157.634 204.55 157.656 204.713 157.656 204.878V209.004H156.712V205.142C156.718 204.997 156.692 204.852 156.635 204.718C156.599 204.664 156.549 204.622 156.491 204.595C156.432 204.569 156.367 204.56 156.304 204.569C156.188 204.573 156.074 204.605 155.973 204.662C155.856 204.728 155.745 204.804 155.642 204.889V208.999L154.715 209.004Z" fill="white"/>
<path d="M159.952 209.076C159.725 209.083 159.502 209.025 159.306 208.911C159.145 208.811 159.021 208.662 158.953 208.486C158.876 208.279 158.839 208.06 158.843 207.84V204.53H158.291V203.906H158.843V202.411H159.786V203.906H160.608V204.53H159.786V207.807C159.773 207.957 159.808 208.108 159.886 208.237C159.934 208.285 159.992 208.321 160.056 208.343C160.12 208.365 160.188 208.372 160.255 208.364H160.421H160.597V209.065L160.272 209.104L159.952 209.076Z" fill="white"/>
<path d="M161.336 209.004V201.832H162.279V204.414C162.444 204.249 162.63 204.106 162.831 203.989C163.049 203.869 163.294 203.808 163.543 203.813C163.626 203.806 163.71 203.817 163.789 203.844C163.868 203.872 163.94 203.915 164.001 203.973C164.113 204.081 164.194 204.218 164.233 204.37C164.277 204.528 164.299 204.691 164.299 204.855V208.982H163.355V205.12C163.362 204.974 163.334 204.828 163.273 204.695C163.238 204.642 163.189 204.599 163.132 204.573C163.074 204.547 163.01 204.537 162.947 204.546C162.825 204.55 162.705 204.584 162.599 204.646C162.477 204.713 162.363 204.792 162.257 204.883V208.977L161.336 209.004Z" fill="white"/>
<path d="M116.663 192.05L117.563 194.808H120.459L118.115 196.513L119.014 199.266L116.663 197.567L114.319 199.266L115.218 196.513L112.873 194.808H115.77L116.663 192.05Z" fill="white"/>
<path d="M128.315 192.05L129.209 194.808H132.111L129.761 196.513L130.66 199.266L128.315 197.567L125.971 199.266L126.864 196.513L124.52 194.808H127.416L128.315 192.05Z" fill="white"/>
<path d="M139.962 192.05L140.861 194.808H143.758L141.413 196.513L142.307 199.266L139.962 197.567L137.617 199.266L138.511 196.513L136.166 194.808H139.068L139.962 192.05Z" fill="white"/>
<path d="M169.562 194.825C170.294 194.825 170.887 194.232 170.887 193.501C170.887 192.769 170.294 192.177 169.562 192.177C168.831 192.177 168.238 192.769 168.238 193.501C168.238 194.232 168.831 194.825 169.562 194.825Z" fill="white"/>
<path d="M169.562 214.273C170.294 214.273 170.887 213.68 170.887 212.949C170.887 212.218 170.294 211.625 169.562 211.625C168.831 211.625 168.238 212.218 168.238 212.949C168.238 213.68 168.831 214.273 169.562 214.273Z" fill="white"/>
<path d="M85.9199 194.825C86.6512 194.825 87.244 194.232 87.244 193.501C87.244 192.769 86.6512 192.177 85.9199 192.177C85.1886 192.177 84.5957 192.769 84.5957 193.501C84.5957 194.232 85.1886 194.825 85.9199 194.825Z" fill="white"/>
<path d="M85.9199 214.273C86.6512 214.273 87.244 213.68 87.244 212.949C87.244 212.218 86.6512 211.625 85.9199 211.625C85.1886 211.625 84.5957 212.218 84.5957 212.949C84.5957 213.68 85.1886 214.273 85.9199 214.273Z" fill="white"/>
<path d="M185.745 29.7239H70.0742V179.062H185.745V29.7239Z" fill="white" stroke="#263238" stroke-miterlimit="10"/>
<path d="M110.549 76.6543C110.549 76.6543 107.912 70.0997 107.713 65.8403C107.515 61.5809 107.812 55.1422 109.297 54.0553C110.781 52.9684 116.232 50.0938 117.716 48.3062C119.2 46.5186 121.181 42.1654 132.966 44.2455C144.751 46.3255 147.824 55.2415 151.096 61.0844C154.368 66.9272 150.599 67.7052 150.103 68.5162C149.606 69.3273 148.321 71.0873 148.321 72.4777C148.331 73.3774 148.43 74.2738 148.619 75.1536C148.619 75.1536 147.719 78.7013 146.064 77.2336C144.409 75.766 141.507 66.4362 141.507 66.4362C141.507 66.4362 128.265 67.0266 122.494 62.7672L116.745 58.5133C116.745 58.5133 112.982 68.8142 112.982 71.2032C112.982 73.5922 113.181 77.344 111.879 77.4433C110.577 77.5426 110.549 76.6543 110.549 76.6543Z" fill="#6E6E6E" stroke="#263238" stroke-miterlimit="10"/>
<path d="M137.826 61.7024C140.074 62.753 142.518 63.3171 144.999 63.3576" stroke="#263238" stroke-miterlimit="10"/>
<path d="M124.861 52.3394C124.861 52.3394 129.959 57.6967 136.26 60.9464" stroke="#263238" stroke-miterlimit="10"/>
<path d="M149.248 62.4307C150.114 63.3852 150.622 64.0859 150.622 64.3562" stroke="#263238" stroke-miterlimit="10"/>
<path d="M126.135 46.8553C126.378 46.8553 126.637 46.8222 126.918 46.8167C131.735 46.7339 143.47 56.4941 148.408 61.5425" stroke="#263238" stroke-miterlimit="10"/>
<path d="M123.24 50.3918C123.24 50.3918 121.496 47.9697 124.525 47.1145" stroke="#263238" stroke-miterlimit="10"/>
<path d="M109.23 61.0459C108.885 61.5342 108.675 62.1054 108.623 62.7011C108.623 65.8405 109.727 71.4737 110.03 71.5785" stroke="#263238" stroke-miterlimit="10"/>
<path d="M114.968 55.3188C113.088 56.7681 111.365 58.4102 109.826 60.2182" stroke="#263238" stroke-miterlimit="10"/>
<path d="M118.041 52.9907C118.041 52.9907 117.324 53.4928 116.281 54.2873" stroke="#263238" stroke-miterlimit="10"/>
<path d="M114.065 60.0251C114.065 60.0251 111.141 62.7286 111.251 63.7052C111.353 64.3874 111.573 65.0466 111.902 65.6528" stroke="#263238" stroke-miterlimit="10"/>
<path d="M176.41 123.353C173.778 119.844 144.144 102.029 144.144 102.029L128.232 100.683V100.622L127.868 100.655L127.504 100.622V100.683L111.592 102.029C111.592 102.029 81.9527 119.844 79.3044 123.353C76.6561 126.862 69.958 179.078 69.958 179.078H185.745C185.745 179.078 179.03 126.862 176.41 123.353Z" fill="#92E3A9" stroke="#263238" stroke-miterlimit="10"/>
<path d="M151.488 148.016L150.125 166.135L154.892 159.006L159.008 166.179L156.68 147.177L151.488 148.016Z" fill="#263238" stroke="#263238" stroke-miterlimit="10"/>
<path d="M161.342 141.163L161.734 138.383L159.246 137.075L157.927 134.598L155.141 135L152.614 133.77L150.606 135.734L147.836 136.225L147.367 138.995L145.408 141.02L146.661 143.536L146.269 146.322L148.757 147.63L150.076 150.107L152.862 149.704L155.389 150.934L157.397 148.97L160.167 148.479L160.642 145.71L162.595 143.685L161.342 141.163Z" fill="white" stroke="#263238" stroke-miterlimit="10"/>
<path d="M158.87 145.807C160.77 143.12 160.132 139.402 157.445 137.502C154.757 135.602 151.039 136.24 149.139 138.928C147.239 141.615 147.878 145.333 150.565 147.233C153.252 149.133 156.97 148.495 158.87 145.807Z" fill="white" stroke="#263238" stroke-miterlimit="10"/>
<path d="M83.834 154.239C84.9375 147.194 86.4216 140.049 88.292 135.171" stroke="#263238" stroke-miterlimit="10"/>
<path d="M81.0977 177.682C81.0977 177.682 81.8039 168.126 83.3432 157.489" stroke="#263238" stroke-miterlimit="10"/>
<path d="M168.189 140.292C169.188 149.533 171.13 169.351 170.474 177.898" stroke="#263238" stroke-miterlimit="10"/>
<path d="M167.643 135.392C167.643 135.392 167.758 136.402 167.952 138.123" stroke="#263238" stroke-miterlimit="10"/>
<path d="M118.251 113.394L124.563 124.335L115.586 179.062H133.126L128.072 124.617L136.773 111.706L126.389 105.532L118.251 113.394Z" fill="#636363" stroke="#263238" stroke-miterlimit="10"/>
<path d="M118.252 113.394L122.589 120.909L134.418 115.204L136.774 111.706L128.762 106.945L121.104 110.641L118.252 113.394Z" fill="#263238" stroke="#263238" stroke-miterlimit="10"/>
<path d="M131.553 162.107L117.236 169.015L115.586 179.062H119.183L132.53 172.623L131.553 162.107Z" fill="#263238" stroke="#263238" stroke-miterlimit="10"/>
<path d="M130.854 154.598L129.883 144.076L120.591 148.556L118.633 160.49L130.854 154.598Z" fill="#263238" stroke="#263238" stroke-miterlimit="10"/>
<path d="M129.181 136.567L128.205 126.046L123.945 128.104L121.992 140.038L129.181 136.567Z" fill="#263238" stroke="#263238" stroke-miterlimit="10"/>
<path d="M111.796 97.394C111.796 97.394 108.988 100.622 108.85 104.269C108.712 107.916 110.814 119.568 111.515 120.97C112.216 122.371 112.922 119.706 115.162 117.041C117.402 114.376 124.288 109.598 124.288 109.598H130.743C130.743 109.598 135.791 112.964 136.917 115.634C138.042 118.305 138.456 122.509 139.72 122.084C140.983 121.659 146.341 108.754 146.738 105.251C147.135 101.747 143.51 97.3884 143.51 97.3884C143.51 97.3884 132.845 103.143 126.671 102.724C120.497 102.304 111.796 97.394 111.796 97.394Z" fill="#92E3A9" stroke="#263238" stroke-miterlimit="10"/>
<path d="M111.029 75.391C111.029 75.391 109.263 71.0544 107.018 73.3055C104.772 75.5565 106.378 79.4021 107.338 82.1332C107.965 83.8496 108.83 85.4692 109.909 86.9443L111.029 75.391Z" fill="white" stroke="#263238" stroke-miterlimit="10"/>
<path d="M146.439 75.2476C146.439 75.2476 147.543 71.1869 150.004 74.1442C152.464 77.1015 149.706 82.5636 148.718 84.2464L147.433 86.4258L146.439 75.2476Z" fill="white" stroke="#263238" stroke-miterlimit="10"/>
<path d="M122.743 54.0332C122.743 54.0332 124.669 65.101 144.399 64.941C144.399 64.941 146.65 77.1343 147.45 81.1454C148.25 85.1565 148.735 90.6132 146.164 95.9098C143.593 101.206 139.444 104.252 135.256 107.618C131.069 110.983 125.949 111.48 122.263 109.063C118.577 106.647 111.03 99.132 109.573 93.6643C108.117 88.1966 110.219 80.6654 110.539 76.6543C110.859 72.6432 111.67 56.5988 122.743 54.0332Z" fill="white" stroke="#263238" stroke-miterlimit="10"/>
<path d="M121.677 75.5454C122.171 75.5454 122.571 74.8587 122.571 74.0116C122.571 73.1645 122.171 72.4778 121.677 72.4778C121.183 72.4778 120.783 73.1645 120.783 74.0116C120.783 74.8587 121.183 75.5454 121.677 75.5454Z" fill="#263238"/>
<path d="M136.636 74.0116C136.636 74.8613 136.233 75.5454 135.742 75.5454C135.251 75.5454 134.854 74.8613 134.854 74.0116C134.854 73.1619 135.251 72.4778 135.742 72.4778C136.233 72.4778 136.636 73.184 136.636 74.0116Z" fill="#263238"/>
<path d="M123.758 93.179C123.758 93.179 125.341 95.5569 130.594 93.5762" stroke="#263238" stroke-miterlimit="10"/>
<path d="M116.523 99.6174C116.523 99.6174 122.471 105.361 124.645 105.758C126.819 106.155 131.382 106.056 132.772 105.262C134.162 104.467 137.622 100.114 137.622 100.114" stroke="#263238" stroke-miterlimit="10"/>
<path d="M115.339 69.9011C115.339 69.9011 117.221 67.4239 120.305 67.5232C123.389 67.6225 125.155 68.2184 124.757 68.6266C124.36 69.0349 123.273 69.3163 120.305 69.7301C117.337 70.1439 115.24 70.6956 115.339 69.9011Z" fill="#6E6E6E" stroke="#263238" stroke-miterlimit="10"/>
<path d="M141.938 69.9011C141.938 69.9011 140.051 67.4239 136.972 67.5232C133.893 67.6225 132.117 68.2184 132.514 68.6266C132.911 69.0349 133.998 69.3163 136.972 69.7301C139.946 70.1439 142.032 70.6956 141.938 69.9011Z" fill="#6E6E6E" stroke="#263238" stroke-miterlimit="10"/>
<path d="M116.523 88.125C116.887 89.3379 117.318 90.5296 117.814 91.6947" stroke="#263238" stroke-miterlimit="10"/>
<path d="M139.014 88.4229C139.014 88.4229 137.723 92.1857 136.934 93.2781" stroke="#263238" stroke-miterlimit="10"/>
<path d="M124.845 85.1565C124.845 85.1565 121.679 86.6407 119.996 86.6407C118.313 86.6407 116.327 84.5606 116.134 86.9386C115.94 89.3166 121.778 91.3966 125.243 91.7939C128.708 92.1911 133.761 91.5952 135.444 90.9994C137.243 90.3462 138.729 89.0377 139.604 87.3358C140.3 85.7468 140.2 85.4544 139.113 85.6475C138.026 85.8406 137.425 86.3427 136.239 86.2434C134.671 86.0342 133.117 85.7377 131.582 85.3551L124.845 85.1565Z" fill="#6E6E6E" stroke="#263238" stroke-miterlimit="10"/>
<path d="M124.647 80.0033C124.647 80.0033 122.964 82.6792 123.262 83.4737C123.56 84.2682 125.839 86.74 128.316 86.5414C130.793 86.3427 133.563 84.2627 133.662 83.1758C133.761 82.0889 131.582 79.8047 131.582 79.8047" fill="white"/>
<path d="M124.647 80.0033C124.647 80.0033 122.964 82.6792 123.262 83.4737C123.56 84.2682 125.839 86.74 128.316 86.5414C130.793 86.3427 133.563 84.2627 133.662 83.1758C133.761 82.0889 131.582 79.8047 131.582 79.8047" stroke="#263238" stroke-miterlimit="10"/>
<path d="M116.52 70.3978H125.552C125.991 70.3978 126.412 70.5722 126.722 70.8826C127.033 71.193 127.207 71.614 127.207 72.053V73.8737C127.207 75.337 126.626 76.7404 125.591 77.7751C124.556 78.8098 123.153 79.3911 121.69 79.3911H120.338C118.875 79.3911 117.471 78.8098 116.437 77.7751C115.402 76.7404 114.821 75.337 114.821 73.8737V72.0806C114.817 71.8572 114.858 71.6353 114.942 71.4283C115.027 71.2213 115.152 71.0335 115.311 70.8763C115.47 70.7191 115.659 70.5956 115.866 70.5134C116.074 70.4311 116.297 70.3918 116.52 70.3978Z" stroke="#263238" stroke-miterlimit="10"/>
<path d="M131.576 70.3977H140.603C141.042 70.3977 141.463 70.5721 141.773 70.8825C142.083 71.1929 142.258 71.6139 142.258 72.0529V73.8737C142.258 75.3369 141.676 76.7403 140.642 77.775C139.607 78.8097 138.204 79.391 136.74 79.391H135.389C133.925 79.391 132.522 78.8097 131.487 77.775C130.453 76.7403 129.871 75.3369 129.871 73.8737V72.0805C129.868 71.8566 129.909 71.6342 129.994 71.4269C130.078 71.2195 130.204 71.0315 130.364 70.8742C130.523 70.7168 130.713 70.5935 130.921 70.5116C131.129 70.4297 131.352 70.391 131.576 70.3977Z" stroke="#263238" stroke-miterlimit="10"/>
<path d="M127.123 72.6764C127.123 72.6764 128.806 71.0874 129.799 72.6764" stroke="#263238" stroke-miterlimit="10"/>
<path d="M142.379 73.4653H146.44" stroke="#263238" stroke-miterlimit="10"/>
<path d="M110.881 73.4653H114.942" stroke="#263238" stroke-miterlimit="10"/>
<path d="M124.945 75.5454C124.945 75.5454 124.945 77.6254 121.977 78.5193" stroke="#263238" stroke-miterlimit="10"/>
<path d="M131.78 75.2473C131.78 75.2473 131.582 77.4267 134.456 78.1218" stroke="#263238" stroke-miterlimit="10"/>
<path d="M178.947 40.4001L158.125 64.4889" stroke="#263238" stroke-miterlimit="10"/>
<path d="M184.107 34.4302L181.365 37.5971" stroke="#263238" stroke-miterlimit="10"/>
<path d="M161.861 87.198L157.756 91.954" stroke="#263238" stroke-miterlimit="10"/>
<path d="M169.303 78.5911L163.416 85.405" stroke="#263238" stroke-miterlimit="10"/>
<path d="M99.9013 162.841L88.3535 176.198" stroke="#263238" stroke-miterlimit="10"/>
<path d="M34.8958 116.771L33.1357 122.057C33.1357 122.057 41.9635 125.141 45.9084 119.414L45.467 114.57C45.467 114.57 38.4214 121.632 34.8958 116.771Z" fill="#BDBDBD"/>
<path d="M163.069 245.838L161.309 251.124C161.309 251.124 170.136 254.208 174.081 248.481L173.64 243.637C173.64 243.637 166.594 250.682 163.069 245.838Z" fill="#BDBDBD"/>
<path d="M209.514 136.28L208.41 139.563C208.41 139.563 213.878 141.478 216.339 137.908L216.063 134.896C216.063 134.896 211.721 139.287 209.514 136.28Z" fill="#BDBDBD"/>
<path d="M219.009 39.7048L217.238 44.9905C217.238 44.9905 226.066 48.0746 230.011 42.3476L229.57 37.5034C229.57 37.5034 222.535 44.5491 219.009 39.7048Z" fill="#BDBDBD"/>
<path d="M44.5013 38.2206L40.3854 34.4744C40.3854 34.4744 33.9963 41.2773 37.6267 47.2194L42.2392 48.7808C42.2392 48.7808 38.6474 39.4841 44.5013 38.2206Z" fill="#BDBDBD"/>
<path d="M231.258 187.101L227.136 183.349C227.136 183.349 220.753 190.157 224.377 196.099L228.99 197.655C228.99 197.655 225.404 188.359 231.258 187.101Z" fill="#BDBDBD"/>
<path d="M160.123 37.5365L157.094 34.7778C157.094 34.7778 152.404 39.7821 155.069 44.1573L158.457 45.3049C158.457 45.3049 155.82 38.4634 160.123 37.5365Z" fill="#BDBDBD"/>
<path d="M107.708 143.69L104.679 140.931C104.679 140.931 99.9893 145.936 102.654 150.311L106.042 151.453C106.042 151.453 103.405 144.617 107.708 143.69Z" fill="#BDBDBD"/>
<path d="M24.4622 160.866L21.4332 158.107C21.4332 158.107 16.7379 163.111 19.4083 167.486L22.796 168.634C22.796 168.634 20.1587 161.793 24.4622 160.866Z" fill="#BDBDBD"/>
<path d="M45.8249 214.428L41.7035 210.676C41.7035 210.676 35.3199 217.485 38.9448 223.427L43.5518 224.988C43.5518 224.988 39.9655 215.669 45.8249 214.428Z" fill="#BDBDBD"/>
<path d="M22.3324 70.2047L18.2165 66.4529C18.2165 66.4529 11.8274 73.2613 15.4578 79.2035L20.0703 80.7593C20.0703 80.7593 16.4785 71.4626 22.3324 70.2047Z" fill="#92E3A9"/>
<path d="M220.984 90.9058L216.863 87.1541C216.863 87.1541 210.474 93.9624 214.104 99.9046L218.711 101.461C218.711 101.461 215.125 92.1638 220.984 90.9058Z" fill="#92E3A9"/>
<path d="M242.353 171.062L245.663 166.593C245.663 166.593 238.259 160.915 232.703 165.114L231.6 169.853C231.6 169.853 240.516 165.362 242.353 171.062Z" fill="#92E3A9"/>
<path d="M87.404 240.464L83.0508 243.935C83.0508 243.935 88.7612 251.317 95.1889 248.674L97.4566 244.371C97.4566 244.371 87.724 246.429 87.404 240.464Z" fill="#92E3A9"/>
<path d="M72.8711 90.7512L70.1455 92.9251C70.1455 92.9251 73.7207 97.5486 77.7539 95.8934L79.1774 93.2009C79.1774 93.2009 73.0697 94.4975 72.8711 90.7512Z" fill="#92E3A9"/>
<path d="M111.663 4.64207L108.193 4.25586C108.193 4.25586 107.459 10.0546 111.503 11.7319L114.394 10.838C114.394 10.838 109.153 7.43385 111.663 4.64207Z" fill="#92E3A9"/>
<path d="M229.702 236.326L226.238 235.94C226.238 235.94 225.504 241.739 229.548 243.416L232.456 242.511C232.456 242.511 227.198 239.118 229.702 236.326Z" fill="#92E3A9"/>
<path d="M11.0222 237.452L7.57937 237.049C7.57937 237.049 6.84556 242.848 10.8898 244.525L13.7974 243.62C13.7974 243.62 8.5118 240.244 11.0222 237.452Z" fill="#92E3A9"/>
<path d="M42.3826 85.5098L36.2197 88.594L41.064 92.9968L42.3826 85.5098Z" fill="#BDBDBD"/>
<path d="M44.0713 248.602L48.8162 253.606L51.619 247.692L44.0713 248.602Z" fill="#BDBDBD"/>
<path d="M217.791 9.59654L222.536 14.5953L225.339 8.68066L217.791 9.59654Z" fill="#BDBDBD"/>
<path d="M220.626 220.056L220.488 213.165L214.43 215.653L220.626 220.056Z" fill="#92E3A9"/>
<path d="M41.9743 172.722L41.8308 165.831L35.7783 168.32L41.9743 172.722Z" fill="#92E3A9"/>
<path d="M88.6618 47.1918L88.5239 40.2952L82.4658 42.789L88.6618 47.1918Z" fill="#92E3A9"/>
<path d="M35.5252 7.37866L29.252 10.2422L33.9417 14.816L35.5252 7.37866Z" fill="#92E3A9"/>
<path d="M237.067 70.0943L236.924 63.2031L230.871 65.6914L237.067 70.0943Z" fill="#92E3A9"/>
</svg>
