<svg width="11" height="11" viewBox="0 0 11 11" fill="none" xmlns="http://www.w3.org/2000/svg">
<g clip-path="url(#clip0_105_753)">
<path d="M9.77778 1.52783H2.75V9.47228H9.77778C10.1019 9.47228 10.4128 9.34351 10.642 9.1143C10.8712 8.88508 11 8.57421 11 8.25005V2.75005C11 2.4259 10.8712 2.11502 10.642 1.88581C10.4128 1.6566 10.1019 1.52783 9.77778 1.52783ZM6.875 7.78317C6.26721 7.78317 5.68432 7.54172 5.25455 7.11195C4.82478 6.68218 4.58333 6.09929 4.58333 5.4915C4.58333 4.35483 5.41169 3.41403 6.49703 3.23344C6.0866 3.42362 5.75344 3.74829 5.55272 4.15367C5.35201 4.55905 5.29579 5.02083 5.39336 5.46254C5.49093 5.90424 5.73645 6.29936 6.08926 6.58247C6.44206 6.86558 6.88098 7.01969 7.33333 7.01928C7.71171 7.0191 8.08216 6.91077 8.40102 6.70705C8.71987 6.50334 8.97386 6.21273 9.13306 5.86947C8.95247 6.95511 8.01167 7.78317 6.875 7.78317ZM8.43639 4.59805L8.06575 5.21589L8.00219 4.49814L7.30003 4.3368L7.96308 4.05447L7.89983 3.33672L8.37283 3.8803L9.03589 3.59797L8.66556 4.21611L9.13856 4.75969L8.43639 4.59805Z" fill="#004600"/>
<path d="M1.22222 1.52783C0.898069 1.52783 0.587192 1.6566 0.357981 1.88581C0.128769 2.11502 0 2.4259 0 2.75005L0 8.25005C0 8.57421 0.128769 8.88508 0.357981 9.1143C0.587192 9.34351 0.898069 9.47228 1.22222 9.47228H2.75V1.52783H1.22222Z" fill="#EEEEEE"/>
<path d="M9.03664 3.59792L8.37359 3.88025L7.90059 3.33667L7.96384 4.05442L7.30078 4.33675L8.00295 4.49809L8.0665 5.21584L8.43714 4.598L9.13931 4.75964L8.66631 4.21606L9.03664 3.59792Z" fill="white"/>
<path d="M7.33398 7.01923C6.88163 7.01964 6.44271 6.86554 6.08991 6.58243C5.7371 6.29932 5.49158 5.90419 5.39401 5.46249C5.29644 5.02079 5.35266 4.55901 5.55338 4.15363C5.75409 3.74824 6.08725 3.42358 6.49768 3.2334C5.41235 3.41429 4.58398 4.35509 4.58398 5.49145C4.58398 6.09924 4.82543 6.68214 5.2552 7.11191C5.68497 7.54168 6.26786 7.78312 6.87565 7.78312C8.01232 7.78312 8.95312 6.95476 9.13371 5.86943C8.97458 6.21273 8.7206 6.50338 8.40173 6.7071C8.08285 6.91083 7.71238 7.01913 7.33398 7.01923Z" fill="white"/>
</g>
<defs>
<clipPath id="clip0_105_753">
<rect width="11" height="11" fill="white"/>
</clipPath>
</defs>
</svg>
