<svg width="56" height="34" viewBox="0 0 56 34" fill="none" xmlns="http://www.w3.org/2000/svg">
<path d="M47.9074 19.1915L53.4953 16.4088C53.7112 16.3011 53.9034 16.1513 54.0606 15.9682C54.2178 15.7851 54.3368 15.5724 54.4105 15.3427C54.4843 15.1129 54.5114 14.8707 54.4902 14.6303C54.469 14.3899 54.3999 14.1562 54.2871 13.9429L48.7218 3.28752C48.5046 2.86876 48.1305 2.5529 47.6813 2.40881C47.2321 2.26472 46.7441 2.30409 46.3238 2.51834L40.6681 5.34621M47.9074 19.1915L40.6681 5.34621M47.9074 19.1915L44.2877 23.4446M40.6681 5.34621H31.4605C31.2255 5.34538 30.9926 5.39092 30.7753 5.4802C30.5579 5.56949 30.3602 5.70077 30.1936 5.86654L21.3254 14.7121C21.1444 14.898 21.0048 15.1202 20.9161 15.3641C20.8273 15.6079 20.7914 15.8679 20.8107 16.1267C20.8299 16.3855 20.9039 16.6372 21.0277 16.8652C21.1516 17.0933 21.3225 17.2924 21.529 17.4495L22.7507 18.377C24.0052 19.3134 25.5288 19.8193 27.0943 19.8193C28.6598 19.8193 30.1833 19.3134 31.4379 18.377L34.3336 16.2052L44.2877 23.4446M8.09099 18.9652L2.50312 16.16C2.28797 16.0545 2.09621 15.9069 1.93926 15.7259C1.78231 15.5448 1.66336 15.3341 1.58949 15.1061C1.51562 14.8782 1.48834 14.6377 1.50927 14.399C1.5302 14.1604 1.59891 13.9283 1.71132 13.7167L7.27657 3.06129C7.49427 2.64283 7.86675 2.32591 8.31466 2.17801C8.76257 2.03012 9.25053 2.06294 9.6746 2.26948L15.3303 5.09736L8.09099 18.9652ZM8.09099 18.9652L20.4658 28.6252C20.6588 28.7822 20.8821 28.8978 21.1218 28.9646L34.2431 32.2449C34.5468 32.3105 34.8618 32.3015 35.1612 32.2188C35.4607 32.1361 35.7356 31.982 35.9625 31.7698L44.2877 23.4446M15.4661 5.09736L27.0717 1.70391C27.484 1.58566 27.925 1.61773 28.3159 1.7944L36.1435 5.34621" stroke="#722AAB" stroke-width="2.2" stroke-linecap="round" stroke-linejoin="round"/>
</svg>
