<svg width="256" height="254" viewBox="0 0 256 254" fill="none" xmlns="http://www.w3.org/2000/svg">
<path d="M177.616 170.234H143.115C140.512 170.231 138.018 169.196 136.178 167.356C134.338 165.516 133.302 163.021 133.299 160.419V41.8903C133.302 39.2886 134.338 36.7947 136.178 34.9556C138.018 33.1166 140.513 32.0828 143.115 32.0811H177.616V32.7461H143.115C140.689 32.7478 138.364 33.7116 136.648 35.4259C134.933 37.1402 133.967 39.465 133.964 41.8903V160.419C133.966 162.845 134.93 165.172 136.646 166.887C138.362 168.603 140.688 169.568 143.115 169.569H177.616V170.234Z" fill="#263238"/>
<path d="M213.528 170.234H155.451C152.629 170.234 149.923 169.113 147.927 167.118C145.932 165.122 144.811 162.416 144.811 159.594V42.7215C144.811 39.8995 145.932 37.1931 147.927 35.1976C149.923 33.2021 152.629 32.0811 155.451 32.0811H213.528C216.35 32.0811 219.057 33.2021 221.052 35.1976C223.048 37.1931 224.169 39.8995 224.169 42.7215V159.594C224.169 162.416 223.048 165.122 221.052 167.118C219.057 169.113 216.35 170.234 213.528 170.234ZM155.451 32.7461C152.805 32.7461 150.268 33.7971 148.397 35.6678C146.527 37.5386 145.476 40.0759 145.476 42.7215V159.594C145.476 162.24 146.527 164.777 148.397 166.648C150.268 168.518 152.805 169.569 155.451 169.569H213.528C216.174 169.569 218.711 168.518 220.582 166.648C222.453 164.777 223.504 162.24 223.504 159.594V42.7215C223.504 40.0759 222.453 37.5386 220.582 35.6678C218.711 33.7971 216.174 32.7461 213.528 32.7461H155.451Z" fill="#263238"/>
<path d="M212.484 58.3431H156.043C155.614 58.3628 155.185 58.2952 154.783 58.1445C154.38 57.9938 154.013 57.763 153.702 57.4662C153.391 57.1694 153.144 56.8127 152.975 56.4176C152.806 56.0225 152.719 55.5973 152.719 55.1676C152.719 54.7379 152.806 54.3127 152.975 53.9176C153.144 53.5225 153.391 53.1658 153.702 52.869C154.013 52.5722 154.38 52.3415 154.783 52.1908C155.185 52.04 155.614 51.9724 156.043 51.9921H212.484C212.913 51.9724 213.342 52.04 213.744 52.1908C214.147 52.3415 214.514 52.5722 214.825 52.869C215.136 53.1658 215.383 53.5225 215.552 53.9176C215.721 54.3127 215.808 54.7379 215.808 55.1676C215.808 55.5973 215.721 56.0225 215.552 56.4176C215.383 56.8127 215.136 57.1694 214.825 57.4662C214.514 57.763 214.147 57.9938 213.744 58.1445C213.342 58.2952 212.913 58.3628 212.484 58.3431ZM156.07 52.6571C155.729 52.6396 155.388 52.6915 155.069 52.8098C154.749 52.928 154.456 53.1101 154.209 53.345C153.962 53.5798 153.765 53.8625 153.63 54.1758C153.496 54.4892 153.426 54.8266 153.426 55.1676C153.426 55.5086 153.496 55.8461 153.63 56.1594C153.765 56.4727 153.962 56.7554 154.209 56.9903C154.456 57.2251 154.749 57.4072 155.069 57.5255C155.388 57.6437 155.729 57.6956 156.07 57.6781H212.484C212.825 57.6956 213.165 57.6437 213.485 57.5255C213.805 57.4072 214.097 57.2251 214.345 56.9903C214.592 56.7554 214.789 56.4727 214.923 56.1594C215.058 55.8461 215.127 55.5086 215.127 55.1676C215.127 54.8266 215.058 54.4892 214.923 54.1758C214.789 53.8625 214.592 53.5798 214.345 53.345C214.097 53.1101 213.805 52.928 213.485 52.8098C213.165 52.6915 212.825 52.6396 212.484 52.6571H156.07Z" fill="#263238"/>
<path d="M212.483 152.106H156.042C155.199 152.106 154.39 151.771 153.794 151.175C153.198 150.579 152.863 149.77 152.863 148.927C152.863 148.084 153.198 147.275 153.794 146.679C154.39 146.083 155.199 145.748 156.042 145.748H212.483C213.326 145.748 214.135 146.083 214.731 146.679C215.327 147.275 215.662 148.084 215.662 148.927C215.662 149.77 215.327 150.579 214.731 151.175C214.135 151.771 213.326 152.106 212.483 152.106ZM156.069 146.413C155.402 146.413 154.763 146.678 154.291 147.149C153.82 147.621 153.555 148.26 153.555 148.927C153.555 149.594 153.82 150.233 154.291 150.704C154.763 151.176 155.402 151.441 156.069 151.441H212.483C213.15 151.441 213.789 151.176 214.261 150.704C214.732 150.233 214.997 149.594 214.997 148.927C214.997 148.26 214.732 147.621 214.261 147.149C213.789 146.678 213.15 146.413 212.483 146.413H156.069Z" fill="#263238"/>
<path d="M195.393 69.7218H156.043C155.614 69.7414 155.185 69.6739 154.783 69.5231C154.38 69.3724 154.013 69.1417 153.702 68.8449C153.391 68.5481 153.144 68.1914 152.975 67.7963C152.806 67.4012 152.719 66.976 152.719 66.5463C152.719 66.1166 152.806 65.6914 152.975 65.2963C153.144 64.9012 153.391 64.5445 153.702 64.2477C154.013 63.9509 154.38 63.7201 154.783 63.5694C155.185 63.4187 155.614 63.3511 156.043 63.3708H195.393C195.822 63.3511 196.251 63.4187 196.653 63.5694C197.056 63.7201 197.423 63.9509 197.734 64.2477C198.045 64.5445 198.292 64.9012 198.461 65.2963C198.63 65.6914 198.717 66.1166 198.717 66.5463C198.717 66.976 198.63 67.4012 198.461 67.7963C198.292 68.1914 198.045 68.5481 197.734 68.8449C197.423 69.1417 197.056 69.3724 196.653 69.5231C196.251 69.6739 195.822 69.7414 195.393 69.7218ZM156.043 64.0358C155.702 64.0183 155.362 64.0702 155.042 64.1884C154.722 64.3067 154.43 64.4888 154.182 64.7236C153.935 64.9585 153.738 65.2412 153.604 65.5545C153.469 65.8678 153.4 66.2053 153.4 66.5463C153.4 66.8873 153.469 67.2247 153.604 67.5381C153.738 67.8514 153.935 68.1341 154.182 68.3689C154.43 68.6038 154.722 68.7859 155.042 68.9041C155.362 69.0224 155.702 69.0743 156.043 69.0568H195.393C195.733 69.0743 196.074 69.0224 196.394 68.9041C196.714 68.7859 197.006 68.6038 197.253 68.3689C197.501 68.1341 197.697 67.8514 197.832 67.5381C197.966 67.2247 198.036 66.8873 198.036 66.5463C198.036 66.2053 197.966 65.8678 197.832 65.5545C197.697 65.2412 197.501 64.9585 197.253 64.7236C197.006 64.4888 196.714 64.3067 196.394 64.1884C196.074 64.0702 195.733 64.0183 195.393 64.0358H156.043Z" fill="#263238"/>
<path d="M207.244 71.2912C209.862 71.2912 211.985 69.1683 211.985 66.5495C211.985 63.9308 209.862 61.8079 207.244 61.8079C204.625 61.8079 202.502 63.9308 202.502 66.5495C202.502 69.1683 204.625 71.2912 207.244 71.2912Z" fill="#92E3A9"/>
<path d="M207.242 71.6237C206.239 71.6237 205.258 71.3261 204.423 70.7685C203.589 70.211 202.938 69.4185 202.554 68.4913C202.17 67.5641 202.07 66.5439 202.265 65.5596C202.461 64.5753 202.945 63.6712 203.654 62.9615C204.364 62.2519 205.268 61.7686 206.252 61.5728C207.237 61.3771 208.257 61.4775 209.184 61.8616C210.111 62.2456 210.904 62.896 211.461 63.7305C212.019 64.5649 212.316 65.5459 212.316 66.5495C212.313 67.8942 211.777 69.1828 210.826 70.1336C209.875 71.0845 208.587 71.6202 207.242 71.6237ZM207.242 62.1404C206.37 62.1404 205.518 62.399 204.793 62.8835C204.067 63.3679 203.502 64.0565 203.169 64.8622C202.835 65.6679 202.748 66.5544 202.918 67.4097C203.088 68.265 203.508 69.0506 204.124 69.6673C204.741 70.2839 205.527 70.7038 206.382 70.874C207.237 71.0441 208.124 70.9568 208.929 70.623C209.735 70.2893 210.424 69.7242 210.908 68.9991C211.393 68.274 211.651 67.4216 211.651 66.5495C211.652 65.9696 211.539 65.3952 211.318 64.8592C211.097 64.3231 210.772 63.8358 210.363 63.4251C209.953 63.0145 209.467 62.6885 208.931 62.4657C208.396 62.243 207.822 62.1279 207.242 62.1271V62.1404Z" fill="#263238"/>
<path d="M161.018 95.7977C159.591 95.7977 158.197 95.3748 157.012 94.5824C155.826 93.7899 154.902 92.6637 154.357 91.346C153.811 90.0284 153.669 88.5785 153.948 87.18C154.226 85.7814 154.914 84.4969 155.922 83.489C156.931 82.4811 158.216 81.795 159.615 81.5176C161.014 81.2402 162.464 81.3839 163.781 81.9305C165.098 82.4772 166.223 83.4022 167.015 84.5886C167.806 85.775 168.228 87.1694 168.226 88.5955C168.225 90.5062 167.464 92.3381 166.113 93.6886C164.761 95.0391 162.928 95.7977 161.018 95.7977ZM161.018 82.0516C159.723 82.0516 158.458 82.4354 157.382 83.1544C156.306 83.8735 155.467 84.8955 154.972 86.0912C154.476 87.287 154.347 88.6027 154.599 89.8721C154.852 91.1415 155.475 92.3075 156.39 93.2227C157.305 94.1379 158.471 94.7611 159.741 95.0136C161.01 95.2661 162.326 95.1365 163.522 94.6412C164.717 94.1459 165.74 93.3072 166.459 92.2311C167.178 91.1549 167.561 89.8897 167.561 88.5955C167.554 86.8645 166.862 85.2069 165.635 83.9854C164.409 82.7639 162.748 82.0782 161.018 82.0782V82.0516Z" fill="#263238"/>
<path d="M184.486 95.7977C183.06 95.7977 181.666 95.3748 180.481 94.5824C179.295 93.7899 178.371 92.6637 177.825 91.346C177.28 90.0284 177.138 88.5785 177.416 87.18C177.695 85.7814 178.382 84.4969 179.391 83.489C180.4 82.4811 181.685 81.795 183.084 81.5176C184.483 81.2402 185.932 81.3839 187.25 81.9305C188.567 82.4772 189.692 83.4022 190.484 84.5886C191.275 85.775 191.697 87.1694 191.695 88.5955C191.692 90.5057 190.931 92.3366 189.579 93.6867C188.228 95.0368 186.397 95.796 184.486 95.7977ZM184.486 82.0516C183.192 82.0516 181.927 82.4354 180.851 83.1544C179.775 83.8735 178.936 84.8955 178.441 86.0912C177.945 87.287 177.816 88.6027 178.068 89.8721C178.321 91.1415 178.944 92.3075 179.859 93.2227C180.774 94.1379 181.94 94.7611 183.21 95.0136C184.479 95.2661 185.795 95.1365 186.991 94.6412C188.186 94.1459 189.208 93.3072 189.927 92.2311C190.646 91.1549 191.03 89.8897 191.03 88.5955C191.021 86.8651 190.328 85.2084 189.102 83.9873C187.876 82.7663 186.217 82.0799 184.486 82.0782V82.0516Z" fill="#263238"/>
<path d="M207.953 95.7977C206.527 95.8017 205.131 95.382 203.942 94.592C202.754 93.802 201.827 92.6771 201.278 91.3598C200.73 90.0425 200.585 88.5921 200.861 87.1922C201.138 85.7923 201.823 84.506 202.831 83.496C203.839 82.4861 205.124 81.7981 206.524 81.5191C207.923 81.24 209.374 81.3826 210.692 81.9286C212.011 82.4747 213.137 83.3997 213.929 84.5865C214.722 85.7733 215.144 87.1685 215.142 88.5954C215.139 90.5022 214.381 92.3301 213.034 93.6796C211.687 95.0292 209.86 95.7907 207.953 95.7977ZM207.953 82.0515C206.658 82.0476 205.391 82.428 204.312 83.1447C203.234 83.8613 202.392 84.882 201.894 86.0773C201.395 87.2727 201.263 88.5891 201.513 89.8598C201.763 91.1305 202.385 92.2984 203.299 93.2156C204.214 94.1327 205.38 94.758 206.65 95.0121C207.919 95.2662 209.236 95.1378 210.433 94.6431C211.63 94.1484 212.653 93.3097 213.373 92.2331C214.093 91.1565 214.477 89.8905 214.477 88.5954C214.469 86.8685 213.778 85.2149 212.557 83.9943C211.335 82.7738 209.68 82.0851 207.953 82.0781V82.0515Z" fill="#263238"/>
<path d="M161.018 113.82C159.592 113.82 158.198 113.397 157.012 112.605C155.827 111.813 154.903 110.687 154.357 109.37C153.812 108.053 153.669 106.603 153.947 105.205C154.225 103.806 154.912 102.522 155.92 101.514C156.928 100.505 158.213 99.8188 159.611 99.5406C161.01 99.2625 162.459 99.4052 163.776 99.9509C165.094 100.496 166.219 101.42 167.012 102.606C167.804 103.791 168.226 105.185 168.226 106.611C168.225 108.522 167.465 110.355 166.113 111.707C164.762 113.058 162.929 113.818 161.018 113.82ZM161.018 100.067C159.723 100.067 158.458 100.451 157.382 101.17C156.306 101.889 155.467 102.911 154.972 104.107C154.476 105.303 154.347 106.618 154.599 107.888C154.852 109.157 155.475 110.323 156.39 111.238C157.305 112.153 158.471 112.777 159.741 113.029C161.01 113.282 162.326 113.152 163.522 112.657C164.718 112.162 165.74 111.323 166.459 110.247C167.178 109.17 167.561 107.905 167.561 106.611C167.561 104.875 166.872 103.211 165.645 101.984C164.418 100.757 162.753 100.067 161.018 100.067Z" fill="#263238"/>
<path d="M184.486 113.82C183.06 113.82 181.667 113.397 180.481 112.605C179.296 111.813 178.372 110.687 177.826 109.37C177.28 108.053 177.138 106.603 177.416 105.205C177.694 103.806 178.381 102.522 179.389 101.514C180.397 100.505 181.681 99.8188 183.08 99.5406C184.478 99.2625 185.928 99.4052 187.245 99.9509C188.562 100.496 189.688 101.42 190.48 102.606C191.272 103.791 191.695 105.185 191.695 106.611C191.692 108.522 190.931 110.353 189.58 111.705C188.229 113.056 186.397 113.816 184.486 113.82ZM184.486 100.067C183.192 100.067 181.927 100.451 180.851 101.17C179.775 101.889 178.936 102.911 178.441 104.107C177.945 105.303 177.816 106.618 178.068 107.888C178.321 109.157 178.944 110.323 179.859 111.238C180.774 112.153 181.94 112.777 183.21 113.029C184.479 113.282 185.795 113.152 186.991 112.657C188.186 112.162 189.208 111.323 189.927 110.247C190.646 109.17 191.03 107.905 191.03 106.611C191.028 104.876 190.338 103.213 189.112 101.986C187.885 100.759 186.221 100.069 184.486 100.067Z" fill="#263238"/>
<path d="M207.954 113.82C206.527 113.824 205.131 113.404 203.943 112.615C202.755 111.825 201.828 110.7 201.279 109.384C200.73 108.067 200.585 106.617 200.861 105.217C201.137 103.817 201.822 102.531 202.829 101.521C203.836 100.51 205.121 99.8219 206.52 99.5421C207.919 99.2623 209.369 99.4039 210.688 99.9489C212.006 100.494 213.133 101.418 213.926 102.604C214.719 103.79 215.142 105.184 215.142 106.611C215.139 108.518 214.381 110.347 213.034 111.698C211.687 113.048 209.861 113.811 207.954 113.82ZM207.954 100.067C206.659 100.067 205.394 100.451 204.318 101.17C203.242 101.889 202.403 102.911 201.908 104.107C201.412 105.303 201.283 106.618 201.535 107.888C201.788 109.157 202.411 110.323 203.326 111.238C204.241 112.153 205.407 112.777 206.677 113.029C207.946 113.282 209.262 113.152 210.458 112.657C211.653 112.161 212.676 111.323 213.395 110.247C214.114 109.17 214.497 107.905 214.497 106.611C214.496 104.876 213.806 103.213 212.579 101.986C211.352 100.759 209.689 100.069 207.954 100.067Z" fill="#263238"/>
<path d="M161.018 131.836C159.591 131.836 158.197 131.412 157.011 130.62C155.825 129.827 154.901 128.7 154.356 127.382C153.811 126.064 153.669 124.614 153.948 123.215C154.227 121.817 154.915 120.532 155.925 119.524C156.934 118.517 158.22 117.831 159.619 117.555C161.019 117.278 162.468 117.423 163.785 117.97C165.102 118.518 166.227 119.444 167.018 120.631C167.809 121.819 168.229 123.214 168.226 124.64C168.221 126.549 167.46 128.378 166.108 129.727C164.757 131.076 162.927 131.834 161.018 131.836ZM161.018 118.083C159.723 118.083 158.458 118.467 157.382 119.186C156.306 119.905 155.467 120.927 154.972 122.122C154.476 123.318 154.347 124.634 154.599 125.903C154.852 127.173 155.475 128.339 156.39 129.254C157.305 130.169 158.471 130.792 159.741 131.045C161.01 131.297 162.326 131.168 163.522 130.672C164.717 130.177 165.74 129.338 166.459 128.262C167.178 127.186 167.561 125.921 167.561 124.627C167.561 122.891 166.872 121.227 165.645 119.999C164.418 118.772 162.753 118.083 161.018 118.083Z" fill="#263238"/>
<path d="M184.486 131.836C183.06 131.836 181.666 131.412 180.48 130.62C179.294 129.827 178.37 128.7 177.825 127.382C177.28 126.064 177.138 124.614 177.417 123.215C177.696 121.817 178.384 120.532 179.394 119.524C180.403 118.517 181.689 117.831 183.088 117.555C184.487 117.278 185.937 117.423 187.254 117.97C188.571 118.518 189.696 119.444 190.487 120.631C191.277 121.819 191.698 123.214 191.695 124.64C191.688 126.548 190.926 128.377 189.575 129.725C188.224 131.073 186.395 131.832 184.486 131.836ZM184.486 118.083C183.192 118.083 181.927 118.467 180.851 119.186C179.775 119.905 178.936 120.927 178.44 122.122C177.945 123.318 177.816 124.634 178.068 125.903C178.321 127.173 178.944 128.339 179.859 129.254C180.774 130.169 181.94 130.792 183.21 131.045C184.479 131.297 185.795 131.168 186.991 130.672C188.186 130.177 189.208 129.338 189.927 128.262C190.646 127.186 191.03 125.921 191.03 124.627C191.028 122.892 190.338 121.228 189.112 120.001C187.885 118.775 186.221 118.085 184.486 118.083Z" fill="#263238"/>
<path d="M207.953 131.836C206.526 131.84 205.13 131.42 203.942 130.629C202.753 129.839 201.826 128.714 201.278 127.396C200.73 126.078 200.585 124.628 200.862 123.228C201.139 121.828 201.825 120.541 202.834 119.532C203.842 118.522 205.128 117.834 206.528 117.556C207.928 117.278 209.379 117.421 210.697 117.968C212.015 118.515 213.141 119.442 213.933 120.629C214.724 121.817 215.145 123.213 215.142 124.64C215.135 126.545 214.376 128.37 213.03 129.718C211.683 131.066 209.859 131.827 207.953 131.836ZM207.953 118.083C206.659 118.079 205.392 118.459 204.314 119.175C203.235 119.891 202.394 120.911 201.895 122.105C201.396 123.3 201.263 124.616 201.512 125.886C201.761 127.156 202.381 128.324 203.295 129.242C204.208 130.16 205.372 130.786 206.641 131.042C207.91 131.297 209.227 131.171 210.424 130.678C211.621 130.185 212.645 129.349 213.367 128.274C214.088 127.199 214.475 125.934 214.477 124.64C214.479 122.906 213.793 121.242 212.571 120.013C211.348 118.784 209.687 118.09 207.953 118.083Z" fill="#263238"/>
<path d="M89.5732 0H88.9082V250.716H89.5732V0Z" fill="#263238"/>
<path d="M97.1728 0H96.5078V250.716H97.1728V0Z" fill="#263238"/>
<path d="M123.489 0H122.824V250.716H123.489V0Z" fill="#263238"/>
<path d="M88.1518 32.447L22.7988 92.353L23.2482 92.8433L88.6012 32.9373L88.1518 32.447Z" fill="#263238"/>
<path d="M63.4358 62.597L58.2148 67.3828L58.6642 67.873L63.8852 63.0872L63.4358 62.597Z" fill="#263238"/>
<path d="M88.1517 39.9386L69.4199 57.1091L69.8693 57.5994L88.6011 40.4288L88.1517 39.9386Z" fill="#263238"/>
<path d="M88.1712 90.8555L47.2988 128.269L47.7479 128.759L88.6202 91.3461L88.1712 90.8555Z" fill="#263238"/>
<path d="M72.7122 109.675L69.4473 112.668L69.8966 113.158L73.1616 110.165L72.7122 109.675Z" fill="#263238"/>
<path d="M88.1599 95.518L76.4531 106.249L76.9025 106.739L88.6093 96.0082L88.1599 95.518Z" fill="#263238"/>
<path d="M52.1515 158.69C49.8172 164.435 47.4298 159.813 47.8088 135.726C47.9884 124.42 48.7798 101.364 61.269 106.465C73.2396 111.339 57.4584 145.449 57.4584 145.449L52.1515 158.69ZM69.296 162.108C69.296 162.108 95.3319 134.981 85.5692 126.469C75.4076 117.611 67.1612 139.171 63.324 149.791C55.1441 172.456 55.9023 177.603 59.9988 172.921L69.296 162.108ZM74.8224 186.488C74.8224 186.488 98.657 169.516 92.4257 161.596C85.935 153.349 76.5115 168.638 72.0359 176.226C62.4993 192.367 62.3331 196.41 66.1238 193.424L74.8224 186.488ZM81.2732 210.755C81.2732 210.755 105.108 193.79 98.8765 185.869C92.3858 177.623 82.9623 192.912 78.4933 200.5C68.9501 216.64 68.7839 220.684 72.5746 217.698L81.2732 210.755ZM39.6489 161.955C39.6489 161.955 6.3043 144.598 0.877649 156.362C-4.76846 168.598 18.2416 170.454 29.5139 171.146C53.5613 172.629 58.2897 170.48 52.6503 167.867L39.6489 161.955ZM44.344 181.068C44.344 181.068 8.21293 170.68 5.2336 183.289C2.13456 196.403 25.0515 193.65 36.2373 192.087C60.0986 188.762 64.3016 185.69 58.2631 184.273L44.344 181.068ZM52.617 201.897C52.617 201.897 21.8194 193.956 19.5916 204.683C17.2773 215.849 36.5964 212.983 46.0132 211.406C66.1171 208.041 69.6019 205.348 64.4612 204.291L52.617 201.897ZM57.4052 219.074C57.4052 219.074 27.6052 207.895 24.2801 218.329C20.7887 229.183 40.3006 228.385 49.8372 227.819C70.1871 226.602 73.9312 224.295 68.9368 222.699L57.4052 219.074ZM37.4543 131.955C37.4543 131.955 23.8544 89.7059 8.42574 97.3737C-7.64139 105.354 10.9329 124.401 20.2167 133.525C40.028 152.984 46.1529 154.353 43.546 147.557L37.4543 131.955Z" fill="#92E3A9"/>
<path opacity="0.4" d="M52.1515 158.69C49.8172 164.435 47.4298 159.813 47.8088 135.726C47.9884 124.42 48.7798 101.364 61.269 106.465C73.2396 111.339 57.4584 145.449 57.4584 145.449L52.1515 158.69ZM69.296 162.108C69.296 162.108 95.3319 134.981 85.5692 126.469C75.4076 117.611 67.1612 139.171 63.324 149.791C55.1441 172.456 55.9023 177.603 59.9988 172.921L69.296 162.108ZM74.8224 186.488C74.8224 186.488 98.657 169.516 92.4257 161.596C85.935 153.349 76.5115 168.638 72.0359 176.226C62.4993 192.367 62.3331 196.41 66.1238 193.424L74.8224 186.488ZM81.2732 210.755C81.2732 210.755 105.108 193.79 98.8765 185.869C92.3858 177.623 82.9623 192.912 78.4933 200.5C68.9501 216.64 68.7839 220.684 72.5746 217.698L81.2732 210.755ZM39.6489 161.955C39.6489 161.955 6.3043 144.598 0.877649 156.362C-4.76846 168.598 18.2416 170.454 29.5139 171.146C53.5613 172.629 58.2897 170.48 52.6503 167.867L39.6489 161.955ZM44.344 181.068C44.344 181.068 8.21293 170.68 5.2336 183.289C2.13456 196.403 25.0515 193.65 36.2373 192.087C60.0986 188.762 64.3016 185.69 58.2631 184.273L44.344 181.068ZM52.617 201.897C52.617 201.897 21.8194 193.956 19.5916 204.683C17.2773 215.849 36.5964 212.983 46.0132 211.406C66.1171 208.041 69.6019 205.348 64.4612 204.291L52.617 201.897ZM57.4052 219.074C57.4052 219.074 27.6052 207.895 24.2801 218.329C20.7887 229.183 40.3006 228.385 49.8372 227.819C70.1871 226.602 73.9312 224.295 68.9368 222.699L57.4052 219.074ZM37.4543 131.955C37.4543 131.955 23.8544 89.7059 8.42574 97.3737C-7.64139 105.354 10.9329 124.401 20.2167 133.525C40.028 152.984 46.1529 154.353 43.546 147.557L37.4543 131.955Z" fill="white"/>
<path d="M74.1043 249.253C73.9983 249.253 73.8963 249.213 73.8195 249.14C73.7428 249.067 73.6971 248.967 73.6919 248.861C72.4151 226.376 66.1106 198.791 56.8201 175.043C48.7666 154.487 14.9232 113.062 14.5708 112.643C14.5018 112.557 14.4695 112.447 14.4807 112.338C14.4919 112.228 14.5457 112.128 14.6306 112.058C14.6728 112.023 14.7215 111.996 14.7738 111.98C14.8262 111.965 14.8813 111.959 14.9358 111.965C14.9902 111.97 15.0431 111.987 15.0912 112.013C15.1392 112.039 15.1816 112.075 15.2158 112.117C15.5616 112.536 49.4981 154.068 57.5982 174.743C66.9086 198.531 73.2464 226.21 74.5232 248.781C74.5287 248.891 74.4906 248.999 74.4171 249.081C74.3437 249.163 74.2408 249.213 74.1309 249.22L74.1043 249.253Z" fill="#263238"/>
<path d="M50.4094 161.742H50.3629C50.2527 161.729 50.1522 161.672 50.0837 161.585C50.0151 161.498 49.984 161.387 49.9971 161.277L54.7454 121.554C54.7499 121.498 54.7656 121.443 54.7918 121.393C54.8179 121.343 54.8539 121.299 54.8976 121.263C54.9413 121.228 54.9917 121.201 55.0459 121.185C55.1001 121.169 55.1569 121.165 55.213 121.171C55.269 121.178 55.3231 121.196 55.3721 121.224C55.421 121.252 55.4637 121.29 55.4977 121.335C55.5316 121.38 55.5562 121.432 55.5697 121.487C55.5833 121.541 55.5857 121.598 55.5767 121.654L50.8284 161.376C50.814 161.477 50.7638 161.57 50.6869 161.637C50.61 161.704 50.5115 161.742 50.4094 161.742Z" fill="#263238"/>
<path d="M57.2121 175.342C57.1449 175.343 57.0785 175.327 57.0193 175.295C56.9705 175.271 56.9272 175.237 56.8918 175.195C56.8563 175.154 56.8295 175.105 56.8127 175.054C56.796 175.002 56.7898 174.947 56.7945 174.892C56.7991 174.838 56.8145 174.785 56.8397 174.737L74.0174 141.345C74.0423 141.297 74.0765 141.254 74.1181 141.219C74.1596 141.183 74.2077 141.157 74.2596 141.14C74.3114 141.123 74.3661 141.117 74.4204 141.122C74.4747 141.126 74.5276 141.141 74.5761 141.166C74.6245 141.191 74.6676 141.225 74.7029 141.267C74.7381 141.308 74.7649 141.356 74.7815 141.408C74.7982 141.46 74.8045 141.515 74.8 141.569C74.7956 141.623 74.7805 141.676 74.7556 141.725L57.5779 175.116C57.5442 175.184 57.4921 175.241 57.4274 175.281C57.3627 175.321 57.2881 175.342 57.2121 175.342Z" fill="#263238"/>
<path d="M54.6988 170.394H54.619L18.6475 163.079C18.5471 163.049 18.4614 162.983 18.4075 162.893C18.3535 162.803 18.3352 162.696 18.3561 162.594C18.3769 162.491 18.4355 162.4 18.5202 162.338C18.6049 162.277 18.7097 162.249 18.8138 162.261L54.7852 169.576C54.8828 169.601 54.9681 169.66 55.0256 169.743C55.0831 169.825 55.109 169.926 55.0985 170.026C55.0881 170.126 55.0419 170.219 54.9685 170.288C54.8951 170.356 54.7994 170.397 54.6988 170.401V170.394Z" fill="#263238"/>
<path d="M63.9691 194.289C63.869 194.29 63.7719 194.255 63.6964 194.189C63.6549 194.153 63.6209 194.109 63.5964 194.059C63.5719 194.01 63.5574 193.956 63.5537 193.901C63.55 193.846 63.5572 193.791 63.5748 193.739C63.5924 193.687 63.6202 193.639 63.6565 193.597L84.7978 169.503C84.834 169.462 84.8781 169.428 84.9275 169.403C84.9768 169.379 85.0305 169.364 85.0855 169.36C85.1405 169.357 85.1956 169.364 85.2478 169.381C85.3001 169.399 85.3483 169.427 85.3897 169.463C85.4283 169.501 85.459 169.547 85.4799 169.597C85.5008 169.648 85.5115 169.701 85.5115 169.756C85.5115 169.81 85.5008 169.864 85.4799 169.914C85.459 169.964 85.4283 170.01 85.3897 170.048L64.2417 194.149C64.1713 194.228 64.0742 194.278 63.9691 194.289Z" fill="#263238"/>
<path d="M61.0097 186.348L33.8498 186.116C33.7399 186.114 33.635 186.069 33.5579 185.99C33.4807 185.912 33.4375 185.807 33.4375 185.697C33.4375 185.642 33.4484 185.588 33.4695 185.537C33.4906 185.487 33.5216 185.441 33.5606 185.403C33.5996 185.364 33.6458 185.334 33.6966 185.314C33.7474 185.293 33.8018 185.283 33.8565 185.284L61.0163 185.517C61.1257 185.52 61.2296 185.566 61.3064 185.644C61.3832 185.722 61.427 185.827 61.4286 185.936C61.4286 185.991 61.4178 186.045 61.3966 186.095C61.3755 186.146 61.3445 186.192 61.3055 186.23C61.2665 186.268 61.2203 186.298 61.1695 186.319C61.1187 186.339 61.0644 186.349 61.0097 186.348Z" fill="#263238"/>
<path d="M45.4151 206.891C45.3139 206.878 45.2209 206.829 45.1535 206.752C45.086 206.676 45.0488 206.577 45.0488 206.475C45.0488 206.373 45.086 206.275 45.1535 206.198C45.2209 206.122 45.3139 206.073 45.4151 206.06L66.2439 205.235C66.3024 205.226 66.3622 205.229 66.4194 205.244C66.4766 205.26 66.5299 205.287 66.5757 205.324C66.6216 205.362 66.6589 205.409 66.6854 205.462C66.7118 205.515 66.7267 205.573 66.7291 205.632C66.7314 205.691 66.7212 205.75 66.6991 205.805C66.677 205.86 66.6435 205.91 66.6008 205.951C66.5581 205.992 66.5071 206.023 66.4513 206.043C66.3955 206.063 66.3362 206.071 66.2771 206.066L45.4484 206.891H45.4151Z" fill="#263238"/>
<path d="M70.5206 218.649C70.4303 218.648 70.3423 218.62 70.2679 218.569C70.18 218.502 70.1223 218.402 70.1074 218.293C70.0924 218.183 70.1214 218.072 70.1881 217.984L81.3407 203.113C81.4069 203.025 81.5057 202.966 81.6154 202.949C81.7251 202.933 81.8368 202.961 81.9259 203.027C82.0138 203.094 82.0715 203.194 82.0865 203.303C82.1014 203.413 82.0724 203.524 82.0057 203.612L70.8332 218.482C70.7974 218.532 70.7506 218.573 70.6964 218.602C70.6422 218.631 70.582 218.647 70.5206 218.649Z" fill="#263238"/>
<path d="M71.3369 224.182L46.9769 222.971C46.9227 222.969 46.8696 222.956 46.8205 222.932C46.7715 222.909 46.7275 222.877 46.691 222.837C46.6546 222.796 46.6264 222.749 46.6081 222.698C46.5898 222.647 46.5818 222.593 46.5845 222.539C46.5852 222.483 46.5974 222.429 46.6202 222.378C46.6431 222.327 46.6761 222.282 46.7173 222.244C46.7584 222.207 46.8068 222.178 46.8595 222.16C46.9122 222.142 46.968 222.135 47.0234 222.14L71.3835 223.35C71.4935 223.357 71.5963 223.407 71.6697 223.489C71.7432 223.571 71.7813 223.679 71.7758 223.789C71.769 223.899 71.7191 224.002 71.6369 224.076C71.5548 224.149 71.447 224.187 71.3369 224.182Z" fill="#263238"/>
<path d="M49.0919 217.651C46.594 217.657 44.1008 217.435 41.6435 216.986C33.8228 215.53 27.4119 211.393 24.0468 205.634C18.5337 196.177 22.0517 184.16 27.9306 176.439C35.4188 166.65 46.7044 160.971 56.7597 156.701C76.0455 148.521 96.4753 143.268 116.253 138.187C121.906 136.737 127.752 135.234 133.484 133.684C136.344 132.913 139.263 132.155 142.216 131.39C163.145 125.957 186.866 119.799 202.554 104.337C213.913 93.1442 222.339 80.1296 226.901 66.7093C228.887 61.1191 229.995 55.2549 230.186 49.3254C230.407 42.9547 229.948 36.5787 228.816 30.3055L228.384 29.9796C218.781 22.7242 208.081 18.3017 199.03 17.8428C184.612 17.1246 155.956 22.2254 140.6 39.0972L139.935 39.8287C133.379 47.9908 127.634 56.7731 122.784 66.0509C122.71 66.213 122.605 66.3587 122.474 66.4793C122.343 66.6 122.189 66.6931 122.022 66.7533C121.854 66.8134 121.676 66.8393 121.499 66.8294C121.321 66.8195 121.147 66.774 120.987 66.6956C120.827 66.6173 120.685 66.5076 120.568 66.3732C120.451 66.2387 120.363 66.0822 120.308 65.913C120.253 65.7437 120.232 65.5651 120.247 65.3877C120.263 65.2104 120.313 65.0379 120.396 64.8804C123.009 59.7923 125.916 54.8605 129.102 50.1101C129.005 49.8958 128.968 49.6599 128.992 49.4263C129.017 49.1926 129.103 48.9697 129.241 48.78C131.754 45.3195 134.442 41.99 137.295 38.8046C137.964 37.9578 138.649 37.111 139.35 36.2642C150.449 22.8505 168.292 6.33781 190.245 3.67769C204.323 1.98851 214.598 4.26957 221.647 10.6472C226.302 14.8635 229.468 20.8089 231.217 28.8358C241.858 37.4213 246.021 48.2746 243.567 61.1164C239.876 80.4022 229.741 94.7669 217.85 110.202C186.228 151.241 151.799 181.168 115.542 198.977C98.7572 207.235 80.8808 213.057 62.4523 216.268C58.047 217.113 53.5769 217.576 49.0919 217.651ZM231.975 33.0122C232.71 38.4393 233.002 43.9174 232.846 49.3919C232.649 55.5951 231.494 61.7304 229.421 67.5805C224.72 81.3931 216.074 94.7602 204.423 106.245C188.223 122.206 164.135 128.457 142.888 133.977C139.942 134.742 137.029 135.5 134.182 136.265C128.43 137.821 122.578 139.324 116.892 140.78C97.2135 145.835 76.8635 151.062 57.7772 159.162C48.0478 163.298 37.1612 168.771 30.0255 178.069C24.6587 185.085 21.4333 195.918 26.3279 204.304C29.3006 209.398 35.0531 213.069 42.1091 214.386C48.7594 215.616 55.5759 214.752 61.9735 213.641C80.1529 210.478 97.7878 204.736 114.345 196.59C149.751 179.173 184.811 148.747 215.742 108.566C227.42 93.4036 237.375 79.3049 240.953 60.6043C243.015 49.8308 239.995 40.5736 231.975 33.0122ZM198.69 5.78584C195.974 5.80031 193.26 5.97352 190.564 6.30456C175.488 8.11344 162.273 16.7921 151.613 27.0003C167.574 17.6234 187.704 14.6174 199.163 15.2027C210.834 15.7945 221.494 21.853 227.845 26.3087C226.143 20.3966 223.503 15.8943 219.865 12.6024C214.817 8.04029 207.828 5.78584 198.69 5.78584Z" fill="#263238"/>
<path d="M82.4566 95.944L100.712 224.395C100.842 225.292 101.322 226.102 102.047 226.646C102.773 227.191 103.684 227.426 104.582 227.301L182.311 216.248C183.209 216.12 184.02 215.64 184.565 214.914C185.11 214.188 185.344 213.276 185.217 212.378L166.955 83.9336C166.893 83.489 166.743 83.0612 166.515 82.6746C166.286 82.2879 165.984 81.95 165.625 81.6801C165.267 81.4103 164.858 81.2137 164.423 81.1017C163.989 80.9897 163.536 80.9645 163.092 81.0274L85.3561 92.0536C84.9092 92.1162 84.4792 92.2669 84.0909 92.4969C83.7026 92.7269 83.3638 93.0316 83.0941 93.3935C82.8245 93.7553 82.6292 94.1671 82.5198 94.6049C82.4104 95.0427 82.3889 95.4979 82.4566 95.944ZM133.298 93.7228L117.504 95.964C117.167 96.0116 116.824 95.9924 116.495 95.9075C116.166 95.8227 115.856 95.6738 115.585 95.4694C115.313 95.265 115.084 95.0091 114.911 94.7162C114.739 94.4234 114.625 94.0994 114.578 93.7627C114.53 93.4261 114.549 93.0833 114.634 92.7541C114.719 92.4248 114.868 92.1155 115.072 91.8438C115.277 91.5721 115.532 91.3433 115.825 91.1705C116.118 90.9977 116.442 90.8842 116.779 90.8366L132.567 88.5888C132.908 88.5323 133.256 88.5444 133.592 88.6246C133.929 88.7047 134.245 88.8513 134.524 89.0555C134.803 89.2598 135.038 89.5178 135.216 89.8142C135.393 90.1106 135.51 90.4395 135.559 90.7816C135.607 91.1237 135.587 91.4722 135.499 91.8064C135.412 92.1406 135.258 92.4539 135.047 92.7279C134.837 93.002 134.574 93.2311 134.273 93.4019C133.973 93.5728 133.641 93.6819 133.298 93.7228Z" fill="white"/>
<path d="M104.083 227.66C103.181 227.658 102.309 227.331 101.627 226.738C100.946 226.146 100.5 225.328 100.373 224.434L82.1374 95.9905C82.0006 95.006 82.2587 94.0073 82.8555 93.2124C83.4523 92.4175 84.3393 91.891 85.3229 91.7477L163.058 80.7015C164.043 80.5629 165.043 80.8203 165.838 81.4174C166.633 82.0145 167.16 82.9026 167.301 83.887L185.556 212.324C185.628 212.812 185.602 213.31 185.48 213.788C185.358 214.266 185.143 214.715 184.847 215.109C184.551 215.503 184.18 215.835 183.755 216.086C183.33 216.336 182.859 216.5 182.371 216.567L104.629 227.62C104.448 227.647 104.266 227.66 104.083 227.66ZM163.557 81.3532C163.413 81.3436 163.269 81.3436 163.125 81.3532L85.4027 92.406C85.0014 92.4631 84.6152 92.5987 84.2663 92.8051C83.9174 93.0115 83.6125 93.2846 83.3692 93.6088C83.1259 93.9331 82.9488 94.3021 82.8481 94.6948C82.7475 95.0875 82.7252 95.4961 82.7825 95.8974L101.044 224.341C101.161 225.151 101.594 225.882 102.249 226.373C102.903 226.864 103.725 227.076 104.536 226.962L182.264 215.909C182.666 215.853 183.052 215.719 183.402 215.514C183.751 215.308 184.056 215.036 184.3 214.712C184.543 214.388 184.72 214.019 184.821 213.626C184.921 213.234 184.943 212.825 184.885 212.424L166.63 83.9801C166.523 83.2444 166.155 82.5717 165.593 82.0846C165.032 81.5975 164.314 81.3285 163.57 81.3266L163.557 81.3532ZM117.125 96.3497C116.39 96.3414 115.685 96.0567 115.15 95.5523C114.615 95.0478 114.29 94.3606 114.239 93.6272C114.187 92.8939 114.414 92.1681 114.874 91.5944C115.333 91.0206 115.992 90.6409 116.719 90.5307L132.507 88.2895C132.887 88.2333 133.274 88.2532 133.646 88.348C134.018 88.4427 134.368 88.6105 134.675 88.8415C134.983 89.0715 135.243 89.3601 135.439 89.6907C135.635 90.0214 135.764 90.3875 135.819 90.7682C135.873 91.1488 135.852 91.5365 135.756 91.9088C135.66 92.2812 135.491 92.631 135.26 92.9381C134.794 93.547 134.105 93.9464 133.345 94.0487L117.55 96.2965C117.414 96.3153 117.276 96.3241 117.138 96.3231L117.125 96.3497ZM132.926 88.9213C132.817 88.9116 132.708 88.9116 132.6 88.9213L116.812 91.1624C116.518 91.2061 116.236 91.3072 115.981 91.46C115.726 91.6128 115.504 91.8143 115.327 92.053C115.15 92.2917 115.022 92.5629 114.95 92.8511C114.878 93.1393 114.863 93.4389 114.907 93.7328C114.95 94.0266 115.052 94.309 115.204 94.5638C115.357 94.8186 115.559 95.0408 115.797 95.2178C116.036 95.3947 116.307 95.5229 116.595 95.595C116.884 95.6671 117.183 95.6817 117.477 95.6381L133.252 93.3836C133.546 93.3443 133.83 93.2464 134.085 93.0956C134.341 92.9448 134.564 92.7443 134.741 92.5058C135.099 92.0253 135.255 91.4236 135.174 90.8299C135.096 90.2922 134.827 89.8005 134.417 89.4441C134.007 89.0877 133.482 88.8904 132.939 88.888L132.926 88.9213Z" fill="#263238"/>
<path d="M164.362 95.7529L88.2168 106.576L104.687 222.444L180.832 211.62L164.362 95.7529Z" fill="#92E3A9"/>
<path d="M104.694 222.772C104.615 222.771 104.538 222.742 104.479 222.689C104.419 222.637 104.38 222.565 104.369 222.486L87.8958 106.624C87.8896 106.58 87.8923 106.535 87.9037 106.491C87.9152 106.448 87.9351 106.407 87.9623 106.372C87.9876 106.337 88.0194 106.309 88.056 106.287C88.0925 106.265 88.133 106.251 88.1751 106.245L164.328 95.4186C164.371 95.4129 164.415 95.4159 164.457 95.4273C164.5 95.4387 164.539 95.4583 164.574 95.4851C164.61 95.5098 164.64 95.5424 164.662 95.5804C164.684 95.6184 164.697 95.6608 164.7 95.7045L181.173 211.566C181.18 211.609 181.178 211.653 181.167 211.696C181.157 211.738 181.138 211.778 181.112 211.814C181.086 211.849 181.053 211.879 181.016 211.901C180.978 211.924 180.937 211.939 180.894 211.945L104.748 222.772H104.694ZM88.6007 106.857L104.98 222.067L180.468 211.333L164.088 96.1235L88.6007 106.857Z" fill="#263238"/>
<path d="M113.395 61.562L117.711 91.9273C117.732 92.0804 117.783 92.2278 117.862 92.361C117.94 92.4941 118.044 92.6105 118.168 92.7032C118.291 92.796 118.432 92.8633 118.582 92.9013C118.732 92.9394 118.888 92.9473 119.041 92.9248L130.925 91.2356C131.078 91.2144 131.225 91.1631 131.358 91.0847C131.492 91.0062 131.608 90.9022 131.701 90.7785C131.793 90.6548 131.861 90.514 131.899 90.3642C131.937 90.2144 131.945 90.0585 131.922 89.9056L127.606 59.5403L113.395 61.562ZM121.614 68.3852C121.12 68.4551 120.615 68.3768 120.165 68.1602C119.715 67.9435 119.339 67.5983 119.085 67.1681C118.831 66.7378 118.71 66.2419 118.737 65.7431C118.765 65.2442 118.94 64.7647 119.24 64.3652C119.54 63.9657 119.952 63.6641 120.423 63.4986C120.895 63.333 121.405 63.3109 121.889 63.4351C122.373 63.5593 122.809 63.8242 123.142 64.1963C123.476 64.5683 123.692 65.0309 123.762 65.5256C123.856 66.1854 123.686 66.8556 123.289 67.3908C122.892 67.9261 122.3 68.2833 121.641 68.3852H121.614Z" fill="white"/>
<path d="M118.9 93.2707C118.533 93.2685 118.178 93.1321 117.904 92.8872C117.63 92.6423 117.454 92.3057 117.411 91.9406L113.088 61.5754C113.078 61.4876 113.103 61.3995 113.156 61.329C113.209 61.2585 113.287 61.211 113.374 61.1963L127.586 59.2012C127.673 59.1919 127.761 59.2156 127.832 59.2677C127.867 59.2936 127.897 59.3264 127.92 59.3641C127.943 59.4018 127.958 59.4436 127.965 59.4872L132.281 89.8524C132.309 90.049 132.298 90.2491 132.249 90.4415C132.2 90.6338 132.113 90.8145 131.994 90.9733C131.874 91.132 131.725 91.2657 131.554 91.3667C131.383 91.4676 131.194 91.5338 130.997 91.5616L119.113 93.2508L118.9 93.2707ZM113.793 61.8414L118.049 91.8808C118.081 92.1019 118.198 92.3016 118.376 92.4362C118.555 92.5708 118.779 92.6294 119 92.599L130.884 90.9098C131.107 90.8766 131.308 90.7572 131.443 90.5773C131.509 90.4888 131.558 90.388 131.585 90.2807C131.613 90.1734 131.619 90.0618 131.602 89.9522L127.36 59.9194L113.793 61.8414ZM121.281 68.7377C120.546 68.6852 119.859 68.3493 119.367 67.8008C118.874 67.2523 118.613 66.534 118.64 65.7972C118.666 65.0603 118.977 64.3624 119.508 63.8504C120.038 63.3384 120.747 63.0523 121.484 63.0523C122.221 63.0523 122.93 63.3384 123.461 63.8504C123.991 64.3624 124.302 65.0603 124.329 65.7972C124.355 66.534 124.094 67.2523 123.601 67.8008C123.109 68.3493 122.422 68.6852 121.687 68.7377C121.552 68.7476 121.416 68.7476 121.281 68.7377ZM121.288 63.6902H120.975C120.69 63.7296 120.416 63.8251 120.168 63.9712C119.921 64.1173 119.704 64.3111 119.532 64.5414C119.182 65.0076 119.032 65.5936 119.113 66.1707C119.153 66.4556 119.248 66.7298 119.394 66.9775C119.54 67.2253 119.734 67.4415 119.964 67.6138C120.431 67.9637 121.017 68.1144 121.594 68.0328C122.023 67.9713 122.424 67.7841 122.747 67.4949C123.069 67.2058 123.299 66.8276 123.407 66.408C123.515 65.9883 123.497 65.5461 123.354 65.137C123.211 64.7279 122.95 64.3702 122.605 64.1091C122.223 63.8291 121.761 63.682 121.288 63.6902Z" fill="#263238"/>
<path d="M115.264 74.543L129.479 72.5224L131.936 89.8123C131.984 90.1476 131.897 90.488 131.693 90.7588C131.49 91.0296 131.187 91.2085 130.852 91.2561L119.165 92.9173C118.83 92.965 118.489 92.8775 118.219 92.6741C117.948 92.4708 117.769 92.1681 117.721 91.8329L115.264 74.543Z" fill="white"/>
<path d="M118.986 93.2573C118.599 93.2552 118.225 93.1146 117.932 92.8609C117.64 92.6072 117.447 92.2571 117.39 91.874L114.936 74.5832C114.929 74.5403 114.93 74.4963 114.941 74.454C114.951 74.4117 114.97 74.3719 114.996 74.3372C115.022 74.3016 115.055 74.2715 115.092 74.2486C115.13 74.2258 115.172 74.2107 115.216 74.2042L129.434 72.2091C129.521 72.1995 129.608 72.2239 129.678 72.2772C129.747 72.3305 129.793 72.4085 129.806 72.495L132.267 89.7858C132.326 90.2089 132.215 90.6382 131.958 90.9796C131.701 91.3211 131.32 91.547 130.897 91.608L119.212 93.2706L118.986 93.2573ZM115.661 74.816L118.049 91.7809C118.085 92.0287 118.218 92.252 118.419 92.4017C118.619 92.5513 118.871 92.6151 119.119 92.5789L130.804 90.923C130.927 90.9059 131.046 90.8646 131.153 90.8014C131.26 90.7383 131.354 90.6545 131.429 90.555C131.504 90.4555 131.558 90.3422 131.589 90.2216C131.62 90.101 131.626 89.9755 131.609 89.8523L129.194 72.8874L115.661 74.816Z" fill="#263238"/>
<path d="M125.697 78.487C125.624 77.9791 125.403 77.504 125.061 77.1218C124.719 76.7397 124.271 76.4676 123.774 76.34C123.277 76.2124 122.753 76.2351 122.269 76.4051C121.785 76.5752 121.362 76.8849 121.054 77.2952C120.746 77.7056 120.567 78.198 120.539 78.7102C120.511 79.2225 120.635 79.7316 120.897 80.1731C121.158 80.6146 121.544 80.9687 122.007 81.1906C122.469 81.4125 122.987 81.4923 123.495 81.4197C124.175 81.3209 124.788 80.957 125.201 80.4074C125.613 79.8579 125.792 79.1675 125.697 78.487Z" fill="white"/>
<path d="M123.123 81.7789C122.491 81.7804 121.877 81.5748 121.374 81.1937C120.909 80.8486 120.558 80.3732 120.364 79.8279C120.17 79.2826 120.143 78.6921 120.285 78.1312C120.428 77.5704 120.734 77.0645 121.164 76.6779C121.595 76.2913 122.131 76.0414 122.704 75.9599C123.085 75.9016 123.475 75.9198 123.849 76.0133C124.224 76.1068 124.576 76.2738 124.885 76.5046C125.195 76.7354 125.455 77.0254 125.651 77.3577C125.848 77.6901 125.976 78.0581 126.029 78.4405C126.085 78.8218 126.066 79.2105 125.972 79.5843C125.877 79.9581 125.71 80.3096 125.48 80.6186C125.249 80.9276 124.96 81.188 124.628 81.3848C124.297 81.5817 123.93 81.7111 123.548 81.7656C123.407 81.7802 123.265 81.7847 123.123 81.7789ZM123.123 76.5917C123.014 76.5815 122.905 76.5815 122.797 76.5917C122.353 76.6526 121.938 76.8443 121.603 77.1423C121.269 77.4403 121.031 77.8311 120.92 78.2649C120.808 78.6986 120.829 79.1557 120.978 79.5779C121.128 80 121.4 80.3681 121.759 80.6351C122.117 80.902 122.546 81.0571 122.992 81.0808C123.437 81.1045 123.88 80.9957 124.264 80.7681C124.648 80.5405 124.956 80.2043 125.15 79.802C125.343 79.3996 125.413 78.949 125.35 78.507C125.275 77.9693 125.008 77.4768 124.599 77.1201C124.19 76.7633 123.666 76.5662 123.123 76.5651V76.5917Z" fill="#263238"/>
<path d="M124.081 78.7531C124.037 78.5078 123.9 78.2892 123.698 78.143C123.496 77.9968 123.246 77.9343 122.999 77.9687C122.752 78.0031 122.529 78.1317 122.374 78.3275C122.22 78.5233 122.148 78.7711 122.173 79.0191C122.186 79.1483 122.224 79.2736 122.287 79.3874C122.349 79.5013 122.434 79.6013 122.536 79.6816C122.638 79.7619 122.755 79.8207 122.881 79.8546C123.006 79.8885 123.137 79.8968 123.265 79.8788C123.394 79.8609 123.518 79.8172 123.629 79.7503C123.74 79.6835 123.837 79.5948 123.913 79.4897C123.989 79.3846 124.043 79.2651 124.072 79.1385C124.101 79.012 124.104 78.8809 124.081 78.7531Z" fill="white"/>
<path d="M123.13 80.1496C122.872 80.157 122.617 80.0891 122.397 79.954C122.176 79.8189 122 79.6226 121.89 79.389C121.779 79.1554 121.739 78.8947 121.774 78.6387C121.809 78.3826 121.918 78.1424 122.088 77.9474C122.258 77.7524 122.48 77.611 122.729 77.5405C122.978 77.4699 123.241 77.4734 123.488 77.5504C123.735 77.6274 123.954 77.7746 124.118 77.974C124.282 78.1734 124.385 78.4163 124.414 78.6732C124.458 79.0122 124.37 79.3551 124.168 79.6308C124.066 79.768 123.937 79.8833 123.79 79.9701C123.642 80.0569 123.479 80.1134 123.31 80.1363L123.13 80.1496ZM123.13 78.221H123.037C122.876 78.2531 122.733 78.3435 122.635 78.4749C122.537 78.6062 122.49 78.7692 122.505 78.9326C122.536 79.0946 122.626 79.2394 122.757 79.339C122.889 79.4385 123.052 79.4857 123.217 79.4712C123.382 79.445 123.532 79.3571 123.636 79.2252C123.732 79.0903 123.775 78.9243 123.755 78.7596C123.727 78.6126 123.65 78.4794 123.536 78.3816C123.423 78.2839 123.28 78.2273 123.13 78.221Z" fill="#263238"/>
<path d="M120.802 62.4929C120.131 62.5879 119.504 62.8798 118.999 63.3316C118.494 63.7834 118.134 64.3748 117.965 65.031C117.797 65.6873 117.826 66.3788 118.051 67.0182C118.275 67.6575 118.684 68.216 119.226 68.6228C119.768 69.0297 120.418 69.2667 121.095 69.3038C121.771 69.3409 122.444 69.1765 123.027 68.8314C123.61 68.4863 124.077 67.976 124.37 67.365C124.663 66.754 124.769 66.0699 124.673 65.3991C124.61 64.9539 124.46 64.5255 124.231 64.1384C124.003 63.7512 123.7 63.413 123.34 63.143C122.981 62.8731 122.572 62.6767 122.136 62.5651C121.701 62.4536 121.247 62.4291 120.802 62.4929ZM121.64 68.3851C121.145 68.455 120.641 68.3767 120.191 68.1601C119.741 67.9435 119.365 67.5982 119.111 67.168C118.856 66.7378 118.736 66.2419 118.763 65.743C118.791 65.2441 118.966 64.7646 119.266 64.3651C119.566 63.9656 119.978 63.664 120.449 63.4985C120.921 63.3329 121.431 63.3109 121.915 63.435C122.399 63.5592 122.835 63.8241 123.168 64.1962C123.502 64.5683 123.718 65.0308 123.788 65.5255C123.881 66.1893 123.707 66.863 123.305 67.399C122.902 67.935 122.304 68.2896 121.64 68.3851Z" fill="white"/>
<path d="M121.281 69.642C120.583 69.6417 119.898 69.4468 119.305 69.0791C118.711 68.7114 118.231 68.1855 117.92 67.5605C117.608 66.9354 117.477 66.2359 117.541 65.5405C117.605 64.8451 117.862 64.1812 118.282 63.6235C118.576 63.2274 118.947 62.8939 119.371 62.6427C119.796 62.3915 120.267 62.2275 120.756 62.1604C121.245 62.0901 121.743 62.1173 122.221 62.2406C122.699 62.3639 123.148 62.5807 123.542 62.8786C123.939 63.1725 124.273 63.5427 124.524 63.9676C124.775 64.3925 124.939 64.8634 125.005 65.3526C125.144 66.3391 124.886 67.3404 124.287 68.137C123.689 68.9336 122.799 69.4604 121.813 69.6021C121.637 69.6286 121.459 69.6419 121.281 69.642ZM120.849 62.7922C120.139 62.8921 119.485 63.2352 119 63.763C118.514 64.2908 118.227 64.9706 118.187 65.6865C118.146 66.4025 118.355 67.1103 118.778 67.6893C119.202 68.2683 119.812 68.6827 120.507 68.8618C121.201 69.0409 121.936 68.9737 122.586 68.6716C123.237 68.3695 123.762 67.8512 124.073 67.2051C124.384 66.5589 124.461 65.8249 124.292 65.1282C124.122 64.4314 123.716 63.815 123.143 63.3841C122.819 63.1378 122.45 62.9586 122.056 62.857C121.662 62.7553 121.251 62.7333 120.849 62.7922ZM121.281 68.711C120.563 68.7023 119.875 68.424 119.353 67.9314C118.831 67.4388 118.513 66.7678 118.463 66.0517C118.413 65.3357 118.634 64.6269 119.082 64.0662C119.53 63.5054 120.173 63.1338 120.882 63.025C121.62 62.944 122.361 63.1534 122.948 63.6088C123.534 64.0641 123.92 64.7298 124.025 65.465C124.13 66.2002 123.944 66.9472 123.508 67.548C123.071 68.1488 122.418 68.5563 121.687 68.6844C121.553 68.7121 121.418 68.7298 121.281 68.7376V68.711ZM121.288 63.6634C121.184 63.6568 121.079 63.6568 120.975 63.6634C120.69 63.7028 120.416 63.7983 120.168 63.9444C119.921 64.0905 119.704 64.2843 119.532 64.5146C119.182 64.9808 119.032 65.5668 119.113 66.1439C119.153 66.4288 119.248 66.7031 119.394 66.9508C119.54 67.1985 119.734 67.4148 119.964 67.5871C120.242 67.7973 120.565 67.9385 120.908 67.9991C121.251 68.0597 121.603 68.0379 121.935 67.9356C122.268 67.8332 122.572 67.6533 122.821 67.4105C123.07 67.1677 123.258 66.8691 123.369 66.5394C123.481 66.2096 123.512 65.8581 123.461 65.5139C123.409 65.1697 123.277 64.8427 123.074 64.5598C122.871 64.2769 122.604 64.0463 122.295 63.8869C121.985 63.7276 121.642 63.6441 121.294 63.6434L121.288 63.6634Z" fill="#263238"/>
<path d="M152.719 102.366L101.264 109.68L111.981 185.075L163.435 177.761L152.719 102.366Z" fill="white"/>
<path d="M111.983 185.404C111.909 185.406 111.837 185.382 111.777 185.338C111.709 185.283 111.664 185.204 111.651 185.118L100.931 109.724C100.919 109.636 100.943 109.547 100.996 109.476C101.05 109.405 101.129 109.358 101.217 109.345L152.67 102.029C152.758 102.018 152.847 102.041 152.918 102.095C152.989 102.148 153.036 102.227 153.049 102.315L163.769 177.71C163.779 177.797 163.755 177.885 163.703 177.956C163.677 177.991 163.644 178.021 163.606 178.044C163.569 178.067 163.527 178.082 163.483 178.089L112.03 185.404H111.983ZM101.635 109.956L112.276 184.699L163.078 177.477L152.437 102.741L101.635 109.956Z" fill="#263238"/>
<path d="M111.983 185.071C121.799 183.741 152.783 179.086 163.437 177.756C162.559 171.598 161.402 163.591 161.262 159.754C159.872 158.756 157.445 157.898 153.947 156.049C148.46 153.157 139.556 147.078 139.556 147.078L135.938 147.464L135.905 147.251L133.012 147.77L130.079 148.076V148.288L126.494 148.954C126.494 148.954 119.638 157.273 115.189 161.589C112.249 164.429 110.414 165.726 109.396 167.109C109.476 167.342 110.986 177.955 111.983 185.071Z" fill="white"/>
<path d="M111.978 185.324C111.917 185.323 111.859 185.3 111.814 185.26C111.769 185.22 111.739 185.165 111.732 185.105C110.727 177.929 109.238 167.415 109.178 167.149C109.17 167.114 109.17 167.078 109.178 167.044C109.186 167.009 109.202 166.977 109.224 166.949C110.046 165.947 110.969 165.031 111.978 164.216C112.809 163.478 113.846 162.56 115.043 161.396C119.446 157.153 126.276 148.88 126.349 148.794C126.387 148.747 126.442 148.716 126.502 148.708L129.827 148.109C129.824 148.079 129.827 148.049 129.836 148.02C129.846 147.992 129.86 147.965 129.88 147.943C129.9 147.916 129.925 147.894 129.953 147.878C129.982 147.862 130.014 147.853 130.046 147.85L132.979 147.544L135.859 147.025C135.891 147.018 135.924 147.018 135.956 147.025C135.988 147.032 136.019 147.046 136.045 147.065C136.095 147.1 136.131 147.152 136.145 147.211L139.523 146.852C139.581 146.848 139.64 146.862 139.689 146.892C139.783 146.959 148.647 152.997 154.054 155.85C155.577 156.655 156.874 157.26 158.044 157.792C159.22 158.287 160.35 158.883 161.423 159.574C161.454 159.595 161.481 159.624 161.499 159.658C161.518 159.691 161.528 159.729 161.529 159.767C161.655 163.405 162.719 170.853 163.571 176.838L163.697 177.743C163.703 177.775 163.702 177.809 163.694 177.841C163.686 177.873 163.671 177.903 163.65 177.929C163.609 177.981 163.55 178.017 163.484 178.029C156.767 178.847 142.283 180.962 129.501 182.824C122.073 183.908 115.662 184.819 112.031 185.337L111.978 185.324ZM109.683 167.142C109.876 168.359 111.313 178.508 112.19 184.792C115.861 184.287 122.166 183.369 129.415 182.312C142.05 180.469 156.328 178.388 163.158 177.543L163.065 176.878C162.221 170.946 161.17 163.578 161.024 159.873C159.998 159.24 158.927 158.684 157.818 158.211C156.674 157.679 155.371 157.067 153.828 156.256C148.667 153.536 140.374 147.923 139.49 147.324L135.965 147.697C135.908 147.7 135.852 147.685 135.804 147.654C135.756 147.623 135.719 147.577 135.699 147.524L133.039 148.003L130.346 148.289C130.345 148.346 130.323 148.4 130.286 148.443C130.248 148.486 130.196 148.513 130.14 148.521L126.648 149.146C125.983 149.971 119.572 157.666 115.343 161.722C114.139 162.893 113.095 163.817 112.257 164.555C111.324 165.34 110.463 166.205 109.683 167.142Z" fill="#263238"/>
<path d="M161.277 159.754C159.919 158.917 158.498 158.188 157.027 157.572L156.662 157.399L156.176 157.167L155.511 156.841L155.119 156.641C154.746 156.455 154.367 156.262 153.968 156.049C148.482 153.157 139.577 147.078 139.577 147.078L135.959 147.464L135.926 147.251L133.033 147.77L130.1 148.076V148.288L126.516 148.954C126.516 148.954 119.659 157.273 115.21 161.589C114.911 161.882 114.625 162.154 114.339 162.42C111.905 164.688 110.349 165.865 109.418 167.109C109.418 167.202 109.617 168.472 109.897 170.387L161.503 163.072C161.383 161.762 161.277 160.645 161.277 159.754Z" fill="#263238"/>
<path d="M162.16 168.532L110.68 175.848C110.946 177.743 111.232 179.751 111.504 181.673L162.951 174.358C162.678 172.429 162.406 170.434 162.16 168.532Z" fill="#263238"/>
<path d="M134.729 161.057L136.657 173.373L139.743 172.935L136.764 160.592C136.764 160.592 134.975 160.326 134.729 161.057Z" fill="white"/>
<path d="M136.67 173.62C136.612 173.619 136.555 173.598 136.51 173.561C136.465 173.523 136.435 173.471 136.424 173.414L134.496 161.097C134.486 161.058 134.486 161.017 134.496 160.977C134.795 160.073 136.597 160.312 136.803 160.346C136.852 160.353 136.897 160.374 136.932 160.408C136.968 160.441 136.992 160.484 137.003 160.532L139.995 172.875C140.005 172.909 140.007 172.944 140.001 172.978C139.995 173.013 139.982 173.046 139.962 173.074C139.942 173.103 139.917 173.127 139.887 173.146C139.857 173.164 139.824 173.176 139.789 173.181L136.704 173.62H136.67ZM135.001 161.091L136.876 173.061L139.45 172.695L136.577 160.791C135.959 160.758 135.161 160.798 134.988 161.091H135.001Z" fill="#263238"/>
<path d="M136.81 164.416C136.801 164.351 136.779 164.289 136.746 164.234C136.713 164.178 136.669 164.129 136.617 164.09C136.566 164.051 136.506 164.023 136.444 164.007C136.381 163.991 136.315 163.987 136.251 163.997C136.155 164.011 136.065 164.053 135.993 164.118C135.921 164.183 135.869 164.268 135.845 164.362C135.821 164.456 135.826 164.556 135.858 164.647C135.89 164.739 135.949 164.819 136.027 164.877C136.105 164.936 136.198 164.97 136.295 164.975C136.392 164.98 136.489 164.957 136.572 164.907C136.656 164.858 136.723 164.785 136.765 164.697C136.808 164.61 136.823 164.512 136.81 164.416Z" fill="white"/>
<path d="M136.325 165.207C136.164 165.207 136.007 165.153 135.879 165.054C135.723 164.936 135.618 164.762 135.587 164.569C135.574 164.472 135.58 164.373 135.605 164.278C135.63 164.183 135.674 164.094 135.733 164.017C135.82 163.897 135.941 163.806 136.08 163.755C136.219 163.705 136.37 163.698 136.513 163.734C136.657 163.771 136.786 163.85 136.884 163.96C136.982 164.071 137.044 164.209 137.063 164.356C137.079 164.452 137.075 164.551 137.051 164.646C137.027 164.741 136.984 164.83 136.923 164.908C136.866 164.985 136.793 165.051 136.71 165.1C136.626 165.149 136.534 165.181 136.438 165.194L136.325 165.207ZM136.325 164.216H136.292C136.26 164.219 136.229 164.229 136.202 164.245C136.174 164.261 136.15 164.283 136.132 164.309C136.112 164.334 136.097 164.363 136.089 164.394C136.081 164.425 136.08 164.457 136.086 164.489C136.089 164.521 136.098 164.551 136.114 164.579C136.131 164.606 136.152 164.63 136.179 164.648C136.23 164.686 136.295 164.703 136.358 164.695C136.39 164.692 136.421 164.682 136.448 164.666C136.476 164.65 136.5 164.628 136.518 164.602C136.556 164.55 136.573 164.486 136.564 164.422C136.551 164.369 136.52 164.322 136.477 164.288C136.433 164.254 136.38 164.236 136.325 164.236V164.216Z" fill="#263238"/>
<path d="M138.14 170.274C138.135 170.207 138.117 170.14 138.086 170.08C138.055 170.019 138.012 169.966 137.959 169.923C137.906 169.88 137.845 169.848 137.78 169.83C137.714 169.812 137.646 169.808 137.578 169.817C137.511 169.827 137.446 169.85 137.389 169.886C137.331 169.922 137.281 169.97 137.243 170.026C137.204 170.082 137.178 170.145 137.165 170.212C137.152 170.279 137.153 170.348 137.169 170.414C137.177 170.478 137.198 170.54 137.23 170.596C137.262 170.652 137.305 170.7 137.357 170.739C137.408 170.778 137.467 170.807 137.529 170.823C137.592 170.839 137.657 170.842 137.721 170.833C137.785 170.824 137.847 170.803 137.903 170.77C137.959 170.737 138.007 170.693 138.046 170.641C138.085 170.589 138.114 170.53 138.13 170.467C138.146 170.404 138.149 170.339 138.14 170.274Z" fill="white"/>
<path d="M137.653 171.086C137.47 171.087 137.294 171.019 137.158 170.896C137.023 170.773 136.938 170.603 136.922 170.421C136.904 170.325 136.907 170.227 136.931 170.133C136.955 170.038 137 169.951 137.061 169.876C137.148 169.756 137.269 169.665 137.408 169.614C137.547 169.564 137.698 169.557 137.842 169.593C137.985 169.63 138.114 169.709 138.212 169.819C138.31 169.93 138.373 170.068 138.391 170.215C138.407 170.311 138.403 170.41 138.379 170.505C138.355 170.6 138.312 170.689 138.252 170.767C138.133 170.921 137.959 171.024 137.766 171.053L137.653 171.086ZM137.653 170.102H137.62C137.58 170.107 137.541 170.121 137.508 170.145C137.475 170.168 137.448 170.199 137.429 170.236C137.411 170.272 137.402 170.313 137.404 170.353C137.405 170.394 137.416 170.434 137.436 170.469C137.457 170.504 137.485 170.534 137.52 170.555C137.555 170.576 137.594 170.589 137.634 170.591C137.675 170.594 137.716 170.586 137.753 170.569C137.789 170.552 137.822 170.526 137.846 170.494C137.866 170.469 137.881 170.44 137.889 170.409C137.897 170.378 137.898 170.346 137.893 170.314C137.886 170.256 137.858 170.201 137.814 170.162C137.77 170.123 137.712 170.101 137.653 170.102Z" fill="#263238"/>
<path d="M127.054 145.19C127.054 145.19 125.059 145.994 124.507 149.399C123.955 152.804 124.447 161.297 124.201 163.252C123.955 165.207 124.52 165.48 125.817 164.775C127.114 164.07 128.317 161.45 130.372 161.15C132.182 161.004 134.002 161.037 135.806 161.25C135.806 161.25 138.798 158.902 140.853 158.59C142.908 158.277 146.014 161.702 146.838 161.583C147.663 161.463 145.621 154.267 143.739 149.612C141.857 144.957 138.625 143.168 135.027 143.68C131.43 144.192 127.054 145.19 127.054 145.19Z" fill="white"/>
<path d="M124.794 165.38C124.628 165.384 124.466 165.337 124.328 165.247C123.929 164.974 123.816 164.349 123.956 163.218C124.049 162.454 124.029 160.625 124.002 158.51C123.962 155.351 123.916 151.421 124.262 149.353C124.84 145.854 126.875 144.99 126.962 144.957H127.001C127.048 144.957 131.457 143.972 135.028 143.467C139.019 142.902 142.177 145.063 144.006 149.552C145.489 153.196 147.837 160.565 147.212 161.649C147.182 161.705 147.14 161.754 147.088 161.791C147.036 161.828 146.976 161.852 146.912 161.862C146.494 161.922 145.928 161.529 144.877 160.771C143.68 159.9 142.031 158.71 140.887 158.876C138.925 159.155 135.993 161.436 135.959 161.463C135.909 161.503 135.844 161.522 135.78 161.516C133.997 161.305 132.197 161.269 130.406 161.41C129.223 161.582 128.305 162.627 127.494 163.551C127.058 164.117 126.532 164.606 125.937 165.001C125.592 165.217 125.2 165.347 124.794 165.38ZM127.134 145.429C126.948 145.522 125.259 146.4 124.754 149.419C124.415 151.414 124.468 155.344 124.501 158.483C124.501 160.618 124.554 162.474 124.448 163.265C124.308 164.422 124.488 164.728 124.607 164.814C124.727 164.901 125.013 164.908 125.698 164.535C126.236 164.165 126.716 163.717 127.121 163.205C127.986 162.221 128.97 161.097 130.34 160.904C132.136 160.752 133.943 160.783 135.733 160.997C136.239 160.605 138.886 158.643 140.821 158.337C142.151 158.151 143.833 159.355 145.17 160.332C145.659 160.744 146.206 161.083 146.793 161.336C147.119 160.598 145.529 154.586 143.541 149.705C141.812 145.449 138.819 143.394 135.095 143.926C131.683 144.431 127.494 145.342 127.134 145.422V145.429Z" fill="#263238"/>
<path d="M112.988 169.197C111.571 166.71 110.328 167.042 109.543 167.867C109.922 170.487 111.132 179.019 111.977 185.051H112.17C113.753 184.838 115.847 184.539 118.295 184.187L118.408 184.127C116.845 179.026 114.551 171.977 112.988 169.197Z" fill="white"/>
<path d="M111.976 185.311C111.916 185.31 111.858 185.287 111.813 185.247C111.768 185.206 111.738 185.151 111.73 185.091C110.932 179.392 109.695 170.64 109.296 167.907C109.29 167.869 109.293 167.83 109.304 167.793C109.316 167.756 109.336 167.722 109.363 167.694C109.559 167.464 109.807 167.283 110.087 167.167C110.367 167.052 110.671 167.004 110.972 167.029C111.737 167.135 112.489 167.827 113.2 169.084C114.756 171.824 117.024 178.727 118.647 184.034C118.666 184.096 118.661 184.163 118.633 184.221C118.604 184.279 118.554 184.324 118.494 184.346L118.394 184.393H118.334C115.88 184.746 113.785 185.058 112.203 185.258H111.996L111.976 185.311ZM109.808 167.96C110.214 170.793 111.405 179.173 112.189 184.792L118.095 183.954C116.485 178.707 114.277 171.984 112.775 169.323C112.143 168.206 111.518 167.601 110.912 167.515C110.707 167.501 110.5 167.533 110.309 167.61C110.118 167.688 109.947 167.807 109.808 167.96Z" fill="#263238"/>
<path d="M157.606 178.508C159.526 178.116 161.466 177.828 163.418 177.643C162.653 172.25 161.676 165.5 161.356 161.356C157.107 163.112 157.087 172.236 157.606 178.508Z" fill="white"/>
<path d="M157.605 178.727C157.552 178.726 157.5 178.707 157.458 178.674C157.43 178.654 157.406 178.629 157.389 178.599C157.372 178.569 157.361 178.535 157.359 178.501C156.78 171.551 156.986 162.893 161.262 161.097C161.297 161.079 161.336 161.07 161.375 161.07C161.415 161.07 161.454 161.079 161.489 161.097C161.522 161.12 161.549 161.149 161.57 161.184C161.591 161.218 161.604 161.257 161.608 161.297C161.907 165.227 162.819 171.625 163.55 176.759L163.663 177.557C163.668 177.591 163.666 177.625 163.657 177.659C163.648 177.692 163.632 177.723 163.61 177.749C163.59 177.776 163.565 177.798 163.537 177.814C163.508 177.83 163.476 177.84 163.444 177.843C161.501 178.027 159.57 178.316 157.658 178.707L157.605 178.727ZM161.136 161.709C157.319 163.784 157.399 172.735 157.811 178.175C159.467 177.843 161.209 177.583 163.131 177.384L163.058 176.845C162.346 171.857 161.469 165.679 161.136 161.709Z" fill="#263238"/>
<path d="M140.507 127.812C140.507 127.812 140.773 122.266 143.413 126.09C146.054 129.914 141.385 135.826 140.753 134.868C140.121 133.911 140.507 127.812 140.507 127.812Z" fill="white"/>
<path d="M140.933 135.221C140.852 135.223 140.772 135.205 140.699 135.168C140.627 135.13 140.566 135.075 140.521 135.008C139.856 134.01 140.215 128.444 140.261 127.799C140.261 127.48 140.434 124.853 141.592 124.527C142.19 124.361 142.862 124.82 143.64 125.943C145.169 128.158 144.305 130.805 143.64 132.181C142.875 133.797 141.691 135.161 140.98 135.221H140.933ZM141.818 124.992H141.711C141.086 125.172 140.8 126.988 140.76 127.812C140.587 130.133 140.488 134.064 140.933 134.709C141.046 134.709 141.658 134.369 142.41 133.279C143.74 131.383 144.717 128.391 143.208 126.209C142.656 125.425 142.163 124.992 141.818 124.992Z" fill="#263238"/>
<path d="M140.825 131.011H140.779C140.746 131.005 140.715 130.993 140.687 130.975C140.66 130.958 140.636 130.934 140.617 130.907C140.598 130.88 140.585 130.849 140.579 130.817C140.573 130.784 140.573 130.751 140.579 130.718C140.686 130.146 141.278 127.267 142.049 126.801C142.152 126.729 142.272 126.682 142.397 126.666C142.522 126.65 142.649 126.664 142.767 126.708C142.933 126.802 143.078 126.928 143.193 127.081C143.307 127.233 143.389 127.407 143.432 127.593C143.446 127.657 143.435 127.724 143.4 127.78C143.365 127.836 143.31 127.876 143.246 127.892C143.215 127.901 143.182 127.903 143.149 127.899C143.117 127.895 143.086 127.884 143.058 127.867C143.03 127.85 143.005 127.828 142.986 127.801C142.967 127.775 142.954 127.744 142.947 127.712C142.907 127.566 142.781 127.24 142.601 127.174C142.601 127.174 142.495 127.127 142.335 127.227C141.909 127.486 141.351 129.481 141.098 130.811C141.084 130.872 141.049 130.925 140.999 130.962C140.949 130.998 140.887 131.016 140.825 131.011Z" fill="#263238"/>
<path d="M142.489 130.991C142.449 130.992 142.409 130.982 142.373 130.964C142.337 130.945 142.306 130.918 142.283 130.885C142.247 130.83 142.234 130.763 142.246 130.698C142.259 130.634 142.296 130.577 142.35 130.539C142.483 130.438 142.583 130.298 142.635 130.139C142.687 129.98 142.69 129.808 142.642 129.648C142.636 129.617 142.622 129.589 142.602 129.564C142.583 129.54 142.558 129.521 142.529 129.508C142.108 129.444 141.678 129.514 141.299 129.708C141.269 129.721 141.237 129.728 141.205 129.729C141.172 129.73 141.14 129.724 141.109 129.712C141.079 129.701 141.052 129.683 141.028 129.66C141.005 129.638 140.986 129.611 140.973 129.581C140.959 129.552 140.951 129.52 140.949 129.487C140.948 129.454 140.954 129.421 140.965 129.391C140.977 129.36 140.995 129.333 141.018 129.309C141.041 129.286 141.069 129.268 141.099 129.255C141.605 129.002 142.183 128.932 142.735 129.056C142.83 129.096 142.914 129.158 142.981 129.236C143.048 129.315 143.096 129.408 143.121 129.508C143.197 129.769 143.192 130.048 143.105 130.306C143.018 130.564 142.854 130.789 142.635 130.951C142.591 130.977 142.541 130.991 142.489 130.991Z" fill="#263238"/>
<path d="M120.044 130.725C120.044 130.725 118.242 125.465 116.772 129.874C115.302 134.283 121.427 138.659 121.8 137.562C122.172 136.464 120.044 130.725 120.044 130.725Z" fill="white"/>
<path d="M121.514 137.981C121.362 137.976 121.211 137.946 121.068 137.894C119.446 137.355 115.263 133.618 116.54 129.794C116.972 128.497 117.491 127.865 118.109 127.865C119.293 127.865 120.177 130.339 120.277 130.639C120.503 131.25 122.418 136.484 122.039 137.635C122.003 137.743 121.931 137.835 121.836 137.898C121.741 137.96 121.628 137.99 121.514 137.981ZM118.116 128.364C117.743 128.364 117.358 128.93 117.012 129.954C116.174 132.474 117.963 135.068 119.752 136.524C120.776 137.362 121.467 137.542 121.58 137.469C121.82 136.737 120.623 132.993 119.812 130.818C119.466 129.787 118.714 128.364 118.116 128.364Z" fill="#263238"/>
<path d="M120.57 133.891C120.523 133.89 120.478 133.877 120.438 133.852C120.398 133.827 120.366 133.792 120.344 133.751C119.726 132.541 118.635 130.785 118.15 130.652C117.97 130.605 117.904 130.652 117.884 130.652C117.731 130.765 117.697 131.111 117.704 131.264C117.706 131.33 117.682 131.394 117.637 131.442C117.592 131.491 117.53 131.52 117.465 131.523C117.432 131.525 117.399 131.52 117.368 131.509C117.337 131.498 117.309 131.481 117.284 131.458C117.26 131.436 117.241 131.409 117.227 131.379C117.214 131.349 117.206 131.317 117.205 131.284C117.191 131.097 117.216 130.909 117.279 130.733C117.342 130.556 117.441 130.395 117.571 130.26C117.67 130.182 117.788 130.131 117.912 130.111C118.037 130.092 118.164 130.104 118.283 130.147C119.154 130.379 120.524 132.98 120.79 133.472C120.818 133.53 120.823 133.597 120.803 133.659C120.783 133.721 120.74 133.773 120.683 133.804C120.654 133.842 120.615 133.872 120.57 133.891Z" fill="#263238"/>
<path d="M118.961 134.336C118.935 134.343 118.907 134.343 118.881 134.336C118.625 134.242 118.404 134.072 118.249 133.848C118.093 133.625 118.009 133.359 118.01 133.086C118.009 132.984 118.03 132.882 118.073 132.789C118.115 132.696 118.178 132.614 118.256 132.547C118.753 132.276 119.328 132.182 119.885 132.281C119.918 132.285 119.949 132.296 119.977 132.312C120.006 132.329 120.03 132.35 120.05 132.376C120.07 132.402 120.084 132.432 120.093 132.464C120.101 132.495 120.103 132.528 120.098 132.561C120.095 132.593 120.085 132.625 120.069 132.654C120.053 132.683 120.031 132.708 120.005 132.728C119.979 132.748 119.948 132.762 119.916 132.77C119.884 132.778 119.851 132.779 119.819 132.773C119.401 132.694 118.968 132.747 118.582 132.926C118.559 132.946 118.541 132.971 118.528 132.998C118.515 133.026 118.509 133.056 118.509 133.086C118.507 133.255 118.557 133.419 118.652 133.559C118.748 133.698 118.883 133.804 119.041 133.864C119.104 133.885 119.156 133.931 119.186 133.991C119.216 134.051 119.221 134.12 119.2 134.183C119.179 134.229 119.146 134.268 119.103 134.295C119.061 134.323 119.011 134.337 118.961 134.336Z" fill="#263238"/>
<path d="M125.518 141.731C125.518 141.731 128.397 151.8 128.956 153.662C129.621 155.837 133.505 161.057 135.493 160.253C137.481 159.448 137.847 153.443 138.113 151.66C138.379 149.878 137.854 139.982 137.854 139.982L125.518 141.731Z" fill="white"/>
<path d="M135.04 160.585C134.689 160.575 134.345 160.484 134.036 160.319C131.928 159.315 129.274 155.557 128.716 153.728C128.157 151.9 125.304 141.904 125.271 141.804C125.256 141.772 125.248 141.737 125.248 141.701C125.248 141.666 125.256 141.631 125.271 141.598C125.29 141.569 125.316 141.543 125.345 141.524C125.375 141.504 125.409 141.491 125.444 141.485L137.787 139.736C137.821 139.73 137.856 139.731 137.889 139.74C137.923 139.75 137.953 139.766 137.979 139.789C138.007 139.811 138.028 139.838 138.043 139.869C138.058 139.9 138.066 139.934 138.066 139.969C138.066 140.375 138.598 149.905 138.325 151.693C138.285 151.966 138.245 152.325 138.192 152.757C137.793 156.136 137.228 159.8 135.532 160.479C135.376 160.544 135.209 160.58 135.04 160.585ZM125.829 141.931C126.301 143.56 128.696 151.906 129.194 153.575C129.693 155.245 132.287 158.896 134.249 159.86C134.419 159.962 134.608 160.028 134.805 160.053C135.002 160.078 135.202 160.062 135.392 160.006C136.942 159.375 137.474 154.859 137.733 152.691C137.787 152.259 137.826 151.886 137.866 151.614C138.106 150.038 137.7 141.858 137.62 140.262L125.829 141.931Z" fill="#263238"/>
<path d="M118.554 118.601C118.554 118.601 119.133 128.224 121.148 135.028C123.163 141.831 129.188 147.271 132.314 147.091C135.439 146.912 141.358 138.719 140.999 134.303C140.64 129.887 141.411 118.761 139.243 114.605C137.075 110.448 134.069 109.57 127.858 110.189C121.647 110.807 117.417 114.299 118.554 118.601Z" fill="white"/>
<path d="M132.161 147.344C128.756 147.344 122.851 141.698 120.915 135.101C118.98 128.504 118.342 119.187 118.308 118.641C118.097 117.875 118.06 117.071 118.201 116.288C118.341 115.506 118.655 114.764 119.12 114.119C120.689 111.858 123.861 110.335 127.832 109.943C134.415 109.278 137.348 110.435 139.47 114.492C141.046 117.518 141.086 124.008 141.119 129.229C141.119 131.277 141.119 133.039 141.245 134.283C141.485 137.156 139.157 141.485 136.736 144.258C135.779 145.362 133.93 147.231 132.327 147.324L132.161 147.344ZM130.991 110.262C130.06 110.262 129.029 110.322 127.878 110.435C124.114 110.814 120.989 112.297 119.532 114.425C119.107 115.014 118.82 115.691 118.692 116.406C118.565 117.121 118.599 117.855 118.794 118.555C118.797 118.57 118.797 118.586 118.794 118.602C118.794 118.701 119.399 128.284 121.381 134.975C123.376 141.771 129.448 147.038 132.294 146.859C133.325 146.799 134.808 145.741 136.351 143.966C138.705 141.259 140.966 137.083 140.74 134.349C140.634 133.086 140.627 131.31 140.614 129.255C140.58 124.088 140.54 117.664 139.017 114.744C137.335 111.532 135.24 110.262 130.991 110.262Z" fill="#263238"/>
<path d="M119.466 130.013C119.466 130.013 120.523 129.641 120.277 127.892C120.031 126.143 119.659 125.086 120.277 124.667C120.895 124.248 121.833 123.888 121.793 122.006C121.753 120.124 119.359 119.014 119.865 117.052C120.198 116.019 120.874 115.132 121.782 114.537C122.689 113.941 123.772 113.674 124.852 113.78C127.107 114.019 127.712 117.491 131.31 119.32C134.908 121.149 139.144 120.43 139.144 120.43C138.95 120.736 138.862 121.097 138.893 121.457C138.924 121.818 139.073 122.158 139.317 122.425C139.773 122.959 140.06 123.617 140.141 124.314C140.141 124.314 140.447 128.052 141.106 127.958C141.764 127.865 141.438 119.346 141.252 118.036C141.066 116.726 141.305 111.386 137.262 109.59C133.218 107.795 127.399 108.32 123.895 109.484C120.39 110.648 118.575 112.583 117.783 115.808C116.992 119.034 119.466 130.013 119.466 130.013Z" fill="#263238"/>
<path d="M119.464 130.26C119.425 130.269 119.384 130.269 119.345 130.26C119.285 130.22 119.24 130.162 119.218 130.093C119.119 129.641 116.764 119.001 117.536 115.755C118.307 112.51 120.256 110.435 123.807 109.258C127.558 108.008 133.417 107.648 137.354 109.364C140.978 110.954 141.277 115.23 141.424 117.291C141.424 117.591 141.457 117.837 141.484 118.01C141.583 118.675 141.703 121.169 141.73 123.456C141.77 128.111 141.397 128.171 141.124 128.211C141.064 128.221 141.002 128.217 140.944 128.2C140.885 128.182 140.831 128.152 140.785 128.111C140.193 127.639 139.941 125.106 139.881 124.341C139.791 123.694 139.522 123.086 139.103 122.585C138.897 122.334 138.755 122.038 138.686 121.721C138.618 121.404 138.626 121.076 138.71 120.763C136.139 121.058 133.535 120.644 131.182 119.566C129.65 118.721 128.335 117.533 127.338 116.094C126.494 115.017 125.822 114.159 124.811 114.059C123.791 113.96 122.768 114.21 121.91 114.77C121.052 115.33 120.41 116.165 120.09 117.138C119.844 118.096 120.389 118.854 120.961 119.652C121.549 120.3 121.925 121.112 122.038 121.98C122.085 123.789 121.247 124.321 120.635 124.713L120.415 124.853C120.09 125.079 120.176 125.671 120.369 126.788C120.422 127.107 120.482 127.453 120.535 127.839C120.808 129.761 119.611 130.206 119.564 130.226C119.534 130.246 119.5 130.257 119.464 130.26ZM130.823 108.679C128.498 108.669 126.185 109.019 123.967 109.717C120.548 110.854 118.773 112.689 118.021 115.855C117.356 118.668 119.225 127.719 119.631 129.621C119.831 129.401 119.973 129.134 120.045 128.845C120.117 128.556 120.116 128.254 120.043 127.965C119.99 127.586 119.93 127.24 119.877 126.921C119.664 125.717 119.531 124.926 120.136 124.494L120.362 124.347C120.934 123.982 121.579 123.576 121.539 122.046C121.437 121.265 121.098 120.535 120.568 119.952C119.957 119.094 119.318 118.209 119.617 117.019C120.156 114.911 122.563 113.328 124.871 113.567C126.095 113.694 126.866 114.671 127.744 115.795C128.695 117.174 129.954 118.312 131.422 119.12C134.906 120.889 139.063 120.218 139.103 120.211C139.151 120.2 139.202 120.205 139.248 120.226C139.293 120.246 139.331 120.281 139.355 120.324C139.385 120.365 139.4 120.413 139.4 120.464C139.4 120.514 139.385 120.563 139.355 120.603C139.198 120.865 139.13 121.17 139.162 121.473C139.193 121.777 139.321 122.062 139.528 122.286C140.019 122.86 140.323 123.57 140.4 124.321C140.446 125.457 140.671 126.579 141.065 127.646C141.437 126.509 141.224 119.466 141.031 118.076C141.031 117.897 140.985 117.637 140.965 117.325C140.825 115.33 140.546 111.286 137.194 109.823C135.169 109.016 133.002 108.627 130.823 108.679Z" fill="#263238"/>
<path d="M125.145 134.004C123.879 134.006 122.662 133.516 121.75 132.638C120.839 131.759 120.304 130.562 120.259 129.297C120.214 128.032 120.662 126.799 121.508 125.858C122.355 124.917 123.534 124.341 124.796 124.253C126.059 124.165 127.307 124.57 128.276 125.384C129.245 126.198 129.861 127.356 129.992 128.615C130.124 129.874 129.761 131.135 128.981 132.132C128.2 133.128 127.063 133.783 125.81 133.957C125.589 133.988 125.367 134.003 125.145 134.004ZM125.145 124.693C124.934 124.693 124.723 124.707 124.513 124.733C123.504 124.876 122.576 125.364 121.887 126.114C121.198 126.864 120.79 127.83 120.733 128.847C120.677 129.865 120.975 130.87 121.576 131.692C122.178 132.514 123.046 133.102 124.033 133.356C125.019 133.61 126.063 133.513 126.987 133.083C127.911 132.654 128.657 131.917 129.098 130.998C129.539 130.08 129.648 129.037 129.406 128.047C129.164 127.058 128.586 126.183 127.772 125.571C127.017 125.009 126.099 124.708 125.158 124.713L125.145 124.693Z" fill="#263238"/>
<path d="M135.726 132.501C134.487 132.499 133.295 132.027 132.39 131.18C131.486 130.334 130.936 129.176 130.851 127.94C130.767 126.703 131.154 125.481 131.936 124.52C132.717 123.558 133.834 122.929 135.061 122.758C135.698 122.667 136.346 122.702 136.969 122.862C137.592 123.021 138.178 123.302 138.692 123.688C139.207 124.074 139.64 124.558 139.968 125.111C140.295 125.665 140.51 126.278 140.601 126.915C140.702 127.609 140.653 128.318 140.455 128.992C140.258 129.665 139.917 130.289 139.457 130.819C138.997 131.349 138.428 131.774 137.789 132.064C137.149 132.355 136.455 132.503 135.753 132.501H135.726ZM135.726 123.19C135.519 123.191 135.313 123.204 135.108 123.23C133.97 123.384 132.937 123.974 132.225 124.874C131.514 125.775 131.18 126.917 131.294 128.059C131.408 129.201 131.961 130.255 132.836 130.997C133.712 131.74 134.841 132.113 135.986 132.039C137.132 131.965 138.204 131.45 138.977 130.601C139.749 129.752 140.162 128.637 140.129 127.489C140.095 126.342 139.617 125.252 138.796 124.451C137.974 123.649 136.874 123.197 135.726 123.19Z" fill="#263238"/>
<path d="M126.249 129.216C126.355 129.967 126.129 130.625 125.737 130.679C125.344 130.732 124.939 130.166 124.832 129.415C124.726 128.664 124.959 128.005 125.351 127.952C125.744 127.899 126.143 128.464 126.249 129.216Z" fill="#263238"/>
<path d="M135.193 127.965C135.299 128.717 135.073 129.368 134.681 129.428C134.288 129.488 133.883 128.916 133.776 128.165C133.67 127.413 133.896 126.755 134.288 126.702C134.681 126.648 135.086 127.187 135.193 127.965Z" fill="#263238"/>
<path d="M130.717 125.405C130.715 127.728 130.86 130.049 131.149 132.354C131.548 134.416 131.954 135.68 130.644 135.879C129.334 136.079 129.354 133.837 129.354 133.837" fill="white"/>
<path d="M130.498 136.138C130.233 136.141 129.977 136.044 129.78 135.866C129.115 135.281 129.115 133.871 129.115 133.831C129.117 133.766 129.143 133.704 129.189 133.659C129.235 133.613 129.297 133.586 129.361 133.585C129.428 133.585 129.493 133.611 129.54 133.659C129.587 133.706 129.614 133.77 129.614 133.837C129.583 134.431 129.76 135.016 130.113 135.493C130.181 135.553 130.262 135.596 130.35 135.62C130.437 135.644 130.529 135.649 130.618 135.633C130.723 135.627 130.825 135.6 130.919 135.553C131.013 135.506 131.096 135.441 131.164 135.36C131.436 134.975 131.25 134.097 131.024 132.98L130.911 132.401C130.618 130.083 130.471 127.748 130.472 125.412C130.472 125.344 130.499 125.28 130.546 125.233C130.593 125.185 130.658 125.159 130.725 125.159C130.757 125.158 130.79 125.164 130.82 125.176C130.85 125.188 130.878 125.206 130.901 125.229C130.924 125.252 130.942 125.279 130.954 125.31C130.966 125.34 130.972 125.372 130.971 125.405C130.97 127.713 131.115 130.018 131.403 132.308L131.516 132.88C131.775 134.163 131.968 135.088 131.569 135.653C131.464 135.789 131.331 135.901 131.18 135.982C131.029 136.063 130.863 136.112 130.691 136.125L130.498 136.138Z" fill="#263238"/>
<path d="M126.861 137.415C126.861 137.415 130.659 139.883 135.367 136.205L126.861 137.415Z" fill="white"/>
<path d="M130.065 138.466C128.903 138.482 127.756 138.193 126.74 137.628C126.712 137.611 126.688 137.588 126.669 137.561C126.65 137.533 126.637 137.503 126.63 137.471C126.624 137.438 126.623 137.405 126.63 137.373C126.636 137.34 126.649 137.31 126.667 137.282C126.684 137.255 126.706 137.231 126.733 137.212C126.759 137.193 126.789 137.18 126.821 137.173C126.853 137.166 126.885 137.166 126.917 137.172C126.949 137.178 126.979 137.191 127.006 137.209C127.159 137.302 130.724 139.523 135.226 136.012C135.252 135.992 135.281 135.977 135.313 135.968C135.344 135.96 135.377 135.957 135.409 135.961C135.442 135.965 135.473 135.976 135.502 135.992C135.53 136.008 135.555 136.03 135.575 136.055C135.595 136.081 135.61 136.111 135.619 136.142C135.627 136.173 135.63 136.206 135.626 136.239C135.622 136.271 135.611 136.303 135.595 136.331C135.579 136.359 135.558 136.384 135.532 136.404C133.998 137.695 132.069 138.423 130.065 138.466Z" fill="#263238"/>
<path d="M129.86 128.225C129.8 128.227 129.741 128.206 129.695 128.166C129.65 128.127 129.621 128.072 129.614 128.012C129.609 127.979 129.611 127.946 129.619 127.915C129.627 127.883 129.642 127.854 129.662 127.828C129.681 127.801 129.706 127.78 129.735 127.763C129.763 127.747 129.794 127.737 129.827 127.732L131.157 127.546C131.19 127.54 131.224 127.54 131.257 127.547C131.289 127.555 131.32 127.569 131.347 127.589C131.374 127.609 131.397 127.634 131.413 127.664C131.43 127.693 131.44 127.726 131.443 127.759C131.45 127.824 131.432 127.89 131.393 127.942C131.353 127.994 131.295 128.028 131.23 128.038L129.9 128.225H129.86Z" fill="#263238"/>
<path d="M119.293 129.841C119.232 129.836 119.176 129.809 119.133 129.766C119.091 129.723 119.065 129.666 119.061 129.605C119.057 129.545 119.075 129.485 119.111 129.437C119.148 129.388 119.2 129.355 119.259 129.342L120.244 129.202C120.307 129.2 120.368 129.221 120.416 129.261C120.464 129.302 120.496 129.359 120.504 129.421C120.512 129.484 120.497 129.547 120.461 129.599C120.425 129.65 120.371 129.687 120.31 129.701L119.333 129.841H119.293Z" fill="#263238"/>
<path d="M140.34 126.848C140.281 126.847 140.224 126.825 140.179 126.787C140.134 126.748 140.104 126.694 140.094 126.635C140.085 126.569 140.102 126.502 140.142 126.448C140.182 126.395 140.241 126.359 140.307 126.349L141.291 126.21C141.354 126.207 141.416 126.228 141.464 126.269C141.512 126.309 141.543 126.366 141.552 126.429C141.56 126.491 141.545 126.554 141.509 126.606C141.473 126.658 141.419 126.694 141.358 126.708L140.38 126.848H140.34Z" fill="#263238"/>
<path d="M121.959 125.538C121.848 125.537 121.738 125.509 121.64 125.458C121.563 125.416 121.496 125.359 121.442 125.29C121.387 125.222 121.347 125.144 121.323 125.06C121.299 124.976 121.291 124.888 121.301 124.801C121.311 124.714 121.338 124.63 121.38 124.554C122.045 123.357 124.094 121.501 127.193 123.017C127.351 123.095 127.473 123.233 127.53 123.4C127.588 123.567 127.576 123.75 127.499 123.909C127.421 124.067 127.284 124.189 127.116 124.246C126.949 124.303 126.766 124.292 126.608 124.214C123.861 122.884 122.617 125.099 122.544 125.192C122.487 125.297 122.402 125.385 122.299 125.445C122.196 125.506 122.079 125.538 121.959 125.538Z" fill="#263238"/>
<path d="M132.434 124.048C132.319 124.048 132.205 124.019 132.105 123.962C132.004 123.905 131.92 123.822 131.861 123.723C131.802 123.624 131.77 123.511 131.768 123.395C131.766 123.279 131.794 123.165 131.849 123.064C132.514 121.867 134.569 120.011 137.662 121.528C137.815 121.607 137.932 121.744 137.987 121.908C138.041 122.072 138.03 122.252 137.954 122.408C137.879 122.563 137.746 122.684 137.583 122.743C137.42 122.802 137.241 122.796 137.083 122.725C134.336 121.395 133.093 123.609 133.013 123.702C132.956 123.806 132.872 123.893 132.771 123.954C132.669 124.015 132.553 124.047 132.434 124.048Z" fill="#263238"/>
<path d="M124.792 131.729C124.733 131.72 124.679 131.689 124.64 131.644C124.601 131.598 124.58 131.54 124.58 131.48C124.58 131.42 124.601 131.362 124.64 131.316C124.679 131.271 124.733 131.24 124.792 131.231L126.973 130.925C127.006 130.919 127.039 130.92 127.071 130.928C127.103 130.936 127.133 130.95 127.159 130.97C127.186 130.99 127.207 131.015 127.223 131.044C127.239 131.073 127.249 131.105 127.253 131.137C127.257 131.17 127.255 131.203 127.247 131.234C127.239 131.266 127.225 131.296 127.205 131.322C127.185 131.348 127.16 131.37 127.132 131.386C127.103 131.402 127.072 131.413 127.04 131.417L124.858 131.729H124.792Z" fill="#263238"/>
<path d="M133.737 130.459C133.677 130.46 133.619 130.438 133.574 130.399C133.528 130.36 133.499 130.305 133.491 130.246C133.481 130.18 133.498 130.113 133.538 130.059C133.578 130.006 133.638 129.97 133.704 129.96L135.885 129.654C135.949 129.645 136.015 129.661 136.067 129.7C136.12 129.738 136.154 129.796 136.164 129.86C136.174 129.927 136.157 129.994 136.117 130.047C136.077 130.101 136.018 130.137 135.951 130.146L133.77 130.452L133.737 130.459Z" fill="#263238"/>
<path d="M177.128 185.525L100.982 196.348L104.692 222.448L180.838 211.624L177.128 185.525Z" fill="#263238"/>
<path d="M150.803 193.273L127.885 196.514L128.071 197.831L150.989 194.59L150.803 193.273Z" fill="white"/>
<path d="M170.135 205.089L112.605 213.225L112.792 214.542L170.321 206.406L170.135 205.089Z" fill="white"/>
<path d="M154.58 196.316L125.111 200.483L125.298 201.8L154.767 197.633L154.58 196.316Z" fill="white"/>
<path d="M120.777 203.376L120.475 203.419L121.213 208.64L121.516 208.597L120.777 203.376Z" fill="#263238"/>
<path d="M123.883 202.939L123.58 202.982L124.318 208.203L124.621 208.16L123.883 202.939Z" fill="#263238"/>
<path d="M124.703 202.737L124.4 202.78L125.143 208.001L125.445 207.958L124.703 202.737Z" fill="#263238"/>
<path d="M125.445 202.633L125.143 202.676L125.885 207.897L126.188 207.854L125.445 202.633Z" fill="#263238"/>
<path d="M127.072 202.4L126.77 202.443L127.512 207.664L127.815 207.621L127.072 202.4Z" fill="#263238"/>
<path d="M127.699 202.312L127.396 202.355L128.139 207.577L128.442 207.534L127.699 202.312Z" fill="#263238"/>
<path d="M121.928 203.21L121.322 203.296L122.061 208.517L122.666 208.431L121.928 203.21Z" fill="#263238"/>
<path d="M130.668 201.886L130.365 201.929L131.107 207.15L131.41 207.107L130.668 201.886Z" fill="#263238"/>
<path d="M131.815 201.725L131.209 201.812L131.951 207.033L132.557 206.947L131.815 201.725Z" fill="#263238"/>
<path d="M123.608 202.889L123.002 202.975L123.744 208.196L124.35 208.11L123.608 202.889Z" fill="#263238"/>
<path d="M126.416 202.575L125.811 202.66L126.549 207.881L127.155 207.795L126.416 202.575Z" fill="#263238"/>
<path d="M129.055 202.122L128.752 202.166L129.494 207.387L129.797 207.344L129.055 202.122Z" fill="#263238"/>
<path d="M129.688 202.029L129.385 202.072L130.127 207.293L130.43 207.25L129.688 202.029Z" fill="#263238"/>
<path d="M128.592 202.187L127.986 202.273L128.728 207.494L129.334 207.408L128.592 202.187Z" fill="#263238"/>
<path d="M133.02 201.564L132.717 201.607L133.459 206.828L133.762 206.785L133.02 201.564Z" fill="#263238"/>
<path d="M136.131 201.117L135.828 201.16L136.57 206.381L136.873 206.338L136.131 201.117Z" fill="#263238"/>
<path d="M136.758 201.024L136.455 201.067L137.197 206.288L137.5 206.245L136.758 201.024Z" fill="#263238"/>
<path d="M137.494 200.92L137.191 200.963L137.934 206.184L138.236 206.141L137.494 200.92Z" fill="#263238"/>
<path d="M139.141 200.679L138.838 200.722L139.58 205.943L139.883 205.9L139.141 200.679Z" fill="#263238"/>
<path d="M139.738 200.609L139.436 200.652L140.179 205.873L140.481 205.83L139.738 200.609Z" fill="#263238"/>
<path d="M134.19 201.374L133.584 201.46L134.327 206.681L134.933 206.595L134.19 201.374Z" fill="#263238"/>
<path d="M142.715 200.182L142.412 200.225L143.155 205.446L143.458 205.403L142.715 200.182Z" fill="#263238"/>
<path d="M143.869 200.012L143.264 200.098L144.006 205.32L144.612 205.234L143.869 200.012Z" fill="#263238"/>
<path d="M135.477 201.293L134.871 201.378L135.609 206.599L136.215 206.514L135.477 201.293Z" fill="#263238"/>
<path d="M138.473 200.87L137.867 200.956L138.606 206.177L139.211 206.091L138.473 200.87Z" fill="#263238"/>
<path d="M141.123 200.409L140.82 200.452L141.562 205.673L141.865 205.63L141.123 200.409Z" fill="#263238"/>
<path d="M141.742 200.309L141.439 200.352L142.182 205.573L142.484 205.53L141.742 200.309Z" fill="#263238"/>
<path d="M140.647 200.474L140.041 200.56L140.783 205.781L141.389 205.695L140.647 200.474Z" fill="#263238"/>
<path d="M144.725 199.893L144.422 199.936L145.164 205.157L145.467 205.114L144.725 199.893Z" fill="#263238"/>
<path d="M145.352 199.8L145.049 199.843L145.791 205.064L146.094 205.021L145.352 199.8Z" fill="#263238"/>
<path d="M148.322 199.379L148.02 199.422L148.762 204.644L149.065 204.601L148.322 199.379Z" fill="#263238"/>
<path d="M149.461 199.22L148.855 199.306L149.598 204.527L150.203 204.441L149.461 199.22Z" fill="#263238"/>
<path d="M146.721 199.603L146.418 199.646L147.16 204.867L147.463 204.824L146.721 199.603Z" fill="#263238"/>
<path d="M147.334 199.523L147.031 199.566L147.773 204.787L148.076 204.744L147.334 199.523Z" fill="#263238"/>
<path d="M146.067 199.799L145.461 199.885L146.199 205.105L146.805 205.02L146.067 199.799Z" fill="#263238"/>
<path d="M150.492 199.172L150.189 199.215L150.928 204.436L151.231 204.393L150.492 199.172Z" fill="#263238"/>
<path d="M153.6 198.742L153.297 198.784L154.035 204.005L154.338 203.963L153.6 198.742Z" fill="#263238"/>
<path d="M154.404 198.525L154.102 198.568L154.844 203.789L155.147 203.746L154.404 198.525Z" fill="#263238"/>
<path d="M155.154 198.414L154.852 198.457L155.594 203.678L155.897 203.635L155.154 198.414Z" fill="#263238"/>
<path d="M156.779 198.18L156.477 198.223L157.219 203.444L157.522 203.401L156.779 198.18Z" fill="#263238"/>
<path d="M157.221 198.219L156.918 198.262L157.656 203.483L157.959 203.44L157.221 198.219Z" fill="#263238"/>
<path d="M151.834 198.865L151.229 198.951L151.972 204.172L152.577 204.086L151.834 198.865Z" fill="#263238"/>
<path d="M160.377 197.66L160.074 197.703L160.816 202.924L161.119 202.881L160.377 197.66Z" fill="#263238"/>
<path d="M161.516 197.507L160.91 197.593L161.652 202.814L162.258 202.728L161.516 197.507Z" fill="#263238"/>
<path d="M153.315 198.669L152.709 198.755L153.451 203.977L154.057 203.89L153.315 198.669Z" fill="#263238"/>
<path d="M156.133 198.377L155.527 198.463L156.266 203.684L156.871 203.598L156.133 198.377Z" fill="#263238"/>
<path d="M158.77 197.896L158.467 197.939L159.209 203.161L159.512 203.118L158.77 197.896Z" fill="#263238"/>
<path d="M159.385 197.822L159.082 197.865L159.825 203.086L160.128 203.043L159.385 197.822Z" fill="#263238"/>
<path d="M158.307 197.961L157.701 198.047L158.443 203.268L159.049 203.182L158.307 197.961Z" fill="#263238"/>
<path d="M121.287 67.208C121.164 67.2089 121.041 67.1932 120.921 67.1615C120.753 67.1139 120.596 67.0337 120.459 66.9254C120.322 66.8171 120.207 66.6828 120.122 66.5303C120.037 66.3778 119.982 66.2099 119.962 66.0364C119.942 65.8628 119.956 65.6869 120.004 65.5188C120.077 65.2595 121.886 59.0015 129.241 48.7933C129.447 48.5067 129.759 48.3138 130.108 48.2571C130.456 48.2003 130.813 48.2844 131.1 48.4907C131.386 48.6971 131.579 49.0088 131.636 49.3574C131.693 49.706 131.609 50.0629 131.402 50.3495C124.359 60.1254 122.584 66.1839 122.564 66.2437C122.485 66.5212 122.317 66.7654 122.087 66.9393C121.856 67.1133 121.576 67.2076 121.287 67.208Z" fill="#263238"/>
</svg>
