<svg width="28" height="28" viewBox="0 0 28 28" fill="none" xmlns="http://www.w3.org/2000/svg">
<rect x="0.48584" y="0.960938" width="26.9717" height="26.9717" rx="13.4859" fill="url(#paint0_linear_111_2941)"/>
<path d="M13.9739 7.81388C16.136 7.81388 16.3898 7.82351 17.2444 7.86207C18.0347 7.89741 18.462 8.02912 18.7479 8.14156C19.127 8.28934 19.3969 8.46283 19.6796 8.74554C19.9623 9.02825 20.139 9.29811 20.2835 9.6772C20.3928 9.96312 20.5277 10.3904 20.563 11.1807C20.6016 12.0353 20.6112 12.2891 20.6112 14.4512C20.6112 16.6132 20.6016 16.867 20.563 17.7216C20.5277 18.5119 20.396 18.9392 20.2835 19.2251C20.1358 19.6042 19.9623 19.8741 19.6796 20.1568C19.3969 20.4395 19.127 20.6162 18.7479 20.7607C18.462 20.87 18.0347 21.0049 17.2444 21.0402C16.3898 21.0788 16.136 21.0884 13.9739 21.0884C11.8119 21.0884 11.5581 21.0788 10.7035 21.0402C9.91319 21.0049 9.48591 20.8732 9.19999 20.7607C8.8209 20.613 8.55104 20.4395 8.26833 20.1568C7.98562 19.8741 7.80892 19.6042 7.66435 19.2251C7.55512 18.9392 7.42019 18.5119 7.38486 17.7216C7.3463 16.867 7.33667 16.6132 7.33667 14.4512C7.33667 12.2891 7.3463 12.0353 7.38486 11.1807C7.42019 10.3904 7.55191 9.96312 7.66435 9.6772C7.81213 9.29811 7.98562 9.02825 8.26833 8.74554C8.55104 8.46283 8.8209 8.28613 9.19999 8.14156C9.48591 8.03234 9.91319 7.89741 10.7035 7.86207C11.5581 7.8203 11.8151 7.81388 13.9739 7.81388ZM13.9739 6.35535C11.7765 6.35535 11.5002 6.36498 10.636 6.40354C9.77505 6.44209 9.18714 6.58023 8.67312 6.77941C8.13982 6.98502 7.69005 7.26452 7.24029 7.71429C6.79052 8.16405 6.51423 8.61703 6.30541 9.14711C6.10623 9.66113 5.96809 10.249 5.92954 11.1132C5.89099 11.9742 5.88135 12.2505 5.88135 14.4479C5.88135 16.6454 5.89099 16.9217 5.92954 17.7859C5.96809 18.6468 6.10623 19.2347 6.30541 19.752C6.51102 20.2853 6.79052 20.735 7.24029 21.1848C7.69005 21.6346 8.14303 21.9109 8.67312 22.1197C9.18714 22.3189 9.77505 22.457 10.6392 22.4956C11.5034 22.5341 11.7765 22.5437 13.9772 22.5437C16.1778 22.5437 16.4509 22.5341 17.3151 22.4956C18.1761 22.457 18.764 22.3189 19.2812 22.1197C19.8145 21.9141 20.2643 21.6346 20.714 21.1848C21.1638 20.735 21.4401 20.2821 21.6489 19.752C21.8481 19.238 21.9862 18.6501 22.0248 17.7859C22.0633 16.9217 22.073 16.6486 22.073 14.4479C22.073 12.2473 22.0633 11.9742 22.0248 11.11C21.9862 10.249 21.8481 9.66113 21.6489 9.1439C21.4433 8.61061 21.1638 8.16084 20.714 7.71107C20.2643 7.26131 19.8113 6.98502 19.2812 6.7762C18.7672 6.57702 18.1793 6.43887 17.3151 6.40032C16.4477 6.36498 16.1714 6.35535 13.9739 6.35535Z" fill="white"/>
<path d="M13.974 10.2939C11.6802 10.2939 9.81689 12.1541 9.81689 14.4511C9.81689 16.7481 11.677 18.6082 13.974 18.6082C16.271 18.6082 18.1312 16.7481 18.1312 14.4511C18.1312 12.1541 16.271 10.2939 13.974 10.2939ZM13.974 17.1465C12.4834 17.1465 11.2754 15.9385 11.2754 14.4479C11.2754 12.9572 12.4834 11.7493 13.974 11.7493C15.4647 11.7493 16.6726 12.9572 16.6726 14.4479C16.6726 15.9385 15.4647 17.1465 13.974 17.1465Z" fill="white"/>
<path d="M18.2949 11.0972C18.8308 11.0972 19.2651 10.6628 19.2651 10.127C19.2651 9.59112 18.8308 9.15674 18.2949 9.15674C17.7591 9.15674 17.3247 9.59112 17.3247 10.127C17.3247 10.6628 17.7591 11.0972 18.2949 11.0972Z" fill="white"/>
<defs>
<linearGradient id="paint0_linear_111_2941" x1="13.9717" y1="0.960937" x2="13.9717" y2="27.9327" gradientUnits="userSpaceOnUse">
<stop stop-color="#F9D801"/>
<stop offset="0.484375" stop-color="#EE0B1F"/>
<stop offset="1" stop-color="#7A39AD"/>
</linearGradient>
</defs>
</svg>
