<svg width="258" height="230" viewBox="0 0 258 230" fill="none" xmlns="http://www.w3.org/2000/svg">
<path d="M221.676 25.8776C217.365 23.5217 215.409 25.4838 213.841 23.5217C212.273 21.5595 218.152 16.4675 206.373 11.3754C206.373 11.3754 205.592 0.403773 189.521 0.00998792C173.451 -0.383797 177.782 10.9817 173.471 13.7246C169.16 16.4675 167.985 12.1834 163.674 14.8991C159.363 17.6149 161.325 23.1279 157.801 23.9087C154.277 24.6895 149.566 20.385 145.254 23.1279C140.943 25.8708 140.943 28.22 138.988 28.22C137.032 28.22 133.108 26.6516 130.759 28.22C128.41 29.7883 125.66 31.7504 125.66 31.7504H224.785C224.785 31.7504 225.987 28.2267 221.676 25.8776Z" fill="#5956E8"/>
<path opacity="0.5" d="M221.676 25.8776C217.365 23.5217 215.409 25.4838 213.841 23.5217C212.273 21.5595 218.152 16.4675 206.373 11.3754C206.373 11.3754 205.592 0.403773 189.521 0.00998792C173.451 -0.383797 177.782 10.9817 173.471 13.7246C169.16 16.4675 167.985 12.1834 163.674 14.8991C159.363 17.6149 161.325 23.1279 157.801 23.9087C154.277 24.6895 149.566 20.385 145.254 23.1279C140.943 25.8708 140.943 28.22 138.988 28.22C137.032 28.22 133.108 26.6516 130.759 28.22C128.41 29.7883 125.66 31.7504 125.66 31.7504H224.785C224.785 31.7504 225.987 28.2267 221.676 25.8776Z" fill="white"/>
<path d="M109.264 113.957C106.236 112.307 104.858 113.678 103.758 112.307C102.658 110.935 106.786 107.35 98.5302 103.772C98.5302 103.772 97.9802 96.0665 86.6895 95.7881C75.3987 95.5097 78.4336 103.494 75.4055 105.422C72.3774 107.35 71.5559 104.322 68.5278 106.251C65.4997 108.179 66.8712 112.028 64.3999 112.578C61.9285 113.128 58.6153 110.1 55.5736 112.028C52.532 113.957 52.5456 115.606 51.1741 115.606C49.8026 115.606 47.0394 114.506 45.3895 115.606C43.7397 116.706 41.8115 118.085 41.8115 118.085H111.464C111.464 118.085 112.292 115.606 109.264 113.957Z" fill="white"/>
<path opacity="0.5" d="M109.264 113.957C106.236 112.307 104.858 113.678 103.758 112.307C102.658 110.935 106.786 107.35 98.5302 103.772C98.5302 103.772 97.9802 96.0665 86.6895 95.7881C75.3987 95.5097 78.4336 103.494 75.4055 105.422C72.3774 107.35 71.5559 104.322 68.5278 106.251C65.4997 108.179 66.8712 112.028 64.3999 112.578C61.9285 113.128 58.6153 110.1 55.5736 112.028C52.532 113.957 52.5456 115.606 51.1741 115.606C49.8026 115.606 47.0394 114.506 45.3895 115.606C43.7397 116.706 41.8115 118.085 41.8115 118.085H111.464C111.464 118.085 112.292 115.606 109.264 113.957Z" fill="white"/>
<path d="M195.348 228.677H238.257C237.435 223.429 234.061 224.352 233.613 216.219C233.389 212.145 237.184 207.053 236.851 201.676C236.58 197.242 232.214 192.7 231.875 187.629C231.569 183.053 235.27 177.974 234.937 173.045C234.591 168.387 230.184 163.913 229.77 159.066C229.39 154.313 233.043 149.214 232.608 144.434C232.174 139.655 227.672 135.262 227.177 130.55C226.681 125.709 230.218 120.495 229.675 115.865C229.105 110.942 224.461 106.692 223.829 102.157C223.15 97.1123 226.416 91.7215 225.649 87.3627C224.705 82.0262 219.735 78.1631 218.69 74.2252C216.741 66.8859 216.986 59.8181 214.684 59.3564C212.233 58.8676 211.67 65.7996 209.809 73.5463C208.872 77.4366 204.018 81.3812 203.217 86.7245C202.572 91.0493 206.007 96.3111 205.444 101.335C204.941 105.837 200.413 110.162 199.971 115.057C199.557 119.66 203.23 124.732 202.871 129.545C202.518 134.223 198.118 138.684 197.826 143.436C197.534 148.189 201.309 153.159 201.051 157.85C200.786 162.657 196.475 167.199 196.251 171.823C196.02 176.718 199.883 181.654 199.693 186.189C199.483 191.22 195.232 195.823 195.076 200.223C194.886 205.559 198.804 210.482 198.681 214.549C198.423 223.375 194.384 221.535 194.241 228.637L195.348 228.677Z" fill="#5956E8"/>
<path d="M213.768 73.458V226.695" stroke="black" stroke-miterlimit="10"/>
<path d="M220.469 89.5216L213.482 95.5574L207.766 87.9329" stroke="black" stroke-miterlimit="10"/>
<path d="M220.469 116.197L213.482 122.226L207.766 114.609" stroke="black" stroke-miterlimit="10"/>
<path d="M220.469 141.277L213.482 147.313L207.766 139.689" stroke="black" stroke-miterlimit="10"/>
<path d="M220.469 171.13L213.482 177.159L207.766 169.542" stroke="black" stroke-miterlimit="10"/>
<path d="M220.469 201.296L213.482 207.325L207.766 199.707" stroke="black" stroke-miterlimit="10"/>
<path d="M166.119 228.677H199.245C198.607 224.604 196.006 225.337 195.66 219.064C195.483 215.9 198.41 211.989 198.158 207.834C197.948 204.439 194.58 200.902 194.316 196.971C194.078 193.44 196.957 189.502 196.678 185.714C196.414 182.116 192.999 178.667 192.693 174.926C192.387 171.185 195.219 167.315 194.886 163.628C194.553 159.941 191.07 156.547 190.704 152.914C190.323 149.173 193.053 145.154 192.632 141.569C192.191 137.774 188.606 134.495 188.124 130.998C187.581 127.101 190.12 122.939 189.522 119.578C188.796 115.457 184.96 112.47 184.159 109.435C182.651 103.773 182.842 98.3072 181.063 97.9542C179.168 97.574 178.734 102.924 177.301 108.912C176.582 111.913 172.827 114.962 172.209 119.096C171.714 122.437 174.362 126.497 173.927 130.374C173.54 133.85 170.05 137.163 169.704 140.965C169.385 144.516 172.223 148.433 171.945 152.147C171.673 155.759 168.285 159.201 168.047 162.868C167.81 166.534 170.763 170.377 170.539 173.995C170.315 177.614 167.009 181.213 166.839 184.784C166.656 188.559 169.636 192.368 169.494 195.871C169.331 199.754 166.051 203.339 165.929 206.734C165.78 210.848 168.808 214.657 168.713 217.787C168.509 224.577 165.393 223.185 165.284 228.65L166.119 228.677Z" fill="#5956E8"/>
<path d="M180.343 108.865V227.15" stroke="black" stroke-miterlimit="10"/>
<path d="M185.51 121.262L180.119 125.92L175.706 120.033" stroke="black" stroke-miterlimit="10"/>
<path d="M185.51 141.848L180.119 146.505L175.706 140.625" stroke="black" stroke-miterlimit="10"/>
<path d="M185.51 161.211L180.119 165.868L175.706 159.989" stroke="black" stroke-miterlimit="10"/>
<path d="M185.51 184.254L180.119 188.912L175.706 183.025" stroke="black" stroke-miterlimit="10"/>
<path d="M185.51 207.542L180.119 212.193L175.706 206.313" stroke="black" stroke-miterlimit="10"/>
<path d="M136.592 228.358V91.0898H143.836V228.358" fill="#2E353A"/>
<path d="M136.592 228.358V91.0898H143.836V228.358" stroke="#2E353A" stroke-linecap="round" stroke-linejoin="round"/>
<path d="M132.974 228.358V91.0898H140.218V228.358" fill="#5956E8"/>
<path d="M132.974 228.358V91.0898H140.218V228.358" stroke="#2E353A" stroke-linecap="round" stroke-linejoin="round"/>
<g style="mix-blend-mode:multiply" opacity="0.3">
<path d="M140.218 91.0898H132.974V107.384H140.218V91.0898Z" fill="#2E353A"/>
</g>
<path d="M163.885 37.501H110.208L133.604 94.9665H187.288V60.8973C187.288 57.8242 186.683 54.7813 185.507 51.9423C184.33 49.1033 182.606 46.5238 180.433 44.3512C178.26 42.1786 175.68 40.4553 172.84 39.28C170.001 38.1046 166.958 37.5001 163.885 37.501Z" fill="#5956E8" stroke="#2E353A" stroke-linecap="round" stroke-linejoin="round"/>
<g style="mix-blend-mode:multiply" opacity="0.3">
<path d="M129.511 84.9047L133.584 94.9666H187.289V60.8974C187.289 60.3814 187.289 59.8654 187.234 59.3562H129.524L129.511 84.9047Z" fill="black"/>
</g>
<path d="M163.492 59.3562H157.843" stroke="#2E353A" stroke-linecap="round" stroke-linejoin="round"/>
<path d="M187.234 59.3562H170.139" stroke="#2E353A" stroke-linecap="round" stroke-linejoin="round"/>
<path d="M110.208 37.501C116.415 37.501 122.367 39.9667 126.756 44.3556C131.145 48.7445 133.611 54.6972 133.611 60.904V94.9733H86.8047V60.8973C86.8065 54.6916 89.273 48.7406 93.6617 44.3532C98.0504 39.9657 104.002 37.501 110.208 37.501Z" fill="#2E353A" stroke="#2E353A" stroke-linecap="round" stroke-linejoin="round"/>
<path d="M133.604 91.0898H93.2754V94.9666H133.604V91.0898Z" fill="#5956E8" stroke="#2E353A" stroke-linecap="round" stroke-linejoin="round"/>
<path d="M133.605 91.0898H50.1426V94.9666H133.605V91.0898Z" fill="#5956E8" stroke="#2E353A" stroke-linecap="round" stroke-linejoin="round"/>
<path opacity="0.3" d="M133.604 91.0898H93.2754V94.9666H133.604V91.0898Z" fill="black"/>
<path d="M167.375 23.6509H150.626V35.4169H167.375V23.6509Z" fill="#2E353A" stroke="#2E353A" stroke-linecap="round" stroke-linejoin="round"/>
<path d="M151.983 23.6509H148.364V60.3136H151.983V23.6509Z" fill="white" stroke="#2E353A" stroke-linecap="round" stroke-linejoin="round"/>
<path d="M150.17 65.2901C152.42 65.2901 154.244 63.4663 154.244 61.2165C154.244 58.9667 152.42 57.1428 150.17 57.1428C147.921 57.1428 146.097 58.9667 146.097 61.2165C146.097 63.4663 147.921 65.2901 150.17 65.2901Z" fill="#2E353A" stroke="#2E353A" stroke-linecap="round" stroke-linejoin="round"/>
<path d="M90.4307 46.9109C99.8815 51.711 116.312 59.4034 131.466 63.2733" stroke="white" stroke-linecap="round" stroke-linejoin="round" stroke-dasharray="2 4"/>
<path d="M82.501 42.7354C82.501 42.7354 85.529 44.4463 90.431 46.938" stroke="#2E353A" stroke-linecap="round" stroke-linejoin="round" stroke-dasharray="2 4"/>
<path d="M79.0994 42.4842L85.8956 26.339L36.6113 14.3149L79.0994 42.4842Z" fill="white" stroke="#2E353A" stroke-width="1.2629" stroke-linecap="round" stroke-linejoin="round"/>
<path d="M82.4126 28.2943L79.0994 42.4842L36.6113 14.3149L82.4126 28.2943Z" fill="#5956E8" stroke="#2E353A" stroke-width="1.2629" stroke-linecap="round" stroke-linejoin="round"/>
<path d="M82.4126 28.2943L74.6795 34.9208L36.6113 14.3149L82.4126 28.2943Z" fill="white" stroke="#2E353A" stroke-width="1.2629" stroke-linecap="round" stroke-linejoin="round"/>
<path d="M85.8956 26.339L92.78 23.5417L36.6113 14.3149L85.8956 26.339Z" fill="white" stroke="#2E353A" stroke-width="1.2629" stroke-linecap="round" stroke-linejoin="round"/>
<path d="M69.5264 39.9719L71.1219 40.9496" stroke="#2E353A" stroke-linecap="round" stroke-linejoin="round"/>
<path d="M60.8223 34.6357L66.1655 37.9082" stroke="#2E353A" stroke-linecap="round" stroke-linejoin="round"/>
<path d="M54.8203 73.3895V55.8796L104.913 63.9319L54.8203 73.3895Z" fill="white" stroke="#2E353A" stroke-width="1.2629" stroke-linecap="round" stroke-linejoin="round"/>
<path d="M57.2713 59.0298L54.8203 73.3894L104.913 63.9317L57.2713 59.0298Z" fill="#5956E8" stroke="#2E353A" stroke-width="1.2629" stroke-linecap="round" stroke-linejoin="round"/>
<path d="M57.2715 59.0298L61.8272 68.1344L104.913 63.9317L57.2715 59.0298Z" fill="white" stroke="#2E353A" stroke-width="1.2629" stroke-linecap="round" stroke-linejoin="round"/>
<path d="M54.8204 55.8798L49.5654 50.6248L104.913 63.932L54.8204 55.8798Z" fill="white" stroke="#2E353A" stroke-width="1.2629" stroke-linecap="round" stroke-linejoin="round"/>
<path d="M72.7578 73.0638L77.103 72.1812" stroke="#2E353A" stroke-linecap="round" stroke-linejoin="round"/>
<path d="M57.4961 76.1664L68.4202 73.9463" stroke="#2E353A" stroke-linecap="round" stroke-linejoin="round"/>
<path d="M48.7848 72.3101C48.7848 72.3101 9.40626 79.0995 1.93792 114.404C-5.53042 149.709 33.8481 151.746 40.6375 134.773C47.4269 117.799 17.5535 111.01 10.7641 127.304C3.97474 143.599 24.3429 171.435 52.1795 172.793C75.311 173.92 140.163 146.919 180.499 140.095C180.499 140.095 210.373 131.826 256.54 133.639" stroke="#2E353A" stroke-linecap="round" stroke-linejoin="round" stroke-dasharray="2 4"/>
<path d="M243.187 182.978H254.504" stroke="#2E353A" stroke-linecap="round" stroke-linejoin="round"/>
<path d="M243.187 199.72H254.504" stroke="#2E353A" stroke-linecap="round" stroke-linejoin="round"/>
<path d="M4.87793 199.272H241.828V183.426H4.87793" fill="white"/>
<path d="M4.87793 199.272H241.828V183.426H4.87793" stroke="#2E353A" stroke-linecap="round" stroke-linejoin="round"/>
<path d="M21.3496 228.467V148.745C21.3497 148.55 21.3895 148.356 21.4665 148.177C21.5436 147.997 21.6562 147.835 21.7977 147.7L27.9896 141.868C28.2685 141.607 28.6391 141.467 29.0206 141.479C29.4022 141.49 29.7638 141.652 30.0265 141.929L35.458 147.707C35.7044 147.976 35.8423 148.326 35.845 148.691V228.467" fill="#2E353A"/>
<path d="M21.3496 228.467V148.745C21.3497 148.55 21.3895 148.356 21.4665 148.177C21.5436 147.997 21.6562 147.835 21.7977 147.7L27.9896 141.868C28.2685 141.607 28.6391 141.467 29.0206 141.479C29.4022 141.49 29.7638 141.652 30.0265 141.929L35.458 147.707C35.7044 147.976 35.8423 148.326 35.845 148.691V228.467" stroke="#2E353A" stroke-linecap="round" stroke-linejoin="round"/>
<path d="M19.5908 229.145V148.745C19.5906 148.549 19.6309 148.355 19.7092 148.175C19.7875 147.995 19.902 147.833 20.0457 147.7L26.2376 141.868C26.3753 141.738 26.5372 141.636 26.7142 141.569C26.8911 141.502 27.0795 141.47 27.2687 141.476C27.4579 141.481 27.6441 141.524 27.8167 141.602C27.9893 141.68 28.1448 141.791 28.2745 141.929L33.706 147.707C33.9553 147.974 34.0936 148.326 34.093 148.691V229.145" fill="white"/>
<path d="M19.5908 229.145V148.745C19.5906 148.549 19.6309 148.355 19.7092 148.175C19.7875 147.995 19.902 147.833 20.0457 147.7L26.2376 141.868C26.3753 141.738 26.5372 141.636 26.7142 141.569C26.8911 141.502 27.0795 141.47 27.2687 141.476C27.4579 141.481 27.6441 141.524 27.8167 141.602C27.9893 141.68 28.1448 141.791 28.2745 141.929L33.706 147.707C33.9553 147.974 34.0936 148.326 34.093 148.691V229.145" stroke="#2E353A" stroke-linecap="round" stroke-linejoin="round"/>
<path d="M73.5596 228.466V148.745C73.5597 148.55 73.5995 148.356 73.6765 148.177C73.7535 147.997 73.8662 147.835 74.0077 147.7L80.2064 141.868C80.344 141.738 80.506 141.636 80.6829 141.569C80.8598 141.502 81.0483 141.47 81.2375 141.476C81.4267 141.481 81.6129 141.524 81.7855 141.602C81.958 141.68 82.1136 141.791 82.2432 141.929L87.6747 147.707C87.924 147.974 88.0624 148.326 88.0617 148.691V228.466" fill="#2E353A"/>
<path d="M73.5596 228.466V148.745C73.5597 148.55 73.5995 148.356 73.6765 148.177C73.7535 147.997 73.8662 147.835 74.0077 147.7L80.2064 141.868C80.344 141.738 80.506 141.636 80.6829 141.569C80.8598 141.502 81.0483 141.47 81.2375 141.476C81.4267 141.481 81.6129 141.524 81.7855 141.602C81.958 141.68 82.1136 141.791 82.2432 141.929L87.6747 147.707C87.924 147.974 88.0624 148.326 88.0617 148.691V228.466" stroke="#2E353A" stroke-linecap="round" stroke-linejoin="round"/>
<path d="M72.0928 229.146V148.745C72.0926 148.549 72.1329 148.355 72.2111 148.175C72.2894 147.995 72.404 147.834 72.5477 147.7L78.7396 141.868C79.0184 141.607 79.389 141.467 79.7706 141.479C80.1522 141.49 80.5137 141.652 80.7764 141.929L86.2079 147.707C86.4591 147.973 86.5998 148.325 86.6017 148.691V229.146" fill="white"/>
<path d="M72.0928 229.146V148.745C72.0926 148.549 72.1329 148.355 72.2111 148.175C72.2894 147.995 72.404 147.834 72.5477 147.7L78.7396 141.868C79.0184 141.607 79.389 141.467 79.7706 141.479C80.1522 141.49 80.5137 141.652 80.7764 141.929L86.2079 147.707C86.4591 147.973 86.5998 148.325 86.6017 148.691V229.146" stroke="#2E353A" stroke-linecap="round" stroke-linejoin="round"/>
<path d="M126.063 228.467V148.745C126.062 148.549 126.103 148.355 126.181 148.175C126.259 147.995 126.374 147.834 126.517 147.7L132.709 141.868C132.988 141.607 133.359 141.467 133.74 141.479C134.122 141.49 134.483 141.652 134.746 141.929L140.178 147.707C140.429 147.973 140.57 148.325 140.571 148.691V229.146" fill="#2E353A"/>
<path d="M126.063 228.467V148.745C126.062 148.549 126.103 148.355 126.181 148.175C126.259 147.995 126.374 147.834 126.517 147.7L132.709 141.868C132.988 141.607 133.359 141.467 133.74 141.479C134.122 141.49 134.483 141.652 134.746 141.929L140.178 147.707C140.429 147.973 140.57 148.325 140.571 148.691V229.146" stroke="#2E353A" stroke-linecap="round" stroke-linejoin="round"/>
<path d="M124.603 229.145V148.745C124.603 148.55 124.642 148.356 124.719 148.177C124.796 147.997 124.909 147.835 125.051 147.7L131.249 141.868C131.387 141.738 131.549 141.636 131.726 141.569C131.903 141.502 132.091 141.47 132.28 141.476C132.47 141.481 132.656 141.524 132.828 141.602C133.001 141.68 133.157 141.791 133.286 141.929L138.718 147.707C138.967 147.974 139.105 148.326 139.105 148.691V229.145" fill="white"/>
<path d="M124.603 229.145V148.745C124.603 148.55 124.642 148.356 124.719 148.177C124.796 147.997 124.909 147.835 125.051 147.7L131.249 141.868C131.387 141.738 131.549 141.636 131.726 141.569C131.903 141.502 132.091 141.47 132.28 141.476C132.47 141.481 132.656 141.524 132.828 141.602C133.001 141.68 133.157 141.791 133.286 141.929L138.718 147.707C138.967 147.974 139.105 148.326 139.105 148.691V229.145" stroke="#2E353A" stroke-linecap="round" stroke-linejoin="round"/>
<path d="M178.571 228.467V148.745C178.571 148.55 178.611 148.356 178.688 148.177C178.765 147.997 178.878 147.835 179.019 147.7L185.211 141.868C185.49 141.607 185.861 141.467 186.242 141.479C186.624 141.49 186.985 141.652 187.248 141.929L192.68 147.707C192.926 147.976 193.064 148.326 193.067 148.691V228.467" fill="#2E353A"/>
<path d="M178.571 228.467V148.745C178.571 148.55 178.611 148.356 178.688 148.177C178.765 147.997 178.878 147.835 179.019 147.7L185.211 141.868C185.49 141.607 185.861 141.467 186.242 141.479C186.624 141.49 186.985 141.652 187.248 141.929L192.68 147.707C192.926 147.976 193.064 148.326 193.067 148.691V228.467" stroke="#2E353A" stroke-linecap="round" stroke-linejoin="round"/>
<path d="M177.104 229.145V148.745C177.104 148.549 177.145 148.355 177.223 148.175C177.301 147.995 177.416 147.833 177.559 147.7L183.751 141.868C183.889 141.738 184.051 141.636 184.228 141.569C184.405 141.502 184.593 141.47 184.782 141.476C184.972 141.481 185.158 141.524 185.33 141.602C185.503 141.68 185.659 141.791 185.788 141.929L191.22 147.707C191.469 147.974 191.607 148.326 191.607 148.691V229.145" fill="white"/>
<path d="M177.104 229.145V148.745C177.104 148.549 177.145 148.355 177.223 148.175C177.301 147.995 177.416 147.833 177.559 147.7L183.751 141.868C183.889 141.738 184.051 141.636 184.228 141.569C184.405 141.502 184.593 141.47 184.782 141.476C184.972 141.481 185.158 141.524 185.33 141.602C185.503 141.68 185.659 141.791 185.788 141.929L191.22 147.707C191.469 147.974 191.607 148.326 191.607 148.691V229.145" stroke="#2E353A" stroke-linecap="round" stroke-linejoin="round"/>
<path d="M231.074 228.466V148.745C231.074 148.55 231.114 148.356 231.191 148.177C231.268 147.997 231.381 147.835 231.522 147.7L237.721 141.868C237.859 141.738 238.021 141.636 238.198 141.569C238.374 141.502 238.563 141.47 238.752 141.476C238.941 141.481 239.128 141.524 239.3 141.602C239.473 141.68 239.628 141.791 239.758 141.929L245.189 147.707C245.439 147.974 245.577 148.326 245.576 148.691V228.466" fill="#2E353A"/>
<path d="M231.074 228.466V148.745C231.074 148.55 231.114 148.356 231.191 148.177C231.268 147.997 231.381 147.835 231.522 147.7L237.721 141.868C237.859 141.738 238.021 141.636 238.198 141.569C238.374 141.502 238.563 141.47 238.752 141.476C238.941 141.481 239.128 141.524 239.3 141.602C239.473 141.68 239.628 141.791 239.758 141.929L245.189 147.707C245.439 147.974 245.577 148.326 245.576 148.691V228.466" stroke="#2E353A" stroke-linecap="round" stroke-linejoin="round"/>
<path d="M229.607 229.146V148.745C229.607 148.549 229.648 148.355 229.726 148.175C229.804 147.995 229.919 147.834 230.062 147.7L236.254 141.868C236.533 141.607 236.904 141.467 237.285 141.479C237.667 141.49 238.028 141.652 238.291 141.929L243.723 147.707C243.974 147.973 244.115 148.325 244.116 148.691V229.146" fill="white"/>
<path d="M229.607 229.146V148.745C229.607 148.549 229.648 148.355 229.726 148.175C229.804 147.995 229.919 147.834 230.062 147.7L236.254 141.868C236.533 141.607 236.904 141.467 237.285 141.479C237.667 141.49 238.028 141.652 238.291 141.929L243.723 147.707C243.974 147.973 244.115 148.325 244.116 148.691V229.146" stroke="#2E353A" stroke-linecap="round" stroke-linejoin="round"/>
<path d="M28.2676 141.929V147.741" stroke="#2E353A" stroke-linecap="round" stroke-linejoin="round"/>
<path d="M30.5967 144.93V158.685" stroke="#2E353A" stroke-linecap="round" stroke-linejoin="round"/>
<path d="M74.9512 146.057V163.458" stroke="#2E353A" stroke-linecap="round" stroke-linejoin="round"/>
<path d="M77.1992 143.81V151.387" stroke="#2E353A" stroke-linecap="round" stroke-linejoin="round"/>
<path d="M131.249 141.868V158.97" stroke="#2E353A" stroke-linecap="round" stroke-linejoin="round"/>
<path d="M134.475 143.246V168.516" stroke="#2E353A" stroke-linecap="round" stroke-linejoin="round"/>
<path d="M179.671 146.057V165.142" stroke="#2E353A" stroke-linecap="round" stroke-linejoin="round"/>
<path d="M186.97 143.81V148.583" stroke="#2E353A" stroke-linecap="round" stroke-linejoin="round"/>
<path d="M234.414 143.524V153.634" stroke="#2E353A" stroke-linecap="round" stroke-linejoin="round"/>
<path d="M240.593 144.651V173.846" stroke="#2E353A" stroke-linecap="round" stroke-linejoin="round"/>
<path d="M229.363 187.323H223.185" stroke="#2E353A" stroke-linecap="round" stroke-linejoin="round"/>
<path d="M229.363 192.096H207.745" stroke="#2E353A" stroke-linecap="round" stroke-linejoin="round"/>
<path d="M148.786 192.096H138.962" stroke="#2E353A" stroke-linecap="round" stroke-linejoin="round"/>
<path d="M97.1329 192.096H87.3086" stroke="#2E353A" stroke-linecap="round" stroke-linejoin="round"/>
<path d="M19.3672 189.57H9.54297" stroke="#2E353A" stroke-linecap="round" stroke-linejoin="round"/>
<path d="M19.3666 194.058H15.4355" stroke="#2E353A" stroke-linecap="round" stroke-linejoin="round"/>
<path d="M143.735 189.57H138.962" stroke="#2E353A" stroke-linecap="round" stroke-linejoin="round"/>
<path d="M91.5181 194.9H86.7451" stroke="#2E353A" stroke-linecap="round" stroke-linejoin="round"/>
<path d="M71.5835 194.9H66.8105" stroke="#2E353A" stroke-linecap="round" stroke-linejoin="round"/>
<path d="M248.448 192.096H244.238" stroke="#2E353A" stroke-linecap="round" stroke-linejoin="round"/>
<path d="M254.063 192.096H251.537" stroke="#2E353A" stroke-linecap="round" stroke-linejoin="round"/>
<path d="M33.8491 162.908C33.8491 162.908 32.1517 177.499 30.1149 192.429C28.0781 207.358 31.8123 222.635 32.8307 223.992" stroke="#2E353A" stroke-linecap="round" stroke-linejoin="round"/>
<path d="M27.1338 192.442C27.4597 189.529 27.7313 187.689 27.7313 187.689" stroke="#2E353A" stroke-linecap="round" stroke-linejoin="round"/>
<path d="M32.1446 222.295C32.1446 222.295 26.0342 220.937 26.0342 210.074C26.0342 205.614 26.3193 201.044 26.6588 197.174" stroke="#2E353A" stroke-linecap="round" stroke-linejoin="round"/>
<path d="M83.4109 145.595C83.4109 145.595 84.7687 146.613 82.3924 158.155C80.0162 169.697 80.3556 186.671 83.4109 196.176" stroke="#2E353A" stroke-linecap="round" stroke-linejoin="round"/>
<path d="M86.806 166.982C86.806 166.982 83.4113 177.166 85.7876 191.424" stroke="#2E353A" stroke-linecap="round" stroke-linejoin="round"/>
<path d="M125.505 173.425C125.505 173.425 127.203 183.269 128.9 193.447C130.598 203.624 129.24 217.889 127.882 221.616C126.524 225.343 125.166 228.405 125.166 228.405" stroke="#2E353A" stroke-linecap="round" stroke-linejoin="round"/>
<path d="M131.901 223.415C130.387 228.059 128.506 222.635 128.506 222.635" stroke="#2E353A" stroke-linecap="round" stroke-linejoin="round"/>
<path d="M131.84 188.708C131.84 188.708 135.038 205.213 133.232 217.637" stroke="#2E353A" stroke-linecap="round" stroke-linejoin="round"/>
<path d="M124.826 194.139C124.826 194.139 128.221 201.268 125.166 208.058" stroke="#2E353A" stroke-linecap="round" stroke-linejoin="round"/>
<path d="M188.172 195.144C188.626 197.22 189.223 199.261 189.957 201.255" stroke="#2E353A" stroke-linecap="round" stroke-linejoin="round"/>
<path d="M190.976 159.853C188.822 166.691 187.455 173.752 186.902 180.9C186.7 184.516 186.902 188.144 187.507 191.715" stroke="#2E353A" stroke-linecap="round" stroke-linejoin="round"/>
<path d="M184.525 191.071C184.525 191.071 187.581 202.613 189.278 206.686C190.975 210.76 190.296 220.598 188.26 225.35" stroke="#2E353A" stroke-linecap="round" stroke-linejoin="round"/>
<path d="M230.341 164.945C230.341 164.945 237.13 177.166 230.68 197.188" stroke="#2E353A" stroke-linecap="round" stroke-linejoin="round"/>
<path d="M236.58 185.815C236.621 189.631 236.282 194.465 234.754 198.539C231.699 206.686 230.341 209.402 230.341 209.402" stroke="#2E353A" stroke-linecap="round" stroke-linejoin="round"/>
<path d="M236.111 179.203C236.111 179.203 236.335 180.663 236.471 182.91" stroke="#2E353A" stroke-linecap="round" stroke-linejoin="round"/>
</svg>
