<svg width="32" height="40" viewBox="0 0 32 40" fill="none" xmlns="http://www.w3.org/2000/svg">
<path d="M3.57438 38.6378H30.2005M21.3251 15.5619C21.3251 18.5029 18.9409 20.8871 15.9999 20.8871C13.0588 20.8871 10.6747 18.5029 10.6747 15.5619C10.6747 12.6209 13.0588 10.2367 15.9999 10.2367C18.9409 10.2367 21.3251 12.6209 21.3251 15.5619ZM30.2005 15.6984C30.2005 28.6019 15.9999 38.6378 15.9999 38.6378C15.9999 38.6378 1.79932 28.6019 1.79932 15.6984C1.79932 11.896 3.29544 8.2493 5.95857 5.56057C8.62169 2.87184 12.2337 1.36133 15.9999 1.36133C19.7661 1.36133 23.3781 2.87184 26.0412 5.56057C28.7043 8.2493 30.2005 11.896 30.2005 15.6984Z" stroke="#8A8A8A" stroke-width="2.2" stroke-linecap="round" stroke-linejoin="round"/>
</svg>
