<svg width="248" height="240" viewBox="0 0 248 240" fill="none" xmlns="http://www.w3.org/2000/svg">
<path d="M124 239.615C192.483 239.615 248 207.563 248 168.024C248 128.485 192.483 96.4326 124 96.4326C55.5167 96.4326 0 128.485 0 168.024C0 207.563 55.5167 239.615 124 239.615Z" fill="#F0F0F0"/>
<path d="M159.59 225.976C182.577 225.976 201.212 215.217 201.212 201.946C201.212 188.674 182.577 177.915 159.59 177.915C136.602 177.915 117.967 188.674 117.967 201.946C117.967 215.217 136.602 225.976 159.59 225.976Z" fill="#E0E0E0"/>
<path d="M215.463 14.9238L219.891 17.4801C219.868 17.2849 219.855 17.0887 219.853 16.8922V15.6141C219.853 13.3275 221.471 12.4053 223.428 13.5432C224.288 14.0641 225.024 14.7651 225.586 15.5979C225.909 12.7289 228.164 11.6557 230.898 13.2358C233.853 14.9454 236.253 19.098 236.253 22.5117V24.4316C236.271 25.1975 236.115 25.9575 235.795 26.6535L239.473 28.7783C240.051 29.1536 240.532 29.6606 240.877 30.2576C241.222 30.8547 241.421 31.525 241.457 32.2136C241.457 33.4809 240.573 33.9933 239.473 33.3623L215.463 19.5294C214.885 19.1537 214.404 18.6467 214.059 18.0497C213.714 17.4527 213.515 16.7826 213.479 16.0941C213.479 14.8052 214.363 14.2928 215.463 14.9238Z" fill="#EBEBEB"/>
<path d="M196.513 27.8238L199.857 29.7545C199.84 29.6077 199.831 29.46 199.83 29.3123V28.3415C199.83 26.6212 201.038 25.9201 202.527 26.783C203.172 27.1755 203.724 27.7037 204.144 28.3307C204.392 26.1736 206.091 25.3592 208.151 26.5511C209.33 27.3189 210.31 28.3541 211.013 29.5723C211.716 30.7905 212.121 32.1575 212.196 33.5619V35.0072C212.211 35.5853 212.093 36.1592 211.851 36.6844L214.628 38.3023C215.064 38.5882 215.427 38.9723 215.687 39.4237C215.947 39.8752 216.098 40.3814 216.128 40.9017C216.128 41.8563 215.453 42.2445 214.628 41.7646L196.513 31.2861C196.079 31.0016 195.718 30.6192 195.458 30.1696C195.199 29.72 195.049 29.2157 195.02 28.6975C195.02 27.7321 195.688 27.3438 196.513 27.8238Z" fill="#EBEBEB"/>
<path d="M31.183 150.206L35.7077 147.617C35.7077 147.617 37.8649 135.65 36.247 125.366C33.9604 110.907 24.1129 105.919 20.5373 107.353C16.9618 108.788 16.1421 113.075 22.6136 121.456C26.3887 126.364 31.3017 136.783 31.183 150.206Z" fill="#37474F"/>
<path d="M32.8232 144.462H32.7801C32.7381 144.457 32.6976 144.443 32.661 144.422C32.6244 144.401 32.5923 144.373 32.5667 144.339C32.5411 144.306 32.5225 144.267 32.5119 144.226C32.5013 144.185 32.4989 144.143 32.505 144.101C34.371 130.559 28.9295 115.729 22.7977 109.748C22.7369 109.688 22.7022 109.607 22.7012 109.522C22.7002 109.437 22.733 109.356 22.7923 109.295C22.8517 109.234 22.9328 109.199 23.0177 109.198C23.1027 109.197 23.1845 109.23 23.2453 109.289C29.4904 115.367 35.0181 130.446 33.1414 144.182C33.131 144.259 33.0931 144.33 33.0346 144.381C32.9762 144.433 32.9011 144.462 32.8232 144.462Z" fill="white"/>
<path d="M18.6233 157.459C17.906 157.869 16.4337 156.974 15.8675 156.591C14.8987 155.933 14.1166 155.036 13.5971 153.986C13.0131 152.796 12.8151 151.454 13.0308 150.146C13.144 149.454 13.3062 148.771 13.5162 148.102L14.0555 146.118C14.2878 145.478 14.3869 144.797 14.3467 144.117C14.1741 142.763 12.9715 141.814 11.8767 140.995C10.6687 140.089 9.40673 138.891 9.41213 137.257C9.51404 135.994 10.0296 134.8 10.879 133.86C11.661 132.873 12.5832 131.999 13.2897 130.953C13.8447 130.226 14.1358 129.332 14.1148 128.418C14.0427 127.859 13.8593 127.32 13.5755 126.833C12.9984 125.754 12.238 124.794 11.8443 123.656C11.4507 122.518 11.4992 121.089 12.3836 120.275C13.1117 119.601 14.2011 119.509 15.1934 119.574C16.1201 119.688 17.0108 120.003 17.8036 120.496C20.3976 121.936 21.8752 125.004 24.6256 126.115C25.7169 126.455 26.8282 126.727 27.9531 126.93C29.0317 127.221 30.1911 127.787 30.7035 128.806C31.712 130.823 29.8352 133.31 30.5471 135.451C31.1727 137.349 33.017 138.072 34.0471 139.765C34.4708 140.516 34.641 141.384 34.5325 142.24C34.4419 143.691 34.0873 145.113 33.4862 146.436C32.814 147.749 32.0461 149.011 31.1888 150.211C31.1403 150.243 18.7311 157.394 18.6233 157.459Z" fill="#455A64"/>
<path d="M25.9683 153.544C25.9256 153.543 25.8834 153.534 25.8444 153.517C25.8053 153.499 25.7701 153.474 25.7409 153.443C25.7118 153.412 25.6891 153.375 25.6745 153.335C25.6598 153.295 25.6534 153.252 25.6555 153.21C26.1948 140.396 20.1493 126.245 15.7595 122.135C15.7243 122.108 15.6953 122.073 15.6743 122.033C15.6534 121.993 15.6408 121.95 15.6376 121.905C15.6343 121.86 15.6404 121.816 15.6554 121.773C15.6704 121.731 15.6941 121.692 15.7248 121.66C15.7556 121.627 15.7928 121.601 15.8341 121.584C15.8754 121.566 15.9198 121.558 15.9647 121.558C16.0095 121.559 16.0538 121.569 16.0946 121.587C16.1354 121.606 16.1718 121.633 16.2017 121.666C20.6778 125.857 26.8366 140.24 26.2973 153.237C26.2931 153.32 26.2564 153.399 26.195 153.457C26.1336 153.514 26.0523 153.545 25.9683 153.544Z" fill="white"/>
<path d="M24.048 138.406C24.0177 138.411 23.9867 138.411 23.9564 138.406C20.9193 137.569 17.7998 137.066 14.6535 136.907C14.6113 136.905 14.5697 136.896 14.5313 136.878C14.4928 136.86 14.4583 136.835 14.4297 136.804C14.401 136.773 14.3789 136.736 14.3646 136.697C14.3502 136.657 14.344 136.615 14.3461 136.572C14.346 136.529 14.3548 136.487 14.3718 136.447C14.3889 136.408 14.4139 136.373 14.4452 136.343C14.4766 136.314 14.5137 136.291 14.5542 136.277C14.5946 136.262 14.6376 136.257 14.6805 136.26C17.8815 136.426 21.0549 136.94 24.1451 137.791C24.2179 137.815 24.2799 137.864 24.3199 137.929C24.36 137.995 24.3756 138.072 24.364 138.148C24.3523 138.223 24.3142 138.293 24.2563 138.343C24.1985 138.393 24.1247 138.421 24.048 138.422V138.406Z" fill="white"/>
<path d="M48.1259 23.3312L28.9378 12.254C28.8686 12.202 28.7844 12.1738 28.6978 12.1738C28.6112 12.1738 28.527 12.202 28.4578 12.254C28.3446 12.3511 27.6543 12.7017 27.5356 12.7933C27.4603 12.8599 27.4023 12.9438 27.3666 13.0377C27.3309 13.1317 27.3186 13.2329 27.3307 13.3326V30.5901C27.3412 30.8352 27.4074 31.0748 27.5242 31.2906C27.6409 31.5065 27.8053 31.6929 28.0048 31.8358L31.3754 33.7773L48.5789 23.8435C48.4777 23.6344 48.321 23.4572 48.1259 23.3312Z" fill="#BA68C8"/>
<path opacity="0.5" d="M48.1259 23.3312L28.9378 12.254C28.8686 12.202 28.7844 12.1738 28.6978 12.1738C28.6112 12.1738 28.527 12.202 28.4578 12.254C28.3446 12.3511 27.6543 12.7017 27.5356 12.7933C27.4603 12.8599 27.4023 12.9438 27.3666 13.0377C27.3309 13.1317 27.3186 13.2329 27.3307 13.3326V30.5901C27.3412 30.8352 27.4074 31.0748 27.5242 31.2906C27.6409 31.5065 27.8053 31.6929 28.0048 31.8358L31.3754 33.7773L48.5789 23.8435C48.4777 23.6344 48.321 23.4572 48.1259 23.3312Z" fill="white"/>
<path d="M47.6284 42.9346C47.7632 42.8537 48.4589 42.4654 48.5776 42.3953C48.655 42.3302 48.7148 42.2467 48.7515 42.1524C48.7883 42.0582 48.8008 41.9563 48.7879 41.856V24.5985C48.7816 24.3316 48.7093 24.0704 48.5776 23.8381L31.3633 33.7773L47.1808 42.913C47.2452 42.9596 47.3219 42.9865 47.4014 42.9904C47.4809 42.9942 47.5598 42.9748 47.6284 42.9346Z" fill="#BA68C8"/>
<path opacity="0.2" d="M47.6284 42.9346C47.7632 42.8537 48.4589 42.4654 48.5776 42.3953C48.655 42.3302 48.7148 42.2467 48.7515 42.1524C48.7883 42.0582 48.8008 41.9563 48.7879 41.856V24.5985C48.7816 24.3316 48.7093 24.0704 48.5776 23.8381L31.3633 33.7773L47.1808 42.913C47.2452 42.9596 47.3219 42.9865 47.4014 42.9904C47.4809 42.9942 47.5598 42.9748 47.6284 42.9346Z" fill="black"/>
<path d="M47.1824 42.913L28.0051 31.8359C27.8048 31.6896 27.6408 31.4993 27.5258 31.2795C27.4108 31.0598 27.3478 30.8165 27.3418 30.5685V13.3111C27.3418 12.8257 27.6384 12.5992 28.0051 12.815L47.1932 23.8921C47.395 24.0357 47.5601 24.2248 47.6753 24.444C47.7905 24.6632 47.8526 24.9064 47.8566 25.154V42.4114C47.8458 42.8968 47.5492 43.1233 47.1824 42.913Z" fill="#BA68C8"/>
<path opacity="0.2" d="M47.8448 42.4115V42.0717L39.9118 28.9237L47.7424 24.6093C47.7424 24.5608 47.7046 24.5123 47.6831 24.4637L37.9272 28.5084C37.7223 28.5947 37.4526 28.4437 37.2477 28.1201L27.5027 12.8096L27.4433 12.8743L35.2631 26.2434L27.3301 30.2288V30.5685C27.3362 30.841 27.4045 31.1084 27.5296 31.3505L35.6676 26.9337L36.8217 28.9021C37.2747 29.6787 37.9003 30.04 38.3587 29.7866L39.5074 29.1502L47.6291 42.9346C47.7043 42.871 47.7632 42.7903 47.8007 42.6993C47.8383 42.6083 47.8534 42.5095 47.8448 42.4115Z" fill="black"/>
<path d="M91.1547 50.2366L50.918 25.7041V28.2765L91.1547 50.2366Z" fill="#E0E0E0"/>
<path d="M76.5129 57.7274L50.9234 41.6133L50.918 41.6187V44.1695L76.5129 57.7274Z" fill="#E0E0E0"/>
<path d="M50.9234 33.6587L50.918 33.6641V36.2257L83.3565 53.7744L50.9234 33.6587Z" fill="#E0E0E0"/>
<path d="M90.5645 11.1594L71.398 0.0822672C71.3283 0.0289129 71.243 0 71.1553 0C71.0675 0 70.9822 0.0289129 70.9126 0.0822672C70.8047 0.173947 70.1091 0.524489 69.9904 0.621562C69.9153 0.688088 69.8578 0.772118 69.823 0.866195C69.7882 0.960272 69.7772 1.06149 69.7909 1.16086V18.4183C69.794 18.6668 69.8557 18.9111 69.9709 19.1313C70.0862 19.3515 70.2517 19.5414 70.4542 19.6856L73.8464 21.6055L91.0606 11.6609C90.9438 11.4519 90.7723 11.2785 90.5645 11.1594Z" fill="#BA68C8"/>
<path opacity="0.5" d="M90.5645 11.1594L71.398 0.0822672C71.3283 0.0289129 71.243 0 71.1553 0C71.0675 0 70.9822 0.0289129 70.9126 0.0822672C70.8047 0.173947 70.1091 0.524489 69.9904 0.621562C69.9153 0.688088 69.8578 0.772118 69.823 0.866195C69.7882 0.960272 69.7772 1.06149 69.7909 1.16086V18.4183C69.794 18.6668 69.8557 18.9111 69.9709 19.1313C70.0862 19.3515 70.2517 19.5414 70.4542 19.6856L73.8464 21.6055L91.0606 11.6609C90.9438 11.4519 90.7723 11.2785 90.5645 11.1594Z" fill="white"/>
<path d="M90.0893 30.7627C90.2187 30.6764 90.9144 30.2935 91.033 30.2234C91.1104 30.1583 91.1702 30.0748 91.207 29.9806C91.2437 29.8864 91.2562 29.7844 91.2433 29.6841V12.4267C91.2371 12.1597 91.1648 11.8985 91.033 11.6663L73.8457 21.6055L89.6632 30.7357C89.7254 30.7778 89.7976 30.8025 89.8726 30.8073C89.9475 30.812 90.0223 30.7966 90.0893 30.7627Z" fill="#BA68C8"/>
<path opacity="0.2" d="M90.0893 30.7627C90.2187 30.6764 90.9144 30.2935 91.033 30.2234C91.1104 30.1583 91.1702 30.0748 91.207 29.9806C91.2437 29.8864 91.2562 29.7844 91.2433 29.6841V12.4267C91.2371 12.1597 91.1648 11.8985 91.033 11.6663L73.8457 21.6055L89.6632 30.7357C89.7254 30.7778 89.7976 30.8025 89.8726 30.8073C89.9475 30.812 90.0223 30.7966 90.0893 30.7627Z" fill="black"/>
<path d="M89.6371 30.7358L70.4544 19.6587C70.2519 19.5145 70.0863 19.3246 69.9711 19.1044C69.8558 18.8842 69.7941 18.6399 69.791 18.3914V1.13394C69.791 0.643185 70.0876 0.422074 70.4544 0.632399L89.6371 11.7095C89.8395 11.8537 90.0051 12.0436 90.1203 12.2638C90.2356 12.484 90.2973 12.7283 90.3004 12.9769V30.2343C90.3004 30.725 90.0254 30.9462 89.6371 30.7358Z" fill="#BA68C8"/>
<path opacity="0.2" d="M90.3004 30.2341V29.8944L82.3674 16.7518L90.1979 12.4374C90.1979 12.3889 90.1602 12.3403 90.144 12.2972L80.3828 16.3635C80.1778 16.4497 79.9136 16.2934 79.7033 15.9698L69.9636 0.653809C69.9411 0.672724 69.9212 0.694477 69.9043 0.718523L77.724 14.0876L69.791 18.073V18.4128C69.7937 18.6857 69.8622 18.9539 69.9906 19.1948L78.1231 14.7779L79.2772 16.7464C79.7356 17.5283 80.3558 17.8897 80.8142 17.6362L81.9683 16.9944L90.0901 30.7842C90.1672 30.7165 90.2267 30.6311 90.2633 30.5352C90.3 30.4393 90.3127 30.336 90.3004 30.2341Z" fill="black"/>
<path d="M133.616 38.0648L93.3789 13.5269V16.0993L133.616 38.0648Z" fill="#E0E0E0"/>
<path d="M118.974 45.5501L93.3789 29.4414V31.9923L118.974 45.5501Z" fill="#E0E0E0"/>
<path d="M93.3789 21.4868V24.0485L125.812 41.6025L93.3789 21.4868Z" fill="#E0E0E0"/>
<path d="M55.077 61.837L35.8889 50.7599C35.8198 50.7078 35.7355 50.6797 35.649 50.6797C35.5624 50.6797 35.4782 50.7078 35.409 50.7599C35.2957 50.857 34.6054 51.2021 34.4868 51.2992C34.4115 51.3658 34.3535 51.4496 34.3178 51.5436C34.2821 51.6375 34.2698 51.7387 34.2818 51.8385V69.0959C34.2879 69.3439 34.3508 69.5871 34.4658 69.8069C34.5809 70.0266 34.7449 70.217 34.9452 70.3633L38.3158 72.3047L55.5085 62.3386C55.4108 62.1367 55.262 61.9638 55.077 61.837Z" fill="#BA68C8"/>
<path opacity="0.5" d="M55.077 61.837L35.8889 50.7599C35.8198 50.7078 35.7355 50.6797 35.649 50.6797C35.5624 50.6797 35.4782 50.7078 35.409 50.7599C35.2957 50.857 34.6054 51.2021 34.4868 51.2992C34.4115 51.3658 34.3535 51.4496 34.3178 51.5436C34.2821 51.6375 34.2698 51.7387 34.2818 51.8385V69.0959C34.2879 69.3439 34.3508 69.5871 34.4658 69.8069C34.5809 70.0266 34.7449 70.217 34.9452 70.3633L38.3158 72.3047L55.5085 62.3386C55.4108 62.1367 55.262 61.9638 55.077 61.837Z" fill="white"/>
<path d="M54.5796 81.4404C54.709 81.3541 55.4101 80.9713 55.5287 80.9011C55.6061 80.836 55.666 80.7526 55.7027 80.6583C55.7395 80.5641 55.752 80.4622 55.7391 80.3618V63.1044C55.7323 62.8358 55.6601 62.573 55.5287 62.3386L38.3145 72.2832L54.132 81.4189C54.1964 81.4655 54.2731 81.4924 54.3526 81.4962C54.432 81.5001 54.5109 81.4807 54.5796 81.4404Z" fill="#BA68C8"/>
<path opacity="0.2" d="M54.5796 81.4404C54.709 81.3541 55.4101 80.9713 55.5287 80.9011C55.6061 80.836 55.666 80.7526 55.7027 80.6583C55.7395 80.5641 55.752 80.4622 55.7391 80.3618V63.1044C55.7323 62.8358 55.6601 62.573 55.5287 62.3386L38.3145 72.2832L54.132 81.4189C54.1964 81.4655 54.2731 81.4924 54.3526 81.4962C54.432 81.5001 54.5109 81.4807 54.5796 81.4404Z" fill="black"/>
<path d="M54.1327 81.4189L34.9446 70.3418C34.7443 70.1955 34.5803 70.0051 34.4652 69.7854C34.3502 69.5656 34.2873 69.3224 34.2812 69.0744V51.817C34.2812 51.3316 34.5779 51.1051 34.9446 51.3155L54.1327 62.398C54.3344 62.5416 54.4995 62.7307 54.6148 62.9499C54.73 63.1691 54.7921 63.4123 54.796 63.6599V80.9173C54.796 81.4027 54.4994 81.6292 54.1327 81.4189Z" fill="#BA68C8"/>
<path opacity="0.2" d="M54.7959 80.9173V80.5776L46.8791 67.4296L54.7096 63.1152C54.7096 63.0667 54.6719 63.0181 54.6503 62.9696L44.8945 67.0359C44.6895 67.1222 44.4199 66.9712 44.215 66.6422L34.4753 51.3154C34.4516 51.333 34.4315 51.355 34.416 51.3801L42.2358 64.7493L34.3027 68.7346V69.0744C34.3087 69.3451 34.377 69.6109 34.5023 69.851L42.6402 65.4342L43.7889 67.4026C44.2473 68.1846 44.8675 68.5459 45.3259 68.2924L46.48 67.6561L54.6018 81.4404C54.6731 81.3747 54.7279 81.2931 54.7616 81.2022C54.7954 81.1112 54.8071 81.0136 54.7959 80.9173Z" fill="black"/>
<path d="M98.1079 88.7425L57.8711 64.21V66.7824L98.1079 88.7425Z" fill="#E0E0E0"/>
<path d="M83.466 96.2333L57.8711 80.1191V80.1245V82.67L83.466 96.2333Z" fill="#E0E0E0"/>
<path d="M57.8765 72.1646L57.8711 72.1699V74.7316L90.3097 92.2802L57.8765 72.1646Z" fill="#E0E0E0"/>
<path d="M189.464 207.063C189.502 208.681 189.275 210.445 187.9 211.61C185.053 214.037 179.627 212.931 177.007 211.534C173.83 209.846 172.412 207.247 169.996 205.764C168.553 204.978 167.051 204.308 165.503 203.758C164.29 203.256 163.001 202.808 162.748 201.315C162.688 200.867 162.688 200.414 162.748 199.966C162.756 199.783 162.791 199.601 162.85 199.427C162.958 199.197 163.121 198.997 163.325 198.845C164.279 198.073 165.579 197.912 166.798 197.766C167.636 197.648 168.485 197.63 169.327 197.712C170.265 197.863 171.174 198.156 172.023 198.58L175.097 200.069L181.245 203.057L189.464 207.063Z" fill="#37474F"/>
<path d="M164.846 189.65C165.569 188.571 167.198 189.019 168.363 189.111C169.921 189.251 171.467 189.514 172.984 189.898C173.885 190.13 175.077 190.507 175.535 191.386C176.074 192.465 176.376 193.651 176.921 194.725C177.81 196.289 179.044 197.63 180.529 198.645C181.969 199.724 183.511 200.646 184.87 201.811C185.678 202.496 186.417 203.258 187.076 204.087C187.775 204.9 188.298 205.85 188.613 206.875C188.91 207.954 188.856 209.491 188.009 210.31C187.088 211.093 185.941 211.561 184.736 211.648C182.446 211.772 180.163 211.304 178.108 210.289C176.215 209.35 174.753 207.792 173.297 206.303C172.674 205.579 171.966 204.933 171.188 204.378C170.363 203.891 169.499 203.473 168.605 203.127C166.955 202.426 165.262 201.746 163.843 200.624C163.528 200.399 163.265 200.109 163.072 199.772C162.899 199.349 162.834 198.89 162.883 198.435C163.03 197.012 163.362 195.614 163.87 194.277C164.096 193.588 164.254 192.878 164.339 192.158C164.352 191.427 164.461 190.702 164.663 190C164.712 189.877 164.773 189.76 164.846 189.65Z" fill="#BA68C8"/>
<path d="M178.098 210.499C177.489 210.257 176.938 209.889 176.48 209.42C176.48 207.549 176.723 206.017 177.834 204.405C179.188 202.442 181.442 201.406 183.826 200.996C185.444 201.358 186.182 201.509 187.466 202.668C188.581 203.665 189.358 204.984 189.688 206.443C189.828 207.206 189.747 207.993 189.454 208.712C189.162 209.43 188.67 210.05 188.038 210.499C187.017 211.237 185.826 211.705 184.575 211.858C182.208 212.057 180.66 211.691 178.098 210.499Z" fill="#FAFAFA"/>
<path d="M165.525 195.922C165.525 195.922 164.139 195.496 162.623 192.05C162.074 190.734 161.838 189.309 161.933 187.886C161.991 186.219 161.667 184.56 160.986 183.037C160.306 181.514 159.287 180.166 158.007 179.096C153.613 175.373 149.867 170.949 146.919 166.002C143.101 159.746 142.486 170.769 152.156 181.544C152.156 181.544 151.233 181.436 148.623 179.694C147.108 178.686 145.662 177.268 144.309 176.275C141.542 174.248 143.737 183.038 152.452 188.253C152.452 188.253 149.055 187.876 146.919 186.916C144.783 185.956 145.722 189.564 150.813 192.255C153.62 193.672 156.588 194.748 159.652 195.458C161.172 195.819 162.584 196.536 163.772 197.55L164.883 198.5L165.525 195.922Z" fill="#BA68C8"/>
<path opacity="0.6" d="M165.525 195.922C165.525 195.922 164.139 195.496 162.623 192.05C162.074 190.734 161.838 189.309 161.933 187.886C161.991 186.219 161.667 184.56 160.986 183.037C160.306 181.514 159.287 180.166 158.007 179.096C153.613 175.373 149.867 170.949 146.919 166.002C143.101 159.746 142.486 170.769 152.156 181.544C152.156 181.544 151.233 181.436 148.623 179.694C147.108 178.686 145.662 177.268 144.309 176.275C141.542 174.248 143.737 183.038 152.452 188.253C152.452 188.253 149.055 187.876 146.919 186.916C144.783 185.956 145.722 189.564 150.813 192.255C153.62 193.672 156.588 194.748 159.652 195.458C161.172 195.819 162.584 196.536 163.772 197.55L164.883 198.5L165.525 195.922Z" fill="white"/>
<path opacity="0.1" d="M152.156 181.544C146.451 174.237 144.552 164.535 145.652 164.427C143.107 162.507 143.695 172.117 152.156 181.544Z" fill="black"/>
<path opacity="0.1" d="M144.309 176.275C141.542 174.247 143.737 183.038 152.452 188.253C145.905 183.356 143.586 176.577 144.309 176.275Z" fill="black"/>
<path opacity="0.1" d="M158.186 195.075C155.727 193.872 152.675 192.562 150.496 191.09C147.735 189.224 146.133 187.271 146.279 186.775C146.252 186.772 146.225 186.772 146.198 186.775C146.155 186.781 146.113 186.794 146.074 186.813L146.004 186.867C145.978 186.89 145.954 186.915 145.933 186.942C145.918 186.97 145.905 186.999 145.896 187.029L145.863 187.137C145.861 187.174 145.861 187.212 145.863 187.25C145.863 187.298 145.863 187.347 145.863 187.401C145.863 187.455 145.863 187.482 145.863 187.53C145.877 187.594 145.895 187.657 145.917 187.719L145.966 187.859C145.999 187.942 146.037 188.023 146.079 188.102L146.144 188.237C146.219 188.366 146.3 188.506 146.397 188.647L146.435 188.695C146.526 188.834 146.625 188.967 146.732 189.094L146.866 189.251L147.141 189.563L147.325 189.752C147.422 189.849 147.524 189.952 147.638 190.054L147.859 190.254C147.972 190.356 148.091 190.453 148.215 190.556L148.468 190.761L148.883 191.073C148.975 191.138 149.061 191.203 149.158 191.262C149.255 191.322 149.498 191.489 149.698 191.602L149.951 191.764C150.221 191.926 150.49 192.093 150.809 192.249C153.159 193.454 155.632 194.401 158.186 195.075Z" fill="black"/>
<path d="M154.557 98.9241L171.075 99.4634C171.075 99.4634 179.898 134.474 179.262 146.463C178.593 158.975 174.462 191.181 174.462 191.181C174.36 193.09 165.294 192.61 165.413 190.707C165.413 190.707 164.873 185.524 164.695 183.21C163.984 174.264 163.417 171.276 162.695 163.656C161.735 153.549 162.695 150.745 162.878 146.824C162.878 146.824 153.737 124.384 149.989 111.921C147.789 104.624 153.225 101.599 154.557 98.9241Z" fill="#FFA8A7"/>
<path d="M165.299 195.199C165.859 195.562 166.324 196.052 166.658 196.63C166.992 197.207 167.184 197.855 167.219 198.521C167.219 199.74 166.362 200.236 165.299 199.627C164.742 199.262 164.278 198.772 163.945 198.194C163.613 197.617 163.421 196.97 163.385 196.305C163.369 195.086 164.242 194.59 165.299 195.199Z" fill="#455A64"/>
<path d="M165.301 196.418C165.546 196.578 165.75 196.794 165.896 197.048C166.042 197.302 166.126 197.587 166.142 197.879C166.142 198.419 165.764 198.634 165.301 198.365C165.055 198.204 164.852 197.988 164.705 197.735C164.559 197.481 164.475 197.196 164.459 196.903C164.448 196.418 164.837 196.175 165.301 196.418Z" fill="#37474F"/>
<path d="M71.2514 157.249C70.4511 157.093 69.7226 156.683 69.1751 156.079C68.501 155.372 68.3877 151.473 71.0788 147.595C73.1577 144.682 75.9738 142.375 79.2383 140.908C81.2661 139.927 82.4417 138.293 83.7522 136.362C85.0627 134.431 87.6243 132.414 88.9079 132.484C90.1914 132.555 91.9872 134.102 91.9872 134.102L71.2514 157.249Z" fill="#37474F"/>
<path d="M95.2276 147.914L95.1952 148.146C95.1686 148.4 95.0857 148.645 94.9526 148.863C94.7723 149.055 94.5541 149.207 94.3117 149.31C94.0694 149.413 93.8083 149.465 93.545 149.462C91.2584 149.737 89.1066 150.001 87.0195 151.02C85.0943 151.995 83.3563 153.302 81.8855 154.882C81.3108 155.528 80.7024 156.144 80.0626 156.726C79.3454 157.33 78.5526 157.529 77.7598 157.977C77.1973 158.279 76.5916 158.492 75.964 158.608C75.4453 158.72 74.9135 158.76 74.3839 158.727C73.1859 158.663 72.06 158.135 71.2452 157.254C70.8041 156.776 70.5479 156.157 70.5225 155.507C70.447 153.463 71.7952 148.841 75.6782 145.223C77.7922 143.249 80.8824 143.265 83.6489 139.706C85.0511 137.905 88.2707 133.833 90.6598 133.38C91.7384 133.175 93.5396 134.901 94.1814 135.607C95.1467 136.686 96.1444 137.996 97.2985 138.843C97.7053 139.093 98.0817 139.39 98.4202 139.727C99.4988 141.011 97.2931 141.755 96.6352 142.526C95.4163 143.972 95.4757 146.14 95.2276 147.914Z" fill="#BA68C8"/>
<path d="M97.7458 140.331C106.995 138.379 119.609 133.606 128.982 135.666C131.678 121.062 134.968 106.927 139.455 93.3479C145.533 91.9997 151.562 90.7593 157.694 89.4219C159.851 98.2717 161.135 105.407 157.877 114.548C154.383 124.336 149.027 135.958 144.643 145.331C141.321 152.433 137.055 151.673 129.289 151.43C120.191 151.144 103.462 149.602 95.621 149.057C91.3336 149.354 92.9947 140.919 97.7458 140.331Z" fill="#FFA8A7"/>
<path opacity="0.2" d="M128.965 135.645C124.543 134.674 119.398 135.224 114.227 136.281C120.159 135.585 126.911 135.941 127.396 138.384C128.135 142.122 130.093 143.4 130.093 143.4C128.076 140.93 128.852 136.243 128.965 135.645Z" fill="black"/>
<path d="M74.1692 146.803C74.1692 146.803 76.6284 147.38 79.5244 149.861C80.3459 150.5 80.9728 151.357 81.3348 152.333C81.6968 153.31 81.7795 154.368 81.5737 155.388C81.5737 155.388 79.4165 159.298 75.1777 158.98C71.7262 158.721 70.5236 157.033 70.5236 157.033C70.5236 157.033 69.6175 155.011 70.8903 151.861C71.6449 149.978 72.7585 148.26 74.1692 146.803Z" fill="#FAFAFA"/>
<path d="M90.7572 142.262C90.7572 142.262 91.043 140.838 94.322 138.994C95.5796 138.324 96.975 137.955 98.399 137.915C100.064 137.807 101.683 137.321 103.131 136.493C104.58 135.665 105.82 134.517 106.758 133.137C110.03 128.404 114.065 124.247 118.698 120.836C124.544 116.413 113.515 116.888 103.743 127.577C103.743 127.577 103.743 126.649 105.237 123.877C106.089 122.259 107.362 120.69 108.214 119.25C109.956 116.295 101.43 119.347 97.0993 128.537C97.0993 128.537 97.1425 125.118 97.8813 122.896C98.6201 120.674 95.1309 121.963 92.9575 127.296C91.8212 130.23 91.0443 133.29 90.644 136.41C90.4314 137.961 89.8548 139.44 88.9614 140.725L88.1309 141.917L90.7572 142.262Z" fill="#BA68C8"/>
<path opacity="0.6" d="M90.7572 142.262C90.7572 142.262 91.043 140.838 94.322 138.994C95.5796 138.324 96.975 137.955 98.399 137.915C100.064 137.807 101.683 137.321 103.131 136.493C104.58 135.665 105.82 134.517 106.758 133.137C110.03 128.404 114.065 124.247 118.698 120.836C124.544 116.413 113.515 116.888 103.743 127.577C103.743 127.577 103.743 126.649 105.237 123.877C106.089 122.259 107.362 120.69 108.214 119.25C109.956 116.295 101.43 119.347 97.0993 128.537C97.0993 128.537 97.1425 125.118 97.8813 122.896C98.6201 120.674 95.1309 121.963 92.9575 127.296C91.8212 130.23 91.0443 133.29 90.644 136.41C90.4314 137.961 89.8548 139.44 88.9614 140.725L88.1309 141.917L90.7572 142.262Z" fill="white"/>
<path opacity="0.1" d="M103.742 127.561C110.451 121.159 119.921 118.317 120.137 119.396C121.798 116.678 112.29 118.22 103.742 127.561Z" fill="black"/>
<path opacity="0.1" d="M108.214 119.234C109.956 116.279 101.43 119.331 97.0996 128.521C101.349 121.521 107.821 118.544 108.214 119.234Z" fill="black"/>
<path opacity="0.1" d="M90.875 134.895C91.8296 132.334 92.8326 129.163 94.0838 126.849C95.6693 123.915 97.4544 122.135 97.9721 122.222C97.9664 122.197 97.9574 122.174 97.9452 122.152C97.9366 122.108 97.9201 122.066 97.8966 122.028C97.8811 122.004 97.8609 121.984 97.8373 121.968C97.8142 121.942 97.7868 121.92 97.7564 121.904C97.7271 121.89 97.6963 121.879 97.6647 121.871C97.6272 121.865 97.589 121.865 97.5515 121.871H97.4382L97.2926 121.898L97.1632 121.931L96.9852 122.006L96.845 122.071L96.6185 122.206L96.4891 122.281C96.365 122.367 96.241 122.464 96.1062 122.572C96.0904 122.585 96.076 122.6 96.063 122.615C95.9444 122.718 95.8203 122.826 95.6963 122.95L95.5507 123.095C95.459 123.198 95.3619 123.295 95.2649 123.408C95.1678 123.521 95.157 123.538 95.1031 123.608L94.828 123.948L94.6501 124.185L94.3858 124.568L94.2078 124.843C94.1162 124.983 94.0299 125.134 93.9382 125.29L93.7764 125.576C93.6793 125.754 93.5823 125.938 93.4906 126.115C93.442 126.207 93.3989 126.293 93.3558 126.385C93.2155 126.671 93.0807 126.973 92.9567 127.286C91.9921 129.74 91.2942 132.291 90.875 134.895Z" fill="black"/>
<path d="M87.7362 141.329C88.0712 140.749 88.5392 140.256 89.1018 139.893C89.6644 139.529 90.3054 139.304 90.9719 139.236C92.1961 139.172 92.7354 140.002 92.18 141.092C91.8443 141.671 91.376 142.163 90.8136 142.527C90.2511 142.891 89.6105 143.116 88.9442 143.184C87.72 143.249 87.1807 142.418 87.7362 141.329Z" fill="#455A64"/>
<path d="M88.9734 141.259C89.1221 141.007 89.3271 140.794 89.5722 140.635C89.8174 140.476 90.096 140.375 90.3863 140.342C90.9256 140.342 91.1629 140.682 90.9256 141.156C90.7796 141.41 90.5762 141.625 90.3317 141.785C90.0872 141.945 89.8085 142.046 89.518 142.079C88.9464 142.106 88.7307 141.739 88.9734 141.259Z" fill="#37474F"/>
<path d="M136.402 97.6838C134.588 103.013 133.076 108.439 131.872 113.938C130.13 122.216 128.064 132.911 128.064 132.911C128.064 132.911 132.222 141.156 147.204 140.968L154.975 127.005L160.783 142.354C160.783 142.354 172.524 143.702 179.292 136.696C179.184 135.812 173.586 107.116 171.537 99.059L136.402 97.6838Z" fill="#BA68C8"/>
<path opacity="0.15" d="M154.977 127.005L159.954 117.837C161.935 117.432 163.824 116.664 165.525 115.572C165.525 115.572 164.565 117.762 161.346 119.498C161.054 119.989 157.225 127.642 157.225 127.642L160.806 142.354L154.977 127.005Z" fill="#263238"/>
<path d="M134.441 83.193C134.441 83.193 143.906 78.005 147.73 72.3801L150.771 75.7184C150.771 75.7184 143.582 84.2176 135.703 87.2539L134.441 83.193Z" fill="#BA68C8"/>
<path opacity="0.3" d="M134.441 83.193C134.441 83.193 143.906 78.005 147.73 72.3801L150.771 75.7184C150.771 75.7184 143.582 84.2176 135.703 87.2539L134.441 83.193Z" fill="black"/>
<path d="M88.7461 101.96C89.2207 98.7247 91.4426 97.1068 97.9141 90.7162C104.386 84.3255 109.509 80.1514 115.538 80.0705C121.568 79.9896 133.518 81.1922 134.441 83.193C135.363 85.1938 115.538 105.11 115.538 105.11L88.7461 101.96Z" fill="#BA68C8"/>
<path opacity="0.2" d="M88.7461 101.96C89.2207 98.7247 91.4426 97.1068 97.9141 90.7162C104.386 84.3255 109.509 80.1514 115.538 80.0705C121.568 79.9896 133.518 81.1922 134.441 83.193C135.363 85.1938 115.538 105.11 115.538 105.11L88.7461 101.96Z" fill="black"/>
<path d="M115.538 105.11L135.686 87.2268L134.441 83.1929L114.039 101.669L115.538 105.11Z" fill="#BA68C8"/>
<path opacity="0.4" d="M115.538 105.11L135.686 87.2268L134.441 83.1929L114.039 101.669L115.538 105.11Z" fill="black"/>
<path d="M135.686 87.2268C135.859 87.0704 135.972 85.5173 136.026 85.2476C136.31 83.8707 136.357 82.4555 136.166 81.0627C135.973 79.5893 135.327 78.2123 134.317 77.1217C133.308 76.0311 131.985 75.2807 130.531 74.9741C130.131 74.8478 129.709 74.8103 129.293 74.8643C128.878 74.9184 128.479 75.0626 128.125 75.2869C127.327 75.9124 127.241 77.0611 127.004 78.048C126.383 80.6043 124.388 82.6159 122.188 84.0504C119.987 85.4849 117.523 86.4718 115.269 87.8255C113.877 88.6755 112.55 89.6273 111.299 90.6729C110.702 91.1067 110.2 91.6571 109.822 92.2908C109.636 92.6079 109.542 92.9703 109.549 93.3377C109.557 93.7052 109.666 94.0633 109.865 94.3725C110.162 94.6968 110.514 94.9653 110.906 95.1653C113.02 96.4811 115.08 99.1668 114.039 101.68L115.538 105.121L135.686 87.2268Z" fill="#BA68C8"/>
<path opacity="0.4" d="M135.686 87.2268C135.859 87.0704 135.972 85.5173 136.026 85.2476C136.31 83.8707 136.357 82.4555 136.166 81.0627C135.973 79.5893 135.327 78.2123 134.317 77.1217C133.308 76.0311 131.985 75.2807 130.531 74.9741C130.131 74.8478 129.709 74.8103 129.293 74.8643C128.878 74.9184 128.479 75.0626 128.125 75.2869C127.327 75.9124 127.241 77.0611 127.004 78.048C126.383 80.6043 124.388 82.6159 122.188 84.0504C119.987 85.4849 117.523 86.4718 115.269 87.8255C113.877 88.6755 112.55 89.6273 111.299 90.6729C110.702 91.1067 110.2 91.6571 109.822 92.2908C109.636 92.6079 109.542 92.9703 109.549 93.3377C109.557 93.7052 109.666 94.0633 109.865 94.3725C110.162 94.6968 110.514 94.9653 110.906 95.1653C113.02 96.4811 115.08 99.1668 114.039 101.68L115.538 105.121L135.686 87.2268Z" fill="black"/>
<path d="M115.538 105.11C110.42 108.055 104.709 112.52 99.8985 111.684C95.088 110.848 85.9685 102.548 89.5009 101.017C93.0333 99.4851 114.017 101.669 114.017 101.669L115.538 105.11Z" fill="#BA68C8"/>
<path opacity="0.4" d="M115.538 105.11C110.42 108.055 104.709 112.52 99.8985 111.684C95.088 110.848 85.9685 102.548 89.5009 101.017C93.0333 99.4851 114.017 101.669 114.017 101.669L115.538 105.11Z" fill="black"/>
<path d="M180.085 95.1114C183.159 96.0228 187.727 97.1068 191.173 97.8079C199.769 99.593 203.577 99.2856 205.82 96.2709C209.428 91.455 207.568 90.1985 202.854 90.3387C200.881 90.423 198.906 90.2306 196.987 89.767C197.937 89.4948 198.844 89.0918 199.683 88.5698C200.988 87.6314 200.843 86.4126 200.546 85.9003C200.314 85.5174 199.403 86.1645 197.601 86.3641C195.299 86.6175 193.918 86.0675 191.572 86.9519C190.698 87.2755 189.01 87.6584 186.028 86.9034C182.539 86.0135 170.292 79.72 170.292 79.72L166.074 91.0452C166.074 91.0452 175.48 93.7416 180.085 95.1114Z" fill="#FFA8A7"/>
<path d="M165.525 51.0564C169.527 50.8137 174.801 52.8523 176.106 57.6196C177.606 63.0881 173.178 76.5435 173.178 76.5435L165.525 51.0564Z" fill="#FFA8A7"/>
<path d="M167.252 51.0348C168.559 50.8887 169.883 51.0436 171.122 51.4876C172.36 51.9316 173.481 52.6529 174.398 53.5964C177.763 56.8645 176.619 61.9339 176.393 64.7652C176.166 67.5965 173.459 77.1097 173.459 77.1097L167.252 51.0348Z" fill="#E0E0E0"/>
<path d="M142.876 50.9001C140.557 51.6551 138.168 53.9795 138.648 62.3763C139.155 71.3016 139.322 86.3264 139.322 86.3264C139.209 89.0714 137.737 92.5606 136.41 97.6839C140.919 103.713 165.748 104.905 171.545 99.0591C171.545 99.0591 175.018 77.9296 174.409 65.2993C174.031 57.6251 172.791 51.9625 165.51 51.0565L152.762 50.2152C152.762 50.2152 145.222 50.1397 142.876 50.9001Z" fill="#F0F0F0"/>
<path d="M149.346 34.7534C149.346 34.7534 150.834 42.4815 151.465 43.7596C151.888 44.5493 152.599 45.1459 153.45 45.4261V40.0331L149.346 34.7534Z" fill="#263238"/>
<path d="M151.617 23.7682C151.045 23.6887 150.464 23.7412 149.916 23.9216C149.368 24.1021 148.869 24.4056 148.456 24.809C147.081 26.1626 147.728 30.4932 149.346 34.7536L152.426 35.1689L151.617 23.7682Z" fill="#263238"/>
<path d="M153.353 35.1688C152.728 35.5247 151.87 34.3167 151.12 33.5078C150.371 32.6988 147.885 31.5555 146.612 34.1495C145.339 36.7435 147.588 40.3622 149.535 41.0201C152.895 42.1419 153.445 39.9847 153.445 39.9847V52.1835C154.874 53.8392 160.526 59.6204 163.152 59.5341C165.778 59.4478 165.369 53.4886 164.457 52.0703L164.517 48.3599C164.517 48.3599 167.569 48.8992 169.068 48.6835C171.56 48.3492 173.161 46.4185 173.97 43.7382C175.265 39.4238 175.793 35.9616 174.93 27.4407C173.981 18.1055 163.147 17.7981 157.225 21.3683C151.304 24.9384 153.353 35.1688 153.353 35.1688Z" fill="#FFA8A7"/>
<path d="M153.337 36.2473C153.024 36.2473 151.876 34.2573 151.121 33.5508C150.08 32.5639 151.595 23.9244 151.617 23.7896C151.638 23.6548 151.45 23.1479 151.45 22.9052C151.454 22.4258 151.543 21.951 151.714 21.503C152.065 20.5861 152.66 19.7824 153.434 19.1786C154.773 18.2249 156.317 17.5987 157.943 17.3504C159.658 17.0306 161.39 16.8127 163.131 16.6979C165.311 16.4485 167.515 16.4939 169.683 16.8327C170.371 16.9529 171.042 17.1595 171.679 17.4475C172.3 17.7567 172.883 18.1386 173.415 18.5854C174.462 19.4418 175.199 20.6184 175.513 21.9344C175.863 23.2072 174.801 23.8112 173.695 24.1455C173.695 24.1455 172.536 25.1378 168.567 25.5423C164.598 25.9468 158.444 25.2511 157.603 25.1217C156.46 24.9437 156.19 26.0493 155.516 29.0801C154.917 31.7172 154.383 36.2473 153.337 36.2473Z" fill="#263238"/>
<path d="M164.533 48.3815C164.533 48.3815 159.005 47.1573 157.085 46.0895C155.958 45.4743 155.041 44.535 154.453 43.3931C154.726 44.534 155.224 45.6087 155.92 46.5533C157.301 48.3977 164.516 49.3954 164.516 49.3954L164.533 48.3815Z" fill="#F28F8F"/>
<path d="M163.478 33.9986C163.478 34.1473 163.449 34.2946 163.393 34.432C163.336 34.5695 163.253 34.6942 163.147 34.7991C163.042 34.904 162.917 34.9869 162.779 35.0429C162.641 35.099 162.494 35.1271 162.345 35.1257C162.046 35.1103 161.765 34.9777 161.563 34.7567C161.361 34.5356 161.255 34.2438 161.267 33.9447C161.27 33.7988 161.302 33.655 161.361 33.5216C161.42 33.3881 161.505 33.2677 161.611 33.167C161.717 33.0663 161.841 32.9875 161.977 32.9349C162.113 32.8824 162.259 32.8571 162.404 32.8607C162.55 32.8642 162.694 32.8965 162.827 32.9556C162.961 33.0147 163.081 33.0995 163.182 33.2051C163.283 33.3108 163.362 33.4353 163.414 33.5714C163.467 33.7075 163.492 33.8527 163.488 33.9986H163.478Z" fill="#263238"/>
<path d="M161.412 30.3152L159.007 31.5825C158.851 31.2557 158.824 30.8817 158.934 30.5363C159.043 30.1909 159.279 29.8999 159.594 29.722C159.752 29.6374 159.925 29.5855 160.103 29.5697C160.281 29.5538 160.46 29.5742 160.63 29.6297C160.8 29.6851 160.957 29.7745 161.091 29.8923C161.226 30.0101 161.335 30.154 161.412 30.3152Z" fill="#263238"/>
<path d="M164.161 41.6943L166.68 42.6974C166.622 42.867 166.53 43.0231 166.409 43.1561C166.289 43.2892 166.143 43.3965 165.981 43.4716C165.818 43.5467 165.641 43.588 165.462 43.5931C165.283 43.5981 165.105 43.5668 164.938 43.501C164.6 43.3586 164.33 43.0909 164.186 42.7541C164.041 42.4173 164.032 42.0375 164.161 41.6943Z" fill="#F28F8F"/>
<path d="M174.116 31.5933L171.959 29.8784C172.064 29.7341 172.197 29.6127 172.351 29.5214C172.504 29.4301 172.674 29.3708 172.851 29.3471C173.028 29.3235 173.208 29.3358 173.38 29.3836C173.552 29.4313 173.713 29.5134 173.852 29.6249C174.139 29.8571 174.327 30.1905 174.376 30.5565C174.425 30.9226 174.332 31.2936 174.116 31.5933Z" fill="#263238"/>
<path d="M172.729 33.8582C172.716 34.0758 172.638 34.2845 172.506 34.4583C172.375 34.6321 172.195 34.7633 171.989 34.8357C171.784 34.908 171.561 34.9183 171.35 34.8651C171.139 34.812 170.947 34.6978 170.8 34.5369C170.653 34.3759 170.557 34.1752 170.523 33.9599C170.489 33.7445 170.52 33.5239 170.61 33.3257C170.701 33.1274 170.848 32.9602 171.033 32.8449C171.218 32.7296 171.433 32.6713 171.651 32.6772C171.95 32.6912 172.232 32.8233 172.434 33.0447C172.636 33.2661 172.743 33.5587 172.729 33.8582Z" fill="#263238"/>
<path d="M167.252 32.8606V39.6072L171.259 38.8036L167.252 32.8606Z" fill="#F28F8F"/>
<path d="M165.126 51.0295C165.126 51.0295 172.466 60.5103 164.641 78.3663C156.816 96.2224 132.38 102.095 114.039 101.669L115.538 105.11C115.538 105.11 144.542 106.269 159.221 92.5929C171.625 81.0574 176.182 63.5897 169.295 51.4663C169.301 51.4663 167.758 50.5387 165.126 51.0295Z" fill="#BA68C8"/>
<path opacity="0.3" d="M165.126 51.0295C165.126 51.0295 172.466 60.5103 164.641 78.3663C156.816 96.2224 132.38 102.095 114.039 101.669L115.538 105.11C115.538 105.11 144.542 106.269 159.221 92.5929C171.625 81.0574 176.182 63.5897 169.295 51.4663C169.301 51.4663 167.758 50.5387 165.126 51.0295Z" fill="black"/>
<path d="M130.956 103.837C129.601 102.401 128.452 100.784 127.542 99.0322C128.368 99.5675 129.265 99.985 130.206 100.273C131.765 100.645 132.606 99.7332 132.784 99.1939C132.924 98.7679 131.84 98.509 130.508 97.2741C128.804 95.6993 128.615 94.4374 126.809 92.6954C126.135 92.0429 125.229 91.5629 125.018 90.6515C123.81 85.4365 123.314 79.0459 122.759 73.3941L138.894 67.9149C138.894 67.9149 142.432 66.8902 145.765 63.1583C149.481 59.0003 150.77 53.9471 147.151 50.3446C145.49 50.0112 143.77 50.1247 142.168 50.6736C138.792 51.9194 136.111 53.1436 130.778 55.6513C126.129 57.8408 113.369 63.3524 110.986 66.8147C110.01 68.2438 110.419 71.609 112.14 78.9003C112.922 82.4866 113.914 86.5043 114.95 90.8295C115.768 94.2276 116.794 97.5722 118.024 100.844C121.373 108.934 124.662 110.228 128.427 109.964C134.429 109.532 134.159 107.3 130.956 103.837Z" fill="#FFA8A7"/>
<path d="M149.347 50.2151C149.347 50.2151 144.138 49.3846 140.325 51.0348C134.269 53.6612 121.223 59.7067 121.223 59.7067C121.223 59.7067 120.479 62.7806 121.967 67.1435C123.456 71.5064 125.478 73.1836 125.478 73.1836C125.478 73.1836 139.5 68.6212 142.515 67.1435C145.529 65.6659 152.103 58.8977 149.347 50.2151Z" fill="#E0E0E0"/>
<path d="M156.002 28.6972C156.002 28.6972 164.091 33.7935 172.936 31.1779C182.276 28.4059 175.336 23.2395 175.336 23.2395L156.002 28.6972Z" fill="#37474F"/>
<path d="M178.223 16.6601C175.397 13.7047 165.226 11.1323 156.262 14.0229C147.299 16.9136 145.477 20.6832 145.477 20.6832C149.335 22.6311 153.699 23.3465 157.977 22.7325C165.22 21.7133 178.223 16.6601 178.223 16.6601Z" fill="#BA68C8"/>
<path opacity="0.4" d="M178.223 16.6601C175.397 13.7047 165.226 11.1323 156.262 14.0229C147.299 16.9136 145.477 20.6832 145.477 20.6832C149.335 22.6311 153.699 23.3465 157.977 22.7325C165.22 21.7133 178.223 16.6601 178.223 16.6601Z" fill="white"/>
<path d="M146.863 23.4552C146.263 22.6069 145.795 21.6722 145.477 20.6833C145.477 20.6833 146.641 21.6324 152.746 20.144C158.544 18.7472 164.373 14.8157 170.867 13.9798C177.36 13.1439 178.223 16.6439 178.223 16.6439C178.223 16.6439 178.422 19.1948 175.844 21.8481C175.844 21.8481 173.288 26.0331 165.662 26.8744C158.037 27.7157 146.863 23.4552 146.863 23.4552Z" fill="#BA68C8"/>
<path d="M168.092 20.2412C168.243 22.0208 169.565 23.1641 171.042 22.7974C172.52 22.4307 173.593 20.6942 173.442 18.9145C173.291 17.1348 171.97 15.9915 170.492 16.3582C169.014 16.725 167.941 18.4507 168.092 20.2412Z" fill="#F5F5F5"/>
<path d="M146.861 23.4552L147.05 24.674C147.163 25.4236 147.282 26.0546 147.697 26.4105C153.353 28.7708 159.553 29.5175 165.607 28.5677C171 27.7048 173.556 26.4105 174.64 25.4398C175.724 24.4691 175.865 23.7896 175.859 23.0399V21.8589C175.859 21.8589 173.923 24.0592 165.073 25.5584C156.223 27.0577 146.861 23.4552 146.861 23.4552Z" fill="#455A64"/>
<path d="M150.014 26.2381C150.014 26.2381 149.162 26.2381 147.674 24.6202C147.123 24.0006 146.722 23.2624 146.503 22.463C146.218 21.5283 145.724 20.6709 145.057 19.956C144.391 19.2411 143.571 18.6876 142.658 18.3374C139.516 17.1083 136.601 15.366 134.029 13.1817C130.729 10.4421 132.476 16.6656 139.881 20.802C139.881 20.802 139.342 20.9152 137.567 20.446C136.537 20.1764 135.469 19.6587 134.531 19.3674C132.617 18.7688 135.496 23.2234 141.315 24.4584C140.225 24.6998 139.109 24.8049 137.993 24.7712C136.634 24.6417 137.831 26.4646 141.164 26.9877C142.987 27.2394 144.834 27.272 146.665 27.0847C147.581 26.9956 148.505 27.1249 149.362 27.4623L150.16 27.7804L150.014 26.2381Z" fill="#BA68C8"/>
<path opacity="0.6" d="M150.014 26.2381C150.014 26.2381 149.162 26.2381 147.674 24.6202C147.123 24.0006 146.722 23.2624 146.503 22.463C146.218 21.5283 145.724 20.6709 145.057 19.956C144.391 19.2411 143.571 18.6876 142.658 18.3374C139.516 17.1083 136.601 15.366 134.029 13.1817C130.729 10.4421 132.476 16.6656 139.881 20.802C139.881 20.802 139.342 20.9152 137.567 20.446C136.537 20.1764 135.469 19.6587 134.531 19.3674C132.617 18.7688 135.496 23.2234 141.315 24.4584C140.225 24.6998 139.109 24.8049 137.993 24.7712C136.634 24.6417 137.831 26.4646 141.164 26.9877C142.987 27.2394 144.834 27.272 146.665 27.0847C147.581 26.9956 148.505 27.1249 149.362 27.4623L150.16 27.7804L150.014 26.2381Z" fill="white"/>
<path opacity="0.1" d="M139.899 20.8073C135.347 17.8412 132.456 12.8257 133.044 12.5561C131.27 11.979 133.422 17.1886 139.899 20.8073Z" fill="black"/>
<path opacity="0.1" d="M134.548 19.3729C132.634 18.7743 135.513 23.2289 141.332 24.4639C136.775 22.9916 134.203 19.6803 134.548 19.3729Z" fill="black"/>
<path opacity="0.1" d="M145.802 27.1603C144.114 27.014 142.437 26.7618 140.781 26.4052C138.899 25.8983 137.642 25.1163 137.626 24.7874H137.583L137.524 24.8305C137.509 24.8403 137.497 24.8541 137.489 24.8703C137.482 24.8864 137.479 24.9044 137.481 24.9222C137.479 24.9401 137.479 24.9582 137.481 24.9761C137.478 24.994 137.478 25.0122 137.481 25.03C137.478 25.0533 137.478 25.0769 137.481 25.1001V25.1649C137.493 25.191 137.504 25.2181 137.513 25.2458L137.551 25.3105L137.615 25.4075L137.675 25.4776L137.783 25.5855L137.842 25.6502C137.91 25.7135 137.982 25.7729 138.058 25.8282H138.09C138.16 25.8821 138.241 25.9361 138.327 25.99L138.43 26.0547L138.645 26.1733L138.78 26.2434L139.012 26.3513L139.174 26.4214L139.427 26.5239L139.605 26.5832L139.897 26.6803L140.085 26.7342L140.436 26.8259L140.608 26.8636C140.786 26.9068 140.975 26.9391 141.175 26.9715C142.706 27.1983 144.257 27.2616 145.802 27.1603Z" fill="black"/>
<path d="M150.512 24.7874C151.07 25.1506 151.535 25.6402 151.868 26.2164C152.202 26.7926 152.395 27.4393 152.432 28.1041C152.432 29.3283 151.575 29.8244 150.512 29.215C149.955 28.8504 149.491 28.3597 149.158 27.7825C148.826 27.2054 148.634 26.5581 148.598 25.893C148.598 24.6688 149.455 24.178 150.512 24.7874Z" fill="#BA68C8"/>
<path opacity="0.3" d="M150.512 24.7874C151.07 25.1506 151.535 25.6402 151.868 26.2164C152.202 26.7926 152.395 27.4393 152.432 28.1041C152.432 29.3283 151.575 29.8244 150.512 29.215C149.955 28.8504 149.491 28.3597 149.158 27.7825C148.826 27.2054 148.634 26.5581 148.598 25.893C148.598 24.6688 149.455 24.178 150.512 24.7874Z" fill="black"/>
<path d="M150.511 26.0277C150.756 26.1877 150.959 26.4027 151.105 26.6556C151.251 26.9085 151.336 27.1922 151.353 27.4838C151.353 28.0231 150.975 28.2388 150.511 27.9692C150.269 27.8129 150.067 27.6023 149.921 27.3542C149.775 27.1061 149.689 26.8273 149.67 26.5401C149.67 26.0008 150.047 25.7581 150.511 26.0277Z" fill="#263238"/>
</svg>
