<svg width="34" height="32" viewBox="0 0 34 32" fill="none" xmlns="http://www.w3.org/2000/svg">
<path d="M33.6131 12.4564C33.5754 12.2893 33.5017 12.1321 33.397 11.9955C33.2923 11.8589 33.159 11.746 33.0062 11.6645L29.3953 9.69217C29.2032 9.30369 28.9907 8.93015 28.7581 8.57155L28.8188 4.50745C28.8202 4.33699 28.7859 4.16807 28.718 4.01125C28.6501 3.85443 28.5502 3.71308 28.4243 3.59601C26.6264 1.99064 24.5002 0.783173 22.1887 0.054865C22.0227 0.00389158 21.8477 -0.0118111 21.6751 0.0087942C21.5024 0.0293995 21.3362 0.0858438 21.1874 0.174398L17.6524 2.26622C17.2124 2.25127 16.7876 2.25127 16.3476 2.26622L12.8126 0.174398C12.6638 0.0858438 12.4976 0.0293995 12.3249 0.0087942C12.1523 -0.0118111 11.9772 0.00389158 11.8113 0.054865C9.49675 0.783726 7.36962 1.9968 5.57566 3.61096C5.44874 3.72399 5.34786 3.86249 5.27982 4.01712C5.21178 4.17176 5.17815 4.33895 5.18119 4.50745L5.25705 8.57155C5.0143 8.93015 4.8019 9.30369 4.5895 9.69217L0.993787 11.6645C0.839048 11.7435 0.704232 11.8556 0.599222 11.9927C0.494213 12.1297 0.421672 12.2881 0.386917 12.4564C-0.128972 14.7898 -0.128972 17.2052 0.386917 19.5387C0.424602 19.7057 0.498287 19.8629 0.602987 19.9995C0.707686 20.1362 0.840958 20.2491 0.993787 20.3306L4.60467 22.3028C4.79824 22.6894 5.01612 23.0637 5.25705 23.4235L5.18119 27.4876C5.17981 27.658 5.21412 27.8269 5.28199 27.9838C5.34986 28.1406 5.44983 28.2819 5.57566 28.399C7.37605 30.001 9.50151 31.208 11.8113 31.9401C11.9772 31.9911 12.1523 32.0068 12.3249 31.9862C12.4976 31.9656 12.6638 31.9092 12.8126 31.8206L16.3476 29.7288H17.6524L21.2026 31.8206C21.3871 31.9401 21.6038 32.0026 21.8246 31.9999C21.948 31.9947 22.0703 31.9746 22.1887 31.9401C24.5033 31.2113 26.6304 29.9982 28.4243 28.3841C28.5513 28.271 28.6521 28.1325 28.7202 27.9779C28.7882 27.8233 28.8218 27.6561 28.8188 27.4876L28.7581 23.4235C28.9857 23.0649 29.1981 22.6913 29.4105 22.3028L33.0214 20.3306C33.172 20.2482 33.3028 20.1348 33.4049 19.9982C33.507 19.8615 33.578 19.7048 33.6131 19.5387C34.129 17.2052 34.129 14.7898 33.6131 12.4564ZM23.6756 15.9975C23.6756 17.2978 23.2841 18.5688 22.5505 19.65C21.817 20.7311 20.7744 21.5738 19.5546 22.0714C18.3348 22.5689 16.9926 22.6991 15.6977 22.4455C14.4027 22.1918 13.2132 21.5657 12.2797 20.6462C11.3461 19.7268 10.7103 18.5554 10.4527 17.2801C10.1951 16.0048 10.3273 14.6829 10.8326 13.4816C11.3378 12.2803 12.1935 11.2536 13.2912 10.5312C14.389 9.8088 15.6797 9.42322 17 9.42322C18.7705 9.42322 20.4684 10.1159 21.7203 11.3488C22.9723 12.5817 23.6756 14.2539 23.6756 15.9975Z" fill="#292930"/>
</svg>
