<svg width="32" height="28" viewBox="0 0 32 28" fill="none" xmlns="http://www.w3.org/2000/svg">
<path d="M30.8148 25.5652H29.6296V1.21739C29.6296 0.894519 29.5048 0.584871 29.2825 0.356566C29.0602 0.128261 28.7588 0 28.4444 0H20.1481C19.8338 0 19.5324 0.128261 19.3101 0.356566C19.0878 0.584871 18.963 0.894519 18.963 1.21739V7.30435H11.8519C11.5375 7.30435 11.2361 7.43261 11.0138 7.66091C10.7915 7.88922 10.6667 8.19887 10.6667 8.52174V14.6087H3.55556C3.24123 14.6087 2.93977 14.737 2.7175 14.9653C2.49524 15.1936 2.37037 15.5032 2.37037 15.8261V25.5652H1.18519C0.870854 25.5652 0.569398 25.6935 0.347133 25.9218C0.124867 26.1501 0 26.4597 0 26.7826C0 27.1055 0.124867 27.4151 0.347133 27.6434C0.569398 27.8717 0.870854 28 1.18519 28H30.8148C31.1291 28 31.4306 27.8717 31.6529 27.6434C31.8751 27.4151 32 27.1055 32 26.7826C32 26.4597 31.8751 26.1501 31.6529 25.9218C31.4306 25.6935 31.1291 25.5652 30.8148 25.5652ZM13.037 9.73913H18.963V25.5652H13.037V9.73913ZM4.74074 17.0435H10.6667V25.5652H4.74074V17.0435Z" fill="#292930"/>
</svg>
