<svg width="34" height="34" viewBox="0 0 34 34" fill="none" xmlns="http://www.w3.org/2000/svg">
<path d="M12.35 15.0243C12.5482 14.909 12.7125 14.7442 12.8265 14.5464C12.9406 14.3486 13.0004 14.1246 13 13.8968V2.29976C13.0018 2.09219 12.953 1.88725 12.8577 1.7024C12.7624 1.51754 12.6235 1.35823 12.4528 1.23803C12.2821 1.11783 12.0846 1.04029 11.8771 1.01201C11.6696 0.983735 11.4583 1.00556 11.2612 1.07562C7.96998 2.23773 5.12151 4.37962 3.10566 7.20812C1.08981 10.0366 0.00509886 13.4135 0 16.8766C0.00176034 17.9028 0.0941967 18.9268 0.276249 19.9369C0.315308 20.1387 0.4019 20.3285 0.528972 20.4909C0.656044 20.6532 0.820003 20.7835 1.0075 20.8711C1.18052 20.952 1.36875 20.9959 1.55999 21C1.78861 20.9986 2.01281 20.9375 2.20999 20.8228L12.35 15.0243ZM10.4 4.2487V13.1559L2.61624 17.6175C2.59999 17.3598 2.59999 17.1182 2.59999 16.8766C2.60498 14.2648 3.33547 11.7047 4.71136 9.47721C6.08724 7.2497 8.05538 5.44074 10.4 4.2487Z" fill="#292930"/>
<path d="M31.824 8.55546C31.8076 8.53723 31.7966 8.51458 31.7922 8.49015L31.7287 8.40851C30.2751 5.85004 28.195 3.72755 25.6954 2.25231C23.1959 0.777068 20.364 0.000534063 17.4818 0C17.1448 0 16.8216 0.137615 16.5833 0.38257C16.3451 0.627526 16.2112 0.959757 16.2112 1.30618V16.2292L3.64786 23.6908C3.50143 23.774 3.37266 23.8864 3.26912 24.0215C3.16559 24.1566 3.08938 24.3116 3.04498 24.4774C3.00059 24.6433 2.9889 24.8165 3.01061 24.9871C3.03231 25.1576 3.08698 25.3219 3.17138 25.4704V25.5031L3.21903 25.5847C5.05119 28.8088 7.86604 31.3222 11.2279 32.7359C14.5898 34.1496 18.3112 34.3848 21.8162 33.405C25.3212 32.4252 28.4144 30.2851 30.6168 27.316C32.8193 24.3468 34.0084 20.7142 34 16.9803C34.0038 14.0247 33.2535 11.1198 31.824 8.55546Z" fill="#292930"/>
</svg>
