<svg width="296" height="220" viewBox="0 0 296 220" fill="none" xmlns="http://www.w3.org/2000/svg">
<path d="M295.023 193.181H0V193.329H295.023V193.181Z" fill="#EBEBEB"/>
<path d="M265.462 202.675H245.92V202.823H265.462V202.675Z" fill="#EBEBEB"/>
<path d="M195.436 204.28H190.309V204.428H195.436V204.28Z" fill="#EBEBEB"/>
<path d="M245.329 197.2H234.006V197.347H245.329V197.2Z" fill="#EBEBEB"/>
<path d="M56.4373 198.191H30.9531V198.338H56.4373V198.191Z" fill="#EBEBEB"/>
<path d="M65.4303 198.191H61.6953V198.338H65.4303V198.191Z" fill="#EBEBEB"/>
<path d="M132.848 200.681H77.5723V200.828H132.848V200.681Z" fill="#EBEBEB"/>
<path d="M139.84 166.865H25.9082C25.0157 166.864 24.1602 166.508 23.5296 165.876C22.8991 165.245 22.5449 164.389 22.5449 163.496V3.33967C22.5527 2.45225 22.9103 1.60373 23.54 0.978427C24.1697 0.353118 25.0207 0.00152019 25.9082 0H139.84C140.734 0 141.591 0.354965 142.223 0.986807C142.855 1.61865 143.21 2.47561 143.21 3.36917V163.496C143.21 164.39 142.855 165.247 142.223 165.878C141.591 166.51 140.734 166.865 139.84 166.865ZM25.9082 0.11801C25.0548 0.119573 24.2369 0.459685 23.6339 1.06369C23.031 1.6677 22.6924 2.48625 22.6924 3.33967V163.496C22.6924 164.35 23.031 165.168 23.6339 165.772C24.2369 166.376 25.0548 166.716 25.9082 166.718H139.84C140.694 166.716 141.513 166.376 142.117 165.772C142.721 165.169 143.06 164.35 143.062 163.496V3.33967C143.06 2.48571 142.721 1.66717 142.117 1.06333C141.513 0.459493 140.694 0.11957 139.84 0.11801H25.9082Z" fill="#EBEBEB"/>
<path d="M267.473 166.865H153.535C152.642 166.864 151.786 166.508 151.155 165.877C150.523 165.245 150.168 164.389 150.166 163.496V3.33967C150.175 2.45171 150.534 1.6032 151.165 0.978057C151.796 0.352912 152.647 0.00150361 153.535 0H267.473C268.36 0.0030709 269.209 0.355355 269.838 0.980497C270.466 1.60564 270.823 2.45327 270.831 3.33967V163.496C270.831 164.388 270.477 165.243 269.848 165.874C269.219 166.506 268.365 166.862 267.473 166.865ZM153.535 0.11801C152.681 0.11957 151.863 0.459493 151.259 1.06333C150.655 1.66717 150.315 2.48571 150.314 3.33967V163.496C150.315 164.35 150.655 165.169 151.259 165.772C151.863 166.376 152.681 166.716 153.535 166.718H267.473C268.327 166.716 269.146 166.376 269.75 165.772C270.353 165.169 270.693 164.35 270.695 163.496V3.33967C270.693 2.48571 270.353 1.66717 269.75 1.06333C269.146 0.459493 268.327 0.11957 267.473 0.11801H153.535Z" fill="#EBEBEB"/>
<path d="M187.789 134.188H258.677C258.678 135.442 258.196 136.648 257.329 137.553C256.463 138.459 255.28 138.996 254.028 139.05C246.41 139.393 234.692 140.596 230.975 144.809C224.047 152.669 224.72 180.271 233.016 186.661C235.618 188.667 243.2 192.65 243.2 192.65H203.26C203.26 192.65 210.341 188.585 212.813 186.661C221.074 180.218 221.304 152.633 214.341 144.809C210.771 140.797 199.791 139.499 192.415 139.092C191.163 139.021 189.986 138.473 189.126 137.561C188.265 136.649 187.787 135.442 187.789 134.188Z" fill="#F5F5F5"/>
<path d="M249.897 139.304C242.692 139.894 234.066 141.304 230.974 144.809C229.964 146.02 229.166 147.392 228.614 148.869H216.724C216.169 147.394 215.371 146.022 214.364 144.809C211.26 141.322 202.563 139.888 195.482 139.304H249.897Z" fill="#E6E6E6"/>
<path d="M217.988 134.224L218.95 123.208H204.977L204.01 134.224H217.988Z" fill="#EBEBEB"/>
<path d="M217.986 134.224L218.948 123.208H219.697L218.736 134.224H217.986Z" fill="#E0E0E0"/>
<path d="M216.66 133.103L217.427 124.329H206.298L205.531 133.103H216.66Z" fill="#F0F0F0"/>
<path d="M215.805 132.383L216.448 125.054H207.155L206.512 132.383H215.805Z" fill="#FAFAFA"/>
<path d="M222.519 134.188H236.556L234.998 116.387H220.961L222.519 134.188Z" fill="#E6E6E6"/>
<path d="M222.519 134.188H221.847L220.289 116.387H220.962L222.519 134.188Z" fill="#E0E0E0"/>
<path d="M223.786 132.377H234.961L233.722 118.204H222.547L223.786 132.377Z" fill="#F0F0F0"/>
<path d="M224.607 131.209H233.941L232.903 119.372H223.568L224.607 131.209Z" fill="#FAFAFA"/>
<path d="M229.322 124.695C229.172 124.846 228.993 124.966 228.796 125.048C228.599 125.13 228.388 125.173 228.174 125.173C227.961 125.173 227.75 125.13 227.553 125.048C227.356 124.966 227.177 124.846 227.027 124.695C226.875 124.544 226.755 124.366 226.673 124.169C226.591 123.972 226.549 123.76 226.549 123.547C226.549 123.334 226.591 123.122 226.673 122.925C226.755 122.728 226.875 122.55 227.027 122.399C227.332 122.096 227.744 121.926 228.174 121.926C228.604 121.926 229.017 122.096 229.322 122.399C229.625 122.704 229.795 123.117 229.795 123.547C229.795 123.977 229.625 124.39 229.322 124.695Z" fill="#EBEBEB"/>
<path d="M228.637 126.689C228.746 126.577 228.877 126.489 229.022 126.428C229.166 126.368 229.321 126.337 229.478 126.337C229.634 126.337 229.789 126.368 229.933 126.428C230.078 126.489 230.209 126.577 230.318 126.689C230.489 126.854 230.607 127.066 230.655 127.299C230.703 127.531 230.68 127.773 230.589 127.992C230.498 128.211 230.343 128.398 230.144 128.527C229.945 128.657 229.712 128.724 229.475 128.719C229.238 128.723 229.005 128.655 228.807 128.525C228.609 128.395 228.455 128.208 228.365 127.989C228.274 127.77 228.252 127.529 228.3 127.297C228.349 127.065 228.466 126.853 228.637 126.689Z" fill="#F0F0F0"/>
<path d="M109.673 189.01H123.321L116.134 130.471C115.96 129.248 115.359 128.126 114.436 127.304C113.514 126.482 112.33 126.013 111.095 125.981H51.4648L60.1857 189.01H109.673Z" fill="#F5F5F5"/>
<path d="M66.3096 189.01H52.6382L45.4338 130.471C45.3454 129.908 45.3818 129.333 45.5403 128.786C45.6988 128.239 45.9755 127.733 46.3509 127.305C46.7264 126.877 47.1913 126.536 47.7129 126.307C48.2345 126.079 48.8 125.967 49.3694 125.981H54.0897C55.3248 126.013 56.5085 126.482 57.431 127.304C58.3534 128.126 58.9549 129.248 59.1287 130.471L66.3096 189.01Z" fill="#F0F0F0"/>
<path d="M71.3478 188.939L68.8696 160.617C68.8147 160.002 68.5503 159.424 68.1207 158.981C67.6912 158.537 67.1224 158.254 66.5094 158.18L65.4886 158.044C64.6689 157.941 63.9095 157.559 63.3371 156.963C62.7648 156.367 62.4141 155.593 62.3437 154.769L61.8894 149.607C61.846 149.107 61.907 148.603 62.0685 148.128C62.2299 147.653 62.4883 147.217 62.8273 146.847C63.1662 146.477 63.5783 146.181 64.0374 145.979C64.4966 145.776 64.9928 145.671 65.4945 145.671H42.6597C42.158 145.671 41.6618 145.776 41.2026 145.979C40.7435 146.181 40.3314 146.477 39.9924 146.847C39.6535 147.217 39.3951 147.653 39.2337 148.128C39.0722 148.603 39.0112 149.107 39.0545 149.607L39.5089 154.769C39.5793 155.593 39.9299 156.367 40.5023 156.963C41.0746 157.559 41.8341 157.941 42.6538 158.044L43.6746 158.18C44.288 158.253 44.8574 158.536 45.2872 158.979C45.7169 159.423 45.9809 160.001 46.0348 160.617L48.513 188.939C48.6014 189.934 49.0592 190.861 49.7963 191.536C50.5334 192.21 51.4964 192.585 52.4958 192.586H75.3424C74.3402 192.591 73.3728 192.218 72.6327 191.543C71.8925 190.867 71.4338 189.938 71.3478 188.939Z" fill="#E6E6E6"/>
<path d="M134.224 153.536C134.413 151.393 135.397 149.398 136.982 147.943C138.568 146.489 140.64 145.68 142.792 145.677H122.907C120.755 145.679 118.681 146.487 117.094 147.941C115.507 149.396 114.523 151.392 114.334 153.536L112.369 175.958H132.26L134.224 153.536Z" fill="#E6E6E6"/>
<path d="M151.643 145.677H142.792C140.639 145.679 138.565 146.487 136.979 147.941C135.392 149.396 134.407 151.392 134.218 153.536L132.254 175.958H84.8846L82.9197 153.536C82.731 151.392 81.7463 149.396 80.1596 147.941C78.5728 146.487 76.499 145.679 74.3464 145.677H65.4957C64.9939 145.677 64.4977 145.782 64.0386 145.985C63.5794 146.187 63.1673 146.482 62.8284 146.852C62.4894 147.222 62.2311 147.659 62.0696 148.134C61.9082 148.609 61.8472 149.112 61.8905 149.612L62.3448 154.775C62.4152 155.599 62.7659 156.373 63.3382 156.969C63.9106 157.565 64.67 157.946 65.4898 158.05L66.5105 158.186C67.1235 158.26 67.6923 158.543 68.1219 158.987C68.5515 159.43 68.8158 160.008 68.8707 160.623L71.3489 188.945C71.4347 189.94 71.8908 190.867 72.6273 191.543C73.3637 192.218 74.3267 192.592 75.3258 192.591H141.818C142.818 192.591 143.781 192.216 144.518 191.541C145.255 190.867 145.713 189.94 145.801 188.945L148.273 160.623C148.328 160.008 148.593 159.43 149.022 158.987C149.452 158.543 150.021 158.26 150.634 158.186L151.654 158.056C152.474 157.95 153.233 157.567 153.805 156.97C154.377 156.373 154.728 155.599 154.799 154.775L155.254 149.612C155.297 149.112 155.236 148.608 155.074 148.133C154.912 147.657 154.653 147.22 154.314 146.85C153.974 146.48 153.561 146.185 153.101 145.983C152.642 145.781 152.145 145.677 151.643 145.677Z" fill="#F0F0F0"/>
<path d="M231.687 45.0148C231.687 45.0148 232.383 40.4596 229.055 37.533C225.728 34.6064 226.023 32.8716 226.973 32.6474C227.923 32.4232 228.802 35.3439 230.259 36.1464C230.259 36.1464 230.306 31.9807 228.825 30.4465C227.344 28.9124 226.56 24.9591 227.97 24.8883C229.38 24.8175 229.533 27.2485 229.822 28.9478C230.112 30.6472 231.687 33.0782 231.687 33.0782C231.687 33.0782 231.994 29.3491 232.956 27.8149C233.917 26.2808 231.357 22.77 232.366 21.2359C233.375 19.7018 235.109 22.6284 234.962 25.915C234.814 29.2015 232.602 32.7123 233.133 36.1464C233.133 36.1464 234.1 33.7331 234.974 33.5148C235.847 33.2965 236.714 31.6974 237.298 31.1074C237.883 30.5174 238.614 32.5648 237.298 34.4648C235.983 36.3647 232.625 41.445 233.133 45.5577L231.687 45.0148Z" fill="#E6E6E6"/>
<path d="M229.706 42.9436L228.614 49.7763C228.535 50.2723 228.564 50.7795 228.699 51.263C228.835 51.7466 229.074 52.1949 229.4 52.5769C229.726 52.959 230.131 53.2657 230.587 53.476C231.044 53.6862 231.54 53.7949 232.042 53.7946H233.222C233.725 53.7948 234.221 53.686 234.677 53.4758C235.134 53.2657 235.539 52.959 235.866 52.5771C236.192 52.1952 236.432 51.747 236.568 51.2635C236.705 50.78 236.735 50.2726 236.656 49.7763L235.565 42.9436H229.706Z" fill="#E6E6E6"/>
<path d="M246.173 51.2751H169.207V55.2285H246.173V51.2751Z" fill="#E0E0E0"/>
<path d="M176.141 36.6951H172.748V51.2692H176.141V36.6951Z" fill="#EBEBEB"/>
<path d="M192.539 36.6951H189.146V51.2692H192.539V36.6951Z" fill="#EBEBEB"/>
<path d="M211.15 36.3241L207.807 36.9004L210.282 51.2627L213.626 50.6864L211.15 36.3241Z" fill="#EBEBEB"/>
<path d="M180.342 38.6187H176.949V51.2752H180.342V38.6187Z" fill="#EBEBEB"/>
<path d="M188.137 38.6187H184.744V51.2752H188.137V38.6187Z" fill="#EBEBEB"/>
<path d="M207.809 38.6187H204.416V51.2752H207.809V38.6187Z" fill="#EBEBEB"/>
<path d="M196.996 38.1702L193.684 38.9062L196.429 51.2613L199.741 50.5252L196.996 38.1702Z" fill="#EBEBEB"/>
<path d="M183.27 35.9751H181.576V51.275H183.27V35.9751Z" fill="#EBEBEB"/>
<path d="M203.436 35.9751H201.742V51.275H203.436V35.9751Z" fill="#EBEBEB"/>
<path d="M169.202 84.7485L246.168 84.7485V80.7952L169.202 80.7952V84.7485Z" fill="#E0E0E0"/>
<path d="M239.234 80.7952H242.627V66.221H239.234V80.7952Z" fill="#EBEBEB"/>
<path d="M222.838 80.7952H226.23V66.221H222.838V80.7952Z" fill="#EBEBEB"/>
<path d="M201.758 80.2103L205.102 80.7866L207.577 66.4243L204.234 65.848L201.758 80.2103Z" fill="#EBEBEB"/>
<path d="M235.039 80.7952H238.432V68.1387H235.039V80.7952Z" fill="#EBEBEB"/>
<path d="M227.238 80.7952H230.631V68.1387H227.238V80.7952Z" fill="#EBEBEB"/>
<path d="M207.566 80.7952H210.959V68.1387H207.566V80.7952Z" fill="#EBEBEB"/>
<path d="M215.645 80.0486L218.957 80.7847L221.703 68.4296L218.391 67.6935L215.645 80.0486Z" fill="#EBEBEB"/>
<path d="M232.101 80.7952H233.795V65.4953H232.101V80.7952Z" fill="#EBEBEB"/>
<path d="M211.934 80.7952H213.627V65.4953H211.934V80.7952Z" fill="#EBEBEB"/>
<path d="M176.596 80.6594H193.117V69.2538H176.596V80.6594Z" fill="#EBEBEB"/>
<path d="M137.05 27.6731H43.0439C42.353 27.6731 41.793 28.2331 41.793 28.924V30.2634C41.793 30.9543 42.353 31.5143 43.0439 31.5143H137.05C137.741 31.5143 138.301 30.9543 138.301 30.2634V28.924C138.301 28.2331 137.741 27.6731 137.05 27.6731Z" fill="#E0E0E0"/>
<path d="M132.571 30.7297H47.5273V106.197H132.571V30.7297Z" fill="#E6E6E6"/>
<path d="M130.335 32.7949H49.6582V104.161H130.335V32.7949Z" fill="#F0F0F0"/>
<path d="M68.5928 32.7949L49.6582 104.008V70.5461L59.6536 32.7949H68.5928Z" fill="white"/>
<path d="M75.2968 32.7949L56.197 104.167H53.1523L72.2522 32.7949H75.2968Z" fill="white"/>
<path d="M130.335 77.833V89.2327L126.47 104.167H123.42L130.335 77.833Z" fill="white"/>
<path d="M77.7927 31.5144H76.4355V105.76H77.7927V31.5144Z" fill="#E6E6E6"/>
<path d="M104.131 31.5144H102.773V105.76H104.131V31.5144Z" fill="#E6E6E6"/>
<path d="M118.711 28.9124C118.711 28.9124 120.67 54.4437 131.922 67.4542C131.922 67.4542 123.726 100.314 123.732 111.773L138.961 108.958L133.474 67.6548L136.1 28.9124H118.711Z" fill="#E0E0E0"/>
<path d="M61.3656 28.9124C61.3656 28.9124 59.4067 54.4437 48.1545 67.4542C48.1545 67.4542 56.3502 100.314 56.3443 111.773L41.1152 108.958L46.6027 67.6548L44.0006 28.9124H61.3656Z" fill="#E0E0E0"/>
<path d="M147.512 219.828C210.695 219.828 261.916 216.837 261.916 213.149C261.916 209.46 210.695 206.469 147.512 206.469C84.3279 206.469 33.1074 209.46 33.1074 213.149C33.1074 216.837 84.3279 219.828 147.512 219.828Z" fill="#F5F5F5"/>
<path d="M227.209 196.208C227.209 196.02 226.572 177.368 223.551 174.436C220.642 171.603 217.285 174.329 217.143 174.436L216.766 173.981C216.807 173.952 220.672 170.795 223.964 173.981C227.156 177.085 227.776 195.382 227.8 196.155L227.209 196.208Z" fill="#7E57C2"/>
<path d="M227.474 199.878C227.385 198.964 225.391 177.457 233.516 168.122L233.959 168.506C226.005 177.634 228.058 199.601 228.058 199.819L227.474 199.878Z" fill="#7E57C2"/>
<path d="M227.286 197.53L226.696 197.489C226.696 197.241 228.283 172.288 222.359 166.842L222.761 166.405C228.891 172.046 227.357 196.486 227.286 197.53Z" fill="#7E57C2"/>
<path d="M228.059 197.512H227.469C227.469 196.822 227.669 180.607 232.295 177.958C232.739 177.671 233.245 177.495 233.771 177.445C234.296 177.394 234.827 177.471 235.316 177.669C238.119 178.849 239.506 183.8 239.565 184.012L238.975 184.165C238.975 184.118 237.612 179.262 235.074 178.212C234.667 178.049 234.225 177.988 233.789 178.034C233.352 178.079 232.933 178.229 232.567 178.471C228.254 180.95 228.065 197.347 228.059 197.512Z" fill="#7E57C2"/>
<path d="M226.271 197.524L225.681 197.494C225.681 197.365 226.371 184.726 222.972 180.283C222.152 179.221 221.273 178.719 220.347 178.778C218.134 178.932 216.275 182.177 216.258 182.212L215.738 181.923C215.821 181.776 217.78 178.383 220.299 178.188C221.432 178.111 222.494 178.69 223.438 179.923C226.973 184.543 226.3 196.999 226.271 197.524Z" fill="#7E57C2"/>
<path d="M226.909 199.247C226.814 198.02 224.672 169.096 228.449 163.98L228.927 164.334C225.274 169.267 227.469 198.905 227.493 199.206L226.909 199.247Z" fill="#7E57C2"/>
<path d="M236.32 180.643C236.32 180.643 234.06 181.475 234.732 183.44C235.405 185.404 242.551 188.644 242.551 188.644C242.551 188.644 245.542 185.9 242.793 181.445C240.043 176.99 236.379 179.238 236.32 180.643Z" fill="#7E57C2"/>
<path opacity="0.2" d="M236.32 180.643C236.32 180.643 234.06 181.475 234.732 183.44C235.405 185.404 242.551 188.644 242.551 188.644C242.551 188.644 245.542 185.9 242.793 181.445C240.043 176.99 236.379 179.238 236.32 180.643Z" fill="white"/>
<path d="M226.495 176.902C226.495 176.902 228.902 176.802 229.038 178.873C229.174 180.944 223.828 186.685 223.828 186.685C223.828 186.685 220.01 185.304 220.83 180.129C221.65 174.955 225.899 175.621 226.495 176.902Z" fill="#7E57C2"/>
<path opacity="0.2" d="M226.495 176.902C226.495 176.902 228.902 176.802 229.038 178.873C229.174 180.944 223.828 186.685 223.828 186.685C223.828 186.685 220.01 185.304 220.83 180.129C221.65 174.955 225.899 175.621 226.495 176.902Z" fill="white"/>
<path d="M224.459 166.983C224.459 166.983 226.064 166.812 225.934 165.839C225.804 164.865 219.697 162.345 216.098 166.429C216.098 166.429 218.405 170.394 221.739 170.441C225.072 170.488 224.459 166.983 224.459 166.983Z" fill="#7E57C2"/>
<path opacity="0.2" d="M224.459 166.983C224.459 166.983 226.064 166.812 225.934 165.839C225.804 164.865 219.697 162.345 216.098 166.429C216.098 166.429 218.405 170.394 221.739 170.441C225.072 170.488 224.459 166.983 224.459 166.983Z" fill="white"/>
<path d="M227.451 164.623C227.451 164.623 225.999 165.325 225.592 164.428C225.185 163.532 229.032 158.168 234.242 159.708C234.242 159.708 234.384 164.293 231.575 166.098C228.767 167.904 227.451 164.623 227.451 164.623Z" fill="#7E57C2"/>
<path opacity="0.2" d="M227.451 164.623C227.451 164.623 225.999 165.325 225.592 164.428C225.185 163.532 229.032 158.168 234.242 159.708C234.242 159.708 234.384 164.293 231.575 166.098C228.767 167.904 227.451 164.623 227.451 164.623Z" fill="white"/>
<path d="M219.857 179.852C219.857 179.852 220.96 178.961 219.768 178.525C218.576 178.088 212.688 178.212 212.646 184.018C212.646 184.018 219.473 185.151 220.317 182.938C221.161 180.726 219.857 179.852 219.857 179.852Z" fill="#7E57C2"/>
<path opacity="0.2" d="M219.857 179.852C219.857 179.852 220.96 178.961 219.768 178.525C218.576 178.088 212.688 178.212 212.646 184.018C212.646 184.018 219.473 185.151 220.317 182.938C221.161 180.726 219.857 179.852 219.857 179.852Z" fill="white"/>
<path d="M233.777 166.83C233.777 166.83 232.673 165.933 233.865 165.496C235.057 165.06 240.946 165.184 240.981 170.995C240.981 170.995 234.154 172.128 233.311 169.916C232.467 167.703 233.777 166.83 233.777 166.83Z" fill="#7E57C2"/>
<path opacity="0.2" d="M233.777 166.83C233.777 166.83 232.673 165.933 233.865 165.496C235.057 165.06 240.946 165.184 240.981 170.995C240.981 170.995 234.154 172.128 233.311 169.916C232.467 167.703 233.777 166.83 233.777 166.83Z" fill="white"/>
<path d="M230.165 171.509C230.165 171.509 230.07 170.417 230.949 170.848C231.829 171.279 234.879 174.571 231.71 177.699C231.71 177.699 227.45 174.542 228.217 172.896C228.984 171.249 230.165 171.509 230.165 171.509Z" fill="#7E57C2"/>
<path opacity="0.2" d="M230.165 171.509C230.165 171.509 230.07 170.417 230.949 170.848C231.829 171.279 234.879 174.571 231.71 177.699C231.71 177.699 227.45 174.542 228.217 172.896C228.984 171.249 230.165 171.509 230.165 171.509Z" fill="white"/>
<path d="M218.865 173.055C218.865 173.055 219.526 172.187 218.558 172.081C217.59 171.975 213.247 173.132 214.256 177.468C214.256 177.468 219.567 177.073 219.773 175.268C219.98 173.462 218.865 173.055 218.865 173.055Z" fill="#7E57C2"/>
<path opacity="0.2" d="M218.865 173.055C218.865 173.055 219.526 172.187 218.558 172.081C217.59 171.975 213.247 173.132 214.256 177.468C214.256 177.468 219.567 177.073 219.773 175.268C219.98 173.462 218.865 173.055 218.865 173.055Z" fill="white"/>
<path d="M236.744 213.609H218.582L216.629 193.73H238.703L236.744 213.609Z" fill="#263238"/>
<path d="M239.665 191.535H215.656V195.919H239.665V191.535Z" fill="#263238"/>
<path opacity="0.2" d="M239.665 191.535H215.656V195.919H239.665V191.535Z" fill="white"/>
<path d="M194.951 213.597H140.177C139.391 213.61 138.611 213.456 137.89 213.144C137.168 212.832 136.521 212.371 135.991 211.79C135.461 211.209 135.061 210.522 134.818 209.774C134.574 209.027 134.492 208.236 134.578 207.455L148.739 45.7109C148.91 44.0487 149.684 42.5066 150.915 41.376C152.145 40.2454 153.747 39.6046 155.418 39.5745H210.175C210.961 39.5597 211.741 39.7127 212.464 40.0232C213.186 40.3338 213.834 40.7947 214.365 41.3754C214.895 41.956 215.296 42.643 215.54 43.3906C215.784 44.1382 215.866 44.9292 215.78 45.7109L201.619 207.455C201.45 209.116 200.679 210.659 199.451 211.791C198.222 212.923 196.621 213.565 194.951 213.597Z" fill="#7E57C2"/>
<path opacity="0.4" d="M194.951 213.597H140.177C139.391 213.61 138.611 213.456 137.89 213.144C137.168 212.832 136.521 212.371 135.991 211.79C135.461 211.209 135.061 210.522 134.818 209.774C134.574 209.027 134.492 208.236 134.578 207.455L148.739 45.7109C148.91 44.0487 149.684 42.5066 150.915 41.376C152.145 40.2454 153.747 39.6046 155.418 39.5745H210.175C210.961 39.5597 211.741 39.7127 212.464 40.0232C213.186 40.3338 213.834 40.7947 214.365 41.3754C214.895 41.956 215.296 42.643 215.54 43.3906C215.784 44.1382 215.866 44.9292 215.78 45.7109L201.619 207.455C201.45 209.116 200.679 210.659 199.451 211.791C198.222 212.923 196.621 213.565 194.951 213.597Z" fill="white"/>
<path d="M189.051 213.597H134.277C133.491 213.61 132.711 213.456 131.989 213.144C131.267 212.832 130.62 212.371 130.091 211.79C129.561 211.209 129.161 210.522 128.917 209.774C128.674 209.027 128.592 208.236 128.677 207.455L142.839 45.7109C143.01 44.0487 143.784 42.5066 145.014 41.376C146.245 40.2454 147.847 39.6046 149.518 39.5745H204.274C205.06 39.5597 205.841 39.7127 206.563 40.0232C207.286 40.3338 207.934 40.7947 208.464 41.3754C208.995 41.956 209.395 42.643 209.639 43.3906C209.883 44.1382 209.965 44.9292 209.88 45.7109L195.719 207.455C195.55 209.116 194.779 210.659 193.55 211.791C192.322 212.923 190.721 213.565 189.051 213.597Z" fill="#263238"/>
<path d="M189.051 213.597H134.277C133.491 213.61 132.711 213.456 131.989 213.144C131.267 212.832 130.62 212.371 130.091 211.79C129.561 211.209 129.161 210.522 128.917 209.774C128.674 209.027 128.592 208.236 128.677 207.455L142.839 45.7109C143.01 44.0487 143.784 42.5066 145.014 41.376C146.245 40.2454 147.847 39.6046 149.518 39.5745H204.274C205.06 39.5597 205.841 39.7127 206.563 40.0232C207.286 40.3338 207.934 40.7947 208.464 41.3754C208.995 41.956 209.395 42.643 209.639 43.3906C209.883 44.1382 209.965 44.9292 209.88 45.7109L195.719 207.455C195.55 209.116 194.779 210.659 193.55 211.791C192.322 212.923 190.721 213.565 189.051 213.597Z" fill="#7E57C2"/>
<path d="M207.643 45.4335L193.482 207.484C193.364 208.818 192.532 209.844 191.606 209.844H132.223C131.374 209.844 130.819 208.894 130.925 207.673L145.151 45.2211C145.246 44.159 145.865 43.2327 146.603 43.2327H161.442C161.861 43.2327 162.209 43.628 162.316 44.1944L162.74 46.3776C162.847 46.9677 163.195 47.3335 163.614 47.3335H188.88C189.126 47.2969 189.356 47.1884 189.541 47.0214C189.725 46.8545 189.857 46.6367 189.918 46.3953L190.726 44.2003C190.786 43.9553 190.916 43.7331 191.101 43.5611C191.285 43.3892 191.516 43.275 191.765 43.2327H206.392C207.189 43.2327 207.743 44.2534 207.643 45.4335Z" fill="#263238"/>
<path d="M206.948 53.3579L194.781 192.402H132.26L144.427 53.3579H206.948Z" fill="#7E57C2"/>
<path opacity="0.6" d="M151.629 49.7645H152.402L152.532 48.2776H151.759L151.629 49.7645Z" fill="white"/>
<path opacity="0.6" d="M150.367 49.7645H151.14L151.317 47.782H150.544L150.367 49.7645Z" fill="white"/>
<path opacity="0.6" d="M149.111 49.7646H149.884L150.103 47.2864H149.33L149.111 49.7646Z" fill="white"/>
<path opacity="0.6" d="M147.854 49.7646H148.626L148.886 46.7908H148.113L147.854 49.7646Z" fill="white"/>
<path opacity="0.6" d="M200.232 49.2218H199.771L199.907 47.7349H200.362L200.232 49.2218Z" fill="white"/>
<path opacity="0.6" d="M200.498 49.7645H204.15L204.375 47.1919H200.728L200.498 49.7645Z" fill="white"/>
<path opacity="0.6" d="M176.542 43.4452C176.483 44.1296 176.052 44.6842 175.575 44.6842C175.097 44.6842 174.766 44.1296 174.825 43.4452C174.884 42.7607 175.321 42.2061 175.793 42.2061C176.265 42.2061 176.601 42.7607 176.542 43.4452Z" fill="#263238"/>
<path opacity="0.6" d="M178.277 43.4452C178.242 43.8819 177.964 44.2359 177.658 44.2359C177.351 44.2359 177.144 43.8819 177.18 43.4452C177.215 43.0086 177.498 42.6487 177.799 42.6487C178.1 42.6487 178.319 43.0086 178.277 43.4452Z" fill="#263238"/>
<path opacity="0.7" d="M206.948 53.3579L205.26 72.6465L204.971 75.9744L203.62 91.4277L203.408 93.8292L201.49 115.738L201.283 118.139L199.443 139.174L199.177 142.201L194.787 192.402H132.26L144.427 53.3579H206.948Z" fill="white"/>
<path d="M147.275 87.6455L145.617 90.6902L148.933 92.7966L147.275 87.6455Z" fill="#7E57C2"/>
<path d="M152.114 148.521L154.25 146.143L151.4 142.957L152.114 148.521Z" fill="#7E57C2"/>
<path d="M176.637 59.0872L176.477 55.2578L173.002 56.7329L176.637 59.0872Z" fill="#7E57C2"/>
<path d="M141.287 147.052L139.635 150.09L142.945 152.197L141.287 147.052Z" fill="#7E57C2"/>
<path d="M143.304 134.006L142.053 137.31L139.48 135.127L141.546 131.575L143.304 134.006Z" fill="#7E57C2"/>
<path d="M169.043 180.902L171.692 181.138L171.362 185.351L168.217 184.183L169.043 180.902Z" fill="#7E57C2"/>
<path d="M147.512 109.395L149.17 109.861C149.17 109.861 146.686 112.221 147.842 114.074C148.999 115.927 147.016 117.585 147.016 117.585L145.523 116.18C145.91 115.74 146.174 115.205 146.29 114.631C146.406 114.056 146.37 113.462 146.184 112.906C145.523 111.035 147.512 109.395 147.512 109.395Z" fill="#7E57C2"/>
<path d="M170.115 96.0833L171.773 96.5494C171.773 96.5494 169.289 98.9096 170.446 100.762C171.602 102.615 169.62 104.273 169.62 104.273L168.162 102.869C168.547 102.427 168.81 101.893 168.926 101.319C169.042 100.745 169.006 100.15 168.823 99.594C168.162 97.7177 170.115 96.0833 170.115 96.0833Z" fill="#7E57C2"/>
<path d="M147.677 73.8857L146.154 77.0661L149.553 78.8834L147.677 73.8857Z" fill="#7E57C2"/>
<path d="M177.421 75.5024L175.898 78.6828L179.297 80.5001L177.421 75.5024Z" fill="#7E57C2"/>
<path d="M163.089 70.4516L164.009 66.8405L160.404 66.2563L163.089 70.4516Z" fill="#7E57C2"/>
<path d="M162.404 84.8191L162.888 81.1313L165.809 82.1108L164.605 86.3828L162.404 84.8191Z" fill="#7E57C2"/>
<path d="M197.1 79.503L197.583 75.8152L200.498 76.7947L199.295 81.0666L197.1 79.503Z" fill="#7E57C2"/>
<path d="M194.674 101.24L195.158 97.5525L198.078 98.532L196.875 102.804L194.674 101.24Z" fill="#7E57C2"/>
<path d="M186.454 96.6733L184.778 96.9388C184.778 96.9388 186.642 93.6404 185.138 92.3541C183.633 91.0678 185.167 88.6545 185.167 88.6545L186.89 89.3567C186.89 89.3567 185.928 91.2626 186.967 92.7613C188.005 94.26 186.454 96.6733 186.454 96.6733Z" fill="#7E57C2"/>
<path d="M172.523 140.407L170.865 143.452L174.175 145.559L172.523 140.407Z" fill="#7E57C2"/>
<path d="M162.191 152.197L160.533 155.241L163.843 157.348L162.191 152.197Z" fill="#7E57C2"/>
<path d="M180.937 125.946L183.587 126.176L183.256 130.394L180.111 129.22L180.937 125.946Z" fill="#7E57C2"/>
<path d="M190.84 161.49L193.483 161.72L193.153 165.933L190.008 164.765L190.84 161.49Z" fill="#7E57C2"/>
<path d="M177.764 165.266L179.422 165.738C179.422 165.738 176.938 168.098 178.094 169.951C179.251 171.804 177.268 173.491 177.268 173.491L175.781 172.087C176.173 171.637 176.439 171.092 176.552 170.507C176.665 169.921 176.621 169.316 176.424 168.753C175.781 166.906 177.764 165.266 177.764 165.266Z" fill="#7E57C2"/>
<path d="M192.385 148.35L191.341 148.692C191.341 148.692 191.789 145.571 190.491 144.491C189.193 143.411 189.641 141.116 189.641 141.116L190.939 141.647C190.855 142.748 191.156 143.845 191.789 144.75C192.828 146.054 192.385 148.35 192.385 148.35Z" fill="#7E57C2"/>
<path d="M193.109 64.3978L192.065 64.7459C192.065 64.7459 192.514 61.6245 191.215 60.5447C189.917 59.465 190.36 57.1697 190.36 57.1697L191.658 57.7007C191.578 58.8029 191.88 59.8991 192.514 60.8044C193.534 62.1025 193.109 64.3978 193.109 64.3978Z" fill="#7E57C2"/>
<path d="M152.019 182.791L150.462 183.687C150.462 183.687 151.642 179.799 149.925 179.138C148.208 178.477 149.252 175.562 149.252 175.562H151.022C151.022 175.562 150.462 177.769 151.742 178.82C153.023 179.87 152.019 182.791 152.019 182.791Z" fill="#7E57C2"/>
<path d="M151.342 59.0873C151.342 60.055 150.787 60.8574 150.102 60.8574C149.418 60.8574 148.857 60.0727 148.857 59.0873C148.857 58.1019 149.412 57.3171 150.102 57.3171C150.793 57.3171 151.342 58.1196 151.342 59.0873Z" fill="#7E57C2"/>
<path d="M165.09 126.595C165.09 127.568 164.5 128.365 163.845 128.365C163.19 128.365 162.605 127.58 162.605 126.595C162.605 125.609 163.16 124.824 163.845 124.824C164.529 124.824 165.09 125.627 165.09 126.595Z" fill="#7E57C2"/>
<path d="M197.618 121.573C198.302 121.573 198.857 120.786 198.857 119.815C198.857 118.844 198.302 118.057 197.618 118.057C196.934 118.057 196.379 118.844 196.379 119.815C196.379 120.786 196.934 121.573 197.618 121.573Z" fill="#7E57C2"/>
<path d="M203.677 60.3678C203.677 61.3414 203.123 62.1379 202.432 62.1379C201.742 62.1379 201.193 61.3532 201.193 60.3678C201.193 59.3824 201.748 58.5977 202.432 58.5977C203.117 58.5977 203.677 59.4001 203.677 60.3678Z" fill="#7E57C2"/>
<path d="M138.396 169.556L139.712 166.199L136.213 164.812L138.396 169.556Z" fill="#7E57C2"/>
<path d="M187.911 185.924L187.215 189.635L190.844 189.771L187.911 185.924Z" fill="#7E57C2"/>
<path d="M136.943 188.679C136.878 187.712 137.386 186.856 138.07 186.773C138.755 186.691 139.356 187.399 139.415 188.367C139.474 189.334 138.973 190.184 138.288 190.272C137.604 190.361 137.002 189.641 136.943 188.679Z" fill="#7E57C2"/>
<g opacity="0.5">
<path d="M147.273 87.6455L145.615 90.6902L148.931 92.7966L147.273 87.6455Z" fill="white"/>
<path d="M152.112 148.521L154.248 146.143L151.398 142.957L152.112 148.521Z" fill="white"/>
<path d="M176.635 59.0872L176.475 55.2578L173 56.7329L176.635 59.0872Z" fill="white"/>
<path d="M141.285 147.051L139.633 150.09L142.943 152.196L141.285 147.051Z" fill="white"/>
<path d="M143.304 134.005L142.053 137.31L139.48 135.127L141.546 131.574L143.304 134.005Z" fill="white"/>
<path d="M169.041 180.902L171.69 181.138L171.36 185.351L168.215 184.183L169.041 180.902Z" fill="white"/>
<path d="M147.51 109.395L149.168 109.861C149.168 109.861 146.684 112.221 147.84 114.074C148.997 115.926 147.014 117.584 147.014 117.584L145.521 116.18C145.908 115.739 146.172 115.205 146.288 114.631C146.404 114.056 146.368 113.461 146.182 112.905C145.521 111.035 147.51 109.395 147.51 109.395Z" fill="white"/>
<path d="M170.115 96.0833L171.773 96.5494C171.773 96.5494 169.289 98.9096 170.446 100.762C171.602 102.615 169.62 104.273 169.62 104.273L168.162 102.869C168.547 102.427 168.81 101.893 168.926 101.319C169.042 100.745 169.006 100.15 168.823 99.594C168.162 97.7177 170.115 96.0833 170.115 96.0833Z" fill="white"/>
<path d="M147.677 73.8855L146.154 77.0659L149.553 78.8832L147.677 73.8855Z" fill="white"/>
<path d="M177.421 75.5024L175.898 78.6828L179.297 80.5001L177.421 75.5024Z" fill="white"/>
<path d="M163.087 70.4516L164.008 66.8405L160.402 66.2563L163.087 70.4516Z" fill="white"/>
<path d="M162.404 84.8191L162.888 81.1313L165.809 82.1108L164.605 86.3828L162.404 84.8191Z" fill="white"/>
<path d="M197.098 79.5027L197.581 75.8149L200.496 76.7944L199.293 81.0664L197.098 79.5027Z" fill="white"/>
<path d="M194.674 101.24L195.158 97.5525L198.078 98.532L196.875 102.804L194.674 101.24Z" fill="white"/>
<path d="M186.454 96.6733L184.778 96.9388C184.778 96.9388 186.642 93.6404 185.138 92.3541C183.633 91.0678 185.167 88.6545 185.167 88.6545L186.89 89.3567C186.89 89.3567 185.928 91.2626 186.967 92.7613C188.005 94.26 186.454 96.6733 186.454 96.6733Z" fill="white"/>
<path d="M172.523 140.407L170.865 143.452L174.175 145.559L172.523 140.407Z" fill="white"/>
<path d="M162.191 152.197L160.533 155.241L163.843 157.348L162.191 152.197Z" fill="white"/>
<path d="M180.937 125.945L183.587 126.175L183.256 130.394L180.111 129.22L180.937 125.945Z" fill="white"/>
<path d="M190.838 161.49L193.481 161.72L193.151 165.933L190.006 164.764L190.838 161.49Z" fill="white"/>
<path d="M177.762 165.266L179.42 165.738C179.42 165.738 176.936 168.098 178.092 169.951C179.249 171.804 177.266 173.491 177.266 173.491L175.779 172.087C176.171 171.637 176.437 171.092 176.55 170.507C176.663 169.921 176.619 169.316 176.422 168.753C175.779 166.906 177.762 165.266 177.762 165.266Z" fill="white"/>
<path d="M192.383 148.349L191.339 148.692C191.339 148.692 191.787 145.57 190.489 144.491C189.191 143.411 189.639 141.115 189.639 141.115L190.937 141.647C190.853 142.748 191.154 143.845 191.787 144.75C192.826 146.054 192.383 148.349 192.383 148.349Z" fill="white"/>
<path d="M193.109 64.3978L192.065 64.7459C192.065 64.7459 192.514 61.6245 191.215 60.5447C189.917 59.465 190.36 57.1697 190.36 57.1697L191.658 57.7007C191.578 58.8029 191.88 59.8991 192.514 60.8044C193.534 62.1025 193.109 64.3978 193.109 64.3978Z" fill="white"/>
<path d="M152.017 182.791L150.46 183.687C150.46 183.687 151.64 179.799 149.923 179.138C148.206 178.477 149.25 175.562 149.25 175.562H151.02C151.02 175.562 150.46 177.769 151.74 178.82C153.021 179.87 152.017 182.791 152.017 182.791Z" fill="white"/>
<path d="M151.34 59.0873C151.34 60.055 150.785 60.8574 150.1 60.8574C149.416 60.8574 148.855 60.0727 148.855 59.0873C148.855 58.1019 149.41 57.3171 150.1 57.3171C150.791 57.3171 151.34 58.1196 151.34 59.0873Z" fill="white"/>
<path d="M165.088 126.594C165.088 127.568 164.498 128.365 163.843 128.365C163.188 128.365 162.604 127.58 162.604 126.594C162.604 125.609 163.158 124.824 163.843 124.824C164.527 124.824 165.088 125.627 165.088 126.594Z" fill="white"/>
<path d="M197.616 121.573C198.3 121.573 198.855 120.786 198.855 119.815C198.855 118.844 198.3 118.056 197.616 118.056C196.932 118.056 196.377 118.844 196.377 119.815C196.377 120.786 196.932 121.573 197.616 121.573Z" fill="white"/>
<path d="M203.677 60.3676C203.677 61.3411 203.123 62.1377 202.432 62.1377C201.742 62.1377 201.193 61.3529 201.193 60.3676C201.193 59.3822 201.748 58.5974 202.432 58.5974C203.117 58.5974 203.677 59.3999 203.677 60.3676Z" fill="white"/>
<path d="M138.394 169.556L139.71 166.198L136.211 164.812L138.394 169.556Z" fill="white"/>
<path d="M187.911 185.924L187.215 189.635L190.844 189.771L187.911 185.924Z" fill="white"/>
<path d="M136.943 188.679C136.878 187.712 137.386 186.856 138.07 186.773C138.755 186.691 139.356 187.399 139.415 188.367C139.474 189.334 138.973 190.184 138.288 190.272C137.604 190.361 137.002 189.641 136.943 188.679Z" fill="white"/>
</g>
<path d="M176.76 169.226H152.569C151.756 169.252 150.947 169.104 150.197 168.792C149.446 168.479 148.771 168.01 148.216 167.416C147.662 166.821 147.241 166.115 146.982 165.344C146.723 164.573 146.632 163.756 146.715 162.947C146.913 161.227 147.734 159.639 149.024 158.483C150.313 157.327 151.982 156.684 153.713 156.675H177.905C178.717 156.649 179.525 156.797 180.276 157.109C181.026 157.421 181.701 157.889 182.255 158.483C182.809 159.077 183.23 159.783 183.489 160.553C183.749 161.323 183.84 162.139 183.758 162.947C183.562 164.669 182.741 166.259 181.452 167.416C180.162 168.573 178.493 169.217 176.76 169.226Z" fill="#7E57C2"/>
<path d="M150.815 71.561C150.828 71.0813 151.022 70.6243 151.358 70.2817C151.694 69.9391 152.147 69.7363 152.627 69.7142C152.846 69.7054 153.065 69.7522 153.262 69.8502C153.459 69.9482 153.628 70.0942 153.754 70.2747L153.435 70.5992C153.343 70.4647 153.218 70.3554 153.073 70.2813C152.928 70.2071 152.766 70.1703 152.603 70.1744C152.245 70.1936 151.908 70.3471 151.659 70.6042C151.409 70.8612 151.266 71.2029 151.258 71.561C151.222 71.7258 151.223 71.8964 151.261 72.0607C151.299 72.225 151.373 72.3788 151.477 72.5113C151.581 72.6438 151.714 72.7516 151.864 72.827C152.015 72.9024 152.181 72.9436 152.349 72.9476C152.524 72.9465 152.695 72.9067 152.853 72.8312C153.01 72.7557 153.148 72.6464 153.258 72.511L153.518 72.8414C153.368 73.0245 153.18 73.1723 152.967 73.2743C152.754 73.3763 152.521 73.43 152.284 73.4315C151.346 73.4079 150.715 72.629 150.815 71.561Z" fill="#7E57C2"/>
<path d="M153.955 71.561C153.969 71.0807 154.164 70.6236 154.501 70.2812C154.838 69.9388 155.292 69.7362 155.772 69.7141C155.998 69.718 156.22 69.7718 156.422 69.8714C156.625 69.971 156.803 70.1142 156.944 70.2906C157.085 70.467 157.185 70.6723 157.238 70.8919C157.29 71.1115 157.293 71.3399 157.247 71.561C157.234 72.0407 157.04 72.4977 156.704 72.8403C156.368 73.1829 155.915 73.3856 155.436 73.4078C155.21 73.4037 154.988 73.3499 154.785 73.2503C154.582 73.1507 154.404 73.0077 154.262 72.8315C154.121 72.6552 154.02 72.4501 153.967 72.2305C153.914 72.0109 153.91 71.7823 153.955 71.561ZM156.805 71.561C156.841 71.3975 156.841 71.228 156.805 71.0645C156.768 70.9011 156.696 70.7477 156.594 70.6152C156.491 70.4828 156.361 70.3746 156.211 70.2984C156.062 70.2222 155.898 70.1799 155.731 70.1743C155.375 70.1951 155.04 70.3494 154.792 70.6065C154.545 70.8635 154.404 71.2044 154.397 71.561C154.361 71.7249 154.361 71.8949 154.398 72.0588C154.434 72.2227 154.507 72.3764 154.61 72.5089C154.713 72.6414 154.845 72.7495 154.995 72.8253C155.144 72.9012 155.309 72.9429 155.477 72.9476C155.832 72.9254 156.166 72.7705 156.412 72.5136C156.658 72.2566 156.798 71.9166 156.805 71.561Z" fill="#7E57C2"/>
<path d="M160.765 69.7554L160.435 73.3665H160.069L158.452 70.6758L158.21 73.3665H157.768L158.098 69.7554H158.458L160.075 72.446L160.322 69.7554H160.765Z" fill="#7E57C2"/>
<path d="M163.68 71.5373H164.105L163.981 72.9475C163.644 73.2422 163.213 73.4056 162.765 73.4077C162.539 73.4055 162.315 73.353 162.111 73.2541C161.907 73.1552 161.727 73.0123 161.585 72.8357C161.443 72.6591 161.342 72.4532 161.289 72.2327C161.236 72.0123 161.232 71.7828 161.278 71.5609C161.293 71.0787 161.49 70.62 161.829 70.2772C162.169 69.9345 162.625 69.7332 163.107 69.714C163.33 69.7039 163.551 69.75 163.751 69.8479C163.952 69.9459 164.124 70.0926 164.252 70.2746L163.945 70.5932C163.846 70.4593 163.716 70.3514 163.566 70.2785C163.416 70.2055 163.251 70.1698 163.084 70.1742C162.723 70.1891 162.381 70.3407 162.128 70.5982C161.875 70.8557 161.73 71.1999 161.721 71.5609C161.691 71.7259 161.697 71.8953 161.738 72.0579C161.779 72.2205 161.855 72.3724 161.959 72.5036C162.063 72.6348 162.195 72.7423 162.344 72.8188C162.493 72.8953 162.657 72.9392 162.824 72.9475C163.092 72.9522 163.355 72.8716 163.574 72.7174L163.68 71.5373Z" fill="#7E57C2"/>
<path d="M166.86 73.3665L166.27 72.2572H166.076H165.308L165.208 73.3547H164.766L165.096 69.7436H166.306C166.473 69.7217 166.642 69.7399 166.801 69.7966C166.96 69.8533 167.102 69.9469 167.218 70.0697C167.333 70.1925 167.417 70.3409 167.464 70.5027C167.511 70.6645 167.518 70.8351 167.486 71.0004C167.479 71.2465 167.4 71.4851 167.26 71.6873C167.119 71.8895 166.923 72.0465 166.695 72.1392L167.321 73.3547L166.86 73.3665ZM167.067 71.0063C167.114 70.4929 166.843 70.1979 166.276 70.1979H165.521L165.373 71.8206H166.129C166.244 71.8346 166.362 71.8243 166.473 71.7903C166.585 71.7564 166.688 71.6996 166.776 71.6235C166.864 71.5474 166.936 71.4538 166.986 71.3485C167.036 71.2432 167.064 71.1287 167.067 71.0122V71.0063Z" fill="#7E57C2"/>
<path d="M170.07 72.4637H168.424L167.999 73.3665H167.574L169.309 69.7554H169.746L170.825 73.3665H170.359L170.07 72.4637ZM169.952 72.0507L169.445 70.2805L168.613 72.0507H169.952Z" fill="#7E57C2"/>
<path d="M172.004 70.2155H170.941L170.983 69.7671H173.549L173.508 70.2155H172.446L172.157 73.3782H171.703L172.004 70.2155Z" fill="#7E57C2"/>
<path d="M173.762 71.8087L173.951 69.7554H174.394L174.205 71.7851C174.134 72.5876 174.417 72.9652 174.972 72.9652C175.527 72.9652 175.887 72.6053 175.957 71.7851L176.146 69.7554H176.571L176.388 71.8087C176.288 72.8531 175.745 73.4078 174.931 73.4078C174.116 73.4078 173.668 72.8531 173.762 71.8087Z" fill="#7E57C2"/>
<path d="M177.487 69.7554H177.929L177.64 72.918H179.316L179.28 73.3665H177.156L177.487 69.7554Z" fill="#7E57C2"/>
<path d="M181.857 72.4637H180.211L179.786 73.3665H179.332L181.067 69.7554H181.503L182.583 73.3665H182.117L181.857 72.4637ZM181.739 72.0507L181.232 70.2805L180.406 72.0507H181.739Z" fill="#7E57C2"/>
<path d="M183.793 70.2155H182.73L182.772 69.7671H185.338L185.274 70.2155H184.211L183.922 73.3782H183.503L183.793 70.2155Z" fill="#7E57C2"/>
<path d="M185.823 69.7554H186.265L185.935 73.3665H185.492L185.823 69.7554Z" fill="#7E57C2"/>
<path d="M186.779 71.561C186.796 71.0806 186.993 70.6243 187.331 70.2823C187.668 69.9402 188.122 69.7375 188.602 69.7141C188.828 69.718 189.05 69.7718 189.253 69.8714C189.455 69.971 189.633 70.1142 189.774 70.2906C189.915 70.467 190.015 70.6723 190.068 70.8919C190.12 71.1115 190.123 71.3399 190.077 71.561C190.064 72.0407 189.87 72.4977 189.534 72.8403C189.198 73.1829 188.745 73.3856 188.266 73.4078C188.039 73.4045 187.817 73.3514 187.613 73.2522C187.41 73.1529 187.231 73.0101 187.089 72.8337C186.947 72.6574 186.845 72.4519 186.792 72.2319C186.738 72.0119 186.734 71.7828 186.779 71.561ZM189.635 71.561C189.67 71.3976 189.669 71.2285 189.633 71.0654C189.596 70.9024 189.524 70.7494 189.421 70.6173C189.319 70.4851 189.189 70.377 189.04 70.3004C188.891 70.2239 188.728 70.1809 188.561 70.1743C188.204 70.195 187.869 70.3491 187.62 70.606C187.372 70.863 187.23 71.2039 187.221 71.561C187.186 71.7253 187.187 71.8954 187.225 72.0593C187.262 72.2231 187.335 72.3767 187.439 72.509C187.543 72.6414 187.674 72.7493 187.824 72.8251C187.974 72.9009 188.139 72.9427 188.307 72.9476C188.662 72.9254 188.996 72.7705 189.242 72.5136C189.488 72.2566 189.628 71.9166 189.635 71.561Z" fill="#7E57C2"/>
<path d="M193.587 69.7554L193.263 73.3665H192.897L191.28 70.6758L191.038 73.3665H190.584L190.914 69.7554H191.28L192.897 72.446L193.139 69.7554H193.587Z" fill="#7E57C2"/>
<path d="M193.949 72.9535L194.126 72.5758C194.253 72.7092 194.406 72.8148 194.576 72.8859C194.745 72.957 194.928 72.992 195.112 72.9889C195.649 72.9889 195.902 72.7469 195.926 72.4342C196.008 71.555 194.079 72.1097 194.203 70.7703C194.24 70.4654 194.395 70.187 194.634 69.9942C194.873 69.8014 195.177 69.7094 195.483 69.7377C195.833 69.7282 196.175 69.8408 196.451 70.0563L196.268 70.4694C196.034 70.2811 195.743 70.1772 195.442 70.1743C194.917 70.1743 194.669 70.434 194.64 70.7644C194.557 71.6495 196.486 71.0948 196.368 72.4224C196.33 72.7296 196.172 73.0094 195.929 73.2015C195.687 73.3935 195.378 73.4825 195.07 73.4491C194.86 73.4469 194.651 73.4019 194.459 73.3167C194.266 73.2314 194.093 73.1079 193.949 72.9535Z" fill="#7E57C2"/>
<path d="M154.739 163.054H155.465L155.317 164.676C154.909 164.999 154.404 165.177 153.884 165.184C152.798 165.184 152.084 164.322 152.19 163.118C152.208 162.573 152.434 162.055 152.821 161.67C153.208 161.285 153.727 161.062 154.273 161.047C154.542 161.033 154.811 161.089 155.052 161.21C155.293 161.331 155.498 161.513 155.648 161.738L155.058 162.286C154.967 162.146 154.842 162.031 154.694 161.952C154.547 161.874 154.381 161.835 154.214 161.838C153.881 161.847 153.564 161.986 153.331 162.225C153.099 162.464 152.969 162.785 152.969 163.118C152.933 163.27 152.931 163.428 152.964 163.58C152.997 163.733 153.064 163.876 153.16 163.999C153.255 164.122 153.378 164.221 153.517 164.291C153.657 164.36 153.81 164.397 153.966 164.399C154.191 164.402 154.412 164.34 154.603 164.222L154.739 163.054Z" fill="white"/>
<path d="M156.362 161.118H157.158L156.793 165.119H155.996L156.362 161.118Z" fill="white"/>
<path d="M158.722 161.862L158.628 162.918H160.221L160.15 163.661H158.557L158.427 165.119H157.631L157.997 161.118H160.593L160.528 161.862H158.722Z" fill="white"/>
<path d="M161.797 161.868H160.693L160.764 161.118H163.762L163.691 161.868H162.593L162.292 165.119H161.502L161.797 161.868Z" fill="white"/>
<path d="M164.977 164.723L165.313 164.027C165.618 164.291 166.007 164.437 166.41 164.44C166.877 164.44 167.089 164.257 167.113 164.015C167.177 163.266 165.13 163.779 165.266 162.292C165.286 162.108 165.343 161.929 165.433 161.767C165.523 161.604 165.644 161.461 165.789 161.345C165.934 161.229 166.101 161.144 166.279 161.092C166.458 161.041 166.645 161.026 166.829 161.047C167.251 161.03 167.667 161.155 168.009 161.401L167.703 162.104C167.434 161.906 167.11 161.796 166.776 161.791C166.304 161.791 166.104 161.997 166.08 162.245C166.015 162.983 168.057 162.475 167.927 163.945C167.905 164.129 167.847 164.308 167.756 164.471C167.665 164.633 167.542 164.776 167.396 164.891C167.25 165.006 167.082 165.091 166.903 165.141C166.724 165.191 166.536 165.206 166.351 165.184C165.852 165.203 165.363 165.039 164.977 164.723Z" fill="white"/>
<path d="M171.078 164.375L171.007 165.119H168.346L168.712 161.118H171.308L171.243 161.862H169.431L169.355 162.729H170.948L170.883 163.449H169.29L169.201 164.375H171.078Z" fill="white"/>
<path d="M175.161 161.118L174.795 165.119H174.14L172.648 162.688L172.423 165.119H171.639L172.004 161.118H172.665L174.152 163.543L174.376 161.118H175.161Z" fill="white"/>
<path d="M176.619 161.868H175.516L175.586 161.118H178.584L178.513 161.868H177.416L177.115 165.119H176.324L176.619 161.868Z" fill="white"/>
<path d="M190.112 119.996C193.145 105.136 186.529 91.2384 175.335 88.9541C164.142 86.6697 152.609 96.864 149.577 111.724C146.544 126.583 153.16 140.481 164.353 142.766C175.547 145.05 187.079 134.856 190.112 119.996Z" fill="#7E57C2"/>
<path opacity="0.3" d="M190.112 119.996C193.145 105.136 186.529 91.2384 175.335 88.9541C164.142 86.6697 152.609 96.864 149.577 111.724C146.544 126.583 153.16 140.481 164.353 142.766C175.547 145.05 187.079 134.856 190.112 119.996Z" fill="white"/>
<path d="M137.41 117.449L144.337 112.587L148.951 115.154L162.192 112.675L161.602 117.785L148.822 118.31C148.822 118.31 142.791 121.98 141.611 122.14C140.431 122.299 137.41 117.449 137.41 117.449Z" fill="#E4897B"/>
<path d="M190.462 115.484C190.432 115.826 190.397 116.174 190.362 116.517L156.9 119.071H156.664V118.009V113.72V111.861L157.372 111.719L189.783 105.028C190.549 108.457 190.778 111.985 190.462 115.484Z" fill="#7E57C2"/>
<path opacity="0.2" d="M190.462 115.484C190.432 115.826 190.397 116.174 190.362 116.517L156.9 119.071H156.664V118.009V113.72V111.861L157.372 111.719L189.783 105.028C190.549 108.457 190.778 111.985 190.462 115.484Z" fill="black"/>
<path d="M155.159 111.649L157.442 111.224L156.811 120.458L154.262 120.134L155.159 111.649Z" fill="#7E57C2"/>
<path opacity="0.5" d="M155.159 111.649L157.442 111.224L156.811 120.458L154.262 120.134L155.159 111.649Z" fill="white"/>
<path d="M121.184 102.751L121.279 102.739L121.273 102.727L121.285 102.722L121.279 102.698L121.184 102.751Z" fill="#263238"/>
<path d="M157.3 95.2217L156.963 95.2689L132.801 96.9682L121.472 102.515L121.271 102.526L124.977 124.7L147.953 123.084L160.474 117.006L157.3 95.2217Z" fill="#263238"/>
<path opacity="0.2" d="M124.193 104.084L125.19 104.887L126.418 104.515L125.963 105.713L126.689 106.763L125.415 106.704L124.642 107.719L124.305 106.486L123.096 106.061L124.164 105.365L124.193 104.084Z" fill="white"/>
<path opacity="0.2" d="M137.41 104.999V106.279L138.467 106.999L137.251 107.394L136.891 108.622L136.136 107.589L134.861 107.63L135.611 106.592L135.18 105.388L136.395 105.778L137.41 104.999Z" fill="white"/>
<path opacity="0.2" d="M137.947 118.765V120.045L139.004 120.765L137.794 121.166L137.434 122.393L136.679 121.361L135.398 121.396L136.148 120.358L135.717 119.154L136.933 119.549L137.947 118.765Z" fill="white"/>
<path opacity="0.2" d="M132.123 115.726L132.129 117L133.185 117.726L131.97 118.121L131.61 119.349L130.855 118.316L129.574 118.357L130.324 117.319L129.893 116.115L131.114 116.505L132.123 115.726Z" fill="white"/>
<path opacity="0.2" d="M138.442 114.853L138.448 115.602L139.062 116.027L138.354 116.257L138.141 116.977L137.699 116.375L136.949 116.393L137.392 115.791L137.138 115.083L137.852 115.313L138.442 114.853Z" fill="white"/>
<path opacity="0.2" d="M128.075 120.765V121.514L128.694 121.933L127.986 122.169L127.774 122.883L127.331 122.281L126.582 122.305L127.019 121.697L126.771 120.989L127.485 121.219L128.075 120.765Z" fill="white"/>
<path opacity="0.2" d="M126.7 113.525L126.706 114.274L127.319 114.693L126.611 114.929L126.399 115.649L125.956 115.041L125.213 115.065L125.65 114.457L125.396 113.755L126.11 113.985L126.7 113.525Z" fill="white"/>
<path opacity="0.2" d="M141.829 101.671V102.42L142.448 102.845L141.74 103.075L141.528 103.795L141.085 103.193L140.336 103.217L140.773 102.609L140.525 101.901L141.239 102.131L141.829 101.671Z" fill="white"/>
<path opacity="0.2" d="M128.684 107.701L129.539 109.164L131.227 109.288L130.1 110.551L130.501 112.191L128.955 111.513L127.516 112.404L127.687 110.722L126.395 109.625L128.047 109.265L128.684 107.701Z" fill="white"/>
<path opacity="0.2" d="M139.924 110.002L141.499 110.61L142.898 109.66L142.804 111.348L144.137 112.38L142.503 112.817L141.936 114.404L141.016 112.988L139.328 112.935L140.396 111.625L139.924 110.002Z" fill="white"/>
<path opacity="0.2" d="M143.576 117.006L144.432 118.47L146.12 118.594L144.993 119.856L145.394 121.497L143.848 120.818L142.408 121.703L142.579 120.021L141.287 118.93L142.939 118.57L143.576 117.006Z" fill="white"/>
<path opacity="0.2" d="M146.704 101.73L147.288 102.438L147.878 101.954L147.76 103.193L148.226 104.173L147.571 104.232L147.27 105.323L146.981 104.12L146.326 103.813L146.804 103.01L146.704 101.73Z" fill="white"/>
<path opacity="0.2" d="M153.543 101.411L153.667 102.692L154.274 103.317L153.69 103.831L153.62 105.087L153.142 104.126L152.487 104.285L152.776 103.176L152.439 102.013L153.1 102.291L153.543 101.411Z" fill="white"/>
<path opacity="0.2" d="M155.111 115.142L155.229 116.416L155.837 117.042L155.253 117.555L155.182 118.812L154.704 117.85L154.049 118.009L154.338 116.9L154.008 115.738L154.663 116.015L155.111 115.142Z" fill="white"/>
<path opacity="0.2" d="M151.85 112.64L151.968 113.914L152.575 114.54L151.991 115.053L151.92 116.316L151.442 115.348L150.793 115.508L151.077 114.398L150.74 113.236L151.401 113.513L151.85 112.64Z" fill="white"/>
<path opacity="0.2" d="M154.999 111.183L155.069 111.926L155.423 112.292L155.081 112.593L155.04 113.33L154.757 112.77L154.379 112.858L154.544 112.209L154.35 111.531L154.739 111.69L154.999 111.183Z" fill="white"/>
<path opacity="0.2" d="M150.249 118.057L150.319 118.806L150.673 119.172L150.331 119.467L150.29 120.21L150.007 119.644L149.629 119.738L149.794 119.089L149.6 118.405L149.983 118.57L150.249 118.057Z" fill="white"/>
<path opacity="0.2" d="M148.868 110.941L148.939 111.69L149.293 112.056L148.95 112.357L148.909 113.094L148.626 112.528L148.248 112.622L148.413 111.973L148.219 111.289L148.608 111.454L148.868 110.941Z" fill="white"/>
<path opacity="0.2" d="M155.495 97.6763L155.566 98.4256L155.92 98.7915L155.577 99.0865L155.542 99.8299L155.259 99.2635L154.875 99.352L155.04 98.7089L154.846 98.0244L155.235 98.1896L155.495 97.6763Z" fill="white"/>
<path opacity="0.2" d="M149.335 104.928L149.907 106.315L150.781 106.279L150.326 107.648L150.686 109.253L149.831 108.716L149.176 109.743L149.105 108.043L148.344 107.07L149.158 106.557L149.335 104.928Z" fill="white"/>
<path opacity="0.2" d="M155.299 106.185L156.161 106.651L156.786 105.565L156.898 107.265L157.677 108.179L156.88 108.758L156.739 110.404L156.137 109.07L155.27 109.177L155.694 107.766L155.299 106.185Z" fill="white"/>
<path opacity="0.2" d="M157.825 112.852L158.398 114.233L159.271 114.204L158.817 115.572L159.176 117.177L158.321 116.64L157.666 117.667L157.595 115.968L156.834 114.994L157.642 114.481L157.825 112.852Z" fill="white"/>
<path opacity="0.2" d="M144.236 100.975L157.306 95.322L160.486 117.183L147.971 123.337L144.236 100.975Z" fill="black"/>
<path opacity="0.2" d="M121.178 102.621L132.802 96.9682L157.129 95.2571L144.231 100.827L121.178 102.621Z" fill="white"/>
<path d="M156.167 119.367L153.034 96.8386L129.314 98.5085L127.154 99.8361L148.862 98.8979L153.181 120.7L156.167 119.367Z" fill="#7E57C2"/>
<path d="M144.608 96.1365L133.805 101.535L136.713 123.875L133.279 124.117L129.338 101.925L141.457 96.3607L144.608 96.1365Z" fill="#7E57C2"/>
<path opacity="0.2" d="M153.047 97.0332L148.869 98.945L153.188 120.777L156.174 119.461L153.047 97.0332Z" fill="black"/>
<path opacity="0.1" d="M129.35 102.019L133.81 101.588L136.713 123.874L133.279 124.116L129.35 102.019Z" fill="black"/>
<path d="M137.623 98.3962C137.623 98.3962 130.831 93.9826 128.129 95.3987C125.987 96.5139 126.512 99.3756 132.159 99.712C130.07 100.048 127.61 100.556 126.164 101.228L130.418 101.435C132.911 100.561 135.47 99.8924 138.071 99.4347C138.211 99.9053 138.245 100.401 138.172 100.886L141.039 100.432C141.039 100.432 140.13 99.6825 139.393 99.1337C142.679 98.5732 149.695 97.0096 150.191 93.8233C150.804 89.6871 140.785 93.1388 137.623 98.3962ZM128.182 96.2189C128.772 95.0978 137.239 98.7797 137.239 98.7797C133.457 99.5822 127.58 97.3577 128.188 96.2189H128.182ZM138.366 98.5201C138.366 98.5201 146.662 91.646 148.869 92.891C151.076 94.136 141.021 98.585 138.372 98.5378L138.366 98.5201Z" fill="#7E57C2"/>
<path opacity="0.1" d="M137.623 98.3962C137.623 98.3962 130.831 93.9826 128.129 95.3987C125.987 96.5139 126.512 99.3756 132.159 99.712C130.07 100.048 127.61 100.556 126.164 101.228L130.418 101.435C132.911 100.561 135.47 99.8924 138.071 99.4347C138.211 99.9053 138.245 100.401 138.172 100.886L141.039 100.432C141.039 100.432 140.13 99.6825 139.393 99.1337C142.679 98.5732 149.695 97.0096 150.191 93.8233C150.804 89.6871 140.785 93.1388 137.623 98.3962ZM128.182 96.2189C128.772 95.0978 137.239 98.7797 137.239 98.7797C133.457 99.5822 127.58 97.3577 128.188 96.2189H128.182ZM138.366 98.5201C138.366 98.5201 146.662 91.646 148.869 92.891C151.076 94.136 141.021 98.585 138.372 98.5378L138.366 98.5201Z" fill="black"/>
<path d="M151.188 117.561L158.894 114.056L162.953 117.431H176.424L174.907 122.34L162.263 120.505C162.263 120.505 155.654 123.001 154.474 122.972C153.294 122.942 151.188 117.561 151.188 117.561Z" fill="#E4897B"/>
<path d="M190.426 115.844C190.426 116.074 190.384 116.292 190.361 116.517C189.976 119.932 189.107 123.276 187.782 126.447L169.898 123.32L169.703 123.284L170.022 121.615L170.836 117.414L171.072 116.169H171.751L190.426 115.844Z" fill="#7E57C2"/>
<path d="M169.703 115.124H172.021L169.703 124.087L167.26 123.302L169.703 115.124Z" fill="#7E57C2"/>
<path opacity="0.7" d="M169.703 115.124H172.021L169.703 124.087L167.26 123.302L169.703 115.124Z" fill="white"/>
<path d="M115.56 43.0775L107.583 41.6968C106.398 41.4917 105.271 42.286 105.066 43.4708L103.685 51.4476C103.48 52.6325 104.275 53.7593 105.459 53.9644L113.436 55.3451C114.621 55.5501 115.748 54.7559 115.953 53.571L117.334 45.5942C117.539 44.4093 116.745 43.2826 115.56 43.0775Z" fill="#7E57C2"/>
<path opacity="0.6" d="M114.304 46.6903C113.684 45.1326 111.943 45.3863 110.887 46.3304C110.226 45.0913 108.663 44.2652 107.554 45.522C105.683 47.6403 108.309 50.3604 109.583 51.4638C109.725 51.5936 109.849 51.6998 109.949 51.7824L110.392 51.6054C111.967 50.9918 115.354 49.316 114.304 46.6903Z" fill="white"/>
<path d="M110.929 53.9302C110.929 53.9302 108.681 57.3348 104.875 57.8599C104.875 57.8599 107.07 57.0574 107.577 53.1926L110.929 53.9302Z" fill="#7E57C2"/>
<path d="M113.639 77.4554L115.822 71.9621C115.822 71.9621 115.627 69.8438 115.822 69.5547C116.017 69.2656 121.356 65.6663 121.356 65.6663C121.356 65.6663 122.183 67.637 122.129 68.5162C122.076 69.3954 118.483 71.5608 118.483 71.5608L116.306 76.948L113.639 77.4554Z" fill="#B97964"/>
<path d="M117.888 74.4283C117.888 74.4283 110.73 90.7254 107.774 92.1297C105.75 93.0915 98.8172 92.1297 94.6515 91.3862C92.7339 91.0558 91.4062 90.7962 91.4062 90.7962L93.9435 87.4152L95.8965 84.8131C95.8965 84.8131 102.328 87.4742 104.818 87.9404C107.308 88.4065 114.701 72.7349 114.701 72.7349L117.888 74.4283Z" fill="#7E57C2"/>
<path opacity="0.2" d="M94.6515 91.3804C92.7339 91.05 91.4062 90.7904 91.4062 90.7904L93.9435 87.4094C94.3229 87.9895 94.5812 88.6403 94.7028 89.3227C94.8245 90.005 94.8071 90.705 94.6515 91.3804Z" fill="black"/>
<path d="M94.8859 59.7186C97.8362 61.235 99.5119 63.3474 99.9544 67.4246C100.397 71.5018 98.084 72.794 99.9544 74.4284C101.825 76.0629 100.698 78.5588 99.3644 78.8833C98.0309 79.2078 100.308 80.8363 100.308 80.8363L99.3998 81.4854C99.3998 81.4854 99.6063 82.1344 97.8539 81.4854C96.1014 80.8363 96.8626 82.282 94.0953 82.6065C91.328 82.931 86.0588 83.4089 83.8462 80.8363C81.6335 78.2637 82.5363 74.3458 81.3385 72.7055C80.1407 71.0652 82.9906 62.2912 86.5132 60.3558C90.0358 58.4205 94.8859 59.7186 94.8859 59.7186Z" fill="#263238"/>
<path d="M62.2091 60.3735L64.1268 54.774C64.1268 54.774 65.655 53.2989 65.6845 52.9507C65.714 52.6026 64.0205 46.3894 64.0205 46.3894C64.0205 46.3894 62.1088 47.3571 61.5718 48.0533C61.0349 48.7496 62.3625 52.7383 62.3625 52.7383L60.5098 58.2493L62.2091 60.3735Z" fill="#B97964"/>
<path d="M77.2908 207.177H73.3906L74.5825 201.784L75.6918 196.834L80.5774 196.084L78.8368 201.961L77.2908 207.177Z" fill="#B97964"/>
<path opacity="0.2" d="M78.7952 202.079L74.5469 201.89L75.6739 196.887L80.5654 196.114L78.7952 202.079Z" fill="black"/>
<path d="M69.2127 207.177H65.3125L66.5044 201.784L67.6137 196.834L72.4993 196.084L70.7586 201.961L69.2127 207.177Z" fill="#B97964"/>
<path opacity="0.2" d="M70.7249 202.079L66.4707 201.89L67.5977 196.887L72.4892 196.114L70.7249 202.079Z" fill="black"/>
<path d="M62.1497 104.09C62.1497 104.09 61.955 104.509 61.6423 105.27C60.1731 108.899 56.149 120.358 57.6536 133.646C58.5386 141.505 67.2241 155.654 68.5163 163.36C70.021 172.329 66.0853 188.142 67.0943 199.748L73.3016 200.291L75.1721 199.111L80.4825 198.321C80.4825 198.321 94.3309 166.836 94.0536 155.949C93.8529 147.4 80.4825 116.747 80.4825 116.747L81.757 105.412" fill="#263238"/>
<path opacity="0.2" d="M76.1456 198.987L75.172 199.129L73.5789 200.138C74.5938 196.598 83.3383 165.98 83.4976 159.242C83.6687 152.085 73.4668 126.677 73.4668 126.677L76.0807 121.957L75.6913 129.138C75.6913 129.138 85.3326 148.898 86.0938 159.23C86.8373 169.161 76.954 196.757 76.1456 198.987Z" fill="black"/>
<path d="M72.2875 207.012C72.2875 206.581 77.598 206.917 77.598 206.917C77.598 206.917 80.8491 210.222 84.0059 210.965C87.1626 211.709 85.4043 213.609 81.8699 213.609H73.1372C70.6177 213.597 72.1872 211.467 72.2875 207.012Z" fill="#263238"/>
<path d="M78.1766 207.602L78.1353 207.567C78.1326 207.553 78.1326 207.539 78.1353 207.525C78.132 207.512 78.132 207.498 78.1353 207.484C78.1294 207.465 78.1294 207.444 78.1353 207.425C78.1353 207.366 78.6014 206.139 79.3154 205.844C79.4227 205.794 79.5395 205.769 79.6576 205.769C79.7758 205.769 79.8925 205.794 79.9998 205.844C80.2418 205.956 80.3539 206.109 80.348 206.286C80.348 206.563 79.9526 206.847 79.5219 207.077C79.9195 207.005 80.3295 207.05 80.702 207.207C80.7702 207.244 80.8304 207.295 80.879 207.355C80.9276 207.416 80.9637 207.486 80.9852 207.561C81.0288 207.66 81.0396 207.771 81.0163 207.877C80.993 207.983 80.9367 208.079 80.8554 208.151C80.7185 208.243 80.5542 208.287 80.3893 208.275C79.6183 208.181 78.8695 207.953 78.1766 207.602ZM78.6604 207.513C79.4393 207.838 80.4306 208.133 80.6548 207.926C80.6548 207.926 80.7433 207.856 80.6902 207.649C80.6805 207.61 80.6623 207.573 80.6368 207.541C80.6113 207.51 80.5792 207.484 80.5427 207.466C80.3475 207.375 80.1323 207.334 79.9172 207.348C79.4937 207.36 79.0726 207.415 78.6604 207.513ZM79.3921 206.103C78.9754 206.374 78.6568 206.771 78.4834 207.236C79.2682 206.941 80.0234 206.528 80.0352 206.292C80.0352 206.215 79.9231 206.15 79.8523 206.115C79.7756 206.076 79.6906 206.056 79.6045 206.056C79.531 206.055 79.4581 206.071 79.3921 206.103Z" fill="#7E57C2"/>
<path d="M73.3027 198.238L82.0649 197.046L81.3274 200.309L74.0993 201.218L73.3027 198.238Z" fill="#7E57C2"/>
<path d="M64.2148 207.012C64.2148 206.581 69.5252 206.917 69.5252 206.917C69.5252 206.917 72.7763 210.222 75.939 210.965C79.1016 211.709 77.2961 213.597 73.7558 213.597H65.0231C62.5449 213.597 64.1086 211.467 64.2148 207.012Z" fill="#263238"/>
<path d="M70.0983 207.602L70.057 207.567C70.0539 207.553 70.0539 207.539 70.057 207.525C70.057 207.525 70.057 207.525 70.057 207.484C70.0541 207.464 70.0541 207.445 70.057 207.425C70.057 207.366 70.5231 206.139 71.2371 205.844C71.3443 205.794 71.4611 205.768 71.5793 205.768C71.6975 205.768 71.8143 205.794 71.9215 205.844C72.1634 205.956 72.2815 206.109 72.2696 206.286C72.2696 206.564 71.8743 206.847 71.4436 207.077C71.8412 207.005 72.2511 207.05 72.6237 207.207C72.6936 207.242 72.7551 207.292 72.804 207.353C72.8529 207.414 72.888 207.485 72.9069 207.561C72.9523 207.66 72.9642 207.771 72.9408 207.878C72.9174 207.984 72.8599 208.08 72.7771 208.151C72.6402 208.244 72.4759 208.287 72.311 208.275C71.5399 208.181 70.7912 207.953 70.0983 207.602ZM70.5821 207.514C71.361 207.838 72.3523 208.133 72.5765 207.927C72.5765 207.927 72.665 207.856 72.6119 207.649C72.6022 207.61 72.5839 207.573 72.5585 207.541C72.533 207.51 72.5008 207.484 72.4644 207.466C72.2692 207.375 72.054 207.334 71.8389 207.348C71.4154 207.36 70.9942 207.415 70.5821 207.514ZM71.3138 206.103C70.8987 206.374 70.5821 206.771 70.411 207.236C71.1899 206.941 71.9451 206.528 71.9628 206.292C71.9628 206.215 71.8448 206.151 71.774 206.115C71.6973 206.076 71.6123 206.056 71.5262 206.056C71.4526 206.055 71.3798 206.071 71.3138 206.103Z" fill="#7E57C2"/>
<path d="M65.8145 198.238L75.1726 197.046L74.3878 200.309L66.67 201.218L65.8145 198.238Z" fill="#7E57C2"/>
<path d="M63.2837 101.541L62.3691 104.173L80.8317 109.052L81.9115 105.937L63.2837 101.541Z" fill="black"/>
<path d="M69.6055 102.5L68.6992 102.235L67.3511 106.858L68.2574 107.122L69.6055 102.5Z" fill="#263238"/>
<path d="M77.437 105.095L73.3848 104.08L72.6145 107.153L76.6667 108.169L77.437 105.095Z" fill="white"/>
<path d="M81.0176 105.112L80.1113 104.847L78.7624 109.469L79.6687 109.734L81.0176 105.112Z" fill="#263238"/>
<path d="M95.8951 84.7956C95.0926 85.8399 94.3492 86.8194 93.6647 87.7458C90.9741 91.3451 89.0564 93.9 87.5931 95.9592C85.9431 98.1754 84.5124 100.547 83.3212 103.04C82.8433 104.049 82.3712 105.152 81.8461 106.456L63.2832 101.506C64.8216 95.6622 66.6651 89.9033 68.806 84.2527C69.3194 82.931 69.7855 81.7922 70.1986 80.8127C70.6116 79.8333 70.9715 79.0426 71.2724 78.3345C71.2724 78.2991 71.2724 78.2637 71.3196 78.2224C71.7756 77.2041 72.58 76.3819 73.5881 75.9038C74.5962 75.4257 75.7418 75.3231 76.8189 75.6144C78.1524 75.9744 79.716 76.4287 81.1616 76.9184C83.8525 77.9154 86.4708 79.0984 88.9974 80.4587C91.3976 81.7372 93.7028 83.1865 95.8951 84.7956Z" fill="#7E57C2"/>
<path d="M83.9122 84.1347C80.7909 80.5944 81.0564 78.1457 81.0564 78.1457C85.1513 78.0041 86.5084 72.7173 86.5084 72.7173L90.0487 77.2429C89.4173 77.7434 88.8255 78.2918 88.2786 78.8833C85.9774 81.4264 87.0985 82.4767 87.0985 82.4767C86.6736 84.5241 83.9122 84.1347 83.9122 84.1347Z" fill="#B97964"/>
<path opacity="0.2" d="M90.0542 77.2429C89.4228 77.7434 88.831 78.2918 88.2841 78.8833C86.6555 76.6057 86.4785 72.7173 86.4785 72.7173L90.0542 77.2429Z" fill="black"/>
<path d="M93.9064 60.5446C98.6858 61.7247 99.6004 64.6396 98.7507 69.6491C97.6887 75.9095 95.2636 79.9454 89.605 77.1781C81.9285 73.4195 85.9703 58.6093 93.9064 60.5446Z" fill="#B97964"/>
<path d="M95.7299 68.6282C95.9361 69.4356 96.2413 70.2145 96.6386 70.9471C96.4508 71.111 96.2214 71.2198 95.9756 71.2615C95.7299 71.3031 95.4774 71.276 95.2461 71.1831L95.7299 68.6282Z" fill="#A24E3F"/>
<path d="M92.8982 67.5248C92.8156 67.9201 92.5324 68.1916 92.2668 68.1149C92.0013 68.0381 91.8597 67.69 91.9482 67.2947C92.0367 66.8994 92.314 66.6279 92.5796 66.7046C92.8451 66.7813 92.9867 67.1295 92.8982 67.5248Z" fill="#263238"/>
<path d="M92.4668 66.7047L93.3991 66.5513C93.3991 66.5513 92.809 67.1826 92.4668 66.7047Z" fill="#263238"/>
<path d="M97.8246 68.516C97.736 68.9114 97.4528 69.1887 97.1932 69.1061C96.9336 69.0235 96.7861 68.6812 96.8687 68.2859C96.9513 67.8906 97.2404 67.6191 97.5059 67.6959C97.7715 67.7726 97.9131 68.1207 97.8246 68.516Z" fill="#263238"/>
<path d="M97.3887 67.6961L98.3209 67.5486C98.3209 67.5486 97.7368 68.174 97.3887 67.6961Z" fill="#263238"/>
<path d="M91.4048 64.6455C91.3719 64.6455 91.3394 64.6381 91.3098 64.6238C91.2802 64.6095 91.2541 64.5886 91.2337 64.5629C91.2002 64.5172 91.1857 64.4602 91.1934 64.404C91.2011 64.3479 91.2304 64.2969 91.275 64.2619C91.6374 64.0344 92.0475 63.8937 92.4733 63.8507C92.899 63.8077 93.329 63.8637 93.7296 64.0141C93.7559 64.0242 93.78 64.0394 93.8005 64.0587C93.821 64.0781 93.8375 64.1014 93.849 64.1271C93.8605 64.1529 93.8668 64.1806 93.8676 64.2088C93.8684 64.237 93.8636 64.2651 93.8535 64.2914C93.8434 64.3178 93.8283 64.3419 93.8089 64.3624C93.7895 64.3829 93.7663 64.3993 93.7405 64.4108C93.7148 64.4223 93.687 64.4287 93.6588 64.4294C93.6306 64.4302 93.6025 64.4254 93.5762 64.4153C93.2436 64.2913 92.8873 64.2438 92.5338 64.2765C92.1804 64.3092 91.8388 64.4212 91.5346 64.6042C91.4975 64.6327 91.4516 64.6473 91.4048 64.6455Z" fill="#263238"/>
<path d="M98.9881 65.9318C98.958 65.932 98.9283 65.9257 98.9008 65.9135C98.8733 65.9013 98.8488 65.8834 98.8287 65.861C98.6352 65.6142 98.3879 65.4147 98.1057 65.2777C97.8236 65.1407 97.5139 65.0698 97.2002 65.0704C97.1723 65.0735 97.1441 65.071 97.1171 65.0632C97.0902 65.0554 97.065 65.0424 97.0431 65.0248C97.0212 65.0073 97.0029 64.9856 96.9894 64.961C96.9759 64.9365 96.9673 64.9094 96.9642 64.8816C96.9611 64.8537 96.9635 64.8254 96.9713 64.7985C96.9791 64.7715 96.9922 64.7463 97.0097 64.7244C97.0273 64.7025 97.0489 64.6843 97.0735 64.6707C97.0981 64.6572 97.1251 64.6486 97.153 64.6455C97.5332 64.6379 97.9101 64.7174 98.2548 64.8779C98.5994 65.0385 98.9028 65.2759 99.1415 65.5719C99.162 65.5912 99.1784 65.6145 99.1896 65.6404C99.2008 65.6663 99.2065 65.6942 99.2065 65.7224C99.2065 65.7506 99.2008 65.7785 99.1896 65.8043C99.1784 65.8302 99.162 65.8535 99.1415 65.8728C99.1 65.9117 99.0449 65.9329 98.9881 65.9318Z" fill="#263238"/>
<path d="M86.7374 67.3242C86.7374 67.3242 89.9237 63.9432 90.3249 60.8337C90.3249 60.8337 100.739 59.276 98.8629 68.9999C98.8629 68.9999 101.866 60.6921 93.7 58.4971C85.5337 56.3021 82.6425 68.3332 86.0294 72.9474C85.9999 72.9415 84.7431 69.4425 86.7374 67.3242Z" fill="#263238"/>
<path d="M87.258 68.522C87.3484 67.9604 87.213 67.3859 86.8814 66.9238C86.5497 66.4618 86.0488 66.1496 85.4878 66.0556C83.9655 65.8609 82.5376 68.7285 86.0248 70.357C86.5145 70.5871 86.9393 70.1446 87.258 68.522Z" fill="#B97964"/>
<path d="M101.732 71.1419C100.487 69.9618 100.681 67.9556 101.649 65.9258C102.617 63.8961 100.109 62.3856 100.109 62.3856C100.109 62.3856 99.9025 59.8248 97.9377 58.7922C97.5777 58.6034 95.9433 58.7922 95.9433 58.7922C93.7955 56.432 90.3438 54.4966 87.6295 57.5708C86.0364 59.3822 84.4492 57.5236 81.9179 61.3058C80.0887 64.0318 81.3632 66.4392 80.8322 67.3183C78.3776 71.3543 81.5698 72.4459 82.3309 73.8502C82.3309 73.8502 84.0184 73.0418 83.8768 72.5639C82.7321 68.6932 84.7383 66.1855 86.2901 66.805C87.842 67.4246 88.9571 67.2534 90.0841 65.8314C91.2111 64.4094 90.4264 62.8812 93.0344 62.5272C95.6424 62.1731 95.902 60.6803 95.902 60.6803C95.9464 61.3449 96.1694 61.9851 96.5474 62.5334C96.9255 63.0818 97.4445 63.5179 98.0498 63.7958C100.221 64.9346 99.3656 66.3094 99.0646 68.2506C98.7637 70.1919 99.7196 70.9412 101.425 72.3455C103.13 73.7499 101.325 74.7765 101.325 74.7765C101.649 74.6133 101.927 74.3717 102.135 74.0736C102.342 73.7755 102.472 73.4304 102.513 73.0695C102.553 72.7086 102.503 72.3433 102.366 72.0067C102.23 71.6701 102.012 71.3729 101.732 71.1419Z" fill="#263238"/>
<path d="M94.8858 73.3486C94.4632 73.7306 94.0688 74.1428 93.7057 74.5818L93.4461 74.4284C92.266 73.7262 91.9651 73.0123 91.9769 72.4399C91.9871 72.1577 92.0661 71.8822 92.207 71.6374C92.2808 71.4971 92.3742 71.3679 92.4843 71.2539C93.0118 72.0072 93.6962 72.6373 94.4905 73.1008C94.7265 73.2601 94.8858 73.3486 94.8858 73.3486Z" fill="#263238"/>
<path d="M94.4905 73.1008L94.1306 73.4548C93.0331 72.7939 92.3604 72.1803 92.207 71.6374C92.2808 71.4971 92.3742 71.3679 92.4844 71.2539C93.0118 72.0072 93.6963 72.6373 94.4905 73.1008Z" fill="white"/>
<path d="M93.4461 74.4284C92.266 73.7262 91.9651 73.0123 91.9769 72.4399C92.4167 72.7135 92.8043 73.0632 93.1216 73.4725C93.3283 73.7487 93.4419 74.0834 93.4461 74.4284Z" fill="#DE5753"/>
<path d="M82.7617 75.4846C82.7617 75.4846 86.1014 79.7507 90.0547 79.8333C90.0547 79.8333 88.0898 83.0195 88.7094 84.654C88.7094 84.654 86.2194 87.2207 82.8089 84.9667C79.3984 82.7127 78.8379 76.706 78.8379 76.706C78.8379 76.706 81.2866 76.588 82.7617 75.4846Z" fill="#7E57C2"/>
<path d="M75.7039 75.4847C75.7039 75.4847 68.3814 73.7145 63.248 72.918C58.1146 72.1214 64.3573 55.9954 64.3573 55.9954L61.2419 54.479C61.2419 54.479 54.0846 69.9559 57.3239 74.7884C59.0764 77.4082 70.2165 80.8364 70.2165 80.8364L75.7039 75.4847Z" fill="#7E57C2"/>
<path d="M99.3937 80.3761C99.3937 80.3761 99.789 79.3671 100.94 80.3761C102.09 81.3851 102.403 79.786 103.105 79.9276C103.807 80.0693 103.878 78.8361 105.595 78.4407C107.312 78.0454 107.536 78.0395 107.849 77.2606C108.162 76.4818 109.407 76.4818 109.407 76.4818C109.407 76.4818 108.227 75.3961 109.094 74.4225C109.961 73.4489 109.017 71.2776 109.017 71.2776C109.017 71.2776 110.652 70.7996 111.271 71.9679C111.891 73.1362 111.82 73.4489 111.82 73.4489C111.82 73.4489 112.05 71.5608 111.507 71.1772C111.507 71.1772 113.997 72.7468 112.982 74.5759C112.467 75.6058 111.576 76.3981 110.492 76.7886C110.492 76.7886 109.95 78.7003 109.094 78.8774C108.336 79.105 107.642 79.5095 107.07 80.0574C106.451 80.5236 106.527 80.5 105.359 80.7065C104.191 80.913 103.801 82.6005 103.105 82.6123C102.563 82.5357 102.013 82.5357 101.471 82.6123C100.768 82.7835 100.503 84.0403 99.3937 83.4148C98.2844 82.7894 97.7061 83.0667 97.1751 82.6123C96.644 82.158 94.1718 82.7835 94.0891 81.2257C94.0065 79.668 98.013 78.6649 99.3937 80.3761Z" fill="#263238"/>
<path opacity="0.2" d="M75.6925 80.2463C75.4919 80.5119 71.8336 85.1968 68.8066 84.2646C69.32 82.9429 69.7861 81.8041 70.1992 80.8246C70.2169 80.8364 73.94 81.8867 75.6925 80.2463Z" fill="black"/>
<path opacity="0.2" d="M79.9814 76.5703C79.9814 76.5703 81.2028 81.7686 84.4363 83.1198C87.6697 84.471 88.2775 82.8779 88.2775 82.8779C88.2775 82.8779 87.9589 87.439 84.4363 85.7337C82.7326 84.9767 81.3512 83.642 80.536 81.9653C79.7209 80.2886 79.5245 78.3778 79.9814 76.5703Z" fill="black"/>
<path opacity="0.7" d="M81.522 99.9421L78.3652 96.9506L73.5977 97.9005L76.0581 93.9236L74.0579 90.1473L78.737 90.6784L82.2713 87.3977L82.7021 91.6992L86.8855 93.4516L82.472 95.5817L81.522 99.9421Z" fill="white"/>
</svg>
